G04*
G04 #@! TF.GenerationSoftware,Altium Limited,Altium Designer,20.1.11 (218)*
G04*
G04 Layer_Color=16711935*
%FSLAX24Y24*%
%MOIN*%
G70*
G04*
G04 #@! TF.SameCoordinates,BD3A0D93-D2E9-4D9D-BC1F-92CABD7513BA*
G04*
G04*
G04 #@! TF.FilePolarity,Positive*
G04*
G01*
G75*
%ADD174C,0.0039*%
D174*
X17361Y-6677D02*
G03*
X17361Y-6677I-197J0D01*
G01*
X-14089D02*
G03*
X-14089Y-6677I-197J0D01*
G01*
X3790Y23187D02*
G03*
X3790Y23187I-197J0D01*
G01*
X9590Y660D02*
G03*
X9590Y660I-197J0D01*
G01*
X-8900Y850D02*
G03*
X-8900Y850I-197J0D01*
G01*
X13601Y-7877D02*
Y-6303D01*
X17538Y-7877D02*
Y-6303D01*
X13601Y-7877D02*
X17538D01*
X13601Y-6303D02*
X17538D01*
X-17849D02*
X-13911D01*
X-17849Y-7877D02*
X-13911D01*
Y-6303D01*
X-17849Y-7877D02*
Y-6303D01*
X3947Y22833D02*
Y30707D01*
X-3927Y22833D02*
Y30707D01*
Y22833D02*
X3947D01*
X-3927Y30707D02*
X3947D01*
X8173Y2274D02*
X9747D01*
X8173Y306D02*
X9747D01*
X8173D02*
Y2274D01*
X9747Y306D02*
Y2274D01*
X-8743Y496D02*
Y2464D01*
X-10317Y496D02*
Y2464D01*
Y496D02*
X-8743D01*
X-10317Y2464D02*
X-8743D01*
M02*
