G04*
G04 #@! TF.GenerationSoftware,Altium Limited,Altium Designer,20.1.11 (218)*
G04*
G04 Layer_Color=32896*
%FSLAX24Y24*%
%MOIN*%
G70*
G04*
G04 #@! TF.SameCoordinates,BD3A0D93-D2E9-4D9D-BC1F-92CABD7513BA*
G04*
G04*
G04 #@! TF.FilePolarity,Positive*
G04*
G01*
G75*
G36*
X-28878Y7323D02*
X-29508D01*
Y7637D01*
X-28878D01*
Y7323D01*
D02*
G37*
G36*
Y6389D02*
X-29508D01*
Y6704D01*
X-28878D01*
Y6389D01*
D02*
G37*
G36*
X18217Y6379D02*
X17903D01*
Y7009D01*
X18217D01*
Y6379D01*
D02*
G37*
G36*
X17417D02*
X17103D01*
Y7009D01*
X17417D01*
Y6379D01*
D02*
G37*
G36*
X16617D02*
X16303D01*
Y7009D01*
X16617D01*
Y6379D01*
D02*
G37*
G36*
X6717Y5869D02*
X6403D01*
Y6499D01*
X6717D01*
Y5869D01*
D02*
G37*
G36*
X5767Y5851D02*
X5453D01*
X5453Y6481D01*
X5767D01*
X5767Y5851D01*
D02*
G37*
G36*
X20799Y5793D02*
X20169D01*
Y6107D01*
X20799D01*
Y5793D01*
D02*
G37*
G36*
X-28872Y5453D02*
X-29502D01*
Y5767D01*
X-28872D01*
Y5453D01*
D02*
G37*
G36*
X-8687Y5443D02*
X-9317Y5443D01*
Y5757D01*
X-8687Y5757D01*
X-8687Y5443D01*
D02*
G37*
G36*
X-13476Y5443D02*
X-14105D01*
Y5757D01*
X-13476D01*
Y5443D01*
D02*
G37*
G36*
X-18254D02*
X-18884D01*
Y5757D01*
X-18254D01*
Y5443D01*
D02*
G37*
G36*
X-23012D02*
X-23642D01*
Y5757D01*
X-23012D01*
Y5443D01*
D02*
G37*
G36*
X22587Y5351D02*
X22273D01*
Y5981D01*
X22587D01*
Y5351D01*
D02*
G37*
G36*
X26221Y5333D02*
X25591D01*
Y5647D01*
X26221D01*
Y5333D01*
D02*
G37*
G36*
X21727Y5319D02*
X21413D01*
Y5949D01*
X21727D01*
Y5319D01*
D02*
G37*
G36*
X13846Y5243D02*
X13216D01*
Y5557D01*
X13846D01*
Y5243D01*
D02*
G37*
G36*
X26219Y4513D02*
X25589D01*
Y4827D01*
X26219D01*
Y4513D01*
D02*
G37*
G36*
X13846Y4465D02*
X13216D01*
Y4780D01*
X13846D01*
Y4465D01*
D02*
G37*
G36*
X15077Y4339D02*
X14763D01*
Y4969D01*
X15077D01*
Y4339D01*
D02*
G37*
G36*
X22947Y3841D02*
X22633D01*
Y4471D01*
X22947D01*
Y3841D01*
D02*
G37*
G36*
X25031Y3733D02*
X24401D01*
Y4047D01*
X25031D01*
Y3733D01*
D02*
G37*
G36*
X26389Y3722D02*
X25759D01*
Y4037D01*
X26389D01*
Y3722D01*
D02*
G37*
G36*
X13819Y3683D02*
X13189D01*
Y3998D01*
X13819D01*
Y3683D01*
D02*
G37*
G36*
X20688Y3259D02*
X20373D01*
Y3889D01*
X20688D01*
Y3259D01*
D02*
G37*
G36*
X13839Y2913D02*
X13209D01*
Y3227D01*
X13839D01*
Y2913D01*
D02*
G37*
G36*
X22967Y2529D02*
X22653D01*
Y3159D01*
X22967D01*
Y2529D01*
D02*
G37*
G36*
X15077Y2489D02*
X14763D01*
Y3119D01*
X15077D01*
Y2489D01*
D02*
G37*
G36*
X26657Y2359D02*
X26343D01*
Y2989D01*
X26657D01*
Y2359D01*
D02*
G37*
G36*
X24437Y2329D02*
X24123D01*
Y2959D01*
X24437D01*
Y2329D01*
D02*
G37*
G36*
X-7083Y1881D02*
X-7397D01*
X-7397Y2511D01*
X-7083D01*
Y1881D01*
D02*
G37*
G36*
X-11653Y1829D02*
X-11967D01*
X-11967Y2459D01*
X-11653Y2459D01*
X-11653Y1829D01*
D02*
G37*
G36*
X-851Y1983D02*
X-1073Y1761D01*
X-1519Y2206D01*
X-1296Y2429D01*
X-851Y1983D01*
D02*
G37*
G36*
X11457Y1721D02*
X11143D01*
Y2351D01*
X11457D01*
Y1721D01*
D02*
G37*
G36*
X6807Y1711D02*
X6493D01*
Y2341D01*
X6807D01*
Y1711D01*
D02*
G37*
G36*
X20801Y1593D02*
X20171D01*
Y1907D01*
X20801D01*
Y1593D01*
D02*
G37*
G36*
X26997Y779D02*
X26683D01*
Y1409D01*
X26997D01*
Y779D01*
D02*
G37*
G36*
X23357Y751D02*
X23043D01*
Y1381D01*
X23357D01*
Y751D01*
D02*
G37*
G36*
X24227Y729D02*
X23913D01*
Y1359D01*
X24227D01*
Y729D01*
D02*
G37*
G36*
X21651Y513D02*
X21021D01*
Y827D01*
X21651D01*
Y513D01*
D02*
G37*
G36*
X20360Y494D02*
X19730D01*
Y809D01*
X20360D01*
Y494D01*
D02*
G37*
G36*
X-7083Y461D02*
X-7397Y461D01*
Y1091D01*
X-7083Y1091D01*
Y461D01*
D02*
G37*
G36*
X-11673Y419D02*
X-11987Y419D01*
X-11987Y1049D01*
X-11673D01*
X-11673Y419D01*
D02*
G37*
G36*
X6807Y369D02*
X6493D01*
Y999D01*
X6807D01*
Y369D01*
D02*
G37*
G36*
X18177Y321D02*
X17863D01*
Y951D01*
X18177D01*
X18177Y321D01*
D02*
G37*
G36*
X11467Y319D02*
X11153D01*
Y949D01*
X11467D01*
Y319D01*
D02*
G37*
G36*
X15259Y-4847D02*
X14629D01*
Y-4533D01*
X15259D01*
Y-4847D01*
D02*
G37*
G36*
X-16090D02*
X-16719D01*
Y-4533D01*
X-16090D01*
Y-4847D01*
D02*
G37*
G36*
X19314Y-5091D02*
X16710D01*
Y-3889D01*
X19314D01*
Y-5091D01*
D02*
G37*
G36*
X-12085Y-5121D02*
X-14689D01*
Y-3919D01*
X-12085D01*
Y-5121D01*
D02*
G37*
G36*
X1719Y-6807D02*
X1089D01*
Y-6493D01*
X1719D01*
Y-6807D01*
D02*
G37*
G36*
X-1883Y-6961D02*
X-2197D01*
Y-6331D01*
X-1883D01*
Y-6961D01*
D02*
G37*
G36*
X18377Y-7379D02*
X18063D01*
Y-6749D01*
X18377D01*
Y-7379D01*
D02*
G37*
G36*
X-13123D02*
X-13437D01*
Y-6749D01*
X-13123D01*
Y-7379D01*
D02*
G37*
G36*
X-1883Y-8291D02*
X-2197D01*
Y-7661D01*
X-1883D01*
Y-8291D01*
D02*
G37*
G36*
X-2851Y-6479D02*
Y-8557D01*
X-5449D01*
Y-6479D01*
X-4930Y-5959D01*
X-3370D01*
X-2851Y-6479D01*
D02*
G37*
G36*
X14659Y-9447D02*
X14029D01*
Y-9133D01*
X14659D01*
Y-9447D01*
D02*
G37*
G36*
X-16841D02*
X-17471D01*
Y-9133D01*
X-16841D01*
Y-9447D01*
D02*
G37*
G36*
X-15231Y-10991D02*
X-17835D01*
Y-9789D01*
X-15231D01*
Y-10991D01*
D02*
G37*
G36*
X15890Y-11031D02*
X13286D01*
Y-9829D01*
X15890D01*
Y-11031D01*
D02*
G37*
G36*
X2811Y-11135D02*
X1609D01*
Y-8531D01*
X2811D01*
Y-11135D01*
D02*
G37*
G36*
X4359Y-12337D02*
X3729Y-12337D01*
Y-12023D01*
X4359D01*
X4359Y-12337D01*
D02*
G37*
G36*
X20701Y-12397D02*
X20071D01*
Y-12083D01*
X20701D01*
Y-12397D01*
D02*
G37*
G36*
X17934D02*
X17304D01*
Y-12083D01*
X17934D01*
Y-12397D01*
D02*
G37*
G36*
X-10219Y-12397D02*
X-10849D01*
Y-12083D01*
X-10219D01*
Y-12397D01*
D02*
G37*
G36*
X-13082D02*
X-13712D01*
Y-12083D01*
X-13082D01*
Y-12397D01*
D02*
G37*
G36*
X15074Y-12400D02*
X14444D01*
Y-12085D01*
X15074D01*
Y-12400D01*
D02*
G37*
G36*
X12207D02*
X11577D01*
Y-12085D01*
X12207D01*
Y-12400D01*
D02*
G37*
G36*
X-15940D02*
X-16570D01*
Y-12085D01*
X-15940D01*
Y-12400D01*
D02*
G37*
G36*
X-18803D02*
X-19433D01*
Y-12085D01*
X-18803D01*
Y-12400D01*
D02*
G37*
G36*
X1257Y-11920D02*
Y-13480D01*
X738Y-13999D01*
X-1341D01*
Y-11401D01*
X738D01*
X1257Y-11920D01*
D02*
G37*
G36*
X3107Y-14609D02*
X2793D01*
Y-13979D01*
X3107Y-13979D01*
X3107Y-14609D01*
D02*
G37*
G36*
X1269Y-16031D02*
X-1335D01*
Y-14829D01*
X1269D01*
Y-16031D01*
D02*
G37*
G36*
X-3839Y-17357D02*
X-4469D01*
Y-17043D01*
X-3839D01*
Y-17357D01*
D02*
G37*
G36*
X-8573Y-17511D02*
X-8887D01*
Y-16881D01*
X-8573D01*
Y-17511D01*
D02*
G37*
G36*
X-8563Y-18871D02*
X-8877D01*
Y-18241D01*
X-8563D01*
Y-18871D01*
D02*
G37*
G36*
X-5219Y-19064D02*
X-6421D01*
Y-16460D01*
X-5219D01*
Y-19064D01*
D02*
G37*
G36*
X-6819Y-19085D02*
X-8021D01*
Y-16481D01*
X-6819D01*
Y-19085D01*
D02*
G37*
G36*
X-5023Y-20421D02*
X-5337D01*
Y-19791D01*
X-5023D01*
Y-20421D01*
D02*
G37*
G36*
X-11176Y-20581D02*
X-13780D01*
Y-19379D01*
X-11176D01*
Y-20581D01*
D02*
G37*
G36*
X13844Y-20671D02*
X11240D01*
Y-19469D01*
X13844D01*
Y-20671D01*
D02*
G37*
G36*
X3715Y32790D02*
X3400D01*
Y33420D01*
X3715D01*
Y32790D01*
D02*
G37*
G36*
X2792D02*
X2477D01*
Y33420D01*
X2792D01*
Y32790D01*
D02*
G37*
G36*
X1829D02*
X1514D01*
Y33420D01*
X1829D01*
Y32790D01*
D02*
G37*
G36*
X866D02*
X551D01*
Y33420D01*
X866D01*
Y32790D01*
D02*
G37*
G36*
X-496D02*
X-811D01*
Y33420D01*
X-496D01*
Y32790D01*
D02*
G37*
G36*
X-1459D02*
X-1774D01*
Y33420D01*
X-1459D01*
Y32790D01*
D02*
G37*
G36*
X-2422D02*
X-2737D01*
Y33420D01*
X-2422D01*
Y32790D01*
D02*
G37*
G36*
X-3385D02*
X-3700D01*
Y33420D01*
X-3385D01*
Y32790D01*
D02*
G37*
G36*
X-4341Y32764D02*
X-4656D01*
Y33393D01*
X-4341D01*
Y32764D01*
D02*
G37*
G36*
X6669Y31053D02*
X6039D01*
Y31367D01*
X6669D01*
Y31053D01*
D02*
G37*
G36*
X-6009Y29143D02*
X-6639D01*
Y29457D01*
X-6009D01*
Y29143D01*
D02*
G37*
G36*
X6669Y29003D02*
X6039D01*
Y29317D01*
X6669D01*
Y29003D01*
D02*
G37*
G36*
X-6009Y28273D02*
X-6639D01*
Y28587D01*
X-6009D01*
Y28273D01*
D02*
G37*
G36*
X6669Y28083D02*
X6039D01*
Y28397D01*
X6669D01*
Y28083D01*
D02*
G37*
G36*
X11247Y28031D02*
X10933D01*
Y28661D01*
X11247D01*
Y28031D01*
D02*
G37*
G36*
X-5979Y26863D02*
X-6609D01*
Y27177D01*
X-5979D01*
Y26863D01*
D02*
G37*
G36*
X6669Y26403D02*
X6039D01*
Y26717D01*
X6669D01*
Y26403D01*
D02*
G37*
G36*
X14697Y26179D02*
X14383D01*
Y26809D01*
X14697D01*
Y26179D01*
D02*
G37*
G36*
X10389Y26237D02*
X10389Y25923D01*
X9759D01*
Y26237D01*
X10389Y26237D01*
D02*
G37*
G36*
X-6009Y25573D02*
X-6639D01*
Y25887D01*
X-6009D01*
Y25573D01*
D02*
G37*
G36*
X6669Y25519D02*
X6039D01*
Y25834D01*
X6669D01*
Y25519D01*
D02*
G37*
G36*
X10081Y24838D02*
X9451Y24838D01*
Y25152D01*
X10081D01*
X10081Y24838D01*
D02*
G37*
G36*
X6669Y24636D02*
X6039D01*
Y24951D01*
X6669D01*
Y24636D01*
D02*
G37*
G36*
X9791Y24067D02*
X9791Y23753D01*
X9161D01*
Y24067D01*
X9791Y24067D01*
D02*
G37*
G36*
X6669Y23753D02*
X6039D01*
Y24067D01*
X6669D01*
Y23753D01*
D02*
G37*
G36*
X-6019Y23563D02*
X-6649D01*
Y23877D01*
X-6019D01*
Y23563D01*
D02*
G37*
G36*
X12629Y23327D02*
X11999D01*
Y23642D01*
X12629D01*
Y23327D01*
D02*
G37*
G36*
X20551Y23053D02*
X19921D01*
Y23367D01*
X20551D01*
Y23053D01*
D02*
G37*
G36*
X17521Y23043D02*
X16891D01*
Y23357D01*
X17521D01*
Y23043D01*
D02*
G37*
G36*
X12629Y22490D02*
X11999D01*
Y22805D01*
X12629D01*
Y22490D01*
D02*
G37*
G36*
X9317Y22051D02*
X9003Y22051D01*
Y22681D01*
X9317D01*
Y22051D01*
D02*
G37*
G36*
X12629Y21653D02*
X11999D01*
Y21968D01*
X12629D01*
Y21653D01*
D02*
G37*
G36*
X-4513Y21139D02*
X-4827D01*
Y21769D01*
X-4513D01*
Y21139D01*
D02*
G37*
G36*
X7796Y20905D02*
X6261D01*
Y22835D01*
X7796D01*
Y20905D01*
D02*
G37*
G36*
X12617Y20809D02*
X11987D01*
Y21124D01*
X12617D01*
Y20809D01*
D02*
G37*
G36*
X2507Y20121D02*
X2193D01*
Y20751D01*
X2507D01*
Y20121D01*
D02*
G37*
G36*
X1552D02*
X1238D01*
Y20751D01*
X1552D01*
Y20121D01*
D02*
G37*
G36*
X597D02*
X283D01*
Y20751D01*
X597D01*
Y20121D01*
D02*
G37*
G36*
X-358D02*
X-672D01*
Y20751D01*
X-358D01*
Y20121D01*
D02*
G37*
G36*
X-1313D02*
X-1627D01*
Y20751D01*
X-1313D01*
Y20121D01*
D02*
G37*
G36*
X-2268D02*
X-2582D01*
Y20751D01*
X-2268D01*
Y20121D01*
D02*
G37*
G36*
X12629Y19978D02*
X11999D01*
Y20293D01*
X12629D01*
Y19978D01*
D02*
G37*
G36*
X12636Y19157D02*
X12006D01*
Y19472D01*
X12636D01*
Y19157D01*
D02*
G37*
G36*
X15637Y19029D02*
X15323D01*
Y19659D01*
X15637D01*
Y19029D01*
D02*
G37*
G36*
X16477Y19029D02*
X16163D01*
Y19659D01*
X16477Y19659D01*
X16477Y19029D01*
D02*
G37*
G36*
X12629Y18340D02*
X11999D01*
Y18655D01*
X12629D01*
Y18340D01*
D02*
G37*
G36*
X12636Y17519D02*
X12006D01*
Y17834D01*
X12636D01*
Y17519D01*
D02*
G37*
G36*
X12629Y16702D02*
X11999D01*
Y17017D01*
X12629D01*
Y16702D01*
D02*
G37*
G36*
X20799Y16323D02*
X20169D01*
Y16637D01*
X20799D01*
Y16323D01*
D02*
G37*
G36*
X12636Y15881D02*
X12006D01*
Y16196D01*
X12636D01*
Y15881D01*
D02*
G37*
G36*
X961Y15845D02*
Y15215D01*
X646Y15215D01*
X646Y15845D01*
X961Y15845D01*
D02*
G37*
G36*
X155Y15187D02*
X-160D01*
Y15817D01*
X155Y15817D01*
Y15187D01*
D02*
G37*
G36*
X-609Y15803D02*
Y15173D01*
X-924D01*
X-924Y15803D01*
X-609Y15803D01*
D02*
G37*
G36*
X12636Y15063D02*
X12006D01*
Y15377D01*
X12636D01*
Y15063D01*
D02*
G37*
G36*
X23797Y15001D02*
X23483D01*
Y15631D01*
X23797D01*
Y15001D01*
D02*
G37*
G36*
X22921Y14988D02*
X22606D01*
Y15618D01*
X22921D01*
Y14988D01*
D02*
G37*
G36*
X-13476Y14123D02*
X-14105D01*
Y14437D01*
X-13476D01*
Y14123D01*
D02*
G37*
G36*
X-18254D02*
X-18884D01*
Y14437D01*
X-18254D01*
Y14123D01*
D02*
G37*
G36*
X-23012D02*
X-23642D01*
Y14437D01*
X-23012D01*
Y14123D01*
D02*
G37*
G36*
X-8809Y14113D02*
X-9439Y14113D01*
X-9439Y14427D01*
X-8809D01*
Y14113D01*
D02*
G37*
G36*
X-8831Y13323D02*
X-9461Y13323D01*
X-9461Y13637D01*
X-8831Y13637D01*
X-8831Y13323D01*
D02*
G37*
G36*
X-13476Y13323D02*
X-14105D01*
Y13637D01*
X-13476D01*
Y13323D01*
D02*
G37*
G36*
X-18254D02*
X-18884D01*
Y13637D01*
X-18254D01*
Y13323D01*
D02*
G37*
G36*
X-23012D02*
X-23642D01*
Y13637D01*
X-23012D01*
Y13323D01*
D02*
G37*
G36*
X1099Y13696D02*
X653Y13251D01*
X431Y13473D01*
X876Y13919D01*
X1099Y13696D01*
D02*
G37*
G36*
X1659Y13136D02*
X1213Y12691D01*
X991Y12913D01*
X1436Y13359D01*
X1659Y13136D01*
D02*
G37*
G36*
X2209Y12607D02*
X1764Y12161D01*
X1541Y12384D01*
X1987Y12829D01*
X2209Y12607D01*
D02*
G37*
G36*
X10511Y11913D02*
X9881Y11913D01*
Y12227D01*
X10511D01*
Y11913D01*
D02*
G37*
G36*
X-1401Y12137D02*
X-1846Y11691D01*
X-2069Y11914D01*
X-1623Y12359D01*
X-1401Y12137D01*
D02*
G37*
G36*
X2769Y12072D02*
X2324Y11627D01*
X2101Y11849D01*
X2547Y12295D01*
X2769Y12072D01*
D02*
G37*
G36*
X4509Y11753D02*
X4287Y11531D01*
X3841Y11976D01*
X4064Y12199D01*
X4509Y11753D01*
D02*
G37*
G36*
X5459Y10793D02*
X5237Y10571D01*
X4791Y11016D01*
X5014Y11239D01*
X5459Y10793D01*
D02*
G37*
G36*
X-7706Y12369D02*
X-7706Y10810D01*
X-8226Y10290D01*
X-10305D01*
Y12888D01*
X-8226D01*
X-7706Y12369D01*
D02*
G37*
G36*
X-12494Y12369D02*
Y10810D01*
X-13014Y10290D01*
X-15093D01*
Y12888D01*
X-13014D01*
X-12494Y12369D01*
D02*
G37*
G36*
X-17273D02*
Y10810D01*
X-17792Y10290D01*
X-19871D01*
Y12888D01*
X-17792D01*
X-17273Y12369D01*
D02*
G37*
G36*
X-22031D02*
Y10810D01*
X-22550Y10290D01*
X-24629D01*
Y12888D01*
X-22550D01*
X-22031Y12369D01*
D02*
G37*
G36*
X-3431Y10204D02*
X-3654Y9981D01*
X-4099Y10427D01*
X-3877Y10649D01*
X-3431Y10204D01*
D02*
G37*
G36*
X3349Y9634D02*
X3126Y9411D01*
X2681Y9857D01*
X2903Y10079D01*
X3349Y9634D01*
D02*
G37*
G36*
X5619Y9206D02*
X5173Y8761D01*
X4951Y8983D01*
X5396Y9429D01*
X5619Y9206D01*
D02*
G37*
G36*
X-4891Y8644D02*
X-5114Y8421D01*
X-5559Y8867D01*
X-5337Y9089D01*
X-4891Y8644D01*
D02*
G37*
G36*
X6239Y8586D02*
X5793Y8141D01*
X5571Y8363D01*
X6016Y8809D01*
X6239Y8586D01*
D02*
G37*
M02*
