G04*
G04 #@! TF.GenerationSoftware,Altium Limited,Altium Designer,20.1.11 (218)*
G04*
G04 Layer_Color=8388736*
%FSLAX24Y24*%
%MOIN*%
G70*
G04*
G04 #@! TF.SameCoordinates,BD3A0D93-D2E9-4D9D-BC1F-92CABD7513BA*
G04*
G04*
G04 #@! TF.FilePolarity,Positive*
G04*
G01*
G75*
%ADD173C,0.0024*%
D173*
X-14094Y13322D02*
G03*
X-14094Y13322I-12J0D01*
G01*
Y5443D02*
G03*
X-14094Y5443I-12J0D01*
G01*
X-15199Y10290D02*
G03*
X-15199Y10290I-12J0D01*
G01*
X-14094Y14123D02*
G03*
X-14094Y14123I-12J0D01*
G01*
X27009Y779D02*
G03*
X27009Y779I-12J0D01*
G01*
X20812Y1908D02*
G03*
X20812Y1908I-12J0D01*
G01*
X20811Y6108D02*
G03*
X20811Y6108I-12J0D01*
G01*
X16314Y7009D02*
G03*
X16314Y7009I-12J0D01*
G01*
X14774Y3119D02*
G03*
X14774Y3119I-12J0D01*
G01*
X8221Y20905D02*
G03*
X8221Y20905I-12J0D01*
G01*
X13227Y4465D02*
G03*
X13227Y4465I-12J0D01*
G01*
X17914Y7009D02*
G03*
X17914Y7009I-12J0D01*
G01*
X13227Y5242D02*
G03*
X13227Y5242I-12J0D01*
G01*
X23494Y15631D02*
G03*
X23494Y15631I-12J0D01*
G01*
X17114Y7009D02*
G03*
X17114Y7009I-12J0D01*
G01*
X20699Y3259D02*
G03*
X20699Y3259I-12J0D01*
G01*
X1776Y12161D02*
G03*
X1776Y12161I-12J0D01*
G01*
X-3419Y10204D02*
G03*
X-3419Y10204I-12J0D01*
G01*
X14774Y4969D02*
G03*
X14774Y4969I-12J0D01*
G01*
X-28866Y6704D02*
G03*
X-28866Y6704I-12J0D01*
G01*
X-29490Y5452D02*
G03*
X-29490Y5452I-12J0D01*
G01*
X12641Y20293D02*
G03*
X12641Y20293I-12J0D01*
G01*
Y18655D02*
G03*
X12641Y18655I-12J0D01*
G01*
Y17017D02*
G03*
X12641Y17017I-12J0D01*
G01*
Y23642D02*
G03*
X12641Y23642I-12J0D01*
G01*
X2693Y9857D02*
G03*
X2693Y9857I-12J0D01*
G01*
X22599Y5351D02*
G03*
X22599Y5351I-12J0D01*
G01*
X12641Y21968D02*
G03*
X12641Y21968I-12J0D01*
G01*
X12017Y17519D02*
G03*
X12017Y17519I-12J0D01*
G01*
X12641Y22805D02*
G03*
X12641Y22805I-12J0D01*
G01*
X12017Y19157D02*
G03*
X12017Y19157I-12J0D01*
G01*
Y15881D02*
G03*
X12017Y15881I-12J0D01*
G01*
Y15063D02*
G03*
X12017Y15063I-12J0D01*
G01*
X21662Y828D02*
G03*
X21662Y828I-12J0D01*
G01*
X13851Y3228D02*
G03*
X13851Y3228I-12J0D01*
G01*
X15649Y19029D02*
G03*
X15649Y19029I-12J0D01*
G01*
X17874Y951D02*
G03*
X17874Y951I-12J0D01*
G01*
X6414Y6499D02*
G03*
X6414Y6499I-12J0D01*
G01*
X9892Y11912D02*
G03*
X9892Y11912I-12J0D01*
G01*
X26232Y5648D02*
G03*
X26232Y5648I-12J0D01*
G01*
X26231Y4828D02*
G03*
X26231Y4828I-12J0D01*
G01*
X-597Y15173D02*
G03*
X-597Y15173I-12J0D01*
G01*
X26669Y2359D02*
G03*
X26669Y2359I-12J0D01*
G01*
X5779Y5851D02*
G03*
X5779Y5851I-12J0D01*
G01*
X167Y15187D02*
G03*
X167Y15187I-12J0D01*
G01*
X25771Y3722D02*
G03*
X25771Y3722I-12J0D01*
G01*
X-3373Y32790D02*
G03*
X-3373Y32790I-12J0D01*
G01*
X973Y15215D02*
G03*
X973Y15215I-12J0D01*
G01*
X24134Y2959D02*
G03*
X24134Y2959I-12J0D01*
G01*
X25042Y4047D02*
G03*
X25042Y4047I-12J0D01*
G01*
X14394Y26809D02*
G03*
X14394Y26809I-12J0D01*
G01*
X10401Y26237D02*
G03*
X10401Y26237I-12J0D01*
G01*
X9802Y24067D02*
G03*
X9802Y24067I-12J0D01*
G01*
X10092Y25153D02*
G03*
X10092Y25153I-12J0D01*
G01*
X14641Y-4848D02*
G03*
X14641Y-4848I-12J0D01*
G01*
X11589Y-12400D02*
G03*
X11589Y-12400I-12J0D01*
G01*
X17946Y-12083D02*
G03*
X17946Y-12083I-12J0D01*
G01*
X-5968Y27178D02*
G03*
X-5968Y27178I-12J0D01*
G01*
X6051Y25519D02*
G03*
X6051Y25519I-12J0D01*
G01*
Y24636D02*
G03*
X6051Y24636I-12J0D01*
G01*
X14456Y-12400D02*
G03*
X14456Y-12400I-12J0D01*
G01*
X20713Y-12083D02*
G03*
X20713Y-12083I-12J0D01*
G01*
X2804Y-13979D02*
G03*
X2804Y-13979I-12J0D01*
G01*
X-16708Y-4848D02*
G03*
X-16708Y-4848I-12J0D01*
G01*
X3741Y-12337D02*
G03*
X3741Y-12337I-12J0D01*
G01*
X-19421Y-12400D02*
G03*
X-19421Y-12400I-12J0D01*
G01*
X-13071Y-12083D02*
G03*
X-13071Y-12083I-12J0D01*
G01*
X-8876Y-16881D02*
G03*
X-8876Y-16881I-12J0D01*
G01*
X-4458Y-17357D02*
G03*
X-4458Y-17357I-12J0D01*
G01*
X-16558Y-12400D02*
G03*
X-16558Y-12400I-12J0D01*
G01*
X-10207Y-12083D02*
G03*
X-10207Y-12083I-12J0D01*
G01*
X-8551Y-18871D02*
G03*
X-8551Y-18871I-12J0D01*
G01*
X-23630Y14123D02*
G03*
X-23630Y14123I-12J0D01*
G01*
Y13322D02*
G03*
X-23630Y13322I-12J0D01*
G01*
X-18872Y14123D02*
G03*
X-18872Y14123I-12J0D01*
G01*
Y13322D02*
G03*
X-18872Y13322I-12J0D01*
G01*
X-1871Y-8291D02*
G03*
X-1871Y-8291I-12J0D01*
G01*
X-9449Y13322D02*
G03*
X-9449Y13322I-12J0D01*
G01*
X-9428Y14113D02*
G03*
X-9428Y14113I-12J0D01*
G01*
X-11976Y1049D02*
G03*
X-11976Y1049I-12J0D01*
G01*
X-11956Y2459D02*
G03*
X-11956Y2459I-12J0D01*
G01*
X-1871Y-6961D02*
G03*
X-1871Y-6961I-12J0D01*
G01*
X6504Y999D02*
G03*
X6504Y999I-12J0D01*
G01*
X6504Y2341D02*
G03*
X6504Y2341I-12J0D01*
G01*
X-7386Y1091D02*
G03*
X-7386Y1091I-12J0D01*
G01*
Y2511D02*
G03*
X-7386Y2511I-12J0D01*
G01*
X11164Y949D02*
G03*
X11164Y949I-12J0D01*
G01*
X11154Y2351D02*
G03*
X11154Y2351I-12J0D01*
G01*
X22630Y15606D02*
G03*
X22630Y15606I-12J0D01*
G01*
X12617Y21112D02*
G03*
X12617Y21112I-12J0D01*
G01*
X19754Y505D02*
G03*
X19754Y505I-12J0D01*
G01*
X13819Y3986D02*
G03*
X13819Y3986I-12J0D01*
G01*
X-4633Y33382D02*
G03*
X-4633Y33382I-12J0D01*
G01*
X22979Y2529D02*
G03*
X22979Y2529I-12J0D01*
G01*
X6028Y8809D02*
G03*
X6028Y8809I-12J0D01*
G01*
X5408Y9429D02*
G03*
X5408Y9429I-12J0D01*
G01*
X1448Y13359D02*
G03*
X1448Y13359I-12J0D01*
G01*
X888Y13919D02*
G03*
X888Y13919I-12J0D01*
G01*
X-1612Y12359D02*
G03*
X-1612Y12359I-12J0D01*
G01*
X-5547Y8867D02*
G03*
X-5547Y8867I-12J0D01*
G01*
X-1507Y2206D02*
G03*
X-1507Y2206I-12J0D01*
G01*
X2559Y12295D02*
G03*
X2559Y12295I-12J0D01*
G01*
X22644Y4471D02*
G03*
X22644Y4471I-12J0D01*
G01*
X-28866Y7638D02*
G03*
X-28866Y7638I-12J0D01*
G01*
X21739Y5319D02*
G03*
X21739Y5319I-12J0D01*
G01*
X3853Y11976D02*
G03*
X3853Y11976I-12J0D01*
G01*
X16489Y19029D02*
G03*
X16489Y19029I-12J0D01*
G01*
X5471Y10793D02*
G03*
X5471Y10793I-12J0D01*
G01*
X19932Y23052D02*
G03*
X19932Y23052I-12J0D01*
G01*
X17532Y23358D02*
G03*
X17532Y23358I-12J0D01*
G01*
X20811Y16638D02*
G03*
X20811Y16638I-12J0D01*
G01*
X23924Y1359D02*
G03*
X23924Y1359I-12J0D01*
G01*
X23054Y1381D02*
G03*
X23054Y1381I-12J0D01*
G01*
X-1447Y32790D02*
G03*
X-1447Y32790I-12J0D01*
G01*
X-5998Y29457D02*
G03*
X-5998Y29457I-12J0D01*
G01*
X-4816Y21769D02*
G03*
X-4816Y21769I-12J0D01*
G01*
X1841Y32790D02*
G03*
X1841Y32790I-12J0D01*
G01*
X-2571Y20751D02*
G03*
X-2571Y20751I-12J0D01*
G01*
X1249D02*
G03*
X1249Y20751I-12J0D01*
G01*
X3727Y32790D02*
G03*
X3727Y32790I-12J0D01*
G01*
X6051Y29002D02*
G03*
X6051Y29002I-12J0D01*
G01*
Y23753D02*
G03*
X6051Y23753I-12J0D01*
G01*
X-6008Y23877D02*
G03*
X-6008Y23877I-12J0D01*
G01*
X-5998Y25887D02*
G03*
X-5998Y25887I-12J0D01*
G01*
X6051Y31052D02*
G03*
X6051Y31052I-12J0D01*
G01*
X2204Y20751D02*
G03*
X2204Y20751I-12J0D01*
G01*
X294D02*
G03*
X294Y20751I-12J0D01*
G01*
X-661D02*
G03*
X-661Y20751I-12J0D01*
G01*
X-5998Y28588D02*
G03*
X-5998Y28588I-12J0D01*
G01*
X878Y32790D02*
G03*
X878Y32790I-12J0D01*
G01*
X2804D02*
G03*
X2804Y32790I-12J0D01*
G01*
X-485D02*
G03*
X-485Y32790I-12J0D01*
G01*
X-1616Y20751D02*
G03*
X-1616Y20751I-12J0D01*
G01*
X6051Y26402D02*
G03*
X6051Y26402I-12J0D01*
G01*
Y28082D02*
G03*
X6051Y28082I-12J0D01*
G01*
X-2410Y32790D02*
G03*
X-2410Y32790I-12J0D01*
G01*
X14041Y-9448D02*
G03*
X14041Y-9448I-12J0D01*
G01*
X9329Y22051D02*
G03*
X9329Y22051I-12J0D01*
G01*
X18074Y-6749D02*
G03*
X18074Y-6749I-12J0D01*
G01*
X-5326Y-19791D02*
G03*
X-5326Y-19791I-12J0D01*
G01*
X-18872Y5443D02*
G03*
X-18872Y5443I-12J0D01*
G01*
X11259Y28031D02*
G03*
X11259Y28031I-12J0D01*
G01*
X-17459Y-9448D02*
G03*
X-17459Y-9448I-12J0D01*
G01*
X-19977Y10290D02*
G03*
X-19977Y10290I-12J0D01*
G01*
X-9306Y5443D02*
G03*
X-9306Y5443I-12J0D01*
G01*
X-13426Y-6749D02*
G03*
X-13426Y-6749I-12J0D01*
G01*
X-10411Y10290D02*
G03*
X-10411Y10290I-12J0D01*
G01*
X-23630Y5443D02*
G03*
X-23630Y5443I-12J0D01*
G01*
X-24736Y10290D02*
G03*
X-24736Y10290I-12J0D01*
G01*
X-1447Y-13999D02*
G03*
X-1447Y-13999I-12J0D01*
G01*
X-2839Y-8675D02*
G03*
X-2839Y-8675I-12J0D01*
G01*
X1731Y-6492D02*
G03*
X1731Y-6492I-12J0D01*
G01*
M02*
