G04*
G04 #@! TF.GenerationSoftware,Altium Limited,Altium Designer,20.1.11 (218)*
G04*
G04 Layer_Physical_Order=2*
G04 Layer_Color=16711680*
%FSLAX24Y24*%
%MOIN*%
G70*
G04*
G04 #@! TF.SameCoordinates,BD3A0D93-D2E9-4D9D-BC1F-92CABD7513BA*
G04*
G04*
G04 #@! TF.FilePolarity,Positive*
G04*
G01*
G75*
%ADD10C,0.0100*%
%ADD23C,0.0200*%
%ADD50R,0.1772X0.1772*%
%ADD133C,0.0300*%
%ADD141R,0.0630X0.0630*%
%ADD142C,0.0630*%
%ADD143R,0.0591X0.0591*%
%ADD144C,0.0591*%
%ADD145C,0.0295*%
%ADD146O,0.0394X0.0630*%
%ADD147R,0.0591X0.0591*%
%ADD148C,0.1496*%
%ADD149O,0.0472X0.0866*%
%ADD150P,0.0835X4X175.0*%
%ADD151P,0.0835X4X195.0*%
%ADD152P,0.0835X4X215.0*%
%ADD153P,0.0835X4X235.0*%
%ADD154P,0.0835X4X255.0*%
%ADD155P,0.0835X4X275.0*%
%ADD156C,0.0315*%
%ADD157C,0.0240*%
%ADD158R,0.8800X0.2300*%
%ADD159R,1.6707X0.2330*%
%ADD160R,0.2590X0.2630*%
%ADD161R,0.2370X0.3240*%
%ADD162R,0.2170X0.2600*%
%ADD163R,0.2420X0.2510*%
%ADD164R,0.2390X0.2660*%
%ADD165R,0.2450X0.2720*%
%ADD166R,0.2560X0.3380*%
%ADD167R,0.2530X0.3980*%
%ADD168R,0.2420X0.4010*%
%ADD169R,0.8420X0.2850*%
%ADD170R,1.5680X0.2700*%
%ADD171R,0.2430X0.5640*%
%ADD172R,0.1310X0.1470*%
G36*
X1228Y42407D02*
X2445Y42347D01*
X3659Y42247D01*
X4869Y42108D01*
X6074Y41929D01*
X7273Y41711D01*
X8463Y41454D01*
X9645Y41158D01*
X10816Y40824D01*
X11976Y40451D01*
X13123Y40041D01*
X14256Y39593D01*
X15374Y39108D01*
X16475Y38587D01*
X17558Y38031D01*
X18623Y37439D01*
X19668Y36813D01*
X20692Y36153D01*
X21694Y35459D01*
X22672Y34734D01*
X23626Y33977D01*
X24555Y33188D01*
X25458Y32370D01*
X26333Y31523D01*
X27180Y30648D01*
X27998Y29745D01*
X28787Y28816D01*
X29544Y27862D01*
X30269Y26884D01*
X30963Y25882D01*
X31623Y24858D01*
X32249Y23813D01*
X32841Y22748D01*
X33397Y21665D01*
X33918Y20564D01*
X34403Y19446D01*
X34851Y18313D01*
X35261Y17166D01*
X35634Y16006D01*
X35968Y14835D01*
X36264Y13653D01*
X36521Y12463D01*
X36739Y11264D01*
X36918Y10059D01*
X37057Y8849D01*
X37157Y7635D01*
X37217Y6418D01*
X37237Y5200D01*
X37217Y3982D01*
X37157Y2765D01*
X37057Y1551D01*
X36918Y341D01*
X36894Y178D01*
X24270D01*
X24223Y188D01*
X24154Y174D01*
X24096Y136D01*
X24058Y78D01*
X24044Y9D01*
Y-24222D01*
X-24024D01*
X-24024Y9D01*
X-24024Y9D01*
X-24038Y78D01*
X-24076Y136D01*
X-24134Y174D01*
X-24203Y188D01*
X-36875Y188D01*
X-36898Y341D01*
X-37037Y1551D01*
X-37137Y2765D01*
X-37197Y3982D01*
X-37217Y5200D01*
X-37197Y6418D01*
X-37137Y7635D01*
X-37037Y8849D01*
X-36898Y10059D01*
X-36719Y11264D01*
X-36501Y12463D01*
X-36244Y13653D01*
X-35948Y14835D01*
X-35614Y16006D01*
X-35241Y17166D01*
X-34831Y18313D01*
X-34383Y19446D01*
X-33898Y20564D01*
X-33377Y21665D01*
X-32821Y22748D01*
X-32229Y23813D01*
X-31603Y24858D01*
X-30943Y25882D01*
X-30249Y26884D01*
X-29524Y27862D01*
X-28767Y28816D01*
X-27978Y29745D01*
X-27160Y30648D01*
X-26313Y31523D01*
X-25438Y32370D01*
X-24535Y33188D01*
X-23606Y33977D01*
X-22652Y34734D01*
X-21674Y35459D01*
X-20672Y36153D01*
X-19648Y36813D01*
X-18603Y37439D01*
X-17538Y38031D01*
X-16455Y38587D01*
X-15354Y39108D01*
X-14236Y39593D01*
X-13103Y40041D01*
X-11956Y40451D01*
X-10796Y40824D01*
X-9625Y41158D01*
X-8443Y41454D01*
X-7253Y41711D01*
X-6054Y41929D01*
X-4849Y42108D01*
X-3639Y42247D01*
X-2425Y42347D01*
X-1208Y42407D01*
X10Y42427D01*
X1228Y42407D01*
D02*
G37*
%LPC*%
G36*
X-1645Y40935D02*
Y40933D01*
X-1645Y40933D01*
X-4837D01*
X-4837Y40933D01*
Y40934D01*
X-5331Y40917D01*
X-5825Y40863D01*
X-6315Y40775D01*
X-6798Y40652D01*
X-7270Y40495D01*
X-7730Y40304D01*
X-8175Y40082D01*
X-8603Y39828D01*
X-9012Y39544D01*
X-9399Y39231D01*
X-9762Y38894D01*
X-9762Y38894D01*
X-9764Y38891D01*
X-9764Y38891D01*
X-9960Y38672D01*
X-10130Y38432D01*
X-10272Y38175D01*
X-10385Y37903D01*
X-10466Y37621D01*
X-10507Y37381D01*
X-10593Y37343D01*
X-10682Y37403D01*
X-10938Y37529D01*
X-11207Y37620D01*
X-11487Y37676D01*
X-11767Y37694D01*
X-11768Y37695D01*
X-11769Y37695D01*
X-11846Y37692D01*
X-12439Y37676D01*
X-13108Y37619D01*
X-13773Y37526D01*
X-14431Y37395D01*
X-15081Y37227D01*
X-15720Y37023D01*
X-16347Y36784D01*
X-16960Y36510D01*
X-17556Y36202D01*
X-18134Y35861D01*
X-18692Y35488D01*
X-19228Y35084D01*
X-19741Y34652D01*
X-20228Y34190D01*
X-20227Y34189D01*
X-20227Y34189D01*
X-20451Y33966D01*
X-20507Y33911D01*
X-20507Y33911D01*
X-20559Y33854D01*
X-20767Y33627D01*
X-21001Y33322D01*
X-21208Y32998D01*
X-21385Y32657D01*
X-21532Y32302D01*
X-21648Y31935D01*
X-21731Y31560D01*
X-21781Y31178D01*
X-21795Y30872D01*
X-21798Y30794D01*
X-21860Y30754D01*
X-22070Y30633D01*
X-22541D01*
X-22542Y30635D01*
X-23096Y30615D01*
X-23647Y30556D01*
X-24193Y30458D01*
X-24730Y30320D01*
X-25256Y30145D01*
X-25768Y29933D01*
X-26263Y29685D01*
X-26740Y29402D01*
X-27195Y29086D01*
X-27627Y28738D01*
X-28032Y28361D01*
X-28032Y28361D01*
X-28033Y28360D01*
X-28085Y28304D01*
X-28410Y27955D01*
X-28758Y27524D01*
X-29073Y27069D01*
X-29356Y26593D01*
X-29604Y26098D01*
X-29816Y25586D01*
X-29991Y25061D01*
X-30128Y24524D01*
X-30226Y23979D01*
X-30285Y23429D01*
X-30302Y22954D01*
X-30305Y22875D01*
X-30305Y22875D01*
X-30305D01*
X-30303Y22797D01*
Y21182D01*
X-30304D01*
X-30289Y21001D01*
X-30247Y20825D01*
X-30178Y20658D01*
X-30083Y20504D01*
X-29994Y20399D01*
X-30025Y20315D01*
X-30286Y20276D01*
X-30633Y20189D01*
X-30970Y20069D01*
X-31293Y19916D01*
X-31600Y19732D01*
X-31887Y19519D01*
X-32152Y19279D01*
X-32152Y19279D01*
X-32153Y19278D01*
X-32207Y19222D01*
X-32583Y18823D01*
X-32988Y18344D01*
X-33364Y17844D01*
X-33712Y17323D01*
X-34031Y16783D01*
X-34318Y16226D01*
X-34574Y15655D01*
X-34798Y15069D01*
X-34988Y14472D01*
X-35144Y13866D01*
X-35267Y13251D01*
X-35354Y12631D01*
X-35407Y12007D01*
X-35422Y11459D01*
X-35424Y11380D01*
X-35424Y11380D01*
X-35423Y11302D01*
Y10349D01*
X-35425Y10271D01*
D01*
X-35406Y9946D01*
X-35352Y9625D01*
X-35262Y9312D01*
X-35137Y9011D01*
X-34979Y8725D01*
X-34791Y8460D01*
X-34574Y8217D01*
X-34572Y8218D01*
X-34572Y8217D01*
X-34194Y7839D01*
Y7365D01*
X-33503D01*
Y8055D01*
X-33977D01*
X-34355Y8433D01*
X-34355Y8433D01*
X-34355Y8433D01*
X-34356Y8434D01*
X-34363Y8439D01*
X-34552Y8650D01*
X-34721Y8888D01*
X-34862Y9143D01*
X-34973Y9412D01*
X-35054Y9693D01*
X-35103Y9980D01*
X-35119Y10263D01*
X-35117Y10271D01*
X-35117Y10272D01*
X-35117Y10272D01*
X-35117Y10272D01*
Y11379D01*
X-35117Y11380D01*
X-35117Y11380D01*
X-35117Y11381D01*
X-35120Y11393D01*
X-35100Y12036D01*
X-35041Y12690D01*
X-34942Y13339D01*
X-34804Y13980D01*
X-34628Y14613D01*
X-34414Y15233D01*
X-34163Y15839D01*
X-33875Y16429D01*
X-33553Y17001D01*
X-33197Y17552D01*
X-32808Y18081D01*
X-32388Y18585D01*
X-31990Y19007D01*
X-31935Y19061D01*
X-31935Y19061D01*
X-31935Y19061D01*
X-31879Y19115D01*
X-31694Y19283D01*
X-31430Y19478D01*
X-31149Y19647D01*
X-30853Y19787D01*
X-30544Y19897D01*
X-30226Y19977D01*
X-29911Y20024D01*
X-29532Y19706D01*
X-29088Y20235D01*
X-29617Y20679D01*
X-29683Y20600D01*
X-29776Y20612D01*
X-29856Y20710D01*
X-29934Y20857D01*
X-29983Y21016D01*
X-29998Y21175D01*
X-29997Y21182D01*
Y22874D01*
X-29997Y22874D01*
X-29997Y22874D01*
X-29997Y22875D01*
X-29999Y22887D01*
X-29981Y23407D01*
X-29924Y23936D01*
X-29829Y24459D01*
X-29698Y24975D01*
X-29530Y25479D01*
X-29326Y25971D01*
X-29088Y26447D01*
X-28817Y26904D01*
X-28513Y27341D01*
X-28180Y27755D01*
X-27870Y28088D01*
X-27814Y28144D01*
X-27814Y28144D01*
X-27814Y28145D01*
X-27814Y28145D01*
X-27808Y28153D01*
X-27427Y28508D01*
X-27012Y28842D01*
X-26575Y29146D01*
X-26117Y29417D01*
X-25641Y29656D01*
X-25149Y29859D01*
X-24644Y30028D01*
X-24128Y30159D01*
X-23604Y30254D01*
X-23074Y30311D01*
X-22621Y30327D01*
X-22542Y30327D01*
X-22541Y30327D01*
X-21954D01*
X-21770Y30008D01*
X-21172Y30354D01*
X-21489Y30902D01*
X-21474Y31197D01*
X-21415Y31595D01*
X-21317Y31985D01*
X-21182Y32365D01*
X-21009Y32729D01*
X-20802Y33074D01*
X-20563Y33397D01*
X-20345Y33638D01*
X-20290Y33694D01*
X-20290Y33694D01*
X-20011Y33973D01*
X-20004Y33982D01*
X-19537Y34424D01*
X-19038Y34846D01*
X-18515Y35239D01*
X-17971Y35602D01*
X-17408Y35935D01*
X-16827Y36235D01*
X-16230Y36502D01*
X-15619Y36735D01*
X-14996Y36934D01*
X-14363Y37097D01*
X-13722Y37225D01*
X-13074Y37316D01*
X-12422Y37371D01*
X-11779Y37389D01*
X-11768Y37387D01*
X-11768D01*
X-11761Y37388D01*
X-11527Y37373D01*
X-11286Y37325D01*
X-11055Y37246D01*
X-10835Y37138D01*
X-10710Y37055D01*
X-10620Y36547D01*
X-9940Y36667D01*
X-10060Y37347D01*
X-10129Y37335D01*
X-10195Y37403D01*
X-10149Y37637D01*
X-10051Y37924D01*
X-9917Y38196D01*
X-9749Y38448D01*
X-9557Y38668D01*
X-9547Y38674D01*
X-9545Y38676D01*
X-9540Y38684D01*
X-9199Y39001D01*
X-8829Y39299D01*
X-8438Y39571D01*
X-8029Y39814D01*
X-7603Y40027D01*
X-7163Y40209D01*
X-6712Y40359D01*
X-6250Y40477D01*
X-5782Y40561D01*
X-5309Y40612D01*
X-4845Y40629D01*
X-4837Y40627D01*
X-1645D01*
X-1635Y40629D01*
X-1197Y40612D01*
X-751Y40559D01*
X-310Y40471D01*
X123Y40349D01*
X545Y40193D01*
X954Y40005D01*
X1346Y39785D01*
X1720Y39536D01*
X2073Y39257D01*
X2165Y39173D01*
Y38713D01*
X2306D01*
Y35854D01*
X1806Y35354D01*
X-8410D01*
X-8488Y35338D01*
X-8554Y35294D01*
X-20424Y23424D01*
X-20468Y23358D01*
X-20484Y23280D01*
Y14230D01*
X-20468Y14152D01*
X-20424Y14086D01*
X-19214Y12876D01*
X-19148Y12832D01*
X-19070Y12816D01*
X-17364D01*
Y12580D01*
X-17348Y12542D01*
X-17310Y12526D01*
X-16000D01*
X-15962Y12542D01*
X-15946Y12580D01*
Y12816D01*
X-5170D01*
X-5092Y12832D01*
X-5026Y12876D01*
X-3386Y14516D01*
X-3342Y14582D01*
X-3326Y14660D01*
Y16862D01*
X-3318Y16900D01*
X-3326Y16938D01*
Y21856D01*
X-2636Y22546D01*
X-2592Y22612D01*
X-2576Y22690D01*
Y25230D01*
X-2592Y25308D01*
X-2636Y25374D01*
X-4922Y27660D01*
X-2456Y30126D01*
X-2412Y30192D01*
X-2396Y30270D01*
Y31556D01*
X-838D01*
X-800Y31548D01*
X-762Y31556D01*
X1026D01*
X1104Y31572D01*
X1170Y31616D01*
X1240Y31686D01*
X1363Y31562D01*
X1363Y31562D01*
X1548Y31378D01*
X1581Y31356D01*
X1620Y31348D01*
X2400D01*
X2439Y31356D01*
X2472Y31378D01*
X2685Y31591D01*
X2758Y31561D01*
Y30431D01*
X2710Y30400D01*
X2665Y30331D01*
X2648Y30250D01*
X2665Y30169D01*
X2710Y30100D01*
X2779Y30055D01*
X2860Y30038D01*
X2941Y30055D01*
X3010Y30100D01*
X3055Y30169D01*
X3072Y30250D01*
X3055Y30331D01*
X3010Y30400D01*
X2962Y30431D01*
Y31732D01*
X3020Y31770D01*
X3065Y31839D01*
X3082Y31920D01*
X3065Y32001D01*
X3020Y32070D01*
X2951Y32115D01*
X2940Y32118D01*
X2919Y32202D01*
X2925Y32207D01*
X3137D01*
X3427Y31917D01*
Y31260D01*
X3439Y31201D01*
X3472Y31152D01*
X4957Y29667D01*
Y28975D01*
X4929Y28932D01*
X3400D01*
X3361Y28924D01*
X3328Y28902D01*
X2698Y28272D01*
X2676Y28239D01*
X2668Y28200D01*
Y25370D01*
X2676Y25331D01*
X2698Y25298D01*
X3955Y24041D01*
X3988Y24018D01*
X4027Y24011D01*
X4890D01*
X4922Y23963D01*
X4990Y23917D01*
X5071Y23901D01*
X5152Y23917D01*
X5221Y23963D01*
X5267Y24032D01*
X5283Y24113D01*
X5267Y24194D01*
X5221Y24262D01*
X5152Y24308D01*
X5071Y24324D01*
X4990Y24308D01*
X4922Y24262D01*
X4890Y24215D01*
X4070D01*
X2872Y25412D01*
Y28158D01*
X3442Y28728D01*
X4929D01*
X4960Y28680D01*
X5029Y28635D01*
X5110Y28618D01*
X5191Y28635D01*
X5260Y28680D01*
X5338Y28656D01*
Y28431D01*
X5290Y28400D01*
X5245Y28331D01*
X5228Y28250D01*
X5245Y28169D01*
X5290Y28100D01*
X5328Y28075D01*
Y26648D01*
X5270Y26610D01*
X5225Y26541D01*
X5208Y26460D01*
X5224Y26383D01*
X5224Y26378D01*
X5180Y26304D01*
X4850D01*
X3370Y27784D01*
X3382Y27840D01*
X3365Y27921D01*
X3320Y27990D01*
X3251Y28035D01*
X3170Y28052D01*
X3089Y28035D01*
X3020Y27990D01*
X2975Y27921D01*
X2958Y27840D01*
X2975Y27759D01*
X3020Y27690D01*
X3089Y27645D01*
X3170Y27628D01*
X3226Y27640D01*
X4735Y26130D01*
X4768Y26108D01*
X4807Y26101D01*
X11190D01*
X11210Y26070D01*
X11279Y26025D01*
X11360Y26008D01*
X11441Y26025D01*
X11459Y26037D01*
X11509Y25975D01*
X9814Y24280D01*
X9472Y24622D01*
X9439Y24644D01*
X9400Y24652D01*
X7187D01*
X7155Y24700D01*
X7087Y24746D01*
X7006Y24762D01*
X6925Y24746D01*
X6856Y24700D01*
X6810Y24631D01*
X6794Y24550D01*
X6810Y24469D01*
X6856Y24401D01*
X6925Y24355D01*
X7006Y24339D01*
X7087Y24355D01*
X7155Y24401D01*
X7187Y24448D01*
X9357D01*
X9699Y24107D01*
X9697Y24100D01*
Y22215D01*
X9655Y22151D01*
X9638Y22070D01*
X9655Y21989D01*
X9700Y21920D01*
X9769Y21875D01*
X9850Y21858D01*
X9931Y21875D01*
X10000Y21920D01*
X10045Y21989D01*
X10062Y22070D01*
X10045Y22151D01*
X10003Y22215D01*
Y24037D01*
X12478Y26512D01*
X12511Y26561D01*
X12523Y26620D01*
Y27915D01*
X12565Y27979D01*
X12582Y28060D01*
X12565Y28141D01*
X12523Y28205D01*
Y32733D01*
X15425Y35635D01*
X15819Y35565D01*
X15862Y35805D01*
X16143Y35796D01*
X16744Y35736D01*
X17340Y35638D01*
X17928Y35501D01*
X18506Y35326D01*
X19071Y35113D01*
X19622Y34864D01*
X20154Y34579D01*
X20667Y34260D01*
X21158Y33908D01*
X21625Y33525D01*
X22009Y33165D01*
X22065Y33109D01*
X22065Y33109D01*
X25098Y30075D01*
X25105Y30071D01*
X25313Y29842D01*
X25501Y29588D01*
X25663Y29317D01*
X25798Y29032D01*
X25904Y28735D01*
X25981Y28428D01*
X26021Y28161D01*
X25722Y27644D01*
X26320Y27298D01*
X26493Y27596D01*
X26631Y27554D01*
X26778Y27476D01*
X26901Y27375D01*
X26905Y27369D01*
X26984Y27290D01*
X26984Y27290D01*
X28759Y25515D01*
X28759Y25515D01*
X29319Y24954D01*
X29374Y24900D01*
X29375Y24899D01*
X29431Y24843D01*
X29824Y24427D01*
X30244Y23930D01*
X30636Y23409D01*
X30998Y22867D01*
X31329Y22306D01*
X31628Y21728D01*
X31894Y21133D01*
X32126Y20525D01*
X32324Y19904D01*
X32487Y19273D01*
X32614Y18634D01*
X32705Y17989D01*
X32760Y17340D01*
X32776Y16768D01*
X32775Y16689D01*
X32775Y16689D01*
X32775Y16688D01*
Y16414D01*
X32442Y16134D01*
X32886Y15605D01*
X32969Y15675D01*
X33399Y15245D01*
X33453Y15190D01*
X33454Y15189D01*
X33510Y15134D01*
X33796Y14824D01*
X34106Y14431D01*
X34384Y14015D01*
X34628Y13579D01*
X34837Y13124D01*
X34902Y12949D01*
X34902Y12949D01*
X34932Y12876D01*
X35094Y12407D01*
X35246Y11860D01*
X35365Y11305D01*
X35451Y10744D01*
X35502Y10178D01*
X35519Y9622D01*
X35517Y9613D01*
Y5952D01*
X35519Y5944D01*
X35503Y5625D01*
X35455Y5303D01*
X35376Y4986D01*
X35266Y4679D01*
X35126Y4384D01*
X34959Y4104D01*
X34764Y3842D01*
X34550Y3606D01*
X34543Y3601D01*
X33997Y3055D01*
X33523D01*
Y2365D01*
X34214D01*
Y2839D01*
X34704Y3330D01*
X34761Y3384D01*
X34761Y3385D01*
X34813Y3441D01*
X35000Y3649D01*
X35213Y3935D01*
X35396Y4240D01*
X35548Y4562D01*
X35668Y4898D01*
X35755Y5243D01*
X35807Y5595D01*
X35821Y5874D01*
X35824Y5951D01*
X35824Y5952D01*
X35823Y6030D01*
Y9613D01*
X35823Y9613D01*
X35823Y9613D01*
X35824D01*
X35807Y10197D01*
X35754Y10780D01*
X35665Y11360D01*
X35542Y11933D01*
X35385Y12497D01*
X35217Y12984D01*
X35194Y13052D01*
X35191Y13059D01*
X35188Y13062D01*
X35188Y13062D01*
X35188Y13063D01*
X35160Y13130D01*
X35024Y13459D01*
X34810Y13886D01*
X34567Y14295D01*
X34295Y14687D01*
X33996Y15058D01*
X33725Y15349D01*
X33672Y15407D01*
X33615Y15461D01*
X33245Y15831D01*
X33249Y15910D01*
X33415Y16049D01*
X33081Y16447D01*
Y16688D01*
X33083Y16689D01*
X33064Y17357D01*
X33008Y18024D01*
X32915Y18685D01*
X32784Y19341D01*
X32617Y19988D01*
X32414Y20625D01*
X32176Y21250D01*
X31903Y21860D01*
X31596Y22454D01*
X31256Y23030D01*
X30885Y23586D01*
X30483Y24120D01*
X30052Y24631D01*
X29646Y25059D01*
X29592Y25116D01*
X29536Y25171D01*
X28975Y25731D01*
X28975Y25731D01*
X27200Y27506D01*
X27200Y27506D01*
X27121Y27585D01*
X27121Y27586D01*
X26984Y27703D01*
X26830Y27798D01*
X26725Y27841D01*
X26666Y27896D01*
X26666Y27896D01*
X26334Y28088D01*
X26331Y28146D01*
X26281Y28488D01*
X26197Y28823D01*
X26080Y29149D01*
X25932Y29461D01*
X25755Y29758D01*
X25549Y30035D01*
X25368Y30235D01*
X25317Y30292D01*
X25316Y30292D01*
X25316Y30292D01*
X25314D01*
X22282Y33324D01*
Y33326D01*
X22282Y33326D01*
X22281Y33327D01*
X22225Y33380D01*
X21862Y33722D01*
X21419Y34091D01*
X20955Y34432D01*
X20472Y34745D01*
X19970Y35028D01*
X19452Y35280D01*
X18920Y35500D01*
X18376Y35688D01*
X17821Y35843D01*
X17258Y35964D01*
X16688Y36050D01*
X16115Y36102D01*
X15975Y36107D01*
X15926Y36168D01*
X15939Y36245D01*
X15425Y36336D01*
X15113Y36632D01*
X14587Y37081D01*
X14039Y37502D01*
X13469Y37894D01*
X12879Y38255D01*
X12272Y38585D01*
X11647Y38883D01*
X11009Y39147D01*
X10357Y39378D01*
X9694Y39574D01*
X9021Y39736D01*
X8341Y39862D01*
X7656Y39952D01*
X6966Y40006D01*
X6275Y40025D01*
X6274Y40023D01*
X4447D01*
X4447Y40025D01*
X4126Y40006D01*
X3808Y39953D01*
X3499Y39863D01*
X3201Y39740D01*
X2919Y39584D01*
X2665Y39404D01*
X2364D01*
X2271Y39489D01*
X1899Y39782D01*
X1506Y40046D01*
X1092Y40277D01*
X662Y40475D01*
X218Y40639D01*
X-238Y40768D01*
X-703Y40860D01*
X-1173Y40916D01*
X-1645Y40935D01*
D02*
G37*
G36*
X510Y39407D02*
X420Y39395D01*
X336Y39360D01*
X264Y39305D01*
X208Y39232D01*
X174Y39148D01*
X162Y39058D01*
X174Y38968D01*
X208Y38884D01*
X264Y38812D01*
X336Y38757D01*
X420Y38722D01*
X510Y38710D01*
X600Y38722D01*
X684Y38757D01*
X756Y38812D01*
X812Y38884D01*
X846Y38968D01*
X858Y39058D01*
X846Y39148D01*
X812Y39232D01*
X756Y39305D01*
X684Y39360D01*
X600Y39395D01*
X510Y39407D01*
D02*
G37*
G36*
X-490D02*
X-580Y39395D01*
X-664Y39360D01*
X-736Y39305D01*
X-792Y39232D01*
X-826Y39148D01*
X-838Y39058D01*
X-826Y38968D01*
X-792Y38884D01*
X-736Y38812D01*
X-664Y38757D01*
X-580Y38722D01*
X-490Y38710D01*
X-400Y38722D01*
X-316Y38757D01*
X-244Y38812D01*
X-188Y38884D01*
X-154Y38968D01*
X-142Y39058D01*
X-154Y39148D01*
X-188Y39232D01*
X-244Y39305D01*
X-316Y39360D01*
X-400Y39395D01*
X-490Y39407D01*
D02*
G37*
G36*
X-1490D02*
X-1580Y39395D01*
X-1664Y39360D01*
X-1736Y39305D01*
X-1792Y39232D01*
X-1826Y39148D01*
X-1838Y39058D01*
X-1826Y38968D01*
X-1792Y38884D01*
X-1736Y38812D01*
X-1664Y38757D01*
X-1580Y38722D01*
X-1490Y38710D01*
X-1400Y38722D01*
X-1316Y38757D01*
X-1244Y38812D01*
X-1188Y38884D01*
X-1154Y38968D01*
X-1142Y39058D01*
X-1154Y39148D01*
X-1188Y39232D01*
X-1244Y39305D01*
X-1316Y39360D01*
X-1400Y39395D01*
X-1490Y39407D01*
D02*
G37*
G36*
X-2490D02*
X-2580Y39395D01*
X-2664Y39360D01*
X-2736Y39305D01*
X-2792Y39232D01*
X-2826Y39148D01*
X-2838Y39058D01*
X-2826Y38968D01*
X-2792Y38884D01*
X-2736Y38812D01*
X-2664Y38757D01*
X-2580Y38722D01*
X-2490Y38710D01*
X-2400Y38722D01*
X-2316Y38757D01*
X-2244Y38812D01*
X-2188Y38884D01*
X-2154Y38968D01*
X-2142Y39058D01*
X-2154Y39148D01*
X-2188Y39232D01*
X-2244Y39305D01*
X-2316Y39360D01*
X-2400Y39395D01*
X-2490Y39407D01*
D02*
G37*
G36*
X-6950Y39645D02*
X-7151Y39629D01*
X-7347Y39582D01*
X-7533Y39505D01*
X-7705Y39400D01*
X-7859Y39269D01*
X-7990Y39115D01*
X-8095Y38943D01*
X-8172Y38757D01*
X-8219Y38561D01*
X-8235Y38360D01*
X-8219Y38159D01*
X-8172Y37963D01*
X-8095Y37777D01*
X-7990Y37605D01*
X-7859Y37451D01*
X-7705Y37320D01*
X-7533Y37215D01*
X-7347Y37138D01*
X-7151Y37091D01*
X-6950Y37075D01*
X-6749Y37091D01*
X-6553Y37138D01*
X-6367Y37215D01*
X-6195Y37320D01*
X-6041Y37451D01*
X-5910Y37605D01*
X-5805Y37777D01*
X-5728Y37963D01*
X-5681Y38159D01*
X-5665Y38360D01*
X-5681Y38561D01*
X-5728Y38757D01*
X-5805Y38943D01*
X-5910Y39115D01*
X-6041Y39269D01*
X-6195Y39400D01*
X-6367Y39505D01*
X-6553Y39582D01*
X-6749Y39629D01*
X-6950Y39645D01*
D02*
G37*
G36*
X-12280Y36947D02*
X-12370Y36943D01*
X-12457Y36916D01*
X-12534Y36867D01*
X-12595Y36800D01*
X-12637Y36719D01*
X-12657Y36630D01*
X-12653Y36540D01*
X-12626Y36453D01*
X-12577Y36376D01*
X-12510Y36315D01*
X-12429Y36273D01*
X-12340Y36253D01*
X-12250Y36257D01*
X-12163Y36284D01*
X-12086Y36333D01*
X-12025Y36400D01*
X-11983Y36481D01*
X-11963Y36570D01*
X-11967Y36660D01*
X-11994Y36747D01*
X-12043Y36824D01*
X-12110Y36885D01*
X-12191Y36927D01*
X-12280Y36947D01*
D02*
G37*
G36*
X-13264Y36773D02*
X-13355Y36769D01*
X-13442Y36742D01*
X-13519Y36693D01*
X-13580Y36626D01*
X-13622Y36545D01*
X-13642Y36457D01*
X-13638Y36366D01*
X-13610Y36279D01*
X-13562Y36203D01*
X-13495Y36141D01*
X-13414Y36099D01*
X-13325Y36079D01*
X-13234Y36083D01*
X-13148Y36111D01*
X-13071Y36160D01*
X-13010Y36227D01*
X-12968Y36307D01*
X-12948Y36396D01*
X-12952Y36487D01*
X-12979Y36574D01*
X-13028Y36650D01*
X-13095Y36712D01*
X-13176Y36754D01*
X-13264Y36773D01*
D02*
G37*
G36*
X-14249Y36600D02*
X-14340Y36596D01*
X-14427Y36568D01*
X-14503Y36519D01*
X-14565Y36452D01*
X-14607Y36372D01*
X-14627Y36283D01*
X-14623Y36192D01*
X-14595Y36106D01*
X-14546Y36029D01*
X-14479Y35967D01*
X-14399Y35925D01*
X-14310Y35906D01*
X-14219Y35910D01*
X-14132Y35937D01*
X-14056Y35986D01*
X-13994Y36053D01*
X-13952Y36134D01*
X-13933Y36222D01*
X-13937Y36313D01*
X-13964Y36400D01*
X-14013Y36477D01*
X-14080Y36538D01*
X-14161Y36580D01*
X-14249Y36600D01*
D02*
G37*
G36*
X-15234Y36426D02*
X-15325Y36422D01*
X-15412Y36395D01*
X-15488Y36346D01*
X-15550Y36279D01*
X-15592Y36198D01*
X-15611Y36109D01*
X-15607Y36019D01*
X-15580Y35932D01*
X-15531Y35855D01*
X-15464Y35794D01*
X-15384Y35752D01*
X-15295Y35732D01*
X-15204Y35736D01*
X-15117Y35763D01*
X-15041Y35812D01*
X-14979Y35879D01*
X-14937Y35960D01*
X-14917Y36049D01*
X-14921Y36140D01*
X-14949Y36226D01*
X-14998Y36303D01*
X-15065Y36364D01*
X-15145Y36406D01*
X-15234Y36426D01*
D02*
G37*
G36*
X21864Y30618D02*
X21774Y30606D01*
X21690Y30572D01*
X21618Y30516D01*
X21562Y30444D01*
X21528Y30360D01*
X21516Y30270D01*
X21528Y30180D01*
X21562Y30096D01*
X21618Y30024D01*
X21690Y29968D01*
X21774Y29934D01*
X21864Y29922D01*
X21954Y29934D01*
X22038Y29968D01*
X22110Y30024D01*
X22166Y30096D01*
X22200Y30180D01*
X22212Y30270D01*
X22200Y30360D01*
X22166Y30444D01*
X22110Y30516D01*
X22038Y30572D01*
X21954Y30606D01*
X21864Y30618D01*
D02*
G37*
G36*
X22730Y30118D02*
X22640Y30106D01*
X22556Y30072D01*
X22484Y30016D01*
X22428Y29944D01*
X22394Y29860D01*
X22382Y29770D01*
X22394Y29680D01*
X22428Y29596D01*
X22484Y29524D01*
X22556Y29468D01*
X22640Y29434D01*
X22730Y29422D01*
X22820Y29434D01*
X22904Y29468D01*
X22976Y29524D01*
X23032Y29596D01*
X23066Y29680D01*
X23078Y29770D01*
X23066Y29860D01*
X23032Y29944D01*
X22976Y30016D01*
X22904Y30072D01*
X22820Y30106D01*
X22730Y30118D01*
D02*
G37*
G36*
X-23376Y29828D02*
X-23466Y29816D01*
X-23550Y29782D01*
X-23622Y29726D01*
X-23678Y29654D01*
X-23712Y29570D01*
X-23724Y29480D01*
X-23712Y29390D01*
X-23678Y29306D01*
X-23622Y29234D01*
X-23550Y29178D01*
X-23466Y29144D01*
X-23376Y29132D01*
X-23286Y29144D01*
X-23202Y29178D01*
X-23130Y29234D01*
X-23074Y29306D01*
X-23040Y29390D01*
X-23028Y29480D01*
X-23040Y29570D01*
X-23074Y29654D01*
X-23130Y29726D01*
X-23202Y29782D01*
X-23286Y29816D01*
X-23376Y29828D01*
D02*
G37*
G36*
X23596Y29618D02*
X23506Y29606D01*
X23422Y29572D01*
X23350Y29516D01*
X23294Y29444D01*
X23260Y29360D01*
X23248Y29270D01*
X23260Y29180D01*
X23294Y29096D01*
X23350Y29024D01*
X23422Y28968D01*
X23506Y28934D01*
X23596Y28922D01*
X23686Y28934D01*
X23770Y28968D01*
X23842Y29024D01*
X23898Y29096D01*
X23932Y29180D01*
X23944Y29270D01*
X23932Y29360D01*
X23898Y29444D01*
X23842Y29516D01*
X23770Y29572D01*
X23686Y29606D01*
X23596Y29618D01*
D02*
G37*
G36*
X-24242Y29328D02*
X-24332Y29316D01*
X-24416Y29282D01*
X-24488Y29226D01*
X-24544Y29154D01*
X-24578Y29070D01*
X-24590Y28980D01*
X-24578Y28890D01*
X-24544Y28806D01*
X-24488Y28734D01*
X-24416Y28678D01*
X-24332Y28644D01*
X-24242Y28632D01*
X-24152Y28644D01*
X-24068Y28678D01*
X-23996Y28734D01*
X-23940Y28806D01*
X-23906Y28890D01*
X-23894Y28980D01*
X-23906Y29070D01*
X-23940Y29154D01*
X-23996Y29226D01*
X-24068Y29282D01*
X-24152Y29316D01*
X-24242Y29328D01*
D02*
G37*
G36*
X24462Y29118D02*
X24372Y29106D01*
X24288Y29072D01*
X24216Y29016D01*
X24160Y28944D01*
X24126Y28860D01*
X24114Y28770D01*
X24126Y28680D01*
X24160Y28596D01*
X24216Y28524D01*
X24288Y28468D01*
X24372Y28434D01*
X24462Y28422D01*
X24552Y28434D01*
X24636Y28468D01*
X24708Y28524D01*
X24764Y28596D01*
X24798Y28680D01*
X24810Y28770D01*
X24798Y28860D01*
X24764Y28944D01*
X24708Y29016D01*
X24636Y29072D01*
X24552Y29106D01*
X24462Y29118D01*
D02*
G37*
G36*
X-25108Y28828D02*
X-25198Y28816D01*
X-25282Y28782D01*
X-25354Y28726D01*
X-25410Y28654D01*
X-25444Y28570D01*
X-25456Y28480D01*
X-25444Y28390D01*
X-25410Y28306D01*
X-25354Y28234D01*
X-25282Y28178D01*
X-25198Y28144D01*
X-25108Y28132D01*
X-25018Y28144D01*
X-24934Y28178D01*
X-24862Y28234D01*
X-24806Y28306D01*
X-24772Y28390D01*
X-24760Y28480D01*
X-24772Y28570D01*
X-24806Y28654D01*
X-24862Y28726D01*
X-24934Y28782D01*
X-25018Y28816D01*
X-25108Y28828D01*
D02*
G37*
G36*
X-25974Y28328D02*
X-26064Y28316D01*
X-26148Y28282D01*
X-26220Y28226D01*
X-26276Y28154D01*
X-26310Y28070D01*
X-26322Y27980D01*
X-26310Y27890D01*
X-26276Y27806D01*
X-26220Y27734D01*
X-26148Y27678D01*
X-26064Y27644D01*
X-25974Y27632D01*
X-25884Y27644D01*
X-25800Y27678D01*
X-25728Y27734D01*
X-25673Y27806D01*
X-25638Y27890D01*
X-25626Y27980D01*
X-25638Y28070D01*
X-25673Y28154D01*
X-25728Y28226D01*
X-25800Y28282D01*
X-25884Y28316D01*
X-25974Y28328D01*
D02*
G37*
G36*
X3356Y26482D02*
X3275Y26465D01*
X3206Y26420D01*
X3161Y26351D01*
X3145Y26270D01*
X3161Y26189D01*
X3206Y26120D01*
X3275Y26075D01*
X3356Y26058D01*
X3426Y26072D01*
X4610Y24888D01*
X4643Y24866D01*
X4682Y24858D01*
X8519D01*
X8550Y24810D01*
X8619Y24765D01*
X8700Y24748D01*
X8781Y24765D01*
X8850Y24810D01*
X8895Y24879D01*
X8912Y24960D01*
X8895Y25041D01*
X8850Y25110D01*
X8781Y25155D01*
X8700Y25172D01*
X8619Y25155D01*
X8550Y25110D01*
X8519Y25062D01*
X4724D01*
X3559Y26227D01*
X3568Y26270D01*
X3552Y26351D01*
X3506Y26420D01*
X3437Y26465D01*
X3356Y26482D01*
D02*
G37*
G36*
X460Y24032D02*
X379Y24015D01*
X310Y23970D01*
X265Y23901D01*
X248Y23820D01*
X265Y23739D01*
X310Y23670D01*
X358Y23639D01*
Y23338D01*
X366Y23299D01*
X388Y23266D01*
X1178Y22476D01*
Y5858D01*
X1142Y5822D01*
X1129Y5803D01*
X1092Y5795D01*
X1023Y5750D01*
X977Y5681D01*
X961Y5600D01*
X977Y5519D01*
X1023Y5450D01*
X1092Y5405D01*
X1173Y5388D01*
X1249Y5404D01*
X1255Y5404D01*
X1328Y5360D01*
Y5311D01*
X1334Y5280D01*
X1316Y5252D01*
X1300Y5171D01*
X1316Y5090D01*
X1362Y5022D01*
X1430Y4976D01*
X1511Y4960D01*
X1592Y4976D01*
X1661Y5022D01*
X1707Y5090D01*
X1723Y5171D01*
X1707Y5252D01*
X1661Y5321D01*
X1592Y5367D01*
X1532Y5379D01*
Y22580D01*
X1524Y22619D01*
X1502Y22652D01*
X832Y23322D01*
Y23508D01*
X894Y23570D01*
X950Y23558D01*
X1031Y23575D01*
X1100Y23620D01*
X1145Y23689D01*
X1162Y23770D01*
X1145Y23851D01*
X1100Y23920D01*
X1031Y23965D01*
X950Y23982D01*
X869Y23965D01*
X800Y23920D01*
X755Y23851D01*
X747Y23813D01*
X672Y23820D01*
X655Y23901D01*
X610Y23970D01*
X541Y24015D01*
X460Y24032D01*
D02*
G37*
G36*
X-260Y24002D02*
X-341Y23985D01*
X-410Y23940D01*
X-455Y23871D01*
X-472Y23790D01*
X-455Y23709D01*
X-410Y23640D01*
X-362Y23609D01*
Y23515D01*
X-377Y23502D01*
X-480Y23515D01*
X-549Y23560D01*
X-630Y23577D01*
X-711Y23560D01*
X-780Y23515D01*
X-825Y23446D01*
X-842Y23365D01*
X-825Y23284D01*
X-780Y23215D01*
X-732Y23184D01*
Y23100D01*
X-872Y22960D01*
X-945Y22990D01*
Y23582D01*
X-897Y23614D01*
X-851Y23682D01*
X-835Y23763D01*
X-851Y23844D01*
X-897Y23913D01*
X-966Y23959D01*
X-1047Y23975D01*
X-1128Y23959D01*
X-1196Y23913D01*
X-1242Y23844D01*
X-1258Y23763D01*
X-1242Y23682D01*
X-1196Y23614D01*
X-1149Y23582D01*
Y22896D01*
X-2912Y21132D01*
X-2934Y21099D01*
X-2942Y21060D01*
Y7624D01*
X-3127Y7439D01*
X-3149Y7406D01*
X-3157Y7367D01*
Y7125D01*
X-3210Y7090D01*
X-3255Y7021D01*
X-3272Y6940D01*
X-3255Y6859D01*
X-3210Y6790D01*
X-3141Y6745D01*
X-3060Y6728D01*
X-2979Y6745D01*
X-2910Y6790D01*
X-2865Y6859D01*
X-2848Y6940D01*
X-2800Y6974D01*
X-2749Y6925D01*
X-2733Y6844D01*
X-2687Y6775D01*
X-2619Y6730D01*
X-2538Y6713D01*
X-2457Y6730D01*
X-2388Y6775D01*
X-2342Y6844D01*
X-2326Y6925D01*
X-2331Y6948D01*
X-2280Y7018D01*
X-2271Y7020D01*
X-2199Y7035D01*
X-2130Y7080D01*
X-2085Y7149D01*
X-2068Y7230D01*
X-2085Y7311D01*
X-2130Y7380D01*
X-2199Y7425D01*
X-2280Y7442D01*
X-2288Y7517D01*
Y20808D01*
X61Y23157D01*
X82Y23189D01*
X111Y23195D01*
X180Y23240D01*
X225Y23309D01*
X242Y23390D01*
X225Y23471D01*
X180Y23540D01*
X111Y23585D01*
X30Y23602D01*
X-9Y23594D01*
X-87Y23642D01*
X-93Y23651D01*
X-95Y23664D01*
X-65Y23709D01*
X-48Y23790D01*
X-65Y23871D01*
X-110Y23940D01*
X-179Y23985D01*
X-260Y24002D01*
D02*
G37*
G36*
X28254Y24984D02*
X28053Y24968D01*
X27857Y24921D01*
X27671Y24844D01*
X27499Y24739D01*
X27345Y24608D01*
X27214Y24454D01*
X27109Y24282D01*
X27032Y24096D01*
X26985Y23900D01*
X26969Y23699D01*
X26985Y23498D01*
X27032Y23302D01*
X27109Y23115D01*
X27214Y22944D01*
X27345Y22790D01*
X27499Y22659D01*
X27671Y22554D01*
X27857Y22477D01*
X28053Y22430D01*
X28254Y22414D01*
X28455Y22430D01*
X28651Y22477D01*
X28837Y22554D01*
X29009Y22659D01*
X29163Y22790D01*
X29294Y22944D01*
X29399Y23115D01*
X29476Y23302D01*
X29523Y23498D01*
X29539Y23699D01*
X29523Y23900D01*
X29476Y24096D01*
X29399Y24282D01*
X29294Y24454D01*
X29163Y24608D01*
X29009Y24739D01*
X28837Y24844D01*
X28651Y24921D01*
X28455Y24968D01*
X28254Y24984D01*
D02*
G37*
G36*
X-28234D02*
X-28435Y24968D01*
X-28631Y24921D01*
X-28817Y24844D01*
X-28989Y24739D01*
X-29143Y24608D01*
X-29274Y24454D01*
X-29379Y24282D01*
X-29456Y24096D01*
X-29503Y23900D01*
X-29519Y23699D01*
X-29503Y23498D01*
X-29456Y23302D01*
X-29379Y23115D01*
X-29274Y22944D01*
X-29143Y22790D01*
X-28989Y22659D01*
X-28817Y22554D01*
X-28631Y22477D01*
X-28435Y22430D01*
X-28234Y22414D01*
X-28033Y22430D01*
X-27837Y22477D01*
X-27651Y22554D01*
X-27479Y22659D01*
X-27325Y22790D01*
X-27194Y22944D01*
X-27089Y23115D01*
X-27012Y23302D01*
X-26965Y23498D01*
X-26949Y23699D01*
X-26965Y23900D01*
X-27012Y24096D01*
X-27089Y24282D01*
X-27194Y24454D01*
X-27325Y24608D01*
X-27479Y24739D01*
X-27651Y24844D01*
X-27837Y24921D01*
X-28033Y24968D01*
X-28234Y24984D01*
D02*
G37*
G36*
X21040Y23750D02*
X16330Y23750D01*
X15560Y22980D01*
X15560Y21140D01*
X16190Y20510D01*
X21350Y20510D01*
X21900Y21060D01*
Y22890D01*
X21040Y23750D01*
D02*
G37*
G36*
X23180Y20336D02*
X23103Y20321D01*
X23038Y20277D01*
X22994Y20212D01*
X22978Y20135D01*
X22994Y20058D01*
X23038Y19992D01*
X23103Y19949D01*
X23180Y19933D01*
X23257Y19949D01*
X23322Y19992D01*
X23366Y20058D01*
X23382Y20135D01*
X23366Y20212D01*
X23322Y20277D01*
X23257Y20321D01*
X23180Y20336D01*
D02*
G37*
G36*
X29745Y20269D02*
X29654Y20265D01*
X29567Y20238D01*
X29491Y20189D01*
X29429Y20122D01*
X29387Y20041D01*
X29368Y19952D01*
X29371Y19862D01*
X29399Y19775D01*
X29448Y19698D01*
X29515Y19637D01*
X29595Y19595D01*
X29684Y19575D01*
X29775Y19579D01*
X29862Y19606D01*
X29938Y19655D01*
X30000Y19722D01*
X30042Y19803D01*
X30061Y19892D01*
X30057Y19983D01*
X30030Y20069D01*
X29981Y20146D01*
X29914Y20207D01*
X29834Y20249D01*
X29745Y20269D01*
D02*
G37*
G36*
X21810Y19262D02*
X21729Y19245D01*
X21660Y19200D01*
X21619Y19137D01*
X21101D01*
X21080Y19170D01*
X21011Y19215D01*
X20930Y19232D01*
X20849Y19215D01*
X20780Y19170D01*
X20735Y19101D01*
X20718Y19020D01*
X20735Y18939D01*
X20780Y18870D01*
X20849Y18825D01*
X20930Y18808D01*
X21011Y18825D01*
X21080Y18870D01*
X21121Y18933D01*
X21639D01*
X21660Y18900D01*
X21729Y18855D01*
X21810Y18838D01*
X21891Y18855D01*
X21960Y18900D01*
X21991Y18948D01*
X23948D01*
X24200Y18696D01*
X24188Y18640D01*
X24205Y18559D01*
X24250Y18490D01*
X24319Y18445D01*
X24400Y18428D01*
X24481Y18445D01*
X24550Y18490D01*
X24595Y18559D01*
X24612Y18640D01*
X24595Y18721D01*
X24550Y18790D01*
X24481Y18835D01*
X24400Y18852D01*
X24344Y18840D01*
X24062Y19122D01*
X24029Y19144D01*
X23990Y19152D01*
X21991D01*
X21960Y19200D01*
X21891Y19245D01*
X21810Y19262D01*
D02*
G37*
G36*
X1980Y27322D02*
X1899Y27305D01*
X1830Y27260D01*
X1785Y27191D01*
X1768Y27110D01*
X1785Y27029D01*
X1830Y26960D01*
X1878Y26929D01*
Y24490D01*
X1886Y24451D01*
X1908Y24418D01*
X4927Y21398D01*
X4889Y21326D01*
X4860Y21332D01*
X4779Y21315D01*
X4710Y21270D01*
X4679Y21222D01*
X2168D01*
X2135Y21301D01*
X2481Y21647D01*
X2550Y21633D01*
X2631Y21650D01*
X2700Y21695D01*
X2745Y21764D01*
X2762Y21845D01*
X2745Y21926D01*
X2700Y21995D01*
X2631Y22040D01*
X2550Y22057D01*
X2469Y22040D01*
X2400Y21995D01*
X2355Y21926D01*
X2338Y21845D01*
X2347Y21801D01*
X1953Y21407D01*
X1880Y21422D01*
X1799Y21405D01*
X1730Y21360D01*
X1685Y21291D01*
X1668Y21210D01*
X1685Y21129D01*
X1730Y21060D01*
X1799Y21015D01*
X1880Y20998D01*
X1961Y21015D01*
X1983Y21030D01*
X1989Y21026D01*
X2028Y21018D01*
X4679D01*
X4710Y20970D01*
X4779Y20925D01*
X4860Y20908D01*
X4941Y20925D01*
X5010Y20970D01*
X5055Y21039D01*
X5072Y21120D01*
X5066Y21149D01*
X5138Y21187D01*
X8728Y17598D01*
X8761Y17576D01*
X8800Y17568D01*
X11199D01*
X11230Y17520D01*
X11299Y17475D01*
X11380Y17458D01*
X11461Y17475D01*
X11530Y17520D01*
X11575Y17589D01*
X11592Y17670D01*
X11575Y17751D01*
X11530Y17820D01*
X11461Y17865D01*
X11380Y17882D01*
X11299Y17865D01*
X11230Y17820D01*
X11199Y17772D01*
X8842D01*
X2082Y24532D01*
Y26601D01*
X2161Y26608D01*
X2165Y26589D01*
X2210Y26520D01*
X2258Y26489D01*
Y24910D01*
X2266Y24871D01*
X2288Y24838D01*
X3888Y23238D01*
X3921Y23216D01*
X3960Y23208D01*
X9019D01*
X9050Y23160D01*
X9098Y23129D01*
Y19830D01*
X9106Y19791D01*
X9128Y19758D01*
X9758Y19128D01*
X9791Y19106D01*
X9830Y19098D01*
X11089D01*
X11120Y19050D01*
X11189Y19005D01*
X11270Y18988D01*
X11351Y19005D01*
X11420Y19050D01*
X11465Y19119D01*
X11482Y19200D01*
X11465Y19281D01*
X11420Y19350D01*
X11351Y19395D01*
X11270Y19412D01*
X11189Y19395D01*
X11120Y19350D01*
X11089Y19302D01*
X9872D01*
X9302Y19872D01*
Y23129D01*
X9350Y23160D01*
X9395Y23229D01*
X9412Y23310D01*
X9395Y23391D01*
X9350Y23460D01*
X9281Y23505D01*
X9200Y23522D01*
X9119Y23505D01*
X9050Y23460D01*
X9019Y23412D01*
X4002D01*
X2462Y24952D01*
Y26489D01*
X2510Y26520D01*
X2555Y26589D01*
X2572Y26670D01*
X2555Y26751D01*
X2510Y26820D01*
X2441Y26865D01*
X2360Y26882D01*
X2279Y26865D01*
X2210Y26820D01*
X2165Y26751D01*
X2161Y26732D01*
X2082Y26739D01*
Y26929D01*
X2130Y26960D01*
X2175Y27029D01*
X2192Y27110D01*
X2175Y27191D01*
X2130Y27260D01*
X2061Y27305D01*
X1980Y27322D01*
D02*
G37*
G36*
X30388Y19503D02*
X30297Y19499D01*
X30210Y19472D01*
X30133Y19423D01*
X30072Y19356D01*
X30030Y19275D01*
X30010Y19186D01*
X30014Y19096D01*
X30042Y19009D01*
X30090Y18932D01*
X30157Y18871D01*
X30238Y18829D01*
X30327Y18809D01*
X30418Y18813D01*
X30504Y18840D01*
X30581Y18889D01*
X30642Y18956D01*
X30684Y19037D01*
X30704Y19126D01*
X30700Y19217D01*
X30673Y19303D01*
X30624Y19380D01*
X30557Y19441D01*
X30476Y19483D01*
X30388Y19503D01*
D02*
G37*
G36*
X16690Y18852D02*
X16609Y18835D01*
X16540Y18790D01*
X16495Y18721D01*
X16478Y18640D01*
X16490Y18584D01*
X16218Y18312D01*
X16196Y18279D01*
X16188Y18240D01*
Y15675D01*
X15945D01*
Y14985D01*
X16635D01*
Y15675D01*
X16392D01*
Y18198D01*
X16634Y18440D01*
X16690Y18428D01*
X16771Y18445D01*
X16840Y18490D01*
X16885Y18559D01*
X16902Y18640D01*
X16885Y18721D01*
X16840Y18790D01*
X16771Y18835D01*
X16690Y18852D01*
D02*
G37*
G36*
X-30890Y19007D02*
X-30979Y18987D01*
X-31060Y18945D01*
X-31127Y18884D01*
X-31176Y18807D01*
X-31203Y18720D01*
X-31207Y18630D01*
X-31187Y18541D01*
X-31145Y18460D01*
X-31084Y18393D01*
X-31007Y18344D01*
X-30920Y18317D01*
X-30830Y18313D01*
X-30741Y18333D01*
X-30660Y18375D01*
X-30593Y18436D01*
X-30544Y18513D01*
X-30517Y18600D01*
X-30513Y18690D01*
X-30533Y18779D01*
X-30575Y18860D01*
X-30636Y18927D01*
X-30713Y18976D01*
X-30800Y19003D01*
X-30890Y19007D01*
D02*
G37*
G36*
X31030Y18737D02*
X30940Y18733D01*
X30853Y18706D01*
X30776Y18657D01*
X30715Y18590D01*
X30673Y18509D01*
X30653Y18420D01*
X30657Y18330D01*
X30684Y18243D01*
X30733Y18166D01*
X30800Y18105D01*
X30881Y18063D01*
X30970Y18043D01*
X31060Y18047D01*
X31147Y18074D01*
X31224Y18123D01*
X31285Y18190D01*
X31327Y18271D01*
X31347Y18360D01*
X31343Y18450D01*
X31316Y18537D01*
X31267Y18614D01*
X31200Y18675D01*
X31119Y18717D01*
X31030Y18737D01*
D02*
G37*
G36*
X-31533Y18241D02*
X-31622Y18221D01*
X-31703Y18179D01*
X-31770Y18118D01*
X-31818Y18041D01*
X-31846Y17954D01*
X-31850Y17864D01*
X-31830Y17775D01*
X-31788Y17694D01*
X-31727Y17627D01*
X-31650Y17578D01*
X-31563Y17551D01*
X-31472Y17547D01*
X-31384Y17567D01*
X-31303Y17609D01*
X-31236Y17670D01*
X-31187Y17747D01*
X-31160Y17833D01*
X-31156Y17924D01*
X-31176Y18013D01*
X-31218Y18094D01*
X-31279Y18161D01*
X-31356Y18210D01*
X-31442Y18237D01*
X-31533Y18241D01*
D02*
G37*
G36*
X31673Y17971D02*
X31582Y17967D01*
X31496Y17940D01*
X31419Y17891D01*
X31358Y17824D01*
X31316Y17743D01*
X31296Y17654D01*
X31300Y17563D01*
X31327Y17477D01*
X31376Y17400D01*
X31443Y17339D01*
X31524Y17297D01*
X31612Y17277D01*
X31703Y17281D01*
X31790Y17308D01*
X31867Y17357D01*
X31928Y17424D01*
X31970Y17505D01*
X31990Y17594D01*
X31986Y17684D01*
X31958Y17771D01*
X31910Y17848D01*
X31843Y17909D01*
X31762Y17951D01*
X31673Y17971D01*
D02*
G37*
G36*
X11700Y25392D02*
X11619Y25375D01*
X11550Y25330D01*
X11505Y25261D01*
X11490Y25186D01*
X10432Y24128D01*
X10369Y24115D01*
X10300Y24070D01*
X10255Y24001D01*
X10238Y23920D01*
X10255Y23839D01*
X10300Y23770D01*
X10369Y23725D01*
X10450Y23708D01*
X10531Y23725D01*
X10595Y23767D01*
X11917D01*
X12737Y22947D01*
Y17633D01*
X12127Y17023D01*
X7973D01*
X6088Y18908D01*
X6039Y18941D01*
X5980Y18953D01*
X3865D01*
X3801Y18995D01*
X3720Y19012D01*
X3639Y18995D01*
X3570Y18950D01*
X3525Y18881D01*
X3508Y18800D01*
X3525Y18719D01*
X3570Y18650D01*
X3639Y18605D01*
X3720Y18588D01*
X3801Y18605D01*
X3865Y18647D01*
X5917D01*
X7802Y16762D01*
X7851Y16729D01*
X7910Y16717D01*
X12190D01*
X12249Y16729D01*
X12298Y16762D01*
X12998Y17462D01*
X13031Y17511D01*
X13043Y17570D01*
Y23010D01*
X13031Y23069D01*
X12998Y23118D01*
X12088Y24028D01*
X12039Y24061D01*
X11980Y24073D01*
X10912D01*
X10882Y24146D01*
X11706Y24970D01*
X11781Y24985D01*
X11850Y25030D01*
X11895Y25099D01*
X11912Y25180D01*
X11895Y25261D01*
X11850Y25330D01*
X11781Y25375D01*
X11700Y25392D01*
D02*
G37*
G36*
X-21236Y17240D02*
X-21317Y17224D01*
X-21386Y17178D01*
X-21432Y17110D01*
X-21448Y17029D01*
X-21432Y16948D01*
X-21386Y16879D01*
X-21317Y16833D01*
X-21236Y16817D01*
X-21155Y16833D01*
X-21087Y16879D01*
X-21041Y16948D01*
X-21025Y17029D01*
X-21041Y17110D01*
X-21087Y17178D01*
X-21155Y17224D01*
X-21236Y17240D01*
D02*
G37*
G36*
X23180Y17187D02*
X23103Y17171D01*
X23038Y17128D01*
X22994Y17062D01*
X22978Y16985D01*
X22994Y16908D01*
X23038Y16843D01*
X23103Y16799D01*
X23180Y16784D01*
X23257Y16799D01*
X23322Y16843D01*
X23366Y16908D01*
X23382Y16985D01*
X23366Y17062D01*
X23322Y17128D01*
X23257Y17171D01*
X23180Y17187D01*
D02*
G37*
G36*
X-32176Y17475D02*
X-32265Y17455D01*
X-32345Y17413D01*
X-32412Y17352D01*
X-32461Y17275D01*
X-32489Y17188D01*
X-32493Y17098D01*
X-32473Y17009D01*
X-32431Y16928D01*
X-32369Y16861D01*
X-32293Y16812D01*
X-32206Y16785D01*
X-32115Y16781D01*
X-32026Y16801D01*
X-31946Y16843D01*
X-31879Y16904D01*
X-31830Y16981D01*
X-31803Y17067D01*
X-31799Y17158D01*
X-31818Y17247D01*
X-31860Y17328D01*
X-31922Y17395D01*
X-31998Y17444D01*
X-32085Y17471D01*
X-32176Y17475D01*
D02*
G37*
G36*
X-140Y21602D02*
X-221Y21585D01*
X-290Y21540D01*
X-335Y21471D01*
X-352Y21390D01*
X-344Y21352D01*
Y18634D01*
X-1907Y17071D01*
X-1940Y17050D01*
X-1985Y16981D01*
X-2002Y16900D01*
X-1985Y16819D01*
X-1940Y16750D01*
X-1871Y16705D01*
X-1790Y16688D01*
X-1709Y16705D01*
X-1640Y16750D01*
X-1619Y16783D01*
X4Y18406D01*
X48Y18472D01*
X64Y18550D01*
Y21352D01*
X72Y21390D01*
X55Y21471D01*
X10Y21540D01*
X-59Y21585D01*
X-140Y21602D01*
D02*
G37*
G36*
X-32819Y16709D02*
X-32907Y16689D01*
X-32988Y16647D01*
X-33055Y16586D01*
X-33104Y16509D01*
X-33131Y16422D01*
X-33135Y16332D01*
X-33116Y16243D01*
X-33074Y16162D01*
X-33012Y16095D01*
X-32936Y16046D01*
X-32849Y16019D01*
X-32758Y16015D01*
X-32669Y16035D01*
X-32589Y16077D01*
X-32522Y16138D01*
X-32473Y16215D01*
X-32445Y16301D01*
X-32441Y16392D01*
X-32461Y16481D01*
X-32503Y16562D01*
X-32565Y16629D01*
X-32641Y16677D01*
X-32728Y16705D01*
X-32819Y16709D01*
D02*
G37*
G36*
X15320Y17142D02*
X15239Y17125D01*
X15170Y17080D01*
X15125Y17011D01*
X15108Y16930D01*
X15125Y16849D01*
X15170Y16780D01*
X15198Y16762D01*
Y15471D01*
X15150Y15440D01*
X15105Y15371D01*
X15088Y15290D01*
X15105Y15209D01*
X15150Y15140D01*
X15219Y15095D01*
X15300Y15078D01*
X15381Y15095D01*
X15450Y15140D01*
X15495Y15209D01*
X15512Y15290D01*
X15495Y15371D01*
X15450Y15440D01*
X15402Y15471D01*
Y16735D01*
X15470Y16780D01*
X15515Y16849D01*
X15532Y16930D01*
X15515Y17011D01*
X15470Y17080D01*
X15401Y17125D01*
X15320Y17142D01*
D02*
G37*
G36*
X21290Y15678D02*
X21200Y15666D01*
X21116Y15632D01*
X21044Y15576D01*
X20988Y15504D01*
X20954Y15420D01*
X20942Y15330D01*
X20954Y15240D01*
X20988Y15156D01*
X21044Y15084D01*
X21116Y15028D01*
X21200Y14994D01*
X21290Y14982D01*
X21380Y14994D01*
X21464Y15028D01*
X21536Y15084D01*
X21592Y15156D01*
X21626Y15240D01*
X21638Y15330D01*
X21626Y15420D01*
X21592Y15504D01*
X21536Y15576D01*
X21464Y15632D01*
X21380Y15666D01*
X21290Y15678D01*
D02*
G37*
G36*
X18800Y18942D02*
X18719Y18925D01*
X18650Y18880D01*
X18605Y18811D01*
X18588Y18730D01*
X18605Y18649D01*
X18650Y18580D01*
X18698Y18549D01*
Y16690D01*
X18706Y16651D01*
X18728Y16618D01*
X19188Y16158D01*
Y15661D01*
X19116Y15632D01*
X19044Y15576D01*
X18988Y15504D01*
X18954Y15420D01*
X18942Y15330D01*
X18954Y15240D01*
X18988Y15156D01*
X19044Y15084D01*
X19116Y15028D01*
X19200Y14994D01*
X19290Y14982D01*
X19380Y14994D01*
X19464Y15028D01*
X19536Y15084D01*
X19592Y15156D01*
X19626Y15240D01*
X19638Y15330D01*
X19626Y15420D01*
X19592Y15504D01*
X19536Y15576D01*
X19464Y15632D01*
X19392Y15661D01*
Y16063D01*
X19465Y16093D01*
X20017Y15541D01*
X19988Y15504D01*
X19954Y15420D01*
X19942Y15330D01*
X19954Y15240D01*
X19988Y15156D01*
X20044Y15084D01*
X20116Y15028D01*
X20200Y14994D01*
X20290Y14982D01*
X20380Y14994D01*
X20464Y15028D01*
X20536Y15084D01*
X20592Y15156D01*
X20626Y15240D01*
X20638Y15330D01*
X20626Y15420D01*
X20592Y15504D01*
X20536Y15576D01*
X20464Y15632D01*
X20380Y15666D01*
X20290Y15678D01*
X20200Y15666D01*
X20186Y15661D01*
X19052Y16794D01*
Y18094D01*
X19080Y18168D01*
X19161Y18185D01*
X19230Y18230D01*
X19275Y18299D01*
X19292Y18380D01*
X19275Y18461D01*
X19230Y18530D01*
X19161Y18575D01*
X19080Y18592D01*
X19047Y18585D01*
X18995Y18649D01*
X19012Y18730D01*
X18995Y18811D01*
X18950Y18880D01*
X18881Y18925D01*
X18800Y18942D01*
D02*
G37*
G36*
X15460Y20452D02*
X15379Y20435D01*
X15310Y20390D01*
X15265Y20321D01*
X15248Y20240D01*
X15265Y20159D01*
X15310Y20090D01*
X15379Y20045D01*
X15454Y20030D01*
X15962Y19522D01*
X16011Y19489D01*
X16070Y19477D01*
X16667D01*
X17137Y19007D01*
Y15640D01*
X17116Y15632D01*
X17044Y15576D01*
X16988Y15504D01*
X16954Y15420D01*
X16942Y15330D01*
X16954Y15240D01*
X16988Y15156D01*
X17044Y15084D01*
X17116Y15028D01*
X17200Y14994D01*
X17290Y14982D01*
X17380Y14994D01*
X17401Y15002D01*
X17892Y14512D01*
X17941Y14479D01*
X18000Y14467D01*
X22090D01*
X22149Y14479D01*
X22198Y14512D01*
X22868Y15182D01*
X22901Y15231D01*
X22913Y15290D01*
Y16107D01*
X24000D01*
X24059Y16119D01*
X24108Y16152D01*
X25018Y17062D01*
X25051Y17111D01*
X25063Y17170D01*
Y18815D01*
X25105Y18879D01*
X25122Y18960D01*
X25105Y19041D01*
X25060Y19110D01*
X24991Y19155D01*
X24910Y19172D01*
X24829Y19155D01*
X24760Y19110D01*
X24715Y19041D01*
X24698Y18960D01*
X24715Y18879D01*
X24757Y18815D01*
Y17233D01*
X23937Y16413D01*
X22905D01*
X22841Y16455D01*
X22760Y16472D01*
X22679Y16455D01*
X22610Y16410D01*
X22565Y16341D01*
X22548Y16260D01*
X22565Y16179D01*
X22607Y16115D01*
Y15353D01*
X22027Y14773D01*
X18063D01*
X17618Y15219D01*
X17626Y15240D01*
X17638Y15330D01*
X17626Y15420D01*
X17592Y15504D01*
X17536Y15576D01*
X17464Y15632D01*
X17443Y15640D01*
Y19070D01*
X17431Y19129D01*
X17398Y19178D01*
X16838Y19738D01*
X16789Y19771D01*
X16730Y19783D01*
X16133D01*
X15670Y20246D01*
X15655Y20321D01*
X15610Y20390D01*
X15541Y20435D01*
X15460Y20452D01*
D02*
G37*
G36*
X570Y17852D02*
X489Y17835D01*
X420Y17790D01*
X375Y17721D01*
X358Y17640D01*
X375Y17559D01*
X420Y17490D01*
X489Y17445D01*
X570Y17428D01*
X628Y17376D01*
Y12571D01*
X580Y12540D01*
X535Y12471D01*
X518Y12390D01*
X535Y12309D01*
X580Y12240D01*
X649Y12195D01*
X730Y12178D01*
X811Y12195D01*
X880Y12240D01*
X925Y12309D01*
X942Y12390D01*
X925Y12471D01*
X880Y12540D01*
X832Y12571D01*
Y17422D01*
X824Y17461D01*
X802Y17494D01*
X754Y17542D01*
X765Y17559D01*
X782Y17640D01*
X765Y17721D01*
X720Y17790D01*
X651Y17835D01*
X570Y17852D01*
D02*
G37*
G36*
X-6870Y11812D02*
X-6951Y11795D01*
X-7020Y11750D01*
X-7065Y11681D01*
X-7082Y11600D01*
X-7065Y11519D01*
X-7020Y11450D01*
X-6951Y11405D01*
X-6870Y11388D01*
X-6832Y11396D01*
X-5268D01*
X-5251Y11385D01*
X-5170Y11368D01*
X-5089Y11385D01*
X-5020Y11430D01*
X-4975Y11499D01*
X-4958Y11580D01*
X-4975Y11661D01*
X-5020Y11730D01*
X-5089Y11775D01*
X-5100Y11778D01*
X-5116Y11788D01*
X-5194Y11804D01*
X-6832D01*
X-6870Y11812D01*
D02*
G37*
G36*
X33260Y12915D02*
X33059Y12899D01*
X32863Y12852D01*
X32677Y12775D01*
X32505Y12670D01*
X32351Y12539D01*
X32220Y12385D01*
X32115Y12213D01*
X32038Y12027D01*
X31991Y11831D01*
X31975Y11630D01*
X31991Y11429D01*
X32038Y11233D01*
X32115Y11047D01*
X32220Y10875D01*
X32351Y10721D01*
X32505Y10590D01*
X32677Y10485D01*
X32863Y10408D01*
X33059Y10361D01*
X33260Y10345D01*
X33461Y10361D01*
X33657Y10408D01*
X33843Y10485D01*
X34015Y10590D01*
X34169Y10721D01*
X34300Y10875D01*
X34405Y11047D01*
X34482Y11233D01*
X34529Y11429D01*
X34545Y11630D01*
X34529Y11831D01*
X34482Y12027D01*
X34405Y12213D01*
X34300Y12385D01*
X34169Y12539D01*
X34015Y12670D01*
X33843Y12775D01*
X33657Y12852D01*
X33461Y12899D01*
X33260Y12915D01*
D02*
G37*
G36*
X-33240D02*
X-33441Y12899D01*
X-33637Y12852D01*
X-33823Y12775D01*
X-33995Y12670D01*
X-34149Y12539D01*
X-34280Y12385D01*
X-34385Y12213D01*
X-34462Y12027D01*
X-34509Y11831D01*
X-34525Y11630D01*
X-34509Y11429D01*
X-34462Y11233D01*
X-34385Y11047D01*
X-34280Y10875D01*
X-34149Y10721D01*
X-33995Y10590D01*
X-33823Y10485D01*
X-33637Y10408D01*
X-33441Y10361D01*
X-33240Y10345D01*
X-33039Y10361D01*
X-32843Y10408D01*
X-32657Y10485D01*
X-32485Y10590D01*
X-32331Y10721D01*
X-32200Y10875D01*
X-32095Y11047D01*
X-32018Y11233D01*
X-31971Y11429D01*
X-31955Y11630D01*
X-31971Y11831D01*
X-32018Y12027D01*
X-32095Y12213D01*
X-32200Y12385D01*
X-32331Y12539D01*
X-32485Y12670D01*
X-32657Y12775D01*
X-32843Y12852D01*
X-33039Y12899D01*
X-33240Y12915D01*
D02*
G37*
G36*
X3860Y12440D02*
X2580Y11160D01*
X2580Y10200D01*
X3410Y9370D01*
X4510Y9370D01*
X5820Y10680D01*
X5820Y11270D01*
X4650Y12440D01*
X3860Y12440D01*
D02*
G37*
G36*
X1890Y17262D02*
X1809Y17245D01*
X1740Y17200D01*
X1695Y17131D01*
X1678Y17050D01*
X1695Y16969D01*
X1740Y16900D01*
X1768Y16882D01*
Y8980D01*
X1776Y8941D01*
X1798Y8908D01*
X2298Y8408D01*
X2331Y8386D01*
X2370Y8378D01*
X4489D01*
X4520Y8330D01*
X4589Y8285D01*
X4670Y8268D01*
X4751Y8285D01*
X4820Y8330D01*
X4865Y8399D01*
X4882Y8480D01*
X4865Y8561D01*
X4820Y8630D01*
X4751Y8675D01*
X4670Y8692D01*
X4589Y8675D01*
X4520Y8630D01*
X4489Y8582D01*
X2412D01*
X1972Y9022D01*
Y16855D01*
X2040Y16900D01*
X2085Y16969D01*
X2102Y17050D01*
X2085Y17131D01*
X2040Y17200D01*
X1971Y17245D01*
X1890Y17262D01*
D02*
G37*
G36*
X5311Y8093D02*
X5230Y8077D01*
X5162Y8031D01*
X5116Y7962D01*
X5100Y7881D01*
X5111Y7825D01*
X4738Y7452D01*
X4716Y7419D01*
X4708Y7380D01*
Y6631D01*
X4660Y6600D01*
X4615Y6531D01*
X4598Y6450D01*
X4615Y6369D01*
X4660Y6300D01*
X4729Y6255D01*
X4810Y6238D01*
X4891Y6255D01*
X4960Y6300D01*
X5005Y6369D01*
X5022Y6450D01*
X5005Y6531D01*
X4960Y6600D01*
X4912Y6631D01*
Y7338D01*
X5255Y7681D01*
X5311Y7670D01*
X5392Y7686D01*
X5461Y7732D01*
X5507Y7800D01*
X5523Y7881D01*
X5507Y7962D01*
X5461Y8031D01*
X5392Y8077D01*
X5311Y8093D01*
D02*
G37*
G36*
X33868Y8058D02*
X33778Y8046D01*
X33694Y8012D01*
X33622Y7956D01*
X33567Y7884D01*
X33532Y7800D01*
X33520Y7710D01*
X33532Y7620D01*
X33567Y7536D01*
X33622Y7464D01*
X33694Y7408D01*
X33778Y7374D01*
X33868Y7362D01*
X33958Y7374D01*
X34042Y7408D01*
X34115Y7464D01*
X34170Y7536D01*
X34205Y7620D01*
X34217Y7710D01*
X34205Y7800D01*
X34170Y7884D01*
X34115Y7956D01*
X34042Y8012D01*
X33958Y8046D01*
X33868Y8058D01*
D02*
G37*
G36*
Y7058D02*
X33778Y7046D01*
X33694Y7012D01*
X33622Y6956D01*
X33567Y6884D01*
X33532Y6800D01*
X33520Y6710D01*
X33532Y6620D01*
X33567Y6536D01*
X33622Y6464D01*
X33694Y6408D01*
X33778Y6374D01*
X33868Y6362D01*
X33958Y6374D01*
X34042Y6408D01*
X34115Y6464D01*
X34170Y6536D01*
X34205Y6620D01*
X34217Y6710D01*
X34205Y6800D01*
X34170Y6884D01*
X34115Y6956D01*
X34042Y7012D01*
X33958Y7046D01*
X33868Y7058D01*
D02*
G37*
G36*
X-310Y7792D02*
X-1090D01*
X-1129Y7784D01*
X-1162Y7762D01*
X-3308Y5616D01*
X-4261D01*
X-4290Y5660D01*
X-4359Y5705D01*
X-4440Y5722D01*
X-4521Y5705D01*
X-4590Y5660D01*
X-4635Y5591D01*
X-4652Y5510D01*
X-4635Y5429D01*
X-4590Y5360D01*
X-4521Y5315D01*
X-4440Y5298D01*
X-4359Y5315D01*
X-4290Y5360D01*
X-4256Y5412D01*
X-3266D01*
X-3227Y5420D01*
X-3194Y5442D01*
X-1371Y7264D01*
X-1299Y7226D01*
X-1310Y7169D01*
X-1294Y7088D01*
X-1287Y7077D01*
X-3362Y5002D01*
X-7480D01*
X-7519Y4994D01*
X-7552Y4972D01*
X-9404Y3120D01*
X-9460Y3132D01*
X-9541Y3115D01*
X-9610Y3070D01*
X-9655Y3001D01*
X-9672Y2920D01*
X-9655Y2839D01*
X-9610Y2770D01*
X-9541Y2725D01*
X-9460Y2708D01*
X-9379Y2725D01*
X-9310Y2770D01*
X-9265Y2839D01*
X-9248Y2920D01*
X-9260Y2976D01*
X-7438Y4798D01*
X-3423D01*
X-3382Y4719D01*
X-3402Y4692D01*
X-6960D01*
X-6999Y4684D01*
X-7032Y4662D01*
X-8672Y3022D01*
X-8694Y2989D01*
X-8702Y2950D01*
Y-89D01*
X-8750Y-120D01*
X-8795Y-189D01*
X-8812Y-270D01*
X-8795Y-351D01*
X-8750Y-420D01*
X-8681Y-465D01*
X-8600Y-482D01*
X-8519Y-465D01*
X-8450Y-420D01*
X-8405Y-351D01*
X-8388Y-270D01*
X-8405Y-189D01*
X-8450Y-120D01*
X-8498Y-89D01*
Y2908D01*
X-6918Y4488D01*
X-6429D01*
X-6421Y4409D01*
X-6491Y4395D01*
X-6560Y4350D01*
X-6605Y4281D01*
X-6622Y4200D01*
X-6605Y4119D01*
X-6560Y4050D01*
X-6491Y4005D01*
X-6410Y3988D01*
X-6329Y4005D01*
X-6265Y4047D01*
X-2073D01*
X-380Y2354D01*
X-365Y2279D01*
X-320Y2210D01*
X-251Y2165D01*
X-170Y2148D01*
X-89Y2165D01*
X-20Y2210D01*
X25Y2279D01*
X42Y2360D01*
X25Y2441D01*
X-20Y2510D01*
X-89Y2555D01*
X-164Y2570D01*
X-1902Y4308D01*
X-1951Y4341D01*
X-2010Y4353D01*
X-6265D01*
X-6329Y4395D01*
X-6399Y4409D01*
X-6391Y4488D01*
X-3313D01*
X-3274Y4496D01*
X-3241Y4518D01*
X-648Y7111D01*
X-592Y7100D01*
X-511Y7116D01*
X-442Y7162D01*
X-396Y7231D01*
X-380Y7312D01*
X-396Y7393D01*
X-442Y7461D01*
X-511Y7507D01*
X-522Y7509D01*
X-514Y7588D01*
X-352D01*
X538Y6698D01*
Y6611D01*
X490Y6580D01*
X445Y6511D01*
X428Y6430D01*
X445Y6349D01*
X490Y6280D01*
X559Y6235D01*
X640Y6218D01*
X721Y6235D01*
X790Y6280D01*
X835Y6349D01*
X852Y6430D01*
X835Y6511D01*
X790Y6580D01*
X742Y6611D01*
Y6740D01*
X734Y6779D01*
X712Y6812D01*
X-238Y7762D01*
X-271Y7784D01*
X-310Y7792D01*
D02*
G37*
G36*
X33868Y6058D02*
X33778Y6046D01*
X33694Y6012D01*
X33622Y5956D01*
X33567Y5884D01*
X33532Y5800D01*
X33520Y5710D01*
X33532Y5620D01*
X33567Y5536D01*
X33622Y5464D01*
X33694Y5408D01*
X33778Y5374D01*
X33868Y5362D01*
X33958Y5374D01*
X34042Y5408D01*
X34115Y5464D01*
X34170Y5536D01*
X34205Y5620D01*
X34217Y5710D01*
X34205Y5800D01*
X34170Y5884D01*
X34115Y5956D01*
X34042Y6012D01*
X33958Y6046D01*
X33868Y6058D01*
D02*
G37*
G36*
X-33848D02*
X-33938Y6046D01*
X-34022Y6012D01*
X-34095Y5956D01*
X-34150Y5884D01*
X-34185Y5800D01*
X-34197Y5710D01*
X-34185Y5620D01*
X-34150Y5536D01*
X-34095Y5464D01*
X-34022Y5408D01*
X-33938Y5374D01*
X-33848Y5362D01*
X-33758Y5374D01*
X-33674Y5408D01*
X-33602Y5464D01*
X-33547Y5536D01*
X-33512Y5620D01*
X-33500Y5710D01*
X-33512Y5800D01*
X-33547Y5884D01*
X-33602Y5956D01*
X-33674Y6012D01*
X-33758Y6046D01*
X-33848Y6058D01*
D02*
G37*
G36*
X1897Y7534D02*
X1816Y7518D01*
X1747Y7473D01*
X1702Y7404D01*
X1686Y7323D01*
X1702Y7242D01*
X1747Y7173D01*
X1816Y7127D01*
X1897Y7111D01*
X1978Y7127D01*
X1978Y7128D01*
X3368Y5738D01*
X3401Y5716D01*
X3440Y5708D01*
X4268D01*
X4532Y5443D01*
X4494Y5371D01*
X4490Y5372D01*
X4409Y5355D01*
X4340Y5310D01*
X4295Y5241D01*
X4278Y5160D01*
X4295Y5079D01*
X4340Y5010D01*
X4388Y4979D01*
Y2062D01*
X2641Y315D01*
X2590Y336D01*
X2500Y348D01*
X2410Y336D01*
X2326Y302D01*
X2254Y246D01*
X2198Y174D01*
X2164Y90D01*
X2152Y0D01*
X2164Y-90D01*
X2198Y-174D01*
X2254Y-246D01*
X2326Y-302D01*
X2410Y-336D01*
X2500Y-348D01*
X2590Y-336D01*
X2674Y-302D01*
X2746Y-246D01*
X2802Y-174D01*
X2836Y-90D01*
X2848Y0D01*
X2836Y90D01*
X2802Y174D01*
X2796Y182D01*
X4562Y1948D01*
X4584Y1981D01*
X4592Y2020D01*
Y4979D01*
X4640Y5010D01*
X4685Y5079D01*
X4689Y5098D01*
X4768Y5091D01*
Y3000D01*
X4776Y2961D01*
X4798Y2928D01*
X8168Y-442D01*
X8201Y-464D01*
X8240Y-472D01*
X9769D01*
X9800Y-520D01*
X9869Y-565D01*
X9950Y-582D01*
X10031Y-565D01*
X10100Y-520D01*
X10145Y-451D01*
X10162Y-370D01*
X10145Y-289D01*
X10100Y-220D01*
X10031Y-175D01*
X9950Y-158D01*
X9869Y-175D01*
X9800Y-220D01*
X9769Y-268D01*
X8282D01*
X4972Y3042D01*
Y3551D01*
X5051Y3575D01*
X5080Y3530D01*
X5149Y3485D01*
X5230Y3468D01*
X5286Y3480D01*
X8648Y118D01*
X8681Y96D01*
X8720Y88D01*
X11608D01*
X12758Y-1062D01*
X12791Y-1084D01*
X12830Y-1092D01*
X17698D01*
X19158Y-2552D01*
Y-4500D01*
X19166Y-4539D01*
X19188Y-4572D01*
X21648Y-7032D01*
Y-19188D01*
X18768Y-22068D01*
X13272D01*
X13156Y-21952D01*
Y-21806D01*
X13238Y-21772D01*
X13315Y-21713D01*
X13373Y-21637D01*
X13410Y-21548D01*
X13422Y-21453D01*
X13410Y-21358D01*
X13373Y-21269D01*
X13315Y-21193D01*
X13238Y-21134D01*
X13150Y-21098D01*
X13054Y-21085D01*
X12959Y-21098D01*
X12870Y-21134D01*
X12794Y-21193D01*
X12735Y-21269D01*
X12699Y-21358D01*
X12686Y-21453D01*
X12699Y-21548D01*
X12735Y-21637D01*
X12794Y-21713D01*
X12870Y-21772D01*
X12952Y-21806D01*
Y-21994D01*
X12960Y-22033D01*
X12982Y-22066D01*
X13158Y-22242D01*
X13191Y-22264D01*
X13230Y-22272D01*
X18810D01*
X18849Y-22264D01*
X18882Y-22242D01*
X21822Y-19302D01*
X21844Y-19269D01*
X21852Y-19230D01*
Y-6990D01*
X21844Y-6951D01*
X21822Y-6918D01*
X19362Y-4458D01*
Y-2510D01*
X19354Y-2471D01*
X19332Y-2438D01*
X17812Y-918D01*
X17779Y-896D01*
X17740Y-888D01*
X12872D01*
X11722Y262D01*
X11689Y284D01*
X11650Y292D01*
X8762D01*
X5904Y3151D01*
X5930Y3235D01*
X5964Y3242D01*
X8798Y408D01*
X8831Y386D01*
X8870Y378D01*
X11858D01*
X12948Y-712D01*
X12981Y-734D01*
X13020Y-742D01*
X18168D01*
X19648Y-2222D01*
Y-4290D01*
X19656Y-4329D01*
X19678Y-4362D01*
X22158Y-6842D01*
Y-19538D01*
X19188Y-22508D01*
X13142D01*
X12338Y-21704D01*
X12389Y-21637D01*
X12426Y-21548D01*
X12438Y-21453D01*
X12426Y-21358D01*
X12389Y-21269D01*
X12330Y-21193D01*
X12254Y-21134D01*
X12165Y-21098D01*
X12070Y-21085D01*
X11975Y-21098D01*
X11886Y-21134D01*
X11810Y-21193D01*
X11751Y-21269D01*
X11714Y-21358D01*
X11702Y-21453D01*
X11714Y-21548D01*
X11751Y-21637D01*
X11810Y-21713D01*
X11886Y-21772D01*
X11975Y-21809D01*
X12070Y-21821D01*
X12156Y-21810D01*
X13028Y-22682D01*
X13061Y-22704D01*
X13100Y-22712D01*
X19230D01*
X19269Y-22704D01*
X19302Y-22682D01*
X22332Y-19652D01*
X22354Y-19619D01*
X22362Y-19580D01*
Y-6800D01*
X22354Y-6761D01*
X22332Y-6728D01*
X19852Y-4248D01*
Y-2180D01*
X19844Y-2141D01*
X19822Y-2108D01*
X18282Y-568D01*
X18249Y-546D01*
X18210Y-538D01*
X13062D01*
X11972Y552D01*
X11939Y574D01*
X11900Y582D01*
X8912D01*
X6070Y3424D01*
X6082Y3480D01*
X6065Y3561D01*
X6020Y3630D01*
X5951Y3675D01*
X5870Y3692D01*
X5789Y3675D01*
X5720Y3630D01*
X5675Y3561D01*
X5663Y3503D01*
X5600Y3474D01*
X5583Y3472D01*
X5430Y3624D01*
X5442Y3680D01*
X5425Y3761D01*
X5380Y3830D01*
X5311Y3875D01*
X5230Y3892D01*
X5149Y3875D01*
X5080Y3830D01*
X5051Y3785D01*
X4972Y3809D01*
Y5173D01*
X5051Y5215D01*
X5068Y5203D01*
Y4650D01*
X5076Y4611D01*
X5098Y4578D01*
X5768Y3908D01*
X5801Y3886D01*
X5840Y3878D01*
X7608D01*
X8750Y2736D01*
X8738Y2680D01*
X8755Y2599D01*
X8800Y2530D01*
X8869Y2485D01*
X8950Y2468D01*
X9031Y2485D01*
X9100Y2530D01*
X9145Y2599D01*
X9162Y2680D01*
X9145Y2761D01*
X9100Y2830D01*
X9031Y2875D01*
X8950Y2892D01*
X8894Y2880D01*
X7722Y4052D01*
X7689Y4074D01*
X7650Y4082D01*
X6330D01*
X6317Y4097D01*
X6330Y4200D01*
X6375Y4269D01*
X6392Y4350D01*
X6375Y4431D01*
X6362Y4452D01*
X6530Y4620D01*
X6613Y4599D01*
X6617Y4596D01*
X6660Y4530D01*
X6729Y4485D01*
X6810Y4468D01*
X6891Y4485D01*
X6960Y4530D01*
X7005Y4599D01*
X7022Y4680D01*
X7010Y4736D01*
X7952Y5678D01*
X19111D01*
X19122Y5661D01*
X19078Y5582D01*
X17510D01*
X17471Y5574D01*
X17438Y5552D01*
X16818Y4932D01*
X16796Y4899D01*
X16788Y4860D01*
Y3985D01*
X16753Y3912D01*
X16672Y3895D01*
X16603Y3850D01*
X16557Y3781D01*
X16541Y3700D01*
X16557Y3619D01*
X16603Y3550D01*
X16672Y3505D01*
X16753Y3488D01*
X16788Y3496D01*
X16867Y3443D01*
X16870Y3438D01*
X16871Y3426D01*
X16860Y3420D01*
X16815Y3351D01*
X16798Y3270D01*
X16815Y3189D01*
X16860Y3120D01*
X16929Y3075D01*
X17010Y3058D01*
X17091Y3075D01*
X17160Y3120D01*
X17205Y3189D01*
X17222Y3270D01*
X17205Y3351D01*
X17160Y3420D01*
X17142Y3431D01*
Y4756D01*
X17568Y5182D01*
X17602Y5177D01*
X17629Y5094D01*
X17368Y4832D01*
X17346Y4799D01*
X17338Y4760D01*
Y4441D01*
X17290Y4410D01*
X17245Y4341D01*
X17228Y4260D01*
X17245Y4179D01*
X17290Y4110D01*
X17359Y4065D01*
X17440Y4048D01*
X17521Y4065D01*
X17590Y4110D01*
X17635Y4179D01*
X17652Y4260D01*
X17635Y4341D01*
X17590Y4410D01*
X17542Y4441D01*
Y4718D01*
X17872Y5048D01*
X23748D01*
X24180Y4616D01*
X24168Y4560D01*
X24185Y4479D01*
X24230Y4410D01*
X24299Y4365D01*
X24380Y4348D01*
X24461Y4365D01*
X24530Y4410D01*
X24575Y4479D01*
X24592Y4560D01*
X24575Y4641D01*
X24530Y4710D01*
X24461Y4755D01*
X24380Y4772D01*
X24324Y4760D01*
X23949Y5135D01*
X23979Y5208D01*
X24298D01*
X24745Y4761D01*
X24745Y4761D01*
X24728Y4680D01*
X24745Y4599D01*
X24790Y4530D01*
X24859Y4485D01*
X24940Y4468D01*
X25021Y4485D01*
X25090Y4530D01*
X25135Y4599D01*
X25152Y4680D01*
X25135Y4761D01*
X25090Y4830D01*
X25021Y4875D01*
X24940Y4892D01*
X24909Y4885D01*
X24489Y5305D01*
X24519Y5378D01*
X24741D01*
X24753Y5360D01*
X24821Y5315D01*
X24902Y5298D01*
X24983Y5315D01*
X25052Y5360D01*
X25098Y5429D01*
X25114Y5510D01*
X25098Y5591D01*
X25052Y5660D01*
X24983Y5705D01*
X24902Y5722D01*
X24821Y5705D01*
X24753Y5660D01*
X24707Y5591D01*
X24705Y5582D01*
X19568D01*
X19530Y5661D01*
X19555Y5699D01*
X19572Y5780D01*
X19555Y5861D01*
X19510Y5930D01*
X19441Y5975D01*
X19360Y5992D01*
X19279Y5975D01*
X19210Y5930D01*
X19179Y5882D01*
X18925D01*
X18902Y5961D01*
X18929Y5979D01*
X18975Y6048D01*
X18991Y6129D01*
X18975Y6210D01*
X18929Y6278D01*
X18861Y6324D01*
X18780Y6340D01*
X18699Y6324D01*
X18630Y6278D01*
X18584Y6210D01*
X18568Y6129D01*
X18575Y6096D01*
X18519Y6032D01*
X7696D01*
X7657Y6024D01*
X7624Y6002D01*
X6183Y4561D01*
X6180Y4562D01*
X6099Y4545D01*
X6030Y4500D01*
X5985Y4431D01*
X5968Y4350D01*
X5985Y4269D01*
X6030Y4200D01*
X6043Y4097D01*
X6030Y4082D01*
X5882D01*
X5272Y4692D01*
Y5300D01*
X5264Y5339D01*
X5242Y5372D01*
X4262Y6352D01*
X4229Y6374D01*
X4190Y6382D01*
X3582D01*
X2745Y7219D01*
X2752Y7250D01*
X2735Y7331D01*
X2690Y7400D01*
X2621Y7445D01*
X2540Y7462D01*
X2459Y7445D01*
X2390Y7400D01*
X2345Y7331D01*
X2328Y7250D01*
X2345Y7169D01*
X2361Y7145D01*
X2300Y7095D01*
X2102Y7292D01*
X2109Y7323D01*
X2093Y7404D01*
X2047Y7473D01*
X1978Y7518D01*
X1897Y7534D01*
D02*
G37*
G36*
X33868Y5058D02*
X33778Y5046D01*
X33694Y5012D01*
X33622Y4956D01*
X33567Y4884D01*
X33532Y4800D01*
X33520Y4710D01*
X33532Y4620D01*
X33567Y4536D01*
X33622Y4464D01*
X33694Y4408D01*
X33778Y4374D01*
X33868Y4362D01*
X33958Y4374D01*
X34042Y4408D01*
X34115Y4464D01*
X34170Y4536D01*
X34205Y4620D01*
X34217Y4710D01*
X34205Y4800D01*
X34170Y4884D01*
X34115Y4956D01*
X34042Y5012D01*
X33958Y5046D01*
X33868Y5058D01*
D02*
G37*
G36*
X-33848D02*
X-33938Y5046D01*
X-34022Y5012D01*
X-34095Y4956D01*
X-34150Y4884D01*
X-34185Y4800D01*
X-34197Y4710D01*
X-34185Y4620D01*
X-34150Y4536D01*
X-34095Y4464D01*
X-34022Y4408D01*
X-33938Y4374D01*
X-33848Y4362D01*
X-33758Y4374D01*
X-33674Y4408D01*
X-33602Y4464D01*
X-33547Y4536D01*
X-33512Y4620D01*
X-33500Y4710D01*
X-33512Y4800D01*
X-33547Y4884D01*
X-33602Y4956D01*
X-33674Y5012D01*
X-33758Y5046D01*
X-33848Y5058D01*
D02*
G37*
G36*
X28460Y4753D02*
X28383Y4738D01*
X28318Y4694D01*
X28274Y4629D01*
X28258Y4551D01*
X28274Y4474D01*
X28318Y4409D01*
X28383Y4365D01*
X28460Y4350D01*
X28537Y4365D01*
X28602Y4409D01*
X28646Y4474D01*
X28662Y4551D01*
X28646Y4629D01*
X28602Y4694D01*
X28537Y4738D01*
X28460Y4753D01*
D02*
G37*
G36*
X-1400Y6012D02*
X-1481Y5995D01*
X-1550Y5950D01*
X-1595Y5881D01*
X-1612Y5800D01*
X-1595Y5719D01*
X-1550Y5650D01*
X-1481Y5605D01*
X-1400Y5588D01*
X-1344Y5600D01*
X508Y3748D01*
X541Y3726D01*
X580Y3718D01*
X2869D01*
X2900Y3670D01*
X2969Y3625D01*
X3050Y3608D01*
X3131Y3625D01*
X3200Y3670D01*
X3245Y3739D01*
X3262Y3820D01*
X3245Y3901D01*
X3200Y3970D01*
X3131Y4015D01*
X3050Y4032D01*
X2969Y4015D01*
X2900Y3970D01*
X2892Y3956D01*
X2826Y3996D01*
X2826Y4001D01*
X2842Y4077D01*
X2825Y4158D01*
X2780Y4227D01*
X2711Y4273D01*
X2630Y4289D01*
X2549Y4273D01*
X2480Y4227D01*
X2449Y4179D01*
X905D01*
X-420Y5504D01*
X-408Y5560D01*
X-425Y5641D01*
X-470Y5710D01*
X-539Y5755D01*
X-620Y5772D01*
X-701Y5755D01*
X-770Y5710D01*
X-815Y5641D01*
X-832Y5560D01*
X-815Y5479D01*
X-799Y5455D01*
X-860Y5405D01*
X-1200Y5744D01*
X-1188Y5800D01*
X-1205Y5881D01*
X-1250Y5950D01*
X-1319Y5995D01*
X-1400Y6012D01*
D02*
G37*
G36*
X-33848Y4058D02*
X-33938Y4046D01*
X-34022Y4012D01*
X-34095Y3956D01*
X-34150Y3884D01*
X-34185Y3800D01*
X-34197Y3710D01*
X-34185Y3620D01*
X-34150Y3536D01*
X-34095Y3464D01*
X-34022Y3408D01*
X-33938Y3374D01*
X-33848Y3362D01*
X-33758Y3374D01*
X-33674Y3408D01*
X-33602Y3464D01*
X-33547Y3536D01*
X-33512Y3620D01*
X-33500Y3710D01*
X-33512Y3800D01*
X-33547Y3884D01*
X-33602Y3956D01*
X-33674Y4012D01*
X-33758Y4046D01*
X-33848Y4058D01*
D02*
G37*
G36*
X27124Y3542D02*
X27043Y3525D01*
X26974Y3480D01*
X26929Y3411D01*
X26913Y3330D01*
X26929Y3249D01*
X26974Y3180D01*
X27043Y3135D01*
X27124Y3118D01*
X27205Y3135D01*
X27274Y3180D01*
X27305Y3228D01*
X28750D01*
X29166Y2812D01*
X29155Y2756D01*
X29171Y2675D01*
X29216Y2606D01*
X29285Y2560D01*
X29366Y2544D01*
X29447Y2560D01*
X29516Y2606D01*
X29562Y2675D01*
X29578Y2756D01*
X29562Y2837D01*
X29516Y2905D01*
X29447Y2951D01*
X29366Y2967D01*
X29310Y2956D01*
X28864Y3402D01*
X28831Y3424D01*
X28792Y3432D01*
X27305D01*
X27274Y3480D01*
X27205Y3525D01*
X27124Y3542D01*
D02*
G37*
G36*
X-33848Y3058D02*
X-33938Y3046D01*
X-34022Y3012D01*
X-34095Y2956D01*
X-34150Y2884D01*
X-34185Y2800D01*
X-34197Y2710D01*
X-34185Y2620D01*
X-34150Y2536D01*
X-34095Y2464D01*
X-34022Y2408D01*
X-33938Y2374D01*
X-33848Y2362D01*
X-33758Y2374D01*
X-33674Y2408D01*
X-33602Y2464D01*
X-33547Y2536D01*
X-33512Y2620D01*
X-33500Y2710D01*
X-33512Y2800D01*
X-33547Y2884D01*
X-33602Y2956D01*
X-33674Y3012D01*
X-33758Y3046D01*
X-33848Y3058D01*
D02*
G37*
G36*
X20710Y4700D02*
X20500Y4490D01*
X20500Y2570D01*
X20740Y2330D01*
X23110Y2330D01*
X23340Y2560D01*
X23340Y4430D01*
X23070Y4700D01*
X20710Y4700D01*
D02*
G37*
G36*
X-4000Y3712D02*
X-4081Y3695D01*
X-4150Y3650D01*
X-4195Y3581D01*
X-4212Y3500D01*
X-4195Y3419D01*
X-4150Y3350D01*
X-4081Y3305D01*
X-4000Y3288D01*
X-3944Y3300D01*
X-3171Y2527D01*
X-3155Y2449D01*
X-3110Y2380D01*
X-3041Y2335D01*
X-2960Y2318D01*
X-2879Y2335D01*
X-2810Y2380D01*
X-2765Y2449D01*
X-2748Y2530D01*
X-2765Y2611D01*
X-2810Y2680D01*
X-2879Y2725D01*
X-2960Y2742D01*
X-3041Y2725D01*
X-3065Y2709D01*
X-3800Y3444D01*
X-3788Y3500D01*
X-3805Y3581D01*
X-3850Y3650D01*
X-3919Y3695D01*
X-4000Y3712D01*
D02*
G37*
G36*
X28460Y1603D02*
X28383Y1588D01*
X28318Y1544D01*
X28274Y1479D01*
X28258Y1402D01*
X28274Y1325D01*
X28318Y1259D01*
X28383Y1216D01*
X28460Y1200D01*
X28537Y1216D01*
X28602Y1259D01*
X28646Y1325D01*
X28662Y1402D01*
X28646Y1479D01*
X28602Y1544D01*
X28537Y1588D01*
X28460Y1603D01*
D02*
G37*
G36*
X-14550Y1168D02*
X-14640Y1156D01*
X-14724Y1122D01*
X-14796Y1066D01*
X-14852Y994D01*
X-14886Y910D01*
X-14898Y820D01*
X-14886Y730D01*
X-14852Y646D01*
X-14796Y574D01*
X-14724Y518D01*
X-14640Y484D01*
X-14550Y472D01*
X-14460Y484D01*
X-14376Y518D01*
X-14304Y574D01*
X-14248Y646D01*
X-14214Y730D01*
X-14202Y820D01*
X-14214Y910D01*
X-14248Y994D01*
X-14304Y1066D01*
X-14376Y1122D01*
X-14460Y1156D01*
X-14550Y1168D01*
D02*
G37*
G36*
X-15550D02*
X-15640Y1156D01*
X-15724Y1122D01*
X-15796Y1066D01*
X-15852Y994D01*
X-15886Y910D01*
X-15898Y820D01*
X-15886Y730D01*
X-15852Y646D01*
X-15796Y574D01*
X-15724Y518D01*
X-15640Y484D01*
X-15550Y472D01*
X-15460Y484D01*
X-15376Y518D01*
X-15304Y574D01*
X-15248Y646D01*
X-15214Y730D01*
X-15202Y820D01*
X-15214Y910D01*
X-15248Y994D01*
X-15304Y1066D01*
X-15376Y1122D01*
X-15460Y1156D01*
X-15550Y1168D01*
D02*
G37*
G36*
X3530Y5409D02*
X3449Y5393D01*
X3380Y5347D01*
X3335Y5278D01*
X3318Y5197D01*
X3335Y5117D01*
X3380Y5048D01*
X3428Y5016D01*
Y2132D01*
X2308Y1012D01*
X-1590D01*
X-1629Y1004D01*
X-1662Y982D01*
X-2338Y306D01*
X-2410Y336D01*
X-2500Y348D01*
X-2590Y336D01*
X-2674Y302D01*
X-2746Y246D01*
X-2802Y174D01*
X-2836Y90D01*
X-2848Y0D01*
X-2836Y-90D01*
X-2802Y-174D01*
X-2746Y-246D01*
X-2674Y-302D01*
X-2590Y-336D01*
X-2500Y-348D01*
X-2410Y-336D01*
X-2326Y-302D01*
X-2254Y-246D01*
X-2198Y-174D01*
X-2164Y-90D01*
X-2152Y0D01*
X-2164Y90D01*
X-2194Y162D01*
X-1548Y808D01*
X2350D01*
X2389Y816D01*
X2422Y838D01*
X3602Y2018D01*
X3624Y2051D01*
X3632Y2090D01*
Y5016D01*
X3680Y5048D01*
X3705Y5086D01*
X3741Y5087D01*
X3792Y5078D01*
X3830Y5020D01*
X3878Y4989D01*
Y2122D01*
X2438Y682D01*
X-875D01*
X-914Y674D01*
X-947Y652D01*
X-1310Y289D01*
X-1326Y302D01*
X-1410Y336D01*
X-1500Y348D01*
X-1590Y336D01*
X-1674Y302D01*
X-1746Y246D01*
X-1802Y174D01*
X-1836Y90D01*
X-1848Y0D01*
X-1836Y-90D01*
X-1802Y-174D01*
X-1746Y-246D01*
X-1674Y-302D01*
X-1590Y-336D01*
X-1500Y-348D01*
X-1410Y-336D01*
X-1326Y-302D01*
X-1254Y-246D01*
X-1198Y-174D01*
X-1164Y-90D01*
X-1152Y0D01*
X-1164Y90D01*
X-1180Y131D01*
X-833Y478D01*
X2480D01*
X2519Y486D01*
X2552Y508D01*
X4052Y2008D01*
X4074Y2041D01*
X4082Y2080D01*
Y4989D01*
X4130Y5020D01*
X4175Y5089D01*
X4192Y5170D01*
X4175Y5251D01*
X4130Y5320D01*
X4061Y5365D01*
X3980Y5382D01*
X3899Y5365D01*
X3830Y5320D01*
X3805Y5282D01*
X3769Y5280D01*
X3718Y5289D01*
X3680Y5347D01*
X3611Y5393D01*
X3530Y5409D01*
D02*
G37*
G36*
X15480Y878D02*
X15390Y866D01*
X15306Y832D01*
X15234Y776D01*
X15178Y704D01*
X15144Y620D01*
X15132Y530D01*
X15144Y440D01*
X15178Y356D01*
X15234Y284D01*
X15306Y228D01*
X15390Y194D01*
X15480Y182D01*
X15570Y194D01*
X15654Y228D01*
X15726Y284D01*
X15782Y356D01*
X15816Y440D01*
X15828Y530D01*
X15816Y620D01*
X15782Y704D01*
X15726Y776D01*
X15654Y832D01*
X15570Y866D01*
X15480Y878D01*
D02*
G37*
G36*
X14480D02*
X14390Y866D01*
X14306Y832D01*
X14234Y776D01*
X14178Y704D01*
X14144Y620D01*
X14132Y530D01*
X14144Y440D01*
X14178Y356D01*
X14234Y284D01*
X14306Y228D01*
X14390Y194D01*
X14480Y182D01*
X14570Y194D01*
X14654Y228D01*
X14726Y284D01*
X14782Y356D01*
X14816Y440D01*
X14828Y530D01*
X14816Y620D01*
X14782Y704D01*
X14726Y776D01*
X14654Y832D01*
X14570Y866D01*
X14480Y878D01*
D02*
G37*
G36*
X13480D02*
X13390Y866D01*
X13306Y832D01*
X13234Y776D01*
X13178Y704D01*
X13144Y620D01*
X13132Y530D01*
X13144Y440D01*
X13178Y356D01*
X13234Y284D01*
X13306Y228D01*
X13390Y194D01*
X13480Y182D01*
X13570Y194D01*
X13654Y228D01*
X13726Y284D01*
X13782Y356D01*
X13816Y440D01*
X13828Y530D01*
X13816Y620D01*
X13782Y704D01*
X13726Y776D01*
X13654Y832D01*
X13570Y866D01*
X13480Y878D01*
D02*
G37*
G36*
X-9005Y11252D02*
X-9086Y11235D01*
X-9155Y11190D01*
X-9201Y11121D01*
X-9217Y11040D01*
X-9209Y11002D01*
Y5389D01*
X-10904Y3694D01*
X-10948Y3628D01*
X-10964Y3550D01*
Y1782D01*
X-10948Y1704D01*
X-10944Y1697D01*
Y28D01*
X-10952Y-10D01*
X-10935Y-91D01*
X-10890Y-160D01*
X-10821Y-205D01*
X-10740Y-222D01*
X-10659Y-205D01*
X-10590Y-160D01*
X-10545Y-91D01*
X-10528Y-10D01*
X-10536Y28D01*
Y1762D01*
X-10552Y1840D01*
X-10556Y1847D01*
Y3466D01*
X-8861Y5160D01*
X-8817Y5227D01*
X-8801Y5305D01*
Y11002D01*
X-8794Y11040D01*
X-8810Y11121D01*
X-8856Y11190D01*
X-8924Y11235D01*
X-9005Y11252D01*
D02*
G37*
G36*
X4500Y348D02*
X4410Y336D01*
X4326Y302D01*
X4254Y246D01*
X4198Y174D01*
X4164Y90D01*
X4152Y0D01*
X4164Y-90D01*
X4198Y-174D01*
X4254Y-246D01*
X4326Y-302D01*
X4410Y-336D01*
X4500Y-348D01*
X4590Y-336D01*
X4674Y-302D01*
X4746Y-246D01*
X4802Y-174D01*
X4836Y-90D01*
X4848Y0D01*
X4836Y90D01*
X4802Y174D01*
X4746Y246D01*
X4674Y302D01*
X4590Y336D01*
X4500Y348D01*
D02*
G37*
G36*
X3500D02*
X3410Y336D01*
X3326Y302D01*
X3254Y246D01*
X3198Y174D01*
X3164Y90D01*
X3152Y0D01*
X3164Y-90D01*
X3198Y-174D01*
X3254Y-246D01*
X3326Y-302D01*
X3410Y-336D01*
X3500Y-348D01*
X3590Y-336D01*
X3674Y-302D01*
X3746Y-246D01*
X3802Y-174D01*
X3836Y-90D01*
X3848Y0D01*
X3836Y90D01*
X3802Y174D01*
X3746Y246D01*
X3674Y302D01*
X3590Y336D01*
X3500Y348D01*
D02*
G37*
G36*
X1500D02*
X1410Y336D01*
X1326Y302D01*
X1254Y246D01*
X1198Y174D01*
X1164Y90D01*
X1152Y0D01*
X1164Y-90D01*
X1198Y-174D01*
X1254Y-246D01*
X1326Y-302D01*
X1410Y-336D01*
X1500Y-348D01*
X1590Y-336D01*
X1674Y-302D01*
X1746Y-246D01*
X1802Y-174D01*
X1836Y-90D01*
X1848Y0D01*
X1836Y90D01*
X1802Y174D01*
X1746Y246D01*
X1674Y302D01*
X1590Y336D01*
X1500Y348D01*
D02*
G37*
G36*
X500D02*
X410Y336D01*
X326Y302D01*
X254Y246D01*
X198Y174D01*
X164Y90D01*
X152Y0D01*
X164Y-90D01*
X198Y-174D01*
X254Y-246D01*
X326Y-302D01*
X410Y-336D01*
X500Y-348D01*
X590Y-336D01*
X674Y-302D01*
X746Y-246D01*
X802Y-174D01*
X836Y-90D01*
X848Y0D01*
X836Y90D01*
X802Y174D01*
X746Y246D01*
X674Y302D01*
X590Y336D01*
X500Y348D01*
D02*
G37*
G36*
X-500D02*
X-590Y336D01*
X-674Y302D01*
X-746Y246D01*
X-802Y174D01*
X-836Y90D01*
X-848Y0D01*
X-836Y-90D01*
X-802Y-174D01*
X-746Y-246D01*
X-674Y-302D01*
X-590Y-336D01*
X-500Y-348D01*
X-410Y-336D01*
X-326Y-302D01*
X-254Y-246D01*
X-198Y-174D01*
X-164Y-90D01*
X-152Y0D01*
X-164Y90D01*
X-198Y174D01*
X-254Y246D01*
X-326Y302D01*
X-410Y336D01*
X-500Y348D01*
D02*
G37*
G36*
X-6520Y1292D02*
X-6601Y1275D01*
X-6670Y1230D01*
X-6715Y1161D01*
X-6732Y1080D01*
X-6715Y999D01*
X-6670Y930D01*
X-6601Y885D01*
X-6526Y870D01*
X-6463Y807D01*
Y-1045D01*
X-6505Y-1109D01*
X-6522Y-1190D01*
X-6505Y-1271D01*
X-6460Y-1340D01*
X-6391Y-1385D01*
X-6310Y-1402D01*
X-6229Y-1385D01*
X-6160Y-1340D01*
X-6115Y-1271D01*
X-6098Y-1190D01*
X-6115Y-1109D01*
X-6157Y-1045D01*
Y870D01*
X-6169Y929D01*
X-6202Y978D01*
X-6310Y1086D01*
X-6325Y1161D01*
X-6370Y1230D01*
X-6439Y1275D01*
X-6520Y1292D01*
D02*
G37*
G36*
X6980Y12D02*
X6899Y-5D01*
X6830Y-50D01*
X6785Y-119D01*
X6768Y-200D01*
X6776Y-238D01*
Y-2370D01*
X6792Y-2448D01*
X6836Y-2514D01*
X6929Y-2607D01*
X6950Y-2640D01*
X7019Y-2685D01*
X7100Y-2702D01*
X7181Y-2685D01*
X7250Y-2640D01*
X7295Y-2571D01*
X7312Y-2490D01*
X7295Y-2409D01*
X7250Y-2340D01*
X7217Y-2319D01*
X7184Y-2286D01*
Y-238D01*
X7192Y-200D01*
X7175Y-119D01*
X7130Y-50D01*
X7061Y-5D01*
X6980Y12D01*
D02*
G37*
G36*
X21990Y-2665D02*
X21789Y-2681D01*
X21593Y-2728D01*
X21407Y-2805D01*
X21235Y-2910D01*
X21081Y-3041D01*
X20950Y-3195D01*
X20845Y-3367D01*
X20768Y-3553D01*
X20721Y-3749D01*
X20705Y-3950D01*
X20721Y-4151D01*
X20768Y-4347D01*
X20845Y-4533D01*
X20950Y-4705D01*
X21081Y-4859D01*
X21235Y-4990D01*
X21407Y-5095D01*
X21593Y-5172D01*
X21789Y-5219D01*
X21990Y-5235D01*
X22191Y-5219D01*
X22387Y-5172D01*
X22573Y-5095D01*
X22745Y-4990D01*
X22899Y-4859D01*
X23030Y-4705D01*
X23135Y-4533D01*
X23212Y-4347D01*
X23259Y-4151D01*
X23275Y-3950D01*
X23259Y-3749D01*
X23212Y-3553D01*
X23135Y-3367D01*
X23030Y-3195D01*
X22899Y-3041D01*
X22745Y-2910D01*
X22573Y-2805D01*
X22387Y-2728D01*
X22191Y-2681D01*
X21990Y-2665D01*
D02*
G37*
G36*
X-21900D02*
X-22101Y-2681D01*
X-22297Y-2728D01*
X-22483Y-2805D01*
X-22655Y-2910D01*
X-22809Y-3041D01*
X-22940Y-3195D01*
X-23045Y-3367D01*
X-23122Y-3553D01*
X-23169Y-3749D01*
X-23185Y-3950D01*
X-23169Y-4151D01*
X-23122Y-4347D01*
X-23045Y-4533D01*
X-22940Y-4705D01*
X-22809Y-4859D01*
X-22655Y-4990D01*
X-22483Y-5095D01*
X-22297Y-5172D01*
X-22101Y-5219D01*
X-21900Y-5235D01*
X-21699Y-5219D01*
X-21503Y-5172D01*
X-21317Y-5095D01*
X-21145Y-4990D01*
X-20991Y-4859D01*
X-20860Y-4705D01*
X-20755Y-4533D01*
X-20678Y-4347D01*
X-20631Y-4151D01*
X-20615Y-3950D01*
X-20631Y-3749D01*
X-20678Y-3553D01*
X-20755Y-3367D01*
X-20860Y-3195D01*
X-20991Y-3041D01*
X-21145Y-2910D01*
X-21317Y-2805D01*
X-21503Y-2728D01*
X-21699Y-2681D01*
X-21900Y-2665D01*
D02*
G37*
G36*
X-26430Y20282D02*
X-26511Y20265D01*
X-26580Y20220D01*
X-26625Y20151D01*
X-26642Y20070D01*
X-26634Y20032D01*
Y6420D01*
X-26618Y6342D01*
X-26574Y6276D01*
X-14694Y-5604D01*
X-14628Y-5648D01*
X-14550Y-5664D01*
X-6084D01*
Y-5867D01*
X-19390D01*
X-19449Y-5879D01*
X-19498Y-5912D01*
X-22578Y-8992D01*
X-22611Y-9041D01*
X-22623Y-9100D01*
Y-18630D01*
X-22611Y-18689D01*
X-22578Y-18738D01*
X-18328Y-22988D01*
X-18279Y-23021D01*
X-18220Y-23033D01*
X-12483D01*
X-12424Y-23021D01*
X-12374Y-22988D01*
X-11182Y-21796D01*
X-11151Y-21809D01*
X-11056Y-21821D01*
X-10960Y-21809D01*
X-10929Y-21796D01*
X-9847Y-22878D01*
X-9797Y-22911D01*
X-9739Y-22923D01*
X11705D01*
X11769Y-22965D01*
X11850Y-22982D01*
X11931Y-22965D01*
X12000Y-22920D01*
X12045Y-22851D01*
X12062Y-22770D01*
X12045Y-22689D01*
X12000Y-22620D01*
X11931Y-22575D01*
X11850Y-22558D01*
X11769Y-22575D01*
X11705Y-22617D01*
X-9676D01*
X-10713Y-21580D01*
X-10700Y-21548D01*
X-10688Y-21453D01*
X-10700Y-21358D01*
X-10737Y-21269D01*
X-10795Y-21193D01*
X-10872Y-21134D01*
X-10960Y-21098D01*
X-11056Y-21085D01*
X-11151Y-21098D01*
X-11240Y-21134D01*
X-11316Y-21193D01*
X-11375Y-21269D01*
X-11411Y-21358D01*
X-11424Y-21453D01*
X-11411Y-21548D01*
X-11398Y-21580D01*
X-12546Y-22727D01*
X-18157D01*
X-22317Y-18567D01*
Y-9163D01*
X-19327Y-6173D01*
X-6084D01*
Y-6290D01*
X-6084Y-6290D01*
X-6068Y-6328D01*
X-6068Y-6328D01*
X-5418Y-6978D01*
X-5380Y-6994D01*
X-5380Y-6994D01*
X-2930D01*
X-2930Y-6994D01*
X-2892Y-6978D01*
X-2312Y-6398D01*
X-2296Y-6360D01*
X-2296Y-6360D01*
Y-2170D01*
X-2312Y-2132D01*
X-2312Y-2132D01*
X-2832Y-1612D01*
X-2832Y-1612D01*
X-2870Y-1596D01*
X-2870Y-1596D01*
X-4296D01*
Y-345D01*
X-4155D01*
Y345D01*
X-4845D01*
Y-345D01*
X-4704D01*
Y-1596D01*
X-5670D01*
X-5708Y-1612D01*
X-5949Y-1853D01*
X-9821D01*
X-11228Y-446D01*
X-11243Y-371D01*
X-11289Y-302D01*
X-11357Y-256D01*
X-11438Y-240D01*
X-11519Y-256D01*
X-11588Y-302D01*
X-11634Y-371D01*
X-11650Y-452D01*
X-11634Y-533D01*
X-11588Y-601D01*
X-11519Y-647D01*
X-11444Y-662D01*
X-9993Y-2114D01*
X-9943Y-2147D01*
X-9885Y-2159D01*
X-9885Y-2237D01*
X-11267D01*
X-11957Y-1547D01*
Y4057D01*
X-10634Y5380D01*
X-10559Y5395D01*
X-10490Y5440D01*
X-10445Y5509D01*
X-10428Y5590D01*
X-10445Y5671D01*
X-10490Y5740D01*
X-10559Y5785D01*
X-10640Y5802D01*
X-10721Y5785D01*
X-10790Y5740D01*
X-10835Y5671D01*
X-10850Y5596D01*
X-12218Y4228D01*
X-12251Y4179D01*
X-12263Y4120D01*
Y-1610D01*
X-12251Y-1669D01*
X-12218Y-1718D01*
X-11438Y-2498D01*
X-11389Y-2531D01*
X-11330Y-2543D01*
X-6084D01*
X-6084Y-2827D01*
X-11857D01*
X-12697Y-1987D01*
Y5405D01*
X-12655Y5469D01*
X-12638Y5550D01*
X-12655Y5631D01*
X-12700Y5700D01*
X-12769Y5745D01*
X-12850Y5762D01*
X-12931Y5745D01*
X-13000Y5700D01*
X-13045Y5631D01*
X-13062Y5550D01*
X-13045Y5469D01*
X-13003Y5405D01*
Y-2050D01*
X-12991Y-2109D01*
X-12958Y-2158D01*
X-12028Y-3088D01*
X-11983Y-3118D01*
X-11982Y-3124D01*
X-12019Y-3197D01*
X-12647D01*
X-13247Y-2597D01*
Y3420D01*
X-13259Y3479D01*
X-13292Y3528D01*
X-13292Y3528D01*
X-15502Y5738D01*
X-15551Y5771D01*
X-15610Y5783D01*
X-17215D01*
X-17279Y5825D01*
X-17360Y5842D01*
X-17441Y5825D01*
X-17510Y5780D01*
X-17555Y5711D01*
X-17572Y5630D01*
X-17555Y5549D01*
X-17510Y5480D01*
X-17441Y5435D01*
X-17360Y5418D01*
X-17279Y5435D01*
X-17215Y5477D01*
X-15673D01*
X-13553Y3357D01*
Y-2660D01*
X-13541Y-2719D01*
X-13508Y-2768D01*
X-12818Y-3458D01*
X-12769Y-3491D01*
X-12710Y-3503D01*
X-6084D01*
Y-3706D01*
X-13866D01*
X-17346Y-226D01*
Y475D01*
X-17205D01*
Y1165D01*
X-17895D01*
Y475D01*
X-17754D01*
Y-310D01*
X-17738Y-388D01*
X-17694Y-454D01*
X-14094Y-4054D01*
X-14028Y-4098D01*
X-13950Y-4114D01*
X-6084D01*
X-6084Y-4527D01*
X-14237D01*
X-21707Y2943D01*
Y5445D01*
X-21665Y5509D01*
X-21648Y5590D01*
X-21665Y5671D01*
X-21710Y5740D01*
X-21779Y5785D01*
X-21860Y5802D01*
X-21941Y5785D01*
X-22010Y5740D01*
X-22055Y5671D01*
X-22072Y5590D01*
X-22055Y5509D01*
X-22013Y5445D01*
Y2880D01*
X-22001Y2821D01*
X-21968Y2772D01*
X-14408Y-4788D01*
X-14359Y-4821D01*
X-14300Y-4833D01*
X-6084D01*
Y-5256D01*
X-14466D01*
X-26226Y6504D01*
Y20032D01*
X-26218Y20070D01*
X-26235Y20151D01*
X-26280Y20220D01*
X-26349Y20265D01*
X-26430Y20282D01*
D02*
G37*
G36*
X-7320Y-6578D02*
X-7401Y-6595D01*
X-7470Y-6640D01*
X-7515Y-6709D01*
X-7532Y-6790D01*
X-7515Y-6871D01*
X-7470Y-6940D01*
X-7432Y-6965D01*
Y-10299D01*
X-7480Y-10330D01*
X-7525Y-10399D01*
X-7542Y-10480D01*
X-7525Y-10561D01*
X-7480Y-10630D01*
X-7411Y-10675D01*
X-7330Y-10692D01*
X-7249Y-10675D01*
X-7180Y-10630D01*
X-7135Y-10561D01*
X-7118Y-10480D01*
X-7135Y-10399D01*
X-7180Y-10330D01*
X-7228Y-10299D01*
Y-6978D01*
X-7170Y-6940D01*
X-7125Y-6871D01*
X-7108Y-6790D01*
X-7125Y-6709D01*
X-7170Y-6640D01*
X-7239Y-6595D01*
X-7320Y-6578D01*
D02*
G37*
G36*
X-7300Y-14148D02*
X-7381Y-14165D01*
X-7450Y-14210D01*
X-7495Y-14279D01*
X-7512Y-14360D01*
X-7495Y-14441D01*
X-7450Y-14510D01*
X-7381Y-14555D01*
X-7300Y-14572D01*
X-7244Y-14560D01*
X-6532Y-15272D01*
X-6499Y-15294D01*
X-6460Y-15302D01*
X-5161D01*
X-5130Y-15350D01*
X-5061Y-15395D01*
X-4980Y-15412D01*
X-4899Y-15395D01*
X-4830Y-15350D01*
X-4785Y-15281D01*
X-4768Y-15200D01*
X-4785Y-15119D01*
X-4830Y-15050D01*
X-4899Y-15005D01*
X-4980Y-14988D01*
X-5061Y-15005D01*
X-5130Y-15050D01*
X-5161Y-15098D01*
X-6418D01*
X-7100Y-14416D01*
X-7088Y-14360D01*
X-7105Y-14279D01*
X-7150Y-14210D01*
X-7219Y-14165D01*
X-7300Y-14148D01*
D02*
G37*
G36*
X12340Y-14656D02*
X9920D01*
X9882Y-14672D01*
X9866Y-14710D01*
Y-17220D01*
X9882Y-17258D01*
X9920Y-17274D01*
X12340D01*
X12378Y-17258D01*
X12394Y-17220D01*
Y-14710D01*
X12378Y-14672D01*
X12340Y-14656D01*
D02*
G37*
G36*
X-12860Y-14596D02*
X-15250D01*
X-15288Y-14612D01*
X-15304Y-14650D01*
Y-17310D01*
X-15288Y-17348D01*
X-15250Y-17364D01*
X-12860D01*
X-12822Y-17348D01*
X-12806Y-17310D01*
Y-14650D01*
X-12822Y-14612D01*
X-12860Y-14596D01*
D02*
G37*
G36*
X18040Y-14676D02*
X15870D01*
X15832Y-14692D01*
X15816Y-14730D01*
Y-17330D01*
X15832Y-17368D01*
X15870Y-17384D01*
X18040D01*
X18078Y-17368D01*
X18094Y-17330D01*
Y-14730D01*
X18078Y-14692D01*
X18040Y-14676D01*
D02*
G37*
G36*
X-18540Y-14616D02*
X-20990D01*
X-21028Y-14632D01*
X-21044Y-14670D01*
Y-17390D01*
X-21028Y-17428D01*
X-20990Y-17444D01*
X-18540D01*
X-18502Y-17428D01*
X-18486Y-17390D01*
Y-14670D01*
X-18502Y-14632D01*
X-18540Y-14616D01*
D02*
G37*
G36*
X470Y-11376D02*
X-440D01*
X-478Y-11392D01*
X-478Y-11392D01*
X-2998Y-13912D01*
X-3014Y-13950D01*
X-3014Y-13950D01*
X-3014Y-14800D01*
X-3014Y-15750D01*
X-3014Y-15750D01*
Y-17686D01*
X-9786D01*
Y-14660D01*
X-9802Y-14622D01*
X-9840Y-14606D01*
X-12400D01*
X-12438Y-14622D01*
X-12454Y-14660D01*
Y-17686D01*
X-15556D01*
Y-14650D01*
X-15572Y-14612D01*
X-15610Y-14596D01*
X-18140D01*
X-18178Y-14612D01*
X-18194Y-14650D01*
Y-17686D01*
X-18290D01*
X-18328Y-17702D01*
X-18344Y-17740D01*
Y-20440D01*
X-18328Y-20478D01*
X-18290Y-20494D01*
X-530D01*
X-492Y-20478D01*
X-476Y-20440D01*
Y-15804D01*
X1618Y-15804D01*
X3596Y-17782D01*
Y-20040D01*
X3596Y-20040D01*
X3612Y-20078D01*
X3612Y-20078D01*
X4022Y-20488D01*
X4060Y-20504D01*
X4060Y-20504D01*
X7316D01*
Y-21180D01*
X7300Y-21193D01*
X7241Y-21269D01*
X7204Y-21358D01*
X7192Y-21453D01*
X7204Y-21548D01*
X7241Y-21637D01*
X7300Y-21713D01*
X7376Y-21772D01*
X7465Y-21809D01*
X7560Y-21821D01*
X7655Y-21809D01*
X7744Y-21772D01*
X7820Y-21713D01*
X7879Y-21637D01*
X7916Y-21548D01*
X7928Y-21453D01*
X7916Y-21358D01*
X7879Y-21269D01*
X7820Y-21193D01*
X7744Y-21134D01*
X7724Y-21126D01*
Y-20504D01*
X18340D01*
X18378Y-20488D01*
X18381Y-20482D01*
X21149Y-18736D01*
X21152Y-18731D01*
X21158Y-18728D01*
X21164Y-18714D01*
X21173Y-18702D01*
X21172Y-18696D01*
X21174Y-18690D01*
X21174Y-15000D01*
X21174Y-15000D01*
X21158Y-14962D01*
X21158Y-14962D01*
X20738Y-14542D01*
X20700Y-14526D01*
X20700Y-14526D01*
X18870D01*
X18832Y-14542D01*
X18832Y-14542D01*
X18292Y-15082D01*
X18276Y-15120D01*
X18276Y-15120D01*
Y-17546D01*
X15364D01*
Y-14650D01*
X15348Y-14612D01*
X15310Y-14596D01*
X12890D01*
X12852Y-14612D01*
X12836Y-14650D01*
Y-17546D01*
X9950D01*
X9950Y-17546D01*
X6254Y-17546D01*
X1646Y-11398D01*
X1642Y-11395D01*
X1641Y-11392D01*
X1625Y-11385D01*
X1610Y-11376D01*
X1606Y-11377D01*
X1602Y-11376D01*
X470Y-11376D01*
D02*
G37*
G36*
X849Y-16077D02*
X811Y-16093D01*
Y-16093D01*
X512Y-16392D01*
X496Y-16430D01*
X496Y-16430D01*
X496Y-19960D01*
X496Y-19960D01*
X512Y-19998D01*
X952Y-20438D01*
X990Y-20454D01*
X990Y-20454D01*
X2700D01*
X2700Y-20454D01*
X2738Y-20438D01*
X2738Y-20438D01*
X3078Y-20098D01*
X3094Y-20060D01*
X3094Y-20060D01*
Y-17600D01*
X3094Y-17600D01*
X3078Y-17562D01*
X3078Y-17562D01*
X1609Y-16093D01*
X1571Y-16077D01*
X1571Y-16077D01*
X849D01*
X849Y-16077D01*
D02*
G37*
G36*
X4885Y-20626D02*
X-5905D01*
X-5983Y-20642D01*
X-6049Y-20686D01*
X-6468Y-21105D01*
X-6485Y-21098D01*
X-6580Y-21085D01*
X-6675Y-21098D01*
X-6706Y-21110D01*
X-7005Y-20812D01*
X-7055Y-20779D01*
X-7113Y-20767D01*
X-8585D01*
X-8649Y-20725D01*
X-8730Y-20708D01*
X-8811Y-20725D01*
X-8880Y-20770D01*
X-8925Y-20839D01*
X-8942Y-20920D01*
X-8925Y-21001D01*
X-8880Y-21070D01*
X-8811Y-21115D01*
X-8730Y-21132D01*
X-8649Y-21115D01*
X-8585Y-21073D01*
X-8017D01*
X-7945Y-21088D01*
Y-21818D01*
X-7503D01*
X-7209Y-22112D01*
X-7143Y-22157D01*
X-7065Y-22172D01*
X4045D01*
X4123Y-22157D01*
X4189Y-22112D01*
X4483Y-21818D01*
X4925D01*
Y-21261D01*
X4998Y-21231D01*
X5195Y-21429D01*
X5192Y-21453D01*
X5204Y-21548D01*
X5241Y-21637D01*
X5300Y-21713D01*
X5376Y-21772D01*
X5465Y-21809D01*
X5560Y-21821D01*
X5655Y-21809D01*
X5744Y-21772D01*
X5820Y-21713D01*
X5879Y-21637D01*
X5916Y-21548D01*
X5928Y-21453D01*
X5916Y-21358D01*
X5879Y-21269D01*
X5820Y-21193D01*
X5744Y-21134D01*
X5655Y-21098D01*
X5560Y-21085D01*
X5465Y-21098D01*
X5448Y-21105D01*
X5029Y-20686D01*
X4963Y-20642D01*
X4885Y-20626D01*
D02*
G37*
G36*
X10466Y-21088D02*
X9737D01*
Y-21818D01*
X10466D01*
Y-21088D01*
D02*
G37*
G36*
X-14628D02*
X-15358D01*
Y-21818D01*
X-14628D01*
Y-21088D01*
D02*
G37*
G36*
X15023Y-21085D02*
X14927Y-21098D01*
X14839Y-21134D01*
X14762Y-21193D01*
X14704Y-21269D01*
X14667Y-21358D01*
X14655Y-21453D01*
X14667Y-21548D01*
X14704Y-21637D01*
X14762Y-21713D01*
X14839Y-21772D01*
X14927Y-21809D01*
X15023Y-21821D01*
X15118Y-21809D01*
X15207Y-21772D01*
X15283Y-21713D01*
X15342Y-21637D01*
X15378Y-21548D01*
X15391Y-21453D01*
X15378Y-21358D01*
X15342Y-21269D01*
X15283Y-21193D01*
X15207Y-21134D01*
X15118Y-21098D01*
X15023Y-21085D01*
D02*
G37*
G36*
X14039D02*
X13943Y-21098D01*
X13854Y-21134D01*
X13778Y-21193D01*
X13720Y-21269D01*
X13683Y-21358D01*
X13670Y-21453D01*
X13683Y-21548D01*
X13720Y-21637D01*
X13778Y-21713D01*
X13854Y-21772D01*
X13943Y-21809D01*
X14039Y-21821D01*
X14134Y-21809D01*
X14223Y-21772D01*
X14299Y-21713D01*
X14357Y-21637D01*
X14394Y-21548D01*
X14407Y-21453D01*
X14394Y-21358D01*
X14357Y-21269D01*
X14299Y-21193D01*
X14223Y-21134D01*
X14134Y-21098D01*
X14039Y-21085D01*
D02*
G37*
G36*
X6560D02*
X6465Y-21098D01*
X6376Y-21134D01*
X6300Y-21193D01*
X6241Y-21269D01*
X6204Y-21358D01*
X6192Y-21453D01*
X6204Y-21548D01*
X6241Y-21637D01*
X6300Y-21713D01*
X6376Y-21772D01*
X6465Y-21809D01*
X6560Y-21821D01*
X6655Y-21809D01*
X6744Y-21772D01*
X6820Y-21713D01*
X6879Y-21637D01*
X6916Y-21548D01*
X6928Y-21453D01*
X6916Y-21358D01*
X6879Y-21269D01*
X6820Y-21193D01*
X6744Y-21134D01*
X6655Y-21098D01*
X6560Y-21085D01*
D02*
G37*
G36*
X-10072D02*
X-10167Y-21098D01*
X-10256Y-21134D01*
X-10332Y-21193D01*
X-10390Y-21269D01*
X-10427Y-21358D01*
X-10440Y-21453D01*
X-10427Y-21548D01*
X-10390Y-21637D01*
X-10332Y-21713D01*
X-10256Y-21772D01*
X-10167Y-21809D01*
X-10072Y-21821D01*
X-9976Y-21809D01*
X-9887Y-21772D01*
X-9811Y-21713D01*
X-9753Y-21637D01*
X-9716Y-21548D01*
X-9703Y-21453D01*
X-9716Y-21358D01*
X-9753Y-21269D01*
X-9811Y-21193D01*
X-9887Y-21134D01*
X-9976Y-21098D01*
X-10072Y-21085D01*
D02*
G37*
G36*
X-21960Y-18208D02*
X-22041Y-18225D01*
X-22110Y-18270D01*
X-22155Y-18339D01*
X-22172Y-18420D01*
X-22155Y-18501D01*
X-22110Y-18570D01*
X-22041Y-18615D01*
X-21960Y-18632D01*
X-21904Y-18620D01*
X-17972Y-22552D01*
X-17939Y-22574D01*
X-17900Y-22582D01*
X-13030D01*
X-12991Y-22574D01*
X-12958Y-22552D01*
X-12191Y-21786D01*
X-12135Y-21809D01*
X-12040Y-21821D01*
X-11945Y-21809D01*
X-11856Y-21772D01*
X-11780Y-21713D01*
X-11721Y-21637D01*
X-11684Y-21548D01*
X-11672Y-21453D01*
X-11684Y-21358D01*
X-11721Y-21269D01*
X-11780Y-21193D01*
X-11856Y-21134D01*
X-11945Y-21098D01*
X-12040Y-21085D01*
X-12135Y-21098D01*
X-12224Y-21134D01*
X-12300Y-21193D01*
X-12359Y-21269D01*
X-12396Y-21358D01*
X-12408Y-21453D01*
X-12396Y-21548D01*
X-12359Y-21637D01*
X-12347Y-21653D01*
X-13072Y-22378D01*
X-17858D01*
X-21760Y-18476D01*
X-21748Y-18420D01*
X-21765Y-18339D01*
X-21810Y-18270D01*
X-21879Y-18225D01*
X-21960Y-18208D01*
D02*
G37*
G36*
X-21750Y-17598D02*
X-21831Y-17615D01*
X-21900Y-17660D01*
X-21945Y-17729D01*
X-21962Y-17810D01*
X-21945Y-17891D01*
X-21900Y-17960D01*
X-21831Y-18005D01*
X-21750Y-18022D01*
X-21694Y-18010D01*
X-17522Y-22182D01*
X-17489Y-22204D01*
X-17450Y-22212D01*
X-13590D01*
X-13551Y-22204D01*
X-13518Y-22182D01*
X-13137Y-21801D01*
X-13120Y-21809D01*
X-13024Y-21821D01*
X-12929Y-21809D01*
X-12840Y-21772D01*
X-12764Y-21713D01*
X-12705Y-21637D01*
X-12669Y-21548D01*
X-12656Y-21453D01*
X-12669Y-21358D01*
X-12705Y-21269D01*
X-12764Y-21193D01*
X-12840Y-21134D01*
X-12929Y-21098D01*
X-13024Y-21085D01*
X-13120Y-21098D01*
X-13208Y-21134D01*
X-13285Y-21193D01*
X-13343Y-21269D01*
X-13380Y-21358D01*
X-13392Y-21453D01*
X-13380Y-21548D01*
X-13343Y-21637D01*
X-13308Y-21683D01*
X-13632Y-22008D01*
X-17408D01*
X-21550Y-17866D01*
X-21538Y-17810D01*
X-21555Y-17729D01*
X-21600Y-17660D01*
X-21669Y-17615D01*
X-21750Y-17598D01*
D02*
G37*
G36*
X21990Y-20905D02*
X21789Y-20921D01*
X21593Y-20968D01*
X21407Y-21045D01*
X21235Y-21150D01*
X21081Y-21281D01*
X20950Y-21435D01*
X20845Y-21607D01*
X20768Y-21793D01*
X20721Y-21989D01*
X20705Y-22190D01*
X20721Y-22391D01*
X20768Y-22587D01*
X20845Y-22773D01*
X20950Y-22945D01*
X21081Y-23099D01*
X21235Y-23230D01*
X21407Y-23335D01*
X21593Y-23412D01*
X21789Y-23459D01*
X21990Y-23475D01*
X22191Y-23459D01*
X22387Y-23412D01*
X22573Y-23335D01*
X22745Y-23230D01*
X22899Y-23099D01*
X23030Y-22945D01*
X23135Y-22773D01*
X23212Y-22587D01*
X23259Y-22391D01*
X23275Y-22190D01*
X23259Y-21989D01*
X23212Y-21793D01*
X23135Y-21607D01*
X23030Y-21435D01*
X22899Y-21281D01*
X22745Y-21150D01*
X22573Y-21045D01*
X22387Y-20968D01*
X22191Y-20921D01*
X21990Y-20905D01*
D02*
G37*
G36*
X-21900D02*
X-22101Y-20921D01*
X-22297Y-20968D01*
X-22483Y-21045D01*
X-22655Y-21150D01*
X-22809Y-21281D01*
X-22940Y-21435D01*
X-23045Y-21607D01*
X-23122Y-21793D01*
X-23169Y-21989D01*
X-23185Y-22190D01*
X-23169Y-22391D01*
X-23122Y-22587D01*
X-23045Y-22773D01*
X-22940Y-22945D01*
X-22809Y-23099D01*
X-22655Y-23230D01*
X-22483Y-23335D01*
X-22297Y-23412D01*
X-22101Y-23459D01*
X-21900Y-23475D01*
X-21699Y-23459D01*
X-21503Y-23412D01*
X-21317Y-23335D01*
X-21145Y-23230D01*
X-20991Y-23099D01*
X-20860Y-22945D01*
X-20755Y-22773D01*
X-20678Y-22587D01*
X-20631Y-22391D01*
X-20615Y-22190D01*
X-20631Y-21989D01*
X-20678Y-21793D01*
X-20755Y-21607D01*
X-20860Y-21435D01*
X-20991Y-21281D01*
X-21145Y-21150D01*
X-21317Y-21045D01*
X-21503Y-20968D01*
X-21699Y-20921D01*
X-21900Y-20905D01*
D02*
G37*
%LPD*%
G36*
X6761Y39707D02*
X6769Y39629D01*
X6573Y39582D01*
X6387Y39505D01*
X6215Y39400D01*
X6061Y39269D01*
X5930Y39115D01*
X5825Y38943D01*
X5748Y38757D01*
X5701Y38561D01*
X5685Y38360D01*
X5701Y38159D01*
X5748Y37963D01*
X5825Y37777D01*
X5930Y37605D01*
X6061Y37451D01*
X6215Y37320D01*
X6387Y37215D01*
X6573Y37138D01*
X6769Y37091D01*
X6970Y37075D01*
X7171Y37091D01*
X7367Y37138D01*
X7553Y37215D01*
X7725Y37320D01*
X7879Y37451D01*
X8010Y37605D01*
X8115Y37777D01*
X8192Y37963D01*
X8239Y38159D01*
X8255Y38360D01*
X8239Y38561D01*
X8192Y38757D01*
X8115Y38943D01*
X8010Y39115D01*
X7879Y39269D01*
X7725Y39400D01*
X7553Y39505D01*
X7367Y39582D01*
X7319Y39594D01*
X7331Y39672D01*
X7624Y39649D01*
X8294Y39561D01*
X8958Y39437D01*
X9615Y39280D01*
X10262Y39088D01*
X10899Y38862D01*
X11523Y38604D01*
X12133Y38313D01*
X12727Y37991D01*
X13303Y37638D01*
X13859Y37255D01*
X14395Y36844D01*
X14909Y36405D01*
X15215Y36115D01*
X15160Y35802D01*
X12262Y32904D01*
X12229Y32855D01*
X12217Y32796D01*
Y28205D01*
X12175Y28141D01*
X12158Y28060D01*
X12175Y27979D01*
X12217Y27915D01*
Y26683D01*
X11605Y26071D01*
X11543Y26121D01*
X11555Y26139D01*
X11572Y26220D01*
X11555Y26301D01*
X11510Y26370D01*
X11441Y26415D01*
X11360Y26432D01*
X11279Y26415D01*
X11210Y26370D01*
X11167Y26304D01*
X5660D01*
X5616Y26378D01*
X5616Y26383D01*
X5632Y26460D01*
X5615Y26541D01*
X5570Y26610D01*
X5532Y26635D01*
Y28062D01*
X5590Y28100D01*
X5635Y28169D01*
X5652Y28250D01*
X5635Y28331D01*
X5590Y28400D01*
X5542Y28431D01*
Y30740D01*
X5534Y30779D01*
X5512Y30812D01*
X4990Y31334D01*
X5002Y31390D01*
X4985Y31471D01*
X4940Y31540D01*
X4871Y31585D01*
X4790Y31602D01*
X4709Y31585D01*
X4640Y31540D01*
X4595Y31471D01*
X4578Y31390D01*
X4595Y31309D01*
X4640Y31240D01*
X4709Y31195D01*
X4790Y31178D01*
X4846Y31190D01*
X5338Y30698D01*
Y29756D01*
X5259Y29748D01*
X5251Y29789D01*
X5218Y29838D01*
X3733Y31323D01*
Y31980D01*
X3721Y32039D01*
X3688Y32088D01*
X3398Y32378D01*
X3398Y32378D01*
X3308Y32468D01*
X3259Y32501D01*
X3200Y32513D01*
X2480D01*
X2421Y32501D01*
X2372Y32468D01*
X2035Y32131D01*
X1962Y32161D01*
Y32408D01*
X2262Y32708D01*
X3989D01*
X4020Y32660D01*
X4043Y32645D01*
Y31725D01*
X3990Y31690D01*
X3945Y31621D01*
X3928Y31540D01*
X3945Y31459D01*
X3990Y31390D01*
X4059Y31345D01*
X4140Y31328D01*
X4221Y31345D01*
X4290Y31390D01*
X4335Y31459D01*
X4352Y31540D01*
X4335Y31621D01*
X4290Y31690D01*
X4247Y31718D01*
Y32614D01*
X4251Y32615D01*
X4320Y32660D01*
X4365Y32729D01*
X4382Y32810D01*
X4365Y32891D01*
X4320Y32960D01*
X4251Y33005D01*
X4170Y33022D01*
X4089Y33005D01*
X4020Y32960D01*
X3989Y32912D01*
X2220D01*
X2181Y32904D01*
X2148Y32882D01*
X1788Y32522D01*
X1766Y32489D01*
X1758Y32450D01*
Y32161D01*
X1685Y32131D01*
X1448Y32368D01*
X1399Y32401D01*
X1340Y32413D01*
X-1125D01*
X-1189Y32455D01*
X-1270Y32472D01*
X-1351Y32455D01*
X-1415Y32413D01*
X-4160D01*
X-4219Y32401D01*
X-4268Y32368D01*
X-5358Y31278D01*
X-5391Y31229D01*
X-5403Y31170D01*
Y29375D01*
X-5445Y29311D01*
X-5460Y29236D01*
X-6338Y28358D01*
X-6371Y28309D01*
X-6383Y28250D01*
Y22360D01*
X-6371Y22301D01*
X-6338Y22252D01*
X-5800Y21714D01*
X-5799Y21707D01*
X-7513Y19993D01*
X-17810D01*
X-17869Y19981D01*
X-17918Y19948D01*
X-19848Y18018D01*
X-19881Y17969D01*
X-19893Y17910D01*
Y15085D01*
X-19935Y15021D01*
X-19952Y14940D01*
X-19935Y14859D01*
X-19890Y14790D01*
X-19821Y14745D01*
X-19740Y14728D01*
X-19659Y14745D01*
X-19590Y14790D01*
X-19545Y14859D01*
X-19528Y14940D01*
X-19545Y15021D01*
X-19587Y15085D01*
Y17847D01*
X-17747Y19687D01*
X-7450D01*
X-7391Y19699D01*
X-7342Y19732D01*
X-5580Y21494D01*
X-4283Y20197D01*
Y19455D01*
X-4325Y19391D01*
X-4342Y19310D01*
X-4325Y19229D01*
X-4280Y19160D01*
X-4211Y19115D01*
X-4130Y19098D01*
X-4049Y19115D01*
X-3980Y19160D01*
X-3935Y19229D01*
X-3918Y19310D01*
X-3935Y19391D01*
X-3977Y19455D01*
Y20260D01*
X-3989Y20319D01*
X-4022Y20368D01*
X-5380Y21726D01*
X-5395Y21801D01*
X-5440Y21870D01*
X-5509Y21915D01*
X-5584Y21930D01*
X-6077Y22423D01*
Y28187D01*
X-5244Y29020D01*
X-5169Y29035D01*
X-5100Y29080D01*
X-5055Y29149D01*
X-5038Y29230D01*
X-5055Y29311D01*
X-5097Y29375D01*
Y31107D01*
X-4097Y32107D01*
X-1415D01*
X-1351Y32065D01*
X-1270Y32048D01*
X-1189Y32065D01*
X-1125Y32107D01*
X971D01*
X979Y32098D01*
X1006Y32032D01*
X1006Y32028D01*
X941Y31964D01*
X-762D01*
X-800Y31972D01*
X-838Y31964D01*
X-2562D01*
X-2600Y31972D01*
X-2681Y31955D01*
X-2750Y31910D01*
X-2795Y31841D01*
X-2812Y31760D01*
X-2804Y31722D01*
Y30354D01*
X-5327Y27831D01*
X-5360Y27810D01*
X-5405Y27741D01*
X-5422Y27660D01*
X-5405Y27579D01*
X-5360Y27510D01*
X-5327Y27489D01*
X-2984Y25146D01*
Y22774D01*
X-3674Y22084D01*
X-3718Y22018D01*
X-3734Y21940D01*
Y16938D01*
X-3742Y16900D01*
X-3734Y16862D01*
Y14744D01*
X-5254Y13224D01*
X-15946D01*
Y14050D01*
X-15962Y14088D01*
X-16000Y14104D01*
X-17310D01*
X-17348Y14088D01*
X-17364Y14050D01*
Y13224D01*
X-18986D01*
X-20076Y14314D01*
Y23196D01*
X-8326Y34946D01*
X1890D01*
X1968Y34962D01*
X2034Y35006D01*
X2654Y35626D01*
X2698Y35692D01*
X2714Y35770D01*
Y38713D01*
X2855D01*
Y39165D01*
X3082Y39326D01*
X3334Y39465D01*
X3600Y39575D01*
X3876Y39655D01*
X4160Y39703D01*
X4370Y39715D01*
X4447Y39717D01*
Y39717D01*
X6274D01*
X6275Y39717D01*
X6275Y39717D01*
X6354Y39717D01*
X6761Y39707D01*
D02*
G37*
%LPC*%
G36*
X10585Y37181D02*
X10496Y37161D01*
X10415Y37119D01*
X10348Y37058D01*
X10300Y36981D01*
X10272Y36894D01*
X10268Y36803D01*
X10288Y36715D01*
X10330Y36634D01*
X10391Y36567D01*
X10468Y36518D01*
X10555Y36491D01*
X10646Y36487D01*
X10734Y36506D01*
X10815Y36548D01*
X10882Y36610D01*
X10931Y36686D01*
X10958Y36773D01*
X10962Y36864D01*
X10942Y36953D01*
X10900Y37033D01*
X10839Y37100D01*
X10762Y37149D01*
X10676Y37177D01*
X10585Y37181D01*
D02*
G37*
G36*
X11570Y37007D02*
X11481Y36987D01*
X11400Y36945D01*
X11333Y36884D01*
X11284Y36807D01*
X11257Y36720D01*
X11253Y36630D01*
X11273Y36541D01*
X11315Y36460D01*
X11376Y36393D01*
X11453Y36344D01*
X11540Y36317D01*
X11630Y36313D01*
X11719Y36333D01*
X11800Y36375D01*
X11867Y36436D01*
X11916Y36513D01*
X11943Y36600D01*
X11947Y36690D01*
X11927Y36779D01*
X11885Y36860D01*
X11824Y36927D01*
X11747Y36976D01*
X11660Y37003D01*
X11570Y37007D01*
D02*
G37*
G36*
X12554Y36833D02*
X12466Y36814D01*
X12385Y36772D01*
X12318Y36710D01*
X12269Y36634D01*
X12242Y36547D01*
X12238Y36456D01*
X12258Y36367D01*
X12300Y36287D01*
X12361Y36220D01*
X12438Y36171D01*
X12524Y36143D01*
X12615Y36139D01*
X12704Y36159D01*
X12785Y36201D01*
X12852Y36263D01*
X12900Y36339D01*
X12928Y36426D01*
X12932Y36517D01*
X12912Y36605D01*
X12870Y36686D01*
X12809Y36753D01*
X12732Y36802D01*
X12645Y36829D01*
X12554Y36833D01*
D02*
G37*
G36*
X13539Y36660D02*
X13451Y36640D01*
X13370Y36598D01*
X13303Y36537D01*
X13254Y36460D01*
X13227Y36373D01*
X13223Y36282D01*
X13242Y36194D01*
X13284Y36113D01*
X13346Y36046D01*
X13422Y35997D01*
X13509Y35970D01*
X13600Y35966D01*
X13689Y35985D01*
X13769Y36027D01*
X13836Y36089D01*
X13885Y36166D01*
X13913Y36252D01*
X13917Y36343D01*
X13897Y36432D01*
X13855Y36512D01*
X13793Y36579D01*
X13717Y36628D01*
X13630Y36656D01*
X13539Y36660D01*
D02*
G37*
G36*
X4240Y33723D02*
X-4940D01*
X-4999Y33711D01*
X-5048Y33678D01*
X-7728Y30998D01*
X-7761Y30949D01*
X-7773Y30890D01*
Y26135D01*
X-7815Y26071D01*
X-7832Y25990D01*
X-7815Y25909D01*
X-7773Y25845D01*
Y25513D01*
X-10866Y22420D01*
X-10941Y22405D01*
X-11010Y22360D01*
X-11055Y22291D01*
X-11072Y22210D01*
X-11055Y22129D01*
X-11013Y22065D01*
Y20715D01*
X-11055Y20651D01*
X-11072Y20570D01*
X-11055Y20489D01*
X-11010Y20420D01*
X-10941Y20375D01*
X-10860Y20358D01*
X-10779Y20375D01*
X-10710Y20420D01*
X-10665Y20489D01*
X-10648Y20570D01*
X-10665Y20651D01*
X-10707Y20715D01*
Y22065D01*
X-10665Y22129D01*
X-10650Y22204D01*
X-7512Y25342D01*
X-7479Y25391D01*
X-7467Y25450D01*
Y25845D01*
X-7425Y25909D01*
X-7408Y25990D01*
X-7425Y26071D01*
X-7467Y26135D01*
Y30827D01*
X-4877Y33417D01*
X4177D01*
X5367Y32227D01*
Y31375D01*
X5325Y31311D01*
X5308Y31230D01*
X5325Y31149D01*
X5370Y31080D01*
X5439Y31035D01*
X5520Y31018D01*
X5601Y31035D01*
X5670Y31080D01*
X5715Y31149D01*
X5732Y31230D01*
X5715Y31311D01*
X5673Y31375D01*
Y32290D01*
X5661Y32349D01*
X5628Y32398D01*
X4348Y33678D01*
X4299Y33711D01*
X4240Y33723D01*
D02*
G37*
G36*
X7110Y30010D02*
X6630Y29530D01*
X6630Y27110D01*
X7040Y26700D01*
X10740Y26700D01*
X11540Y27500D01*
X11540Y29390D01*
X10920Y30010D01*
X7110Y30010D01*
D02*
G37*
G36*
X-15820Y26098D02*
X-15910Y26086D01*
X-15994Y26052D01*
X-16066Y25996D01*
X-16122Y25924D01*
X-16156Y25840D01*
X-16168Y25750D01*
X-16156Y25660D01*
X-16122Y25576D01*
X-16066Y25504D01*
X-15994Y25448D01*
X-15910Y25414D01*
X-15820Y25402D01*
X-15730Y25414D01*
X-15646Y25448D01*
X-15574Y25504D01*
X-15518Y25576D01*
X-15484Y25660D01*
X-15472Y25750D01*
X-15484Y25840D01*
X-15518Y25924D01*
X-15574Y25996D01*
X-15646Y26052D01*
X-15730Y26086D01*
X-15820Y26098D01*
D02*
G37*
G36*
Y25098D02*
X-15910Y25086D01*
X-15994Y25052D01*
X-16066Y24996D01*
X-16122Y24924D01*
X-16156Y24840D01*
X-16168Y24750D01*
X-16156Y24660D01*
X-16122Y24576D01*
X-16066Y24504D01*
X-15994Y24448D01*
X-15910Y24414D01*
X-15820Y24402D01*
X-15730Y24414D01*
X-15646Y24448D01*
X-15574Y24504D01*
X-15518Y24576D01*
X-15484Y24660D01*
X-15472Y24750D01*
X-15484Y24840D01*
X-15518Y24924D01*
X-15574Y24996D01*
X-15646Y25052D01*
X-15730Y25086D01*
X-15820Y25098D01*
D02*
G37*
G36*
X-5500Y23932D02*
X-5581Y23915D01*
X-5650Y23870D01*
X-5695Y23801D01*
X-5712Y23720D01*
X-5695Y23639D01*
X-5650Y23570D01*
X-5581Y23525D01*
X-5500Y23508D01*
X-5419Y23525D01*
X-5402Y23536D01*
X-5334Y23468D01*
X-5301Y23446D01*
X-5262Y23438D01*
X-3671D01*
X-3640Y23390D01*
X-3571Y23345D01*
X-3490Y23328D01*
X-3409Y23345D01*
X-3340Y23390D01*
X-3295Y23459D01*
X-3278Y23540D01*
X-3295Y23621D01*
X-3340Y23690D01*
X-3409Y23735D01*
X-3490Y23752D01*
X-3571Y23735D01*
X-3640Y23690D01*
X-3671Y23642D01*
X-5220D01*
X-5290Y23712D01*
X-5288Y23720D01*
X-5305Y23801D01*
X-5350Y23870D01*
X-5419Y23915D01*
X-5500Y23932D01*
D02*
G37*
G36*
X-15475Y23095D02*
X-16165D01*
Y22405D01*
X-15475D01*
Y23095D01*
D02*
G37*
G36*
X-13180Y17038D02*
X-13270Y17026D01*
X-13354Y16992D01*
X-13426Y16936D01*
X-13482Y16864D01*
X-13516Y16780D01*
X-13528Y16690D01*
X-13516Y16600D01*
X-13482Y16516D01*
X-13426Y16444D01*
X-13354Y16388D01*
X-13270Y16354D01*
X-13180Y16342D01*
X-13090Y16354D01*
X-13006Y16388D01*
X-12934Y16444D01*
X-12878Y16516D01*
X-12844Y16600D01*
X-12832Y16690D01*
X-12844Y16780D01*
X-12878Y16864D01*
X-12934Y16936D01*
X-13006Y16992D01*
X-13090Y17026D01*
X-13180Y17038D01*
D02*
G37*
G36*
X-14180D02*
X-14270Y17026D01*
X-14354Y16992D01*
X-14426Y16936D01*
X-14482Y16864D01*
X-14516Y16780D01*
X-14528Y16690D01*
X-14516Y16600D01*
X-14482Y16516D01*
X-14426Y16444D01*
X-14354Y16388D01*
X-14270Y16354D01*
X-14180Y16342D01*
X-14090Y16354D01*
X-14006Y16388D01*
X-13934Y16444D01*
X-13878Y16516D01*
X-13844Y16600D01*
X-13832Y16690D01*
X-13844Y16780D01*
X-13878Y16864D01*
X-13934Y16936D01*
X-14006Y16992D01*
X-14090Y17026D01*
X-14180Y17038D01*
D02*
G37*
G36*
X-15180D02*
X-15270Y17026D01*
X-15354Y16992D01*
X-15426Y16936D01*
X-15482Y16864D01*
X-15516Y16780D01*
X-15528Y16690D01*
X-15516Y16600D01*
X-15482Y16516D01*
X-15426Y16444D01*
X-15354Y16388D01*
X-15270Y16354D01*
X-15180Y16342D01*
X-15090Y16354D01*
X-15006Y16388D01*
X-14934Y16444D01*
X-14878Y16516D01*
X-14844Y16600D01*
X-14832Y16690D01*
X-14844Y16780D01*
X-14878Y16864D01*
X-14934Y16936D01*
X-15006Y16992D01*
X-15090Y17026D01*
X-15180Y17038D01*
D02*
G37*
G36*
X-10860Y19412D02*
X-10941Y19395D01*
X-11010Y19350D01*
X-11055Y19281D01*
X-11072Y19200D01*
X-11055Y19119D01*
X-11023Y19070D01*
Y15935D01*
X-11065Y15871D01*
X-11082Y15790D01*
X-11065Y15709D01*
X-11060Y15701D01*
X-11102Y15622D01*
X-17699D01*
X-17730Y15670D01*
X-17799Y15715D01*
X-17880Y15732D01*
X-17961Y15715D01*
X-18030Y15670D01*
X-18075Y15601D01*
X-18092Y15520D01*
X-18075Y15439D01*
X-18030Y15370D01*
X-17961Y15325D01*
X-17880Y15308D01*
X-17799Y15325D01*
X-17730Y15370D01*
X-17699Y15418D01*
X-6148D01*
X-6110Y15360D01*
X-6041Y15315D01*
X-5960Y15298D01*
X-5879Y15315D01*
X-5810Y15360D01*
X-5765Y15429D01*
X-5748Y15510D01*
X-5765Y15591D01*
X-5810Y15660D01*
X-5879Y15705D01*
X-5960Y15722D01*
X-6041Y15705D01*
X-6110Y15660D01*
X-6135Y15622D01*
X-7434D01*
X-7438Y15626D01*
X-7463Y15701D01*
X-4494Y18670D01*
X-4419Y18685D01*
X-4350Y18730D01*
X-4305Y18799D01*
X-4288Y18880D01*
X-4305Y18961D01*
X-4350Y19030D01*
X-4419Y19075D01*
X-4500Y19092D01*
X-4581Y19075D01*
X-4650Y19030D01*
X-4695Y18961D01*
X-4710Y18886D01*
X-7653Y15943D01*
X-10717D01*
Y19046D01*
X-10710Y19050D01*
X-10665Y19119D01*
X-10648Y19200D01*
X-10665Y19281D01*
X-10710Y19350D01*
X-10779Y19395D01*
X-10860Y19412D01*
D02*
G37*
G36*
X-5520Y15332D02*
X-5601Y15315D01*
X-5670Y15270D01*
X-5715Y15202D01*
X-13819D01*
X-13850Y15250D01*
X-13919Y15295D01*
X-14000Y15312D01*
X-14081Y15295D01*
X-14150Y15250D01*
X-14195Y15181D01*
X-14212Y15100D01*
X-14195Y15019D01*
X-14170Y14981D01*
X-14208Y14902D01*
X-18669D01*
X-18700Y14950D01*
X-18769Y14995D01*
X-18850Y15012D01*
X-18931Y14995D01*
X-19000Y14950D01*
X-19045Y14881D01*
X-19062Y14800D01*
X-19045Y14719D01*
X-19000Y14650D01*
X-18931Y14605D01*
X-18850Y14588D01*
X-18769Y14605D01*
X-18700Y14650D01*
X-18669Y14698D01*
X-5265D01*
X-5255Y14649D01*
X-5210Y14580D01*
X-5141Y14535D01*
X-5060Y14518D01*
X-4979Y14535D01*
X-4910Y14580D01*
X-4865Y14649D01*
X-4848Y14730D01*
X-4865Y14811D01*
X-4910Y14880D01*
X-4979Y14925D01*
X-5060Y14942D01*
X-5141Y14925D01*
X-5176Y14902D01*
X-5331D01*
X-5352Y14938D01*
X-5364Y14981D01*
X-5325Y15039D01*
X-5308Y15120D01*
X-5325Y15201D01*
X-5370Y15270D01*
X-5439Y15315D01*
X-5520Y15332D01*
D02*
G37*
G36*
X-4633Y14489D02*
X-4713Y14473D01*
X-4782Y14427D01*
X-4819Y14372D01*
X-8170D01*
X-8201Y14420D01*
X-8270Y14465D01*
X-8351Y14482D01*
X-8432Y14465D01*
X-8501Y14420D01*
X-8546Y14351D01*
X-8563Y14270D01*
X-8546Y14189D01*
X-8501Y14120D01*
X-8432Y14075D01*
X-8351Y14058D01*
X-8270Y14075D01*
X-8201Y14120D01*
X-8170Y14168D01*
X-4809D01*
X-4782Y14128D01*
X-4713Y14082D01*
X-4633Y14066D01*
X-4552Y14082D01*
X-4483Y14128D01*
X-4437Y14197D01*
X-4421Y14277D01*
X-4437Y14358D01*
X-4483Y14427D01*
X-4552Y14473D01*
X-4633Y14489D01*
D02*
G37*
%LPD*%
G36*
X-2350Y-2170D02*
Y-6360D01*
X-2930Y-6940D01*
X-5380D01*
X-6030Y-6290D01*
X-6030Y-2010D01*
X-5670Y-1650D01*
X-2870D01*
X-2350Y-2170D01*
D02*
G37*
G36*
X21120Y-15000D02*
X21120Y-18690D01*
X18330Y-20450D01*
Y-15120D01*
X18870Y-14580D01*
X20700D01*
X21120Y-15000D01*
D02*
G37*
G36*
X1602Y-11430D02*
X6227Y-17600D01*
X9950Y-17600D01*
X9950Y-20450D01*
X4060D01*
X3650Y-20040D01*
Y-17760D01*
X1640Y-15750D01*
X-2960Y-15750D01*
X-2960Y-13950D01*
X-440Y-11430D01*
X470D01*
X1602Y-11430D01*
D02*
G37*
G36*
X3040Y-17600D02*
Y-20060D01*
X2700Y-20400D01*
X990D01*
X550Y-19960D01*
X550Y-16430D01*
X849Y-16131D01*
X1571D01*
X3040Y-17600D01*
D02*
G37*
D10*
X-5130Y14800D02*
X-5060Y14730D01*
X-18850Y14800D02*
X-5130D01*
X-14000Y15100D02*
X-5540D01*
X-5520Y15120D01*
X-17880Y15520D02*
X-5970D01*
X-5960Y15510D01*
X-21750Y-17810D02*
X-17450Y-22110D01*
X-13590D01*
X730Y12390D02*
Y17422D01*
X570Y17582D02*
X730Y17422D01*
X570Y17582D02*
Y17640D01*
X1870Y17030D02*
X1890Y17050D01*
X1870Y8980D02*
Y17030D01*
X2370Y8480D02*
X4670D01*
X1870Y8980D02*
X2370Y8480D01*
X-7300Y-14360D02*
X-7300D01*
X-6460Y-15200D01*
X-4980D01*
X-7330Y-10480D02*
Y-6800D01*
X-7320Y-6790D01*
X21750Y-19230D02*
Y-6990D01*
X13230Y-22170D02*
X18810D01*
X21750Y-19230D01*
X13100Y-22610D02*
X19230D01*
X12070Y-21580D02*
Y-21453D01*
Y-21580D02*
X13100Y-22610D01*
X13054Y-21994D02*
X13230Y-22170D01*
X19230Y-22610D02*
X22260Y-19580D01*
X-4000Y3500D02*
X-3030Y2530D01*
X-2960D01*
X-8600Y2950D02*
X-6960Y4590D01*
X-3313D02*
X-592Y7312D01*
X-6960Y4590D02*
X-3313D01*
X-9460Y2920D02*
X-7480Y4900D01*
X-3320D02*
X-1099Y7121D01*
X-7480Y4900D02*
X-3320D01*
X-8600Y-270D02*
Y2950D01*
X-310Y7690D02*
X640Y6740D01*
X-1090Y7690D02*
X-310D01*
X-1099Y7121D02*
Y7169D01*
X-3266Y5514D02*
X-1090Y7690D01*
X22260Y-19580D02*
Y-6800D01*
X13054Y-21994D02*
Y-21453D01*
X-17900Y-22480D02*
X-13030D01*
X-21960Y-18420D02*
Y-18420D01*
Y-18420D02*
X-17900Y-22480D01*
X-12040Y-21490D02*
Y-21453D01*
X-13030Y-22480D02*
X-12040Y-21490D01*
X-13590Y-22110D02*
X-13024Y-21544D01*
Y-21453D01*
X17740Y-990D02*
X19260Y-2510D01*
X12830Y-990D02*
X17740D01*
X19260Y-4500D02*
Y-2510D01*
X13020Y-640D02*
X18210D01*
X19750Y-4290D02*
Y-2180D01*
X18210Y-640D02*
X19750Y-2180D01*
X19260Y-4500D02*
X21750Y-6990D01*
X19750Y-4290D02*
X22260Y-6800D01*
X8870Y480D02*
X11900D01*
X13020Y-640D01*
X5870Y3480D02*
X8870Y480D01*
X5230Y3680D02*
X8720Y190D01*
X11650D01*
X12830Y-990D01*
X5170Y4650D02*
X5840Y3980D01*
X7650D02*
X8950Y2680D01*
X5840Y3980D02*
X7650D01*
X5170Y4650D02*
Y5300D01*
X8240Y-370D02*
X9950D01*
X-620Y5560D02*
X863Y4077D01*
X2630D01*
X580Y3820D02*
X3050D01*
X-1400Y5800D02*
X580Y3820D01*
X2500Y0D02*
Y30D01*
X4490Y2020D02*
Y5160D01*
X2500Y30D02*
X4490Y2020D01*
X-1455Y0D02*
X-875Y580D01*
X2480D02*
X3980Y2080D01*
X-875Y580D02*
X2480D01*
X-1590Y910D02*
X2350D01*
X3530Y2090D01*
Y5197D01*
X-2500Y0D02*
X-1590Y910D01*
X-1500Y0D02*
X-1455D01*
X3980Y2080D02*
Y5170D01*
X4810Y6450D02*
Y7380D01*
X5311Y7881D01*
X-4440Y5514D02*
X-3266D01*
X-8351Y14270D02*
X-4640D01*
X2028Y21120D02*
X4860D01*
X1880Y21210D02*
X1938D01*
X2028Y21120D01*
X1880Y21210D02*
X1900D01*
X7006Y24550D02*
X9400D01*
X9850Y24100D01*
X3960Y23310D02*
X9200D01*
X11343Y26203D02*
X11360Y26220D01*
X4807Y26203D02*
X11343D01*
X3170Y27840D02*
X4807Y26203D01*
X9830Y19200D02*
X11270D01*
X9200Y19830D02*
Y23310D01*
Y19830D02*
X9830Y19200D01*
X5430Y28240D02*
X5440Y28250D01*
X5430Y26470D02*
Y28240D01*
X5420Y26460D02*
X5430Y26470D01*
X3400Y28830D02*
X5110D01*
X2770Y28200D02*
X3400Y28830D01*
X2770Y25370D02*
Y28200D01*
X4027Y24113D02*
X5071D01*
X2770Y25370D02*
X4027Y24113D01*
X2360Y24910D02*
X3960Y23310D01*
X2360Y24910D02*
Y26670D01*
X1980Y24490D02*
X8800Y17670D01*
X1980Y24490D02*
Y27110D01*
X1860Y31740D02*
Y32450D01*
X2220Y32810D02*
X4170D01*
X1860Y32450D02*
X2220Y32810D01*
X4145Y32785D02*
X4170Y32810D01*
X4145Y31545D02*
Y32785D01*
X4140Y31540D02*
X4145Y31545D01*
X4790Y31390D02*
X5440Y30740D01*
Y28250D02*
Y30740D01*
X1436Y31634D02*
X1620Y31450D01*
X2400D02*
X2860Y31910D01*
X1620Y31450D02*
X2400D01*
X1436Y31634D02*
Y31634D01*
X2860Y31910D02*
X2870Y31920D01*
X1170Y31900D02*
X1436Y31634D01*
X2860Y30250D02*
Y31910D01*
X-4640Y14270D02*
X-4633Y14277D01*
X8800Y17670D02*
X11380D01*
X-2690Y20998D02*
X-630Y23058D01*
X-2390Y7398D02*
Y20850D01*
X-2540Y6927D02*
X-2538Y6925D01*
X-2797Y7318D02*
X-2690Y7426D01*
X-2390Y20850D02*
X-11Y23229D01*
X-2690Y7426D02*
Y20998D01*
X-2540Y6927D02*
Y20912D01*
X-260Y23192D01*
X-2280Y7230D02*
Y7288D01*
X-2840Y21060D02*
X-1047Y22853D01*
X-2840Y7582D02*
Y21060D01*
X-2390Y7398D02*
X-2280Y7288D01*
X-3055Y7367D02*
X-2840Y7582D01*
X640Y6430D02*
Y6740D01*
X1927Y7323D02*
X3440Y5810D01*
X1897Y7323D02*
X1927D01*
X3440Y5810D02*
X4310D01*
X2540Y7250D02*
X2570D01*
X3540Y6280D01*
X1430Y5311D02*
Y22580D01*
Y5311D02*
X1511Y5229D01*
X1173Y5600D02*
X1214Y5641D01*
Y5750D01*
X1280Y5816D01*
Y22518D01*
X1511Y5171D02*
Y5229D01*
X4190Y6280D02*
X5170Y5300D01*
X3540Y6280D02*
X4190D01*
X4870Y3000D02*
Y5250D01*
Y3000D02*
X8240Y-370D01*
X4310Y5810D02*
X4870Y5250D01*
X6180Y4350D02*
Y4414D01*
X7696Y5930D01*
X18581D01*
X7910Y5780D02*
X19360D01*
X6810Y4680D02*
X7910Y5780D01*
X18581Y5930D02*
X18780Y6129D01*
X17010Y3270D02*
X17040Y3300D01*
X16890Y4860D02*
X17510Y5480D01*
X16753Y3700D02*
Y3729D01*
X17040Y3300D02*
Y4798D01*
X17510Y5480D02*
X24920D01*
X17440Y4260D02*
Y4760D01*
X16753Y3729D02*
X16890Y3866D01*
X17552Y5310D02*
X24340D01*
X17040Y4798D02*
X17552Y5310D01*
X16890Y3866D02*
Y4860D01*
X17440Y4760D02*
X17830Y5150D01*
X23790D02*
X24380Y4560D01*
X17830Y5150D02*
X23790D01*
X730Y23280D02*
X1430Y22580D01*
X730Y23550D02*
X950Y23770D01*
X730Y23280D02*
Y23550D01*
X460Y23338D02*
X1280Y22518D01*
X460Y23338D02*
Y23820D01*
X-630Y23365D02*
X-630Y23365D01*
X-1047Y22853D02*
Y23763D01*
X-630Y23058D02*
Y23365D01*
X-11Y23349D02*
X30Y23390D01*
X-11Y23229D02*
Y23349D01*
X-260Y23192D02*
Y23790D01*
X-2797Y7260D02*
Y7318D01*
X-3060Y6940D02*
X-3055Y6945D01*
Y7367D01*
X27124Y3330D02*
X28792D01*
X29366Y2756D01*
X24340Y5310D02*
X25013Y4637D01*
X3356Y26270D02*
X3372D01*
X4682Y24960D01*
X8700D01*
X15300Y15290D02*
Y16910D01*
X15320Y16930D01*
X16290Y18240D02*
X16690Y18640D01*
X16290Y15330D02*
Y18240D01*
X19290Y15330D02*
Y16200D01*
X18950Y16752D02*
Y18214D01*
X18800Y16690D02*
Y18730D01*
Y16690D02*
X19290Y16200D01*
X18950Y16752D02*
X20290Y15412D01*
Y15330D02*
Y15412D01*
X19080Y18344D02*
Y18380D01*
X18950Y18214D02*
X19080Y18344D01*
X23990Y19050D02*
X24400Y18640D01*
X21810Y19050D02*
X23990D01*
X20930Y19020D02*
X20945Y19035D01*
X21795D01*
X21810Y19050D01*
X-5262Y23540D02*
X-3490D01*
X-5442Y23720D02*
X-5262Y23540D01*
X-5500Y23720D02*
X-5442D01*
X2535Y21845D02*
X2550D01*
X1900Y21210D02*
X2535Y21845D01*
D23*
X27013Y27477D02*
G03*
X26306Y27770I-707J-707D01*
G01*
X26194Y27801D02*
G03*
X25207Y30183I-3369J-0D01*
G01*
X32928Y16689D02*
G03*
X29483Y25007I-11763J-0D01*
G01*
X-27922Y28252D02*
G03*
X-30150Y22875I5375J-5377D01*
G01*
X-22542Y30480D02*
G03*
X-27922Y28252I0J-7609D01*
G01*
X2510Y39058D02*
G03*
X-1645Y40780I-4157J-4157D01*
G01*
X4447Y39870D02*
G03*
X2525Y39073I0J-2718D01*
G01*
X-11768Y37540D02*
G03*
X-20119Y34081I-1J-11809D01*
G01*
X-20398Y33802D02*
G03*
X-21644Y30794I3007J-3008D01*
G01*
X15506Y36047D02*
G03*
X6275Y39870I-9230J-9230D01*
G01*
X22173Y33217D02*
G03*
X15539Y35965I-6634J-6632D01*
G01*
X-32043Y19170D02*
G03*
X-35270Y11380I7788J-7789D01*
G01*
X-29574Y20192D02*
G03*
X-32043Y19170I0J-3492D01*
G01*
X-35270Y10271D02*
G03*
X-34464Y8326I2751J-0D01*
G01*
X-30150Y21182D02*
G03*
X-29857Y20475I1000J0D01*
G01*
X-10340Y36947D02*
G03*
X-11768Y37540I-1431J-1431D01*
G01*
X-9655Y38782D02*
G03*
X-10378Y37038I1744J-1744D01*
G01*
X-10378D02*
G03*
X-10341Y36948I128J0D01*
G01*
X-4837Y40780D02*
G03*
X-9653Y38784I3J-6818D01*
G01*
X32928Y16092D02*
G03*
X33042Y15818I387J0D01*
G01*
X34652Y3493D02*
G03*
X35670Y5952I-2457J2458D01*
G01*
X35047Y13004D02*
G03*
X33563Y15297I-6095J-2317D01*
G01*
X35670Y9613D02*
G03*
X35047Y13004I-9548J-2D01*
G01*
X-17360Y5630D02*
X-15610D01*
X-13400Y3420D02*
X-13400D01*
X-15610Y5630D02*
X-13400Y3420D01*
X-7590Y15790D02*
X-4500Y18880D01*
X-12850Y-2050D02*
Y5550D01*
Y-2050D02*
X-11920Y-2980D01*
X-19740Y17910D02*
X-17810Y19840D01*
X-19740Y14940D02*
Y17910D01*
X-17810Y19840D02*
X-7450D01*
X-21860Y2880D02*
X-14300Y-4680D01*
X-21860Y2880D02*
Y5590D01*
X15460Y20240D02*
X16070Y19630D01*
X16730D02*
X17290Y19070D01*
X16070Y19630D02*
X16730D01*
X17290Y15330D02*
Y19070D01*
X-22470Y-9100D02*
X-19390Y-6020D01*
X-22470Y-18630D02*
Y-9100D01*
X-19390Y-6020D02*
X-5375D01*
X-6310Y-1190D02*
Y870D01*
X-6520Y1080D02*
X-6310Y870D01*
X-2010Y4200D02*
X-170Y2360D01*
X-6410Y4200D02*
X-2010D01*
X-9885Y-2006D02*
X-5309D01*
X-11438Y-452D02*
X-9885Y-2006D01*
X-13400Y-2660D02*
Y3420D01*
X-12710Y-3350D02*
X-4500D01*
X-13400Y-2660D02*
X-12710Y-3350D01*
X-11920Y-2980D02*
X-5590D01*
X-11330Y-2390D02*
X-5470D01*
X-12110Y-1610D02*
Y4120D01*
Y-1610D02*
X-11330Y-2390D01*
X-12110Y4120D02*
X-10640Y5590D01*
X-9739Y-22770D02*
X11850D01*
X-11056Y-21453D02*
X-9739Y-22770D01*
X-22470Y-18630D02*
X-18220Y-22880D01*
X-12483D01*
X-11056Y-21453D01*
X-8730Y-20920D02*
X-7113D01*
X-6580Y-21453D01*
X-5590Y-2980D02*
X-5560Y-3010D01*
X-5330Y-4680D02*
X-5270Y-4620D01*
X-14300Y-4680D02*
X-5330D01*
X27013Y27477D02*
X27092Y27398D01*
X26194Y27801D02*
X26194Y27800D01*
Y27770D02*
X26306D01*
X29482Y25008D02*
X29483Y25007D01*
X32928Y16689D02*
X32928Y16688D01*
Y16092D02*
Y16688D01*
X28867Y25623D02*
X29482Y25008D01*
X27092Y27398D02*
X28867Y25623D01*
Y25623D02*
Y25623D01*
X27092Y27398D02*
Y27398D01*
X-27922Y28252D02*
Y28252D01*
X-30150Y22875D02*
X-30150Y22874D01*
Y21182D02*
Y22874D01*
X26194Y27770D02*
Y27800D01*
X-10870Y15790D02*
Y19190D01*
X-10860Y19200D01*
X-10870Y15790D02*
X-7590D01*
X-20398Y33802D02*
X-20119Y34081D01*
X9850Y22070D02*
Y24100D01*
X12370Y26620D01*
Y28060D01*
X10450Y23920D02*
X11980D01*
X10450Y23930D02*
X11700Y25180D01*
X10450Y23920D02*
Y23930D01*
X15506Y36047D02*
X15506Y36047D01*
X15521Y36010D01*
X15539Y35965D01*
X12370Y32796D02*
X15539Y35965D01*
X12370Y28060D02*
Y32796D01*
X3580Y31260D02*
Y31980D01*
X5110Y28830D02*
Y29730D01*
X3580Y31260D02*
X5110Y29730D01*
X3200Y32360D02*
X3290Y32270D01*
X3580Y31980D01*
X1860Y31740D02*
X2480Y32360D01*
X3200D01*
X-4160Y32260D02*
X-1270D01*
X-5250Y31170D02*
X-4160Y32260D01*
X-1270D02*
X1340D01*
X1860Y31740D01*
X-4130Y19310D02*
Y20260D01*
X-5590Y21720D02*
X-4130Y20260D01*
X-6230Y28250D02*
X-5250Y29230D01*
X-6230Y22360D02*
Y28250D01*
Y22360D02*
X-5590Y21720D01*
X-5250Y29230D02*
Y31170D01*
X-5590Y21700D02*
Y21720D01*
X-7450Y19840D02*
X-5590Y21700D01*
X-29857Y20475D02*
X-29574Y20192D01*
X-34463Y8325D02*
X-33848Y7710D01*
X-34464Y8326D02*
X-34463Y8325D01*
X-35270Y10271D02*
X-35270Y10272D01*
Y11379D01*
X-35270Y11380D02*
X-35270Y11379D01*
X5980Y18800D02*
X7910Y16870D01*
X3720Y18800D02*
X5980D01*
X12190Y16870D02*
X12890Y17570D01*
X7910Y16870D02*
X12190D01*
X12890Y17570D02*
Y23010D01*
X11980Y23920D02*
X12890Y23010D01*
X5520Y31230D02*
Y32290D01*
X-4940Y33570D02*
X4240D01*
X5520Y32290D01*
X-7620Y30890D02*
X-4940Y33570D01*
X-7620Y25990D02*
Y30890D01*
X-10860Y22210D02*
X-7620Y25450D01*
Y25990D01*
X-10860Y20570D02*
Y22210D01*
X-22541Y30480D02*
X-21644D01*
X-22542Y30480D02*
X-22541Y30480D01*
X-11768Y37540D02*
X-11768D01*
X-10340Y36947D02*
X-10340Y36947D01*
X-21644Y30480D02*
Y30793D01*
X-21644Y30794D02*
X-21644Y30793D01*
X-4837Y40780D02*
X-1645D01*
X-9655Y38782D02*
X-9653Y38784D01*
X4447Y39870D02*
X6274D01*
X6275Y39870D01*
X22173Y33217D02*
X25207Y30183D01*
X33868Y2710D02*
X34652Y3493D01*
X35670Y5952D02*
Y9613D01*
X33042Y15818D02*
X33562Y15298D01*
X33563Y15297D01*
X24910Y17170D02*
Y18960D01*
X24000Y16260D02*
X24910Y17170D01*
X22760Y16260D02*
X24000D01*
X22760Y15290D02*
Y16260D01*
X22090Y14620D02*
X22760Y15290D01*
X18000Y14620D02*
X22090D01*
X17290Y15330D02*
X18000Y14620D01*
D50*
X10Y26770D02*
D03*
D133*
X7520Y-21413D02*
X7560Y-21453D01*
X7520Y-21413D02*
Y-19790D01*
X-1790Y16900D02*
X-140Y18550D01*
X-4500Y-2460D02*
Y0D01*
X-4540Y-2500D02*
X-4500Y-2460D01*
X6980Y-2370D02*
Y-200D01*
Y-2370D02*
X7100Y-2490D01*
X-5905Y-20830D02*
X4885D01*
X-6528Y-21453D02*
X-5905Y-20830D01*
X4885D02*
X5508Y-21453D01*
X5560D01*
X-6580D02*
X-6528D01*
X-10740Y-10D02*
Y1762D01*
X-10760Y1782D02*
X-10740Y1762D01*
X-10760Y1782D02*
Y3550D01*
X-9005Y5305D02*
Y11040D01*
X-10760Y3550D02*
X-9005Y5305D01*
X4045Y-21968D02*
X4560Y-21453D01*
X-7065Y-21968D02*
X4045D01*
X-7580Y-21453D02*
X-7065Y-21968D01*
X-14550Y-5460D02*
X-5268D01*
X-17550Y-310D02*
X-13950Y-3910D01*
X-5280D01*
X-26430Y6420D02*
Y20070D01*
Y6420D02*
X-14550Y-5460D01*
X-17550Y-310D02*
Y820D01*
X2510Y35770D02*
Y39058D01*
X-15190Y13020D02*
X-5170D01*
X-6870Y11600D02*
X-5194D01*
X-5174Y11580D01*
X-5170D01*
X-20280Y23280D02*
X-8410Y35150D01*
X1890D01*
X-20280Y14230D02*
Y23280D01*
X1890Y35150D02*
X2510Y35770D01*
X-19070Y13020D02*
X-15190D01*
X-20280Y14230D02*
X-19070Y13020D01*
X-5170D02*
X-3530Y14660D01*
X-800Y31760D02*
X1026D01*
X1166Y31900D01*
X1170D01*
X-2600Y31760D02*
X-800D01*
X-2600Y30270D02*
Y31760D01*
X-5210Y27660D02*
X-2600Y30270D01*
X-5210Y27660D02*
X-2780Y25230D01*
Y22690D02*
Y25230D01*
X-3530Y16900D02*
Y21940D01*
X-2780Y22690D01*
X-140Y18550D02*
Y21390D01*
X-3530Y14660D02*
Y16900D01*
D141*
X4560Y-21453D02*
D03*
X-7580D02*
D03*
X10101D02*
D03*
X-14993D02*
D03*
D142*
X5560D02*
D03*
X6560D02*
D03*
X7560D02*
D03*
X-6580D02*
D03*
X-5580D02*
D03*
X-4580D02*
D03*
X15023D02*
D03*
X14039D02*
D03*
X13054D02*
D03*
X12070D02*
D03*
X11086D02*
D03*
X-14009D02*
D03*
X-13024D02*
D03*
X-12040D02*
D03*
X-11056D02*
D03*
X-10072D02*
D03*
D143*
X2510Y39058D02*
D03*
X16290Y15330D02*
D03*
X16480Y530D02*
D03*
X-17550Y820D02*
D03*
X-16180Y16690D02*
D03*
X-4500Y0D02*
D03*
D144*
X1510Y39058D02*
D03*
X510D02*
D03*
X-490D02*
D03*
X-1490D02*
D03*
X-2490D02*
D03*
X17290Y15330D02*
D03*
X18290D02*
D03*
X19290D02*
D03*
X20290D02*
D03*
X21290D02*
D03*
X15480Y530D02*
D03*
X14480D02*
D03*
X13480D02*
D03*
X-14550Y820D02*
D03*
X-15550D02*
D03*
X-16550D02*
D03*
X-13180Y16690D02*
D03*
X-14180D02*
D03*
X-15180D02*
D03*
X-15820Y25750D02*
D03*
Y24750D02*
D03*
Y23750D02*
D03*
X-2500Y0D02*
D03*
X4500D02*
D03*
X3500D02*
D03*
X2500D02*
D03*
X1500D02*
D03*
X500D02*
D03*
X-500D02*
D03*
X-1500D02*
D03*
X-3500D02*
D03*
X33868Y3710D02*
D03*
Y4710D02*
D03*
Y5710D02*
D03*
Y6710D02*
D03*
Y7710D02*
D03*
X32286Y16858D02*
D03*
X31643Y17624D02*
D03*
X31000Y18390D02*
D03*
X30357Y19156D02*
D03*
X29714Y19922D02*
D03*
X25328Y28270D02*
D03*
X24462Y28770D02*
D03*
X23596Y29270D02*
D03*
X22730Y29770D02*
D03*
X21864Y30270D02*
D03*
X14554Y36139D02*
D03*
X13570Y36313D02*
D03*
X12585Y36486D02*
D03*
X11600Y36660D02*
D03*
X10615Y36834D02*
D03*
X-15264Y36079D02*
D03*
X-14280Y36253D02*
D03*
X-13295Y36426D02*
D03*
X-12310Y36600D02*
D03*
X-11325Y36774D02*
D03*
X-22510Y29980D02*
D03*
X-23376Y29480D02*
D03*
X-24242Y28980D02*
D03*
X-25108Y28480D02*
D03*
X-25974Y27980D02*
D03*
X-30217Y19426D02*
D03*
X-30860Y18660D02*
D03*
X-31503Y17894D02*
D03*
X-32146Y17128D02*
D03*
X-32788Y16362D02*
D03*
X-33848Y6710D02*
D03*
Y5710D02*
D03*
Y4710D02*
D03*
Y3710D02*
D03*
Y2710D02*
D03*
D145*
X23180Y16985D02*
D03*
Y20135D02*
D03*
X28460Y4551D02*
D03*
Y1402D02*
D03*
D146*
X22263Y17627D02*
D03*
Y19493D02*
D03*
X24097D02*
D03*
Y17627D02*
D03*
X29377Y2044D02*
D03*
Y3910D02*
D03*
X27543D02*
D03*
Y2044D02*
D03*
D147*
X-15820Y22750D02*
D03*
X33868Y2710D02*
D03*
X-33848Y7710D02*
D03*
D148*
X-1407Y-17088D02*
D03*
X1427D02*
D03*
D149*
X-2647Y-19450D02*
D03*
X2667D02*
D03*
D150*
X32928Y16092D02*
D03*
D151*
X26194Y27770D02*
D03*
D152*
X15539Y35965D02*
D03*
D153*
X-10340Y36947D02*
D03*
D154*
X-21644Y30480D02*
D03*
D155*
X-29574Y20192D02*
D03*
D156*
X12663Y2074D02*
D03*
X10953Y3578D02*
D03*
X7053Y21178D02*
D03*
X6653Y22928D02*
D03*
X6630Y23910D02*
D03*
X4503Y22928D02*
D03*
X12503Y18378D02*
D03*
Y20128D02*
D03*
X13303Y17628D02*
D03*
X14403Y16678D02*
D03*
X11385Y18396D02*
D03*
X11453Y20828D02*
D03*
X11488Y22299D02*
D03*
X10003Y24928D02*
D03*
X11453Y23378D02*
D03*
X10253Y21528D02*
D03*
X10381Y23075D02*
D03*
X10119Y20404D02*
D03*
X7853Y19928D02*
D03*
X8453Y19278D02*
D03*
X10301Y18419D02*
D03*
X10403Y17278D02*
D03*
X9353D02*
D03*
X10753Y15978D02*
D03*
X7903Y22578D02*
D03*
X7853Y23878D02*
D03*
X9203Y25678D02*
D03*
X7553Y25728D02*
D03*
X5403Y25578D02*
D03*
X3125Y25705D02*
D03*
X-4247Y10978D02*
D03*
X-1947Y9978D02*
D03*
X-3197Y11028D02*
D03*
X-3647Y11478D02*
D03*
X-4347Y12228D02*
D03*
X-4650Y12700D02*
D03*
X-5297Y10678D02*
D03*
X-4147Y9378D02*
D03*
X-4650Y9950D02*
D03*
X-3497Y9478D02*
D03*
Y8778D02*
D03*
X-10800Y14100D02*
D03*
X-18850Y14800D02*
D03*
X-14000Y15100D02*
D03*
X-12850Y5550D02*
D03*
X-16200Y10550D02*
D03*
X-16150Y7700D02*
D03*
X-12722Y13929D02*
D03*
X-21236Y17029D02*
D03*
X-19740Y14940D02*
D03*
X-17880Y15520D02*
D03*
X-21860Y5590D02*
D03*
X-32760Y8980D02*
D03*
X-31190Y10300D02*
D03*
X-29040Y12240D02*
D03*
X-27548Y14140D02*
D03*
X-23750Y17630D02*
D03*
X-2312Y-18371D02*
D03*
X-1082Y-18681D02*
D03*
X-942Y-19921D02*
D03*
X-1882Y-19871D02*
D03*
X1793Y-18863D02*
D03*
X2219Y-20097D02*
D03*
X1254Y-20052D02*
D03*
X940Y-19356D02*
D03*
X1048Y-18551D02*
D03*
X20468Y4799D02*
D03*
X23350Y4820D02*
D03*
X23628Y4329D02*
D03*
X23638Y3689D02*
D03*
X23598Y2799D02*
D03*
X23058Y2059D02*
D03*
X22378D02*
D03*
X21598Y2049D02*
D03*
X20878Y2069D02*
D03*
X20238Y2379D02*
D03*
X20038Y2969D02*
D03*
X11398Y29979D02*
D03*
X11834Y29584D02*
D03*
X11938Y29169D02*
D03*
X11948Y28559D02*
D03*
X11768Y27299D02*
D03*
X11238Y26729D02*
D03*
X9008Y26489D02*
D03*
X8070Y26480D02*
D03*
X7470D02*
D03*
X6648Y26549D02*
D03*
X6098Y27239D02*
D03*
X4918D02*
D03*
X5856Y29727D02*
D03*
X6368Y29869D02*
D03*
X2668Y-5911D02*
D03*
X1328D02*
D03*
X-222Y-5861D02*
D03*
X-1282Y-5851D02*
D03*
X3846Y-2708D02*
D03*
X2297D02*
D03*
X1568Y-2711D02*
D03*
X338Y-2681D02*
D03*
X-532Y-2711D02*
D03*
X20440Y-19824D02*
D03*
X20908Y-19281D02*
D03*
X18888Y-20905D02*
D03*
X19848Y-20351D02*
D03*
X17588Y-21251D02*
D03*
X8710Y-22322D02*
D03*
X6918Y-16601D02*
D03*
X16378Y-7211D02*
D03*
X15838Y-9091D02*
D03*
X16518Y-10441D02*
D03*
X14558Y-10471D02*
D03*
X14583Y-11360D02*
D03*
X13679Y-11224D02*
D03*
X13188Y-9021D02*
D03*
X13308Y-8291D02*
D03*
X19618Y-11631D02*
D03*
X18900Y-10730D02*
D03*
X18217Y-10031D02*
D03*
X17459Y-9333D02*
D03*
X19118Y-9711D02*
D03*
X18398Y-8971D02*
D03*
X17838Y-8196D02*
D03*
X19274Y-8694D02*
D03*
X19298Y-7621D02*
D03*
X19314Y-6540D02*
D03*
X18158Y-6081D02*
D03*
X18938Y-5821D02*
D03*
X5228Y3169D02*
D03*
X8530Y4240D02*
D03*
X13998Y21627D02*
D03*
X14114Y20073D02*
D03*
X14645Y19309D02*
D03*
X14800Y20850D02*
D03*
X16665Y20215D02*
D03*
X17728Y20259D02*
D03*
X21921Y20215D02*
D03*
X20748Y20019D02*
D03*
X19398Y20039D02*
D03*
X18258Y18549D02*
D03*
X18228Y17779D02*
D03*
X20108Y16959D02*
D03*
X21158Y16499D02*
D03*
X21278Y18239D02*
D03*
X10258Y31549D02*
D03*
X9088Y31369D02*
D03*
X7958Y31379D02*
D03*
X6810Y31350D02*
D03*
X-4302Y31059D02*
D03*
X-21070Y13560D02*
D03*
X-7102Y13729D02*
D03*
X-11022Y-23331D02*
D03*
X-14742Y-23691D02*
D03*
X-17692D02*
D03*
X-19842Y-23071D02*
D03*
X17678Y-2621D02*
D03*
X15828Y-1661D02*
D03*
X20192Y-1912D02*
D03*
X22978Y-1301D02*
D03*
X21258Y-771D02*
D03*
X18848Y-741D02*
D03*
X10198Y-9674D02*
D03*
X10401Y-7112D02*
D03*
X10832Y-4296D02*
D03*
X13749Y-4322D02*
D03*
X14155Y-2952D02*
D03*
X12125Y-2850D02*
D03*
X9868Y-2821D02*
D03*
X5658Y-9881D02*
D03*
X5578Y-8181D02*
D03*
X7940Y-11475D02*
D03*
Y-9065D02*
D03*
X7382Y-6934D02*
D03*
X5658Y-6451D02*
D03*
X6697Y-4930D02*
D03*
X5888Y-3311D02*
D03*
X3578Y-1351D02*
D03*
X1421Y-1354D02*
D03*
X-352Y-1451D02*
D03*
X-3042Y1209D02*
D03*
X-6856Y-15750D02*
D03*
X-7992Y-15636D02*
D03*
X-1772Y-12071D02*
D03*
X-1992Y-10501D02*
D03*
X-4335Y-7595D02*
D03*
X-4607Y-10026D02*
D03*
X-3358Y-9503D02*
D03*
X-4085Y-8663D02*
D03*
X-6129Y-10003D02*
D03*
X-6175Y-8912D02*
D03*
X-6222Y-8031D02*
D03*
X-11672Y-7391D02*
D03*
X-10786Y-8140D02*
D03*
X-12692Y-7661D02*
D03*
X-10422Y-6691D02*
D03*
X-11582Y-6621D02*
D03*
X-12692Y-6551D02*
D03*
X-11282Y-13301D02*
D03*
X-10992Y-14301D02*
D03*
X-11442Y-11411D02*
D03*
X-11532Y-9681D02*
D03*
X-13402Y-8961D02*
D03*
X-12649Y-9185D02*
D03*
X-14682Y-2151D02*
D03*
X-16572Y-4391D02*
D03*
X-18142Y-5491D02*
D03*
X-17702Y-6471D02*
D03*
X-20028Y-10490D02*
D03*
X-20042Y-9911D02*
D03*
X-19952Y-8761D02*
D03*
X-21442Y-10051D02*
D03*
X-21102Y-8641D02*
D03*
X-20282Y-7951D02*
D03*
X-21300Y-5980D02*
D03*
X-22480Y-6930D02*
D03*
X-22380Y-880D02*
D03*
X-19050Y-2430D02*
D03*
X-20080Y-1580D02*
D03*
X-17700Y-3130D02*
D03*
X-18910Y-4220D02*
D03*
X-19840Y-5260D02*
D03*
X-17402Y-4993D02*
D03*
X4990Y1950D02*
D03*
X5610Y1240D02*
D03*
X1670Y1960D02*
D03*
X2130Y1460D02*
D03*
X1120Y1420D02*
D03*
X340Y1870D02*
D03*
X-590Y1440D02*
D03*
X-1520Y2960D02*
D03*
X5797Y10012D02*
D03*
X6160Y10520D02*
D03*
X6240Y11350D02*
D03*
X5970Y11840D02*
D03*
X5470Y12230D02*
D03*
X4920Y12710D02*
D03*
X4100Y12920D02*
D03*
X3320Y12550D02*
D03*
X2800Y13090D02*
D03*
X2540Y14380D02*
D03*
X2980Y15010D02*
D03*
X2400Y15550D02*
D03*
X-1740Y15660D02*
D03*
X-1710Y14150D02*
D03*
X-1770Y12940D02*
D03*
X-4260Y17440D02*
D03*
X-5095Y16429D02*
D03*
X-6910Y15890D02*
D03*
X-17710Y16800D02*
D03*
X-7340Y17330D02*
D03*
X-9320Y19150D02*
D03*
X-7560Y19180D02*
D03*
X-6007Y19427D02*
D03*
X-5230Y20000D02*
D03*
X-4100Y22390D02*
D03*
X-4653Y22687D02*
D03*
X-7980Y20610D02*
D03*
X-9420D02*
D03*
X-13090Y19090D02*
D03*
X-16010Y19150D02*
D03*
X-13270Y20700D02*
D03*
X-15940Y20660D02*
D03*
X-19580Y20480D02*
D03*
X-19620Y19220D02*
D03*
X-22100Y18990D02*
D03*
X-11300Y7850D02*
D03*
X-11450Y10650D02*
D03*
X-21050Y10100D02*
D03*
X-21100Y7250D02*
D03*
X-25660Y10010D02*
D03*
X-25740Y12180D02*
D03*
X-24360Y5250D02*
D03*
X-27820Y5850D02*
D03*
X-27980Y7390D02*
D03*
X-25710Y7800D02*
D03*
X-29640Y13730D02*
D03*
X-28010Y16390D02*
D03*
X-30650Y16250D02*
D03*
X-28051Y18887D02*
D03*
X-24890Y19700D02*
D03*
X-23160Y21580D02*
D03*
X-21470Y22100D02*
D03*
X-18290Y22140D02*
D03*
X-15030Y22030D02*
D03*
X-14440Y23650D02*
D03*
X-13210Y22460D02*
D03*
X-8265Y23131D02*
D03*
X-11070Y23800D02*
D03*
X-12590Y25940D02*
D03*
X-18716Y25771D02*
D03*
X-22236Y24597D02*
D03*
X-25490Y24340D02*
D03*
X-16930Y27730D02*
D03*
X-20320Y27550D02*
D03*
X-23020Y27640D02*
D03*
X-18370Y30200D02*
D03*
X-16400Y34020D02*
D03*
X-18770Y32620D02*
D03*
X-15670Y31320D02*
D03*
X-11273Y30702D02*
D03*
X-10355Y31781D02*
D03*
X-10220Y28840D02*
D03*
X-8570Y28330D02*
D03*
X-10090Y27280D02*
D03*
X-11950Y28890D02*
D03*
X-9650Y30030D02*
D03*
X-12823Y33565D02*
D03*
X-13572Y33989D02*
D03*
X-14750Y34510D02*
D03*
X9391Y12955D02*
D03*
X8438Y13797D02*
D03*
X7263Y14994D02*
D03*
X6265Y16125D02*
D03*
X5310Y17080D02*
D03*
X4540Y17900D02*
D03*
X14079Y11624D02*
D03*
X24150Y10062D02*
D03*
X27389Y7681D02*
D03*
X30824Y5378D02*
D03*
X31917Y3739D02*
D03*
X32070Y1710D02*
D03*
X31332Y9438D02*
D03*
X30473Y12795D02*
D03*
X30434Y14278D02*
D03*
X25830Y15960D02*
D03*
X27860Y17910D02*
D03*
X26843Y19353D02*
D03*
X25400Y21810D02*
D03*
X22590Y20720D02*
D03*
X22670Y21680D02*
D03*
X22590Y22830D02*
D03*
X21810Y24110D02*
D03*
X20290Y24430D02*
D03*
X18460Y24520D02*
D03*
X16430Y24340D02*
D03*
X14800Y23440D02*
D03*
Y21600D02*
D03*
X23954Y24739D02*
D03*
X22080Y26460D02*
D03*
X19190Y27670D02*
D03*
X19390Y33090D02*
D03*
X16500Y32660D02*
D03*
X13100Y32620D02*
D03*
X9000Y34770D02*
D03*
X6580Y35470D02*
D03*
X3620Y36220D02*
D03*
X-8300Y36170D02*
D03*
X-2480Y36610D02*
D03*
X-4950Y36550D02*
D03*
X715Y27475D02*
D03*
Y27003D02*
D03*
X242Y27475D02*
D03*
X-230D02*
D03*
X242Y27003D02*
D03*
X-230D02*
D03*
X-702Y27475D02*
D03*
Y27003D02*
D03*
X715Y26530D02*
D03*
X242D02*
D03*
X715Y26058D02*
D03*
X242D02*
D03*
X-230Y26530D02*
D03*
X-702D02*
D03*
X-230Y26058D02*
D03*
X-702D02*
D03*
X460Y19690D02*
D03*
X-1470Y19660D02*
D03*
X18750Y3830D02*
D03*
X22250Y660D02*
D03*
X570Y17640D02*
D03*
X730Y12390D02*
D03*
X1890Y17050D02*
D03*
X4670Y8480D02*
D03*
X15460Y20240D02*
D03*
X-7300Y-14360D02*
D03*
X-7330Y-10480D02*
D03*
X-15106Y-13259D02*
D03*
Y-11689D02*
D03*
Y-12474D02*
D03*
X-14382D02*
D03*
Y-13259D02*
D03*
Y-11689D02*
D03*
X-20833Y-13259D02*
D03*
Y-11689D02*
D03*
Y-12474D02*
D03*
X-20109D02*
D03*
Y-13259D02*
D03*
Y-11689D02*
D03*
X16634Y-11689D02*
D03*
Y-13259D02*
D03*
Y-12474D02*
D03*
X15911D02*
D03*
Y-11689D02*
D03*
Y-13259D02*
D03*
X10137D02*
D03*
Y-11689D02*
D03*
Y-12474D02*
D03*
X10861D02*
D03*
Y-13259D02*
D03*
Y-11689D02*
D03*
X-4403Y-12499D02*
D03*
Y-10929D02*
D03*
X-5126D02*
D03*
Y-12499D02*
D03*
X-4403Y-11714D02*
D03*
X-3679D02*
D03*
Y-12499D02*
D03*
X-5126Y-11714D02*
D03*
X-3679Y-10929D02*
D03*
X7631Y-13479D02*
D03*
X6184Y-14264D02*
D03*
X7631Y-15049D02*
D03*
Y-14264D02*
D03*
X6907D02*
D03*
X6184Y-15049D02*
D03*
Y-13479D02*
D03*
X6907D02*
D03*
Y-15049D02*
D03*
X-1790Y16900D02*
D03*
X-2960Y2530D02*
D03*
X-4000Y3500D02*
D03*
X-6310Y-1190D02*
D03*
X-7320Y-6790D02*
D03*
X-4980Y-15200D02*
D03*
X6980Y-200D02*
D03*
X7100Y-2490D02*
D03*
X-6520Y1080D02*
D03*
X-6410Y4200D02*
D03*
X-1099Y7169D02*
D03*
X-11438Y-452D02*
D03*
X-10740Y-10D02*
D03*
X-9460Y2920D02*
D03*
X-9005Y11040D02*
D03*
X11850Y-22770D02*
D03*
X-21960Y-18420D02*
D03*
X-21750Y-17810D02*
D03*
X16937Y-16879D02*
D03*
X17660Y-16094D02*
D03*
X16937D02*
D03*
X16213D02*
D03*
X16937Y-15309D02*
D03*
X17660Y-16879D02*
D03*
X16213D02*
D03*
X17660Y-15309D02*
D03*
X16213D02*
D03*
X11159Y-16740D02*
D03*
X11882Y-15955D02*
D03*
X11159D02*
D03*
X10435D02*
D03*
X11159Y-15170D02*
D03*
X11882Y-16740D02*
D03*
X10435D02*
D03*
X11882Y-15170D02*
D03*
X10435D02*
D03*
X-14125Y-16740D02*
D03*
X-13401Y-15955D02*
D03*
X-14125D02*
D03*
X-14848D02*
D03*
X-14125Y-15170D02*
D03*
X-13401Y-16740D02*
D03*
X-14848D02*
D03*
X-13401Y-15170D02*
D03*
X-14848D02*
D03*
X-8730Y-20920D02*
D03*
X19759Y-16740D02*
D03*
X20482Y-15955D02*
D03*
X19759D02*
D03*
X19035D02*
D03*
X19759Y-15170D02*
D03*
X20482Y-16740D02*
D03*
X19035D02*
D03*
X20482Y-15170D02*
D03*
X19035D02*
D03*
X14137Y-16809D02*
D03*
X14860Y-16024D02*
D03*
X14137D02*
D03*
X13413D02*
D03*
X14137Y-15239D02*
D03*
X14860Y-16809D02*
D03*
X13413D02*
D03*
X14860Y-15239D02*
D03*
X13413D02*
D03*
X-11223Y-16819D02*
D03*
X-10500Y-16034D02*
D03*
X-11223D02*
D03*
X-11947D02*
D03*
X-11223Y-15249D02*
D03*
X-10500Y-16819D02*
D03*
X-11947D02*
D03*
X-10500Y-15249D02*
D03*
X-11947D02*
D03*
X-19793Y-16799D02*
D03*
X-19070Y-16014D02*
D03*
X-19793D02*
D03*
X-20517D02*
D03*
X-19793Y-15229D02*
D03*
X-19070Y-16799D02*
D03*
X-20517D02*
D03*
X-19070Y-15229D02*
D03*
X-20517D02*
D03*
X-16988Y-16740D02*
D03*
X-16265Y-15955D02*
D03*
X-16988D02*
D03*
X-17712D02*
D03*
X-16988Y-15170D02*
D03*
X-16265Y-16740D02*
D03*
X-17712D02*
D03*
X-16265Y-15170D02*
D03*
X-17712D02*
D03*
X383Y-13399D02*
D03*
X1563Y-13359D02*
D03*
X1003Y-13659D02*
D03*
Y-11819D02*
D03*
X1983Y-12939D02*
D03*
X1953Y-12379D02*
D03*
X-5507Y-5879D02*
D03*
X-3297Y-5009D02*
D03*
X-4807Y-5069D02*
D03*
X-2787Y-3939D02*
D03*
X-3997Y-3919D02*
D03*
X-5407Y-3989D02*
D03*
X-3537Y-2879D02*
D03*
X-4767Y-2919D02*
D03*
X-4120Y-2000D02*
D03*
X-3009Y-2046D02*
D03*
X-5309Y-2006D02*
D03*
X-10640Y5590D02*
D03*
X-17360Y5630D02*
D03*
X-26430Y20070D02*
D03*
X9950Y-370D02*
D03*
X5870Y3480D02*
D03*
X2630Y4077D02*
D03*
X-620Y5560D02*
D03*
X-1400Y5800D02*
D03*
X5230Y3680D02*
D03*
X3050Y3820D02*
D03*
X-170Y2360D02*
D03*
X5311Y7881D02*
D03*
X4810Y6450D02*
D03*
X-4440Y5510D02*
D03*
X-5520Y15120D02*
D03*
X-5060Y14730D02*
D03*
X-5170Y11580D02*
D03*
X-6870Y11600D02*
D03*
X-8351Y14270D02*
D03*
X-10870Y15790D02*
D03*
X-8600Y-270D02*
D03*
X-16380Y13650D02*
D03*
X-16930D02*
D03*
X-16380Y13010D02*
D03*
X-16940Y13020D02*
D03*
X4860Y21120D02*
D03*
X9200Y23310D02*
D03*
X7006Y24550D02*
D03*
X9850Y22070D02*
D03*
X11700Y25180D02*
D03*
X10450Y23920D02*
D03*
X11360Y26220D02*
D03*
X11270Y19200D02*
D03*
X5420Y26460D02*
D03*
X12370Y28060D02*
D03*
X5071Y24113D02*
D03*
X2360Y26670D02*
D03*
X1980Y27110D02*
D03*
X3170Y27840D02*
D03*
X5440Y28250D02*
D03*
X4790Y31390D02*
D03*
X2870Y31920D02*
D03*
X1170Y31900D02*
D03*
X-800Y31760D02*
D03*
X-2600D02*
D03*
X-1270Y32260D02*
D03*
X-5210Y27660D02*
D03*
X-4130Y19310D02*
D03*
X-4500Y18880D02*
D03*
X-140Y21390D02*
D03*
X-3530Y16900D02*
D03*
X-4633Y14277D02*
D03*
X3720Y18800D02*
D03*
X5520Y31230D02*
D03*
X-7620Y25990D02*
D03*
X-10860Y22210D02*
D03*
Y20570D02*
D03*
Y19200D02*
D03*
X-5960Y15510D02*
D03*
X5110Y28830D02*
D03*
X1860Y31740D02*
D03*
X-5250Y29230D02*
D03*
X-5590Y21720D02*
D03*
X-592Y7312D02*
D03*
X640Y6430D02*
D03*
X1897Y7323D02*
D03*
X2540Y7250D02*
D03*
X8950Y2680D02*
D03*
X6180Y4350D02*
D03*
X4490Y5160D02*
D03*
X6810Y4680D02*
D03*
X19360Y5780D02*
D03*
X18780Y6129D02*
D03*
X17440Y4260D02*
D03*
X3530Y5197D02*
D03*
X3980Y5170D02*
D03*
X1173Y5600D02*
D03*
X-2538Y6925D02*
D03*
X-2797Y7260D02*
D03*
X-2280Y7230D02*
D03*
X-3060Y6940D02*
D03*
X30Y23390D02*
D03*
X-1047Y23763D02*
D03*
X-630Y23365D02*
D03*
X950Y23770D02*
D03*
X460Y23820D02*
D03*
X-260Y23790D02*
D03*
X1511Y5171D02*
D03*
X27124Y3330D02*
D03*
X24380Y4560D02*
D03*
X24940Y4680D02*
D03*
X16753Y3700D02*
D03*
X17010Y3270D02*
D03*
X24902Y5510D02*
D03*
X29366Y2756D02*
D03*
X22760Y16260D02*
D03*
X3356Y26270D02*
D03*
X8700Y24960D02*
D03*
X11380Y17670D02*
D03*
X15320Y16930D02*
D03*
X15300Y15290D02*
D03*
X16690Y18640D02*
D03*
X19080Y18380D02*
D03*
X18800Y18730D02*
D03*
X24400Y18640D02*
D03*
X24910Y18960D02*
D03*
X21810Y19050D02*
D03*
X20930Y19020D02*
D03*
X-5500Y23720D02*
D03*
X-3490Y23540D02*
D03*
X2550Y21845D02*
D03*
X1880Y21210D02*
D03*
X4170Y32810D02*
D03*
X4140Y31540D02*
D03*
X2860Y30250D02*
D03*
D157*
X-237Y-9197D02*
D03*
X157D02*
D03*
Y-8803D02*
D03*
X-237D02*
D03*
D158*
X12490Y-12560D02*
D03*
D159*
X-12756Y-12555D02*
D03*
D160*
X-4425Y-11755D02*
D03*
D161*
X7155Y-13860D02*
D03*
D162*
X16955Y-16030D02*
D03*
D163*
X11130Y-15965D02*
D03*
D164*
X-14055Y-15980D02*
D03*
D165*
X-19765Y-16030D02*
D03*
D166*
X-11120Y-16350D02*
D03*
D167*
X-16875Y-16640D02*
D03*
D168*
X14100Y-16655D02*
D03*
D169*
X14130Y-19025D02*
D03*
D170*
X-10450Y-19090D02*
D03*
D171*
X-1745Y-17620D02*
D03*
D172*
X-16655Y13315D02*
D03*
M02*
