G04*
G04 #@! TF.GenerationSoftware,Altium Limited,Altium Designer,20.1.11 (218)*
G04*
G04 Layer_Color=8388736*
%FSLAX24Y24*%
%MOIN*%
G70*
G04*
G04 #@! TF.SameCoordinates,BD3A0D93-D2E9-4D9D-BC1F-92CABD7513BA*
G04*
G04*
G04 #@! TF.FilePolarity,Negative*
G04*
G01*
G75*
%ADD70R,0.0395X0.0434*%
%ADD71R,0.1497X0.0946*%
%ADD72R,0.0552X0.0946*%
%ADD73R,0.1363X0.0438*%
%ADD74R,0.2442X0.2718*%
%ADD75R,0.0552X0.0867*%
%ADD76R,0.0867X0.0867*%
%ADD77R,0.0867X0.0867*%
%ADD78R,0.2049X0.0671*%
%ADD79R,0.0434X0.0395*%
%ADD80R,0.1143X0.0671*%
G04:AMPARAMS|DCode=81|XSize=67.1mil|YSize=114.3mil|CornerRadius=0mil|HoleSize=0mil|Usage=FLASHONLY|Rotation=135.000|XOffset=0mil|YOffset=0mil|HoleType=Round|Shape=Rectangle|*
%AMROTATEDRECTD81*
4,1,4,0.0641,0.0167,-0.0167,-0.0641,-0.0641,-0.0167,0.0167,0.0641,0.0641,0.0167,0.0*
%
%ADD81ROTATEDRECTD81*%

%ADD82R,0.2245X0.0592*%
%ADD83R,0.0710X0.0867*%
%ADD84R,0.0710X0.0867*%
%ADD85O,0.0671X0.0186*%
%ADD86O,0.0186X0.0671*%
%ADD87O,0.0900X0.0223*%
%ADD88R,0.0474X0.0316*%
G04:AMPARAMS|DCode=89|XSize=71mil|YSize=19.8mil|CornerRadius=0mil|HoleSize=0mil|Usage=FLASHONLY|Rotation=135.000|XOffset=0mil|YOffset=0mil|HoleType=Round|Shape=Round|*
%AMOVALD89*
21,1,0.0512,0.0198,0.0000,0.0000,135.0*
1,1,0.0198,0.0181,-0.0181*
1,1,0.0198,-0.0181,0.0181*
%
%ADD89OVALD89*%

G04:AMPARAMS|DCode=90|XSize=19.8mil|YSize=71mil|CornerRadius=0mil|HoleSize=0mil|Usage=FLASHONLY|Rotation=135.000|XOffset=0mil|YOffset=0mil|HoleType=Round|Shape=Round|*
%AMOVALD90*
21,1,0.0512,0.0198,0.0000,0.0000,225.0*
1,1,0.0198,0.0181,0.0181*
1,1,0.0198,-0.0181,-0.0181*
%
%ADD90OVALD90*%

%ADD91O,0.0316X0.1005*%
%ADD92O,0.0885X0.0312*%
%ADD93R,0.0502X0.0289*%
%ADD94O,0.0690X0.0178*%
%ADD95O,0.0178X0.0690*%
%ADD96R,0.1852X0.1852*%
%ADD97O,0.1064X0.0356*%
%ADD98O,0.0306X0.0882*%
%ADD99R,0.0580X0.0440*%
%ADD100R,0.0440X0.0440*%
%ADD101R,0.0440X0.0440*%
%ADD102R,0.0440X0.0580*%
G04:AMPARAMS|DCode=103|XSize=39.5mil|YSize=43.4mil|CornerRadius=0mil|HoleSize=0mil|Usage=FLASHONLY|Rotation=45.000|XOffset=0mil|YOffset=0mil|HoleType=Round|Shape=Rectangle|*
%AMROTATEDRECTD103*
4,1,4,0.0014,-0.0293,-0.0293,0.0014,-0.0014,0.0293,0.0293,-0.0014,0.0014,-0.0293,0.0*
%
%ADD103ROTATEDRECTD103*%

G04:AMPARAMS|DCode=104|XSize=39.5mil|YSize=43.4mil|CornerRadius=0mil|HoleSize=0mil|Usage=FLASHONLY|Rotation=135.000|XOffset=0mil|YOffset=0mil|HoleType=Round|Shape=Rectangle|*
%AMROTATEDRECTD104*
4,1,4,0.0293,0.0014,-0.0014,-0.0293,-0.0293,-0.0014,0.0014,0.0293,0.0293,0.0014,0.0*
%
%ADD104ROTATEDRECTD104*%

%ADD105R,0.2639X0.2363*%
%ADD106R,0.1261X0.0671*%
%ADD107R,0.1054X0.1387*%
%ADD108O,0.0867X0.0474*%
%ADD109O,0.0474X0.0867*%
%ADD110R,0.0395X0.0395*%
%ADD111R,0.0395X0.0395*%
%ADD112R,0.0680X0.0680*%
%ADD113R,0.0552X0.0710*%
%ADD114R,0.0474X0.0206*%
%ADD115R,0.0438X0.1363*%
%ADD116R,0.0710X0.0710*%
%ADD117C,0.0710*%
%ADD118R,0.0671X0.0671*%
%ADD119C,0.0671*%
%ADD120C,0.0375*%
%ADD121O,0.0474X0.0710*%
%ADD122R,0.0671X0.0671*%
%ADD123C,0.1576*%
%ADD124O,0.0552X0.0946*%
%ADD125P,0.0948X4X175.0*%
%ADD126P,0.0948X4X195.0*%
%ADD127P,0.0948X4X215.0*%
%ADD128P,0.0948X4X235.0*%
%ADD129P,0.0948X4X255.0*%
%ADD130P,0.0948X4X275.0*%
%ADD131C,0.0080*%
%ADD132C,0.0320*%
G36*
X4880Y-14990D02*
X950D01*
Y-16580D01*
X1860D01*
X1858Y-15628D01*
X4880Y-15653D01*
Y-14990D01*
D02*
G37*
D70*
X-13515Y13480D02*
D03*
X-14066D02*
D03*
X-13515Y5600D02*
D03*
X-14066D02*
D03*
X-13515Y14280D02*
D03*
X-14066D02*
D03*
X20761Y1750D02*
D03*
X20210D02*
D03*
X20760Y5950D02*
D03*
X20209D02*
D03*
X13806Y4623D02*
D03*
X13255D02*
D03*
X13806Y5400D02*
D03*
X13255D02*
D03*
X-28918Y6546D02*
D03*
X-29469D02*
D03*
X-29463Y5610D02*
D03*
X-28911D02*
D03*
X12039Y20136D02*
D03*
X12590D02*
D03*
X12039Y18498D02*
D03*
X12590D02*
D03*
Y16860D02*
D03*
X12039D02*
D03*
Y23485D02*
D03*
X12590D02*
D03*
X12039Y21810D02*
D03*
X12590D02*
D03*
X12045Y17677D02*
D03*
X12596D02*
D03*
X12039Y22647D02*
D03*
X12590D02*
D03*
X12596Y19315D02*
D03*
X12045D02*
D03*
X12596Y16039D02*
D03*
X12045D02*
D03*
X12596Y15220D02*
D03*
X12045D02*
D03*
X21611Y670D02*
D03*
X21060D02*
D03*
X13249Y3070D02*
D03*
X13800D02*
D03*
X9920Y12070D02*
D03*
X10471D02*
D03*
X25630Y5490D02*
D03*
X26181D02*
D03*
X25629Y4670D02*
D03*
X26180D02*
D03*
X26350Y3880D02*
D03*
X25799D02*
D03*
X24440Y3890D02*
D03*
X24991D02*
D03*
X10350Y26080D02*
D03*
X9799Y26080D02*
D03*
X9200Y23910D02*
D03*
X9751Y23910D02*
D03*
X9490Y24995D02*
D03*
X10041Y24995D02*
D03*
X15220Y-4690D02*
D03*
X14669D02*
D03*
X12168Y-12242D02*
D03*
X11617D02*
D03*
X17344Y-12240D02*
D03*
X17895D02*
D03*
X-6019Y27020D02*
D03*
X-6570D02*
D03*
X6079Y25677D02*
D03*
X6630D02*
D03*
X6079Y24793D02*
D03*
X6630D02*
D03*
X15034Y-12242D02*
D03*
X14483D02*
D03*
X20110Y-12240D02*
D03*
X20662D02*
D03*
X-16129Y-4690D02*
D03*
X-16680D02*
D03*
X4320Y-12180D02*
D03*
X3769Y-12180D02*
D03*
X-19393Y-12242D02*
D03*
X-18842D02*
D03*
X-13122Y-12240D02*
D03*
X-13673D02*
D03*
X-3879Y-17200D02*
D03*
X-4430D02*
D03*
X-16530Y-12242D02*
D03*
X-15979D02*
D03*
X-10258Y-12240D02*
D03*
X-10810D02*
D03*
X-23603Y14280D02*
D03*
X-23051D02*
D03*
X-23603Y13480D02*
D03*
X-23051D02*
D03*
X-18844Y14280D02*
D03*
X-18293D02*
D03*
X-18844Y13480D02*
D03*
X-18293D02*
D03*
X-8870D02*
D03*
X-9421D02*
D03*
X-8849Y14270D02*
D03*
X-9400Y14270D02*
D03*
X-28918Y7480D02*
D03*
X-29469D02*
D03*
X19960Y23210D02*
D03*
X20511D02*
D03*
X17481Y23200D02*
D03*
X16930D02*
D03*
X20760Y16480D02*
D03*
X20209D02*
D03*
X-6600Y29300D02*
D03*
X-6049D02*
D03*
X6630Y29160D02*
D03*
X6079D02*
D03*
X6079Y23910D02*
D03*
X6630D02*
D03*
X-6059Y23720D02*
D03*
X-6610D02*
D03*
X-6049Y25730D02*
D03*
X-6600D02*
D03*
X6079Y31210D02*
D03*
X6630D02*
D03*
X-6049Y28430D02*
D03*
X-6600D02*
D03*
X6079Y26560D02*
D03*
X6630D02*
D03*
X6079Y28240D02*
D03*
X6630D02*
D03*
X14069Y-9290D02*
D03*
X14620D02*
D03*
X-18844Y5600D02*
D03*
X-18293D02*
D03*
X-17431Y-9290D02*
D03*
X-16880D02*
D03*
X-9278Y5600D02*
D03*
X-8727D02*
D03*
X-23603D02*
D03*
X-23051D02*
D03*
X1680Y-6650D02*
D03*
X1129D02*
D03*
D71*
X-13794Y9271D02*
D03*
X-18572D02*
D03*
X-9005D02*
D03*
X-23330D02*
D03*
D72*
X-12888Y6830D02*
D03*
X-13794D02*
D03*
X-14699D02*
D03*
X-19477D02*
D03*
X-18572D02*
D03*
X-17666D02*
D03*
X-9911D02*
D03*
X-9005D02*
D03*
X-8100D02*
D03*
X-24236D02*
D03*
X-23330D02*
D03*
X-22424D02*
D03*
D73*
X-14805Y11589D02*
D03*
X-12782D02*
D03*
X-19584D02*
D03*
X-17560D02*
D03*
X-7994D02*
D03*
X-10017D02*
D03*
X-22318D02*
D03*
X-24342D02*
D03*
X970Y-12700D02*
D03*
X-1054D02*
D03*
D74*
X-16925Y-16001D02*
D03*
X-11198D02*
D03*
X-19788D02*
D03*
X-14061D02*
D03*
X14089D02*
D03*
X19822D02*
D03*
X11222D02*
D03*
X16955D02*
D03*
D75*
X-16019Y-13279D02*
D03*
X-17814D02*
D03*
X-12088D02*
D03*
X-10292D02*
D03*
X-18882D02*
D03*
X-20678D02*
D03*
X-14951D02*
D03*
X-13156D02*
D03*
X14994D02*
D03*
X13199D02*
D03*
X18932D02*
D03*
X20728D02*
D03*
X12128D02*
D03*
X10332D02*
D03*
X16066D02*
D03*
X17861D02*
D03*
D76*
X870Y-15430D02*
D03*
X-941D02*
D03*
X-14290Y-4520D02*
D03*
X-12479D02*
D03*
X-11570Y-19980D02*
D03*
X-13381D02*
D03*
X-17441Y-10390D02*
D03*
X-15630D02*
D03*
X18920Y-4490D02*
D03*
X17109D02*
D03*
X11639Y-20070D02*
D03*
X13450D02*
D03*
X13680Y-10430D02*
D03*
X15491D02*
D03*
X-40Y-9000D02*
D03*
D77*
X2210Y-10741D02*
D03*
Y-8930D02*
D03*
X-5820Y-16859D02*
D03*
Y-18670D02*
D03*
X-7420Y-16880D02*
D03*
Y-18691D02*
D03*
D78*
X12111Y9540D02*
D03*
X8489D02*
D03*
D79*
X26840Y1370D02*
D03*
Y819D02*
D03*
X16460Y6419D02*
D03*
Y6970D02*
D03*
X14920Y3080D02*
D03*
Y2529D02*
D03*
X18060Y6970D02*
D03*
Y6419D02*
D03*
X23640Y15591D02*
D03*
Y15040D02*
D03*
X17260Y6970D02*
D03*
Y6419D02*
D03*
X20530Y3299D02*
D03*
Y3850D02*
D03*
X14920Y4379D02*
D03*
Y4930D02*
D03*
X22430Y5941D02*
D03*
Y5390D02*
D03*
X15480Y19069D02*
D03*
Y19620D02*
D03*
X18020Y360D02*
D03*
Y911D02*
D03*
X6560Y6460D02*
D03*
Y5909D02*
D03*
X-766Y15763D02*
D03*
Y15212D02*
D03*
X26500Y2950D02*
D03*
Y2399D02*
D03*
X5610Y5890D02*
D03*
Y6441D02*
D03*
X-3Y15778D02*
D03*
Y15227D02*
D03*
X-3542Y32829D02*
D03*
Y33381D02*
D03*
X803Y15806D02*
D03*
Y15255D02*
D03*
X24280Y2369D02*
D03*
Y2920D02*
D03*
X14540Y26770D02*
D03*
Y26219D02*
D03*
X2950Y-14019D02*
D03*
Y-14570D02*
D03*
X-8730Y-17471D02*
D03*
Y-16920D02*
D03*
X-8720Y-18280D02*
D03*
Y-18831D02*
D03*
X-2040Y-7700D02*
D03*
Y-8251D02*
D03*
X-11830Y1010D02*
D03*
X-11830Y459D02*
D03*
X-11810Y2420D02*
D03*
X-11810Y1869D02*
D03*
X-2040Y-6921D02*
D03*
Y-6370D02*
D03*
X6650Y960D02*
D03*
Y409D02*
D03*
X6650Y2301D02*
D03*
Y1750D02*
D03*
X-7240Y1051D02*
D03*
Y500D02*
D03*
Y2471D02*
D03*
Y1920D02*
D03*
X11310Y910D02*
D03*
Y359D02*
D03*
X11300Y2311D02*
D03*
Y1760D02*
D03*
X22810Y3120D02*
D03*
Y2569D02*
D03*
X22790Y3880D02*
D03*
Y4431D02*
D03*
X21570Y5910D02*
D03*
Y5359D02*
D03*
X16320Y19069D02*
D03*
Y19620D02*
D03*
X24070Y769D02*
D03*
Y1320D02*
D03*
X23200Y790D02*
D03*
Y1341D02*
D03*
X-1617Y33381D02*
D03*
Y32829D02*
D03*
X-4670Y21179D02*
D03*
Y21730D02*
D03*
X1672Y33381D02*
D03*
Y32829D02*
D03*
X-2425Y20160D02*
D03*
Y20711D02*
D03*
X1395Y20160D02*
D03*
Y20711D02*
D03*
X3557Y33381D02*
D03*
Y32829D02*
D03*
X2350Y20711D02*
D03*
Y20160D02*
D03*
X440Y20711D02*
D03*
Y20160D02*
D03*
X-515Y20711D02*
D03*
Y20160D02*
D03*
X709Y32829D02*
D03*
Y33381D02*
D03*
X2634Y32829D02*
D03*
Y33381D02*
D03*
X-654Y32829D02*
D03*
Y33381D02*
D03*
X-1470Y20711D02*
D03*
Y20160D02*
D03*
X-2579Y32829D02*
D03*
Y33381D02*
D03*
X9160Y22090D02*
D03*
Y22641D02*
D03*
X18220Y-6789D02*
D03*
Y-7340D02*
D03*
X-5180Y-20381D02*
D03*
Y-19830D02*
D03*
X11090Y28070D02*
D03*
Y28621D02*
D03*
X-13280Y-6789D02*
D03*
Y-7340D02*
D03*
D80*
X21630Y3874D02*
D03*
Y3126D02*
D03*
D81*
X4085Y10286D02*
D03*
X3555Y10814D02*
D03*
D82*
X16927Y21770D02*
D03*
X20513D02*
D03*
D83*
X7820Y27490D02*
D03*
X10020Y29190D02*
D03*
Y27490D02*
D03*
D84*
X7820Y29190D02*
D03*
D85*
X19383Y2687D02*
D03*
Y2884D02*
D03*
Y3081D02*
D03*
Y3278D02*
D03*
Y3475D02*
D03*
Y3672D02*
D03*
Y3868D02*
D03*
Y4065D02*
D03*
Y4262D02*
D03*
Y4459D02*
D03*
Y4656D02*
D03*
Y4853D02*
D03*
X16037D02*
D03*
Y4656D02*
D03*
Y4459D02*
D03*
Y4262D02*
D03*
Y4065D02*
D03*
Y3868D02*
D03*
Y3672D02*
D03*
Y3475D02*
D03*
Y3278D02*
D03*
Y3081D02*
D03*
Y2884D02*
D03*
Y2687D02*
D03*
D86*
X18793Y5443D02*
D03*
X18596Y5443D02*
D03*
X18399Y5443D02*
D03*
X18202Y5443D02*
D03*
X18005Y5443D02*
D03*
X17808Y5443D02*
D03*
X17612Y5443D02*
D03*
X17415Y5443D02*
D03*
X17218Y5443D02*
D03*
X17021Y5443D02*
D03*
X16824Y5443D02*
D03*
X16627Y5443D02*
D03*
X16627Y2097D02*
D03*
X16824Y2097D02*
D03*
X17021Y2097D02*
D03*
X17218Y2097D02*
D03*
X17415Y2097D02*
D03*
X17612Y2097D02*
D03*
X17808Y2097D02*
D03*
X18005Y2097D02*
D03*
X18202Y2097D02*
D03*
X18399Y2097D02*
D03*
X18596Y2097D02*
D03*
X18793Y2097D02*
D03*
D87*
X20180Y17309D02*
D03*
Y17565D02*
D03*
Y17820D02*
D03*
Y18076D02*
D03*
Y18332D02*
D03*
Y18588D02*
D03*
Y18844D02*
D03*
Y19100D02*
D03*
Y19356D02*
D03*
Y19612D02*
D03*
X17431Y17309D02*
D03*
Y17565D02*
D03*
Y17820D02*
D03*
Y18076D02*
D03*
Y18332D02*
D03*
Y18588D02*
D03*
Y18844D02*
D03*
Y19100D02*
D03*
Y19356D02*
D03*
Y19612D02*
D03*
D88*
X24818Y716D02*
D03*
X24818Y1464D02*
D03*
X25842Y1464D02*
D03*
X25842Y1090D02*
D03*
X25842Y716D02*
D03*
D89*
X3772Y6444D02*
D03*
X3633Y6305D02*
D03*
X3494Y6165D02*
D03*
X3355Y6026D02*
D03*
X3215Y5887D02*
D03*
X3076Y5748D02*
D03*
X2937Y5609D02*
D03*
X2798Y5469D02*
D03*
X2659Y5330D02*
D03*
X2519Y5191D02*
D03*
X2380Y5052D02*
D03*
X2241Y4913D02*
D03*
X2102Y4773D02*
D03*
X1963Y4634D02*
D03*
X1823Y4495D02*
D03*
X1684Y4356D02*
D03*
X1545Y4217D02*
D03*
X1406Y4077D02*
D03*
X1267Y3938D02*
D03*
X1127Y3799D02*
D03*
X988Y3660D02*
D03*
X849Y3521D02*
D03*
X710Y3381D02*
D03*
X571Y3242D02*
D03*
X431Y3103D02*
D03*
X-3772Y7307D02*
D03*
X-3633Y7446D02*
D03*
X-3494Y7585D02*
D03*
X-3355Y7724D02*
D03*
X-3215Y7864D02*
D03*
X-3076Y8003D02*
D03*
X-2937Y8142D02*
D03*
X-2798Y8281D02*
D03*
X-2659Y8420D02*
D03*
X-2519Y8559D02*
D03*
X-2380Y8699D02*
D03*
X-2241Y8838D02*
D03*
X-2102Y8977D02*
D03*
X-1963Y9116D02*
D03*
X-1823Y9255D02*
D03*
X-1684Y9395D02*
D03*
X-1545Y9534D02*
D03*
X-1406Y9673D02*
D03*
X-1267Y9812D02*
D03*
X-1127Y9951D02*
D03*
X-988Y10091D02*
D03*
X-849Y10230D02*
D03*
X-710Y10369D02*
D03*
X-571Y10508D02*
D03*
X-431Y10647D02*
D03*
D90*
Y3103D02*
D03*
X-571Y3242D02*
D03*
X-710Y3381D02*
D03*
X-849Y3521D02*
D03*
X-988Y3660D02*
D03*
X-1127Y3799D02*
D03*
X-1267Y3938D02*
D03*
X-1406Y4077D02*
D03*
X-1545Y4217D02*
D03*
X-1684Y4356D02*
D03*
X-1823Y4495D02*
D03*
X-1963Y4634D02*
D03*
X-2102Y4773D02*
D03*
X-2241Y4913D02*
D03*
X-2380Y5052D02*
D03*
X-2519Y5191D02*
D03*
X-2659Y5330D02*
D03*
X-2798Y5469D02*
D03*
X-2937Y5609D02*
D03*
X-3076Y5748D02*
D03*
X-3215Y5887D02*
D03*
X-3355Y6026D02*
D03*
X-3494Y6165D02*
D03*
X-3633Y6305D02*
D03*
X-3772Y6444D02*
D03*
X431Y10647D02*
D03*
X571Y10508D02*
D03*
X710Y10369D02*
D03*
X849Y10230D02*
D03*
X988Y10091D02*
D03*
X1127Y9951D02*
D03*
X1267Y9812D02*
D03*
X1406Y9673D02*
D03*
X1545Y9534D02*
D03*
X1684Y9395D02*
D03*
X1823Y9255D02*
D03*
X1963Y9116D02*
D03*
X2102Y8977D02*
D03*
X2241Y8838D02*
D03*
X2380Y8699D02*
D03*
X2519Y8559D02*
D03*
X2659Y8420D02*
D03*
X2798Y8281D02*
D03*
X2937Y8142D02*
D03*
X3076Y8003D02*
D03*
X3215Y7864D02*
D03*
X3355Y7724D02*
D03*
X3494Y7585D02*
D03*
X3633Y7446D02*
D03*
X3772Y7307D02*
D03*
D91*
X13820Y-8192D02*
D03*
X14320Y-8192D02*
D03*
X14820Y-8192D02*
D03*
X15320Y-8192D02*
D03*
X15820D02*
D03*
X16320Y-8192D02*
D03*
X16820Y-8192D02*
D03*
X17320Y-8192D02*
D03*
X13820Y-5988D02*
D03*
X14320Y-5988D02*
D03*
X14820Y-5988D02*
D03*
X15320Y-5988D02*
D03*
X15820D02*
D03*
X16320Y-5988D02*
D03*
X16820Y-5988D02*
D03*
X17320Y-5988D02*
D03*
X-14130D02*
D03*
X-14630Y-5988D02*
D03*
X-15130Y-5988D02*
D03*
X-15630Y-5988D02*
D03*
X-16130D02*
D03*
X-16630Y-5988D02*
D03*
X-17130Y-5988D02*
D03*
X-17630Y-5988D02*
D03*
X-14130Y-8192D02*
D03*
X-14630Y-8192D02*
D03*
X-15130Y-8192D02*
D03*
X-15630Y-8192D02*
D03*
X-16130D02*
D03*
X-16630Y-8192D02*
D03*
X-17130Y-8192D02*
D03*
X-17630Y-8192D02*
D03*
D92*
X5937Y22620D02*
D03*
X5937Y22120D02*
D03*
Y21620D02*
D03*
X5937Y21120D02*
D03*
X8120Y22620D02*
D03*
X8120Y22120D02*
D03*
Y21620D02*
D03*
Y21120D02*
D03*
D93*
X-6108Y-19746D02*
D03*
Y-20120D02*
D03*
Y-20494D02*
D03*
X-7012D02*
D03*
Y-20120D02*
D03*
Y-19746D02*
D03*
D94*
X4154Y23325D02*
D03*
Y23522D02*
D03*
Y23719D02*
D03*
Y23916D02*
D03*
Y24113D02*
D03*
Y24310D02*
D03*
Y24506D02*
D03*
Y24703D02*
D03*
Y24900D02*
D03*
Y25097D02*
D03*
Y25294D02*
D03*
Y25491D02*
D03*
Y25687D02*
D03*
Y25884D02*
D03*
Y26081D02*
D03*
Y26278D02*
D03*
Y26475D02*
D03*
Y26672D02*
D03*
Y26869D02*
D03*
Y27065D02*
D03*
Y27262D02*
D03*
Y27459D02*
D03*
Y27656D02*
D03*
Y27853D02*
D03*
Y28050D02*
D03*
Y28247D02*
D03*
Y28443D02*
D03*
Y28640D02*
D03*
Y28837D02*
D03*
Y29034D02*
D03*
Y29231D02*
D03*
Y29428D02*
D03*
Y29624D02*
D03*
Y29821D02*
D03*
Y30018D02*
D03*
Y30215D02*
D03*
X-4134D02*
D03*
Y30018D02*
D03*
Y29821D02*
D03*
Y29624D02*
D03*
Y29428D02*
D03*
Y29231D02*
D03*
Y29034D02*
D03*
Y28837D02*
D03*
Y28640D02*
D03*
Y28443D02*
D03*
Y28247D02*
D03*
Y28050D02*
D03*
Y27853D02*
D03*
Y27656D02*
D03*
Y27459D02*
D03*
Y27262D02*
D03*
Y27065D02*
D03*
Y26869D02*
D03*
Y26672D02*
D03*
Y26475D02*
D03*
Y26278D02*
D03*
Y26081D02*
D03*
Y25884D02*
D03*
Y25687D02*
D03*
Y25491D02*
D03*
Y25294D02*
D03*
Y25097D02*
D03*
Y24900D02*
D03*
Y24703D02*
D03*
Y24506D02*
D03*
Y24310D02*
D03*
Y24113D02*
D03*
Y23916D02*
D03*
Y23719D02*
D03*
Y23522D02*
D03*
Y23325D02*
D03*
D95*
X3455Y30914D02*
D03*
X3258D02*
D03*
X3061D02*
D03*
X2864D02*
D03*
X2667D02*
D03*
X2471D02*
D03*
X2274D02*
D03*
X2077D02*
D03*
X1880D02*
D03*
X1683D02*
D03*
X1486D02*
D03*
X1290D02*
D03*
X1093D02*
D03*
X896D02*
D03*
X699D02*
D03*
X502D02*
D03*
X305D02*
D03*
X108D02*
D03*
X-88D02*
D03*
X-285D02*
D03*
X-482D02*
D03*
X-679D02*
D03*
X-876D02*
D03*
X-1073D02*
D03*
X-1270D02*
D03*
X-1466D02*
D03*
X-1663D02*
D03*
X-1860D02*
D03*
X-2057D02*
D03*
X-2254D02*
D03*
X-2451D02*
D03*
X-2647D02*
D03*
X-2844D02*
D03*
X-3041D02*
D03*
X-3238D02*
D03*
X-3435D02*
D03*
Y22626D02*
D03*
X-3238D02*
D03*
X-3041D02*
D03*
X-2844D02*
D03*
X-2647D02*
D03*
X-2451D02*
D03*
X-2254D02*
D03*
X-2057D02*
D03*
X-1860D02*
D03*
X-1663D02*
D03*
X-1466D02*
D03*
X-1270D02*
D03*
X-1073D02*
D03*
X-876D02*
D03*
X-679D02*
D03*
X-482D02*
D03*
X-285D02*
D03*
X-88D02*
D03*
X108D02*
D03*
X305D02*
D03*
X502D02*
D03*
X699D02*
D03*
X896D02*
D03*
X1093D02*
D03*
X1290D02*
D03*
X1486D02*
D03*
X1683D02*
D03*
X1880D02*
D03*
X2077D02*
D03*
X2274D02*
D03*
X2471D02*
D03*
X2667D02*
D03*
X2864D02*
D03*
X3061D02*
D03*
X3258D02*
D03*
X3455D02*
D03*
D96*
X10Y26770D02*
D03*
D97*
X7995Y2040D02*
D03*
Y1540D02*
D03*
Y1040D02*
D03*
Y540D02*
D03*
X9925Y2040D02*
D03*
Y1540D02*
D03*
Y1040D02*
D03*
Y540D02*
D03*
X-8565Y730D02*
D03*
Y1230D02*
D03*
Y1730D02*
D03*
Y2230D02*
D03*
X-10495Y730D02*
D03*
Y1230D02*
D03*
Y1730D02*
D03*
Y2230D02*
D03*
D98*
X710Y-7910D02*
D03*
X210D02*
D03*
X-290D02*
D03*
X-790D02*
D03*
X710Y-10090D02*
D03*
X210D02*
D03*
X-290D02*
D03*
X-790D02*
D03*
D99*
X8180Y6180D02*
D03*
D100*
X7380Y6560D02*
D03*
Y5810D02*
D03*
D101*
X25035Y3011D02*
D03*
X25785D02*
D03*
X-3760Y-18100D02*
D03*
X-4510D02*
D03*
D102*
X25405Y2211D02*
D03*
X-4140Y-18900D02*
D03*
D103*
X2070Y12690D02*
D03*
X1680Y12300D02*
D03*
X6100Y8670D02*
D03*
X5710Y8280D02*
D03*
X5480Y9290D02*
D03*
X5090Y8900D02*
D03*
X1520Y13220D02*
D03*
X1130Y12830D02*
D03*
X960Y13780D02*
D03*
X570Y13390D02*
D03*
X-1540Y12220D02*
D03*
X-1930Y11830D02*
D03*
X2630Y12156D02*
D03*
X2241Y11766D02*
D03*
D104*
X-3570Y10120D02*
D03*
X-3960Y10510D02*
D03*
X2820Y9940D02*
D03*
X3210Y9550D02*
D03*
X-5420Y8950D02*
D03*
X-5030Y8560D02*
D03*
X-1380Y2290D02*
D03*
X-990Y1900D02*
D03*
X3980Y12060D02*
D03*
X4370Y11670D02*
D03*
X5320Y10710D02*
D03*
X4930Y11100D02*
D03*
D105*
X6971Y-14310D02*
D03*
D106*
X4249Y-13420D02*
D03*
X4249Y-15200D02*
D03*
D107*
X-1361Y-4390D02*
D03*
X1121D02*
D03*
D108*
X-27780Y3666D02*
D03*
X-31220D02*
D03*
X-27780Y1894D02*
D03*
X-31220D02*
D03*
X-25070D02*
D03*
X-21630D02*
D03*
X-25070Y3666D02*
D03*
X-21630D02*
D03*
X16660Y-23756D02*
D03*
X20100D02*
D03*
X16660Y-21984D02*
D03*
X20100D02*
D03*
D109*
X17476Y25900D02*
D03*
Y29340D02*
D03*
X15704Y25900D02*
D03*
Y29340D02*
D03*
D110*
X22763Y14988D02*
D03*
X22760Y15618D02*
D03*
X-4500Y32764D02*
D03*
X-4503Y33393D02*
D03*
D111*
X12617Y20970D02*
D03*
X11987Y20967D02*
D03*
X19730Y647D02*
D03*
X20360Y650D02*
D03*
X13819Y3844D02*
D03*
X13189Y3842D02*
D03*
D112*
X9720Y6960D02*
D03*
X11070D02*
D03*
D113*
X588Y16758D02*
D03*
X-3D02*
D03*
X-593D02*
D03*
Y18333D02*
D03*
X-3D02*
D03*
X588Y18333D02*
D03*
D114*
X22780Y17442D02*
D03*
Y17836D02*
D03*
Y18229D02*
D03*
Y18623D02*
D03*
Y19017D02*
D03*
Y19410D02*
D03*
Y19804D02*
D03*
X23580Y19678D02*
D03*
Y19284D02*
D03*
Y18891D02*
D03*
Y18497D02*
D03*
Y18103D02*
D03*
Y17710D02*
D03*
Y17316D02*
D03*
X28860Y1733D02*
D03*
Y2126D02*
D03*
Y2520D02*
D03*
Y2914D02*
D03*
Y3307D02*
D03*
Y3701D02*
D03*
Y4095D02*
D03*
X28060Y4221D02*
D03*
Y3827D02*
D03*
Y3433D02*
D03*
Y3040D02*
D03*
Y2646D02*
D03*
Y2252D02*
D03*
Y1859D02*
D03*
D115*
X-4150Y-6246D02*
D03*
X-4150Y-8270D02*
D03*
D116*
X4560Y-21453D02*
D03*
X-7580D02*
D03*
X10101D02*
D03*
X-14993D02*
D03*
D117*
X5560D02*
D03*
X6560D02*
D03*
X7560D02*
D03*
X-6580D02*
D03*
X-5580D02*
D03*
X-4580D02*
D03*
X15023D02*
D03*
X14039D02*
D03*
X13054D02*
D03*
X12070D02*
D03*
X11086D02*
D03*
X-14009D02*
D03*
X-13024D02*
D03*
X-12040D02*
D03*
X-11056D02*
D03*
X-10072D02*
D03*
D118*
X2510Y39058D02*
D03*
X16290Y15330D02*
D03*
X16480Y530D02*
D03*
X-17550Y820D02*
D03*
X-16180Y16690D02*
D03*
X-4500Y0D02*
D03*
D119*
X1510Y39058D02*
D03*
X510D02*
D03*
X-490D02*
D03*
X-1490D02*
D03*
X-2490D02*
D03*
X17290Y15330D02*
D03*
X18290D02*
D03*
X19290D02*
D03*
X20290D02*
D03*
X21290D02*
D03*
X15480Y530D02*
D03*
X14480D02*
D03*
X13480D02*
D03*
X-14550Y820D02*
D03*
X-15550D02*
D03*
X-16550D02*
D03*
X-13180Y16690D02*
D03*
X-14180D02*
D03*
X-15180D02*
D03*
X-15820Y25750D02*
D03*
Y24750D02*
D03*
Y23750D02*
D03*
X-2500Y0D02*
D03*
X4500D02*
D03*
X3500D02*
D03*
X2500D02*
D03*
X1500D02*
D03*
X500D02*
D03*
X-500D02*
D03*
X-1500D02*
D03*
X-3500D02*
D03*
X33868Y3710D02*
D03*
Y4710D02*
D03*
Y5710D02*
D03*
Y6710D02*
D03*
Y7710D02*
D03*
X32286Y16858D02*
D03*
X31643Y17624D02*
D03*
X31000Y18390D02*
D03*
X30357Y19156D02*
D03*
X29714Y19922D02*
D03*
X25328Y28270D02*
D03*
X24462Y28770D02*
D03*
X23596Y29270D02*
D03*
X22730Y29770D02*
D03*
X21864Y30270D02*
D03*
X14554Y36139D02*
D03*
X13570Y36313D02*
D03*
X12585Y36486D02*
D03*
X11600Y36660D02*
D03*
X10615Y36834D02*
D03*
X-15264Y36079D02*
D03*
X-14280Y36253D02*
D03*
X-13295Y36426D02*
D03*
X-12310Y36600D02*
D03*
X-11325Y36774D02*
D03*
X-22510Y29980D02*
D03*
X-23376Y29480D02*
D03*
X-24242Y28980D02*
D03*
X-25108Y28480D02*
D03*
X-25974Y27980D02*
D03*
X-30217Y19426D02*
D03*
X-30860Y18660D02*
D03*
X-31503Y17894D02*
D03*
X-32146Y17128D02*
D03*
X-32788Y16362D02*
D03*
X-33848Y6710D02*
D03*
Y5710D02*
D03*
Y4710D02*
D03*
Y3710D02*
D03*
Y2710D02*
D03*
D120*
X23180Y16985D02*
D03*
Y20135D02*
D03*
X28460Y4551D02*
D03*
Y1402D02*
D03*
D121*
X22263Y17627D02*
D03*
Y19493D02*
D03*
X24097D02*
D03*
Y17627D02*
D03*
X29377Y2044D02*
D03*
Y3910D02*
D03*
X27543D02*
D03*
Y2044D02*
D03*
D122*
X-15820Y22750D02*
D03*
X33868Y2710D02*
D03*
X-33848Y7710D02*
D03*
D123*
X-1407Y-17088D02*
D03*
X1427D02*
D03*
D124*
X-2647Y-19450D02*
D03*
X2667D02*
D03*
D125*
X32928Y16092D02*
D03*
D126*
X26194Y27770D02*
D03*
D127*
X15539Y35965D02*
D03*
D128*
X-10340Y36947D02*
D03*
D129*
X-21644Y30480D02*
D03*
D130*
X-29574Y20192D02*
D03*
D131*
X21990Y-3950D02*
D03*
X28254Y23699D02*
D03*
X21990Y-22190D02*
D03*
X-6950Y38360D02*
D03*
X33260Y11630D02*
D03*
X-21900Y-3950D02*
D03*
X-33240Y11630D02*
D03*
X6970Y38360D02*
D03*
X-21900Y-22190D02*
D03*
X-28234Y23699D02*
D03*
D132*
X-237Y-9197D02*
D03*
X157D02*
D03*
Y-8803D02*
D03*
X-237D02*
D03*
M02*
