G04*
G04 #@! TF.GenerationSoftware,Altium Limited,Altium Designer,20.1.11 (218)*
G04*
G04 Layer_Color=16711935*
%FSLAX24Y24*%
%MOIN*%
G70*
G04*
G04 #@! TF.SameCoordinates,BD3A0D93-D2E9-4D9D-BC1F-92CABD7513BA*
G04*
G04*
G04 #@! TF.FilePolarity,Negative*
G04*
G01*
G75*
%ADD96R,0.1852X0.1852*%
%ADD116R,0.0710X0.0710*%
%ADD117C,0.0710*%
%ADD118R,0.0671X0.0671*%
%ADD119C,0.0671*%
%ADD120C,0.0375*%
%ADD121O,0.0474X0.0710*%
%ADD122R,0.0671X0.0671*%
%ADD123C,0.1576*%
%ADD124O,0.0552X0.0946*%
%ADD125P,0.0948X4X175.0*%
%ADD126P,0.0948X4X195.0*%
%ADD127P,0.0948X4X215.0*%
%ADD128P,0.0948X4X235.0*%
%ADD129P,0.0948X4X255.0*%
%ADD130P,0.0948X4X275.0*%
%ADD131C,0.0080*%
%ADD132C,0.0320*%
D96*
X10Y26770D02*
D03*
D116*
X4560Y-21453D02*
D03*
X-7580D02*
D03*
X10101D02*
D03*
X-14993D02*
D03*
D117*
X5560D02*
D03*
X6560D02*
D03*
X7560D02*
D03*
X-6580D02*
D03*
X-5580D02*
D03*
X-4580D02*
D03*
X15023D02*
D03*
X14039D02*
D03*
X13054D02*
D03*
X12070D02*
D03*
X11086D02*
D03*
X-14009D02*
D03*
X-13024D02*
D03*
X-12040D02*
D03*
X-11056D02*
D03*
X-10072D02*
D03*
D118*
X2510Y39058D02*
D03*
X16290Y15330D02*
D03*
X16480Y530D02*
D03*
X-17550Y820D02*
D03*
X-16180Y16690D02*
D03*
X-4500Y0D02*
D03*
D119*
X1510Y39058D02*
D03*
X510D02*
D03*
X-490D02*
D03*
X-1490D02*
D03*
X-2490D02*
D03*
X17290Y15330D02*
D03*
X18290D02*
D03*
X19290D02*
D03*
X20290D02*
D03*
X21290D02*
D03*
X15480Y530D02*
D03*
X14480D02*
D03*
X13480D02*
D03*
X-14550Y820D02*
D03*
X-15550D02*
D03*
X-16550D02*
D03*
X-13180Y16690D02*
D03*
X-14180D02*
D03*
X-15180D02*
D03*
X-15820Y25750D02*
D03*
Y24750D02*
D03*
Y23750D02*
D03*
X-2500Y0D02*
D03*
X4500D02*
D03*
X3500D02*
D03*
X2500D02*
D03*
X1500D02*
D03*
X500D02*
D03*
X-500D02*
D03*
X-1500D02*
D03*
X-3500D02*
D03*
X33868Y3710D02*
D03*
Y4710D02*
D03*
Y5710D02*
D03*
Y6710D02*
D03*
Y7710D02*
D03*
X32286Y16858D02*
D03*
X31643Y17624D02*
D03*
X31000Y18390D02*
D03*
X30357Y19156D02*
D03*
X29714Y19922D02*
D03*
X25328Y28270D02*
D03*
X24462Y28770D02*
D03*
X23596Y29270D02*
D03*
X22730Y29770D02*
D03*
X21864Y30270D02*
D03*
X14554Y36139D02*
D03*
X13570Y36313D02*
D03*
X12585Y36486D02*
D03*
X11600Y36660D02*
D03*
X10615Y36834D02*
D03*
X-15264Y36079D02*
D03*
X-14280Y36253D02*
D03*
X-13295Y36426D02*
D03*
X-12310Y36600D02*
D03*
X-11325Y36774D02*
D03*
X-22510Y29980D02*
D03*
X-23376Y29480D02*
D03*
X-24242Y28980D02*
D03*
X-25108Y28480D02*
D03*
X-25974Y27980D02*
D03*
X-30217Y19426D02*
D03*
X-30860Y18660D02*
D03*
X-31503Y17894D02*
D03*
X-32146Y17128D02*
D03*
X-32788Y16362D02*
D03*
X-33848Y6710D02*
D03*
Y5710D02*
D03*
Y4710D02*
D03*
Y3710D02*
D03*
Y2710D02*
D03*
D120*
X23180Y16985D02*
D03*
Y20135D02*
D03*
X28460Y4551D02*
D03*
Y1402D02*
D03*
D121*
X22263Y17627D02*
D03*
Y19493D02*
D03*
X24097D02*
D03*
Y17627D02*
D03*
X29377Y2044D02*
D03*
Y3910D02*
D03*
X27543D02*
D03*
Y2044D02*
D03*
D122*
X-15820Y22750D02*
D03*
X33868Y2710D02*
D03*
X-33848Y7710D02*
D03*
D123*
X-1407Y-17088D02*
D03*
X1427D02*
D03*
D124*
X-2647Y-19450D02*
D03*
X2667D02*
D03*
D125*
X32928Y16092D02*
D03*
D126*
X26194Y27770D02*
D03*
D127*
X15539Y35965D02*
D03*
D128*
X-10340Y36947D02*
D03*
D129*
X-21644Y30480D02*
D03*
D130*
X-29574Y20192D02*
D03*
D131*
X21990Y-3950D02*
D03*
X28254Y23699D02*
D03*
X21990Y-22190D02*
D03*
X-6950Y38360D02*
D03*
X33260Y11630D02*
D03*
X-21900Y-3950D02*
D03*
X-33240Y11630D02*
D03*
X6970Y38360D02*
D03*
X-21900Y-22190D02*
D03*
X-28234Y23699D02*
D03*
D132*
X-237Y-9197D02*
D03*
X157D02*
D03*
Y-8803D02*
D03*
X-237D02*
D03*
M02*
