G04*
G04 #@! TF.GenerationSoftware,Altium Limited,Altium Designer,20.1.11 (218)*
G04*
G04 Layer_Color=32768*
%FSLAX24Y24*%
%MOIN*%
G70*
G04*
G04 #@! TF.SameCoordinates,BD3A0D93-D2E9-4D9D-BC1F-92CABD7513BA*
G04*
G04*
G04 #@! TF.FilePolarity,Positive*
G04*
G01*
G75*
%ADD10C,0.0100*%
%ADD11C,0.0157*%
%ADD12C,0.0118*%
%ADD19C,0.0079*%
%ADD22C,0.0059*%
%ADD174C,0.0039*%
%ADD175C,0.0001*%
G36*
X-4477Y33287D02*
X-4528D01*
Y33500D01*
X-4477D01*
Y33287D01*
D02*
G37*
G36*
X-4474Y32789D02*
X-4394D01*
Y32738D01*
X-4474D01*
Y32658D01*
X-4526D01*
Y32738D01*
X-4607D01*
Y32789D01*
X-4526D01*
Y32870D01*
X-4474D01*
Y32789D01*
D02*
G37*
G36*
X12723Y20944D02*
X12510D01*
Y20996D01*
X12723D01*
Y20944D01*
D02*
G37*
G36*
X12013Y20993D02*
X12094D01*
Y20942D01*
X12013D01*
Y20861D01*
X11961D01*
Y20942D01*
X11881D01*
Y20993D01*
X11961D01*
Y21074D01*
X12013D01*
Y20993D01*
D02*
G37*
G36*
X47Y18396D02*
X247Y18396D01*
Y18296D01*
X47D01*
X47Y18096D01*
X-53D01*
Y18296D01*
X-253D01*
X-253Y18396D01*
X-53Y18396D01*
Y18596D01*
X47D01*
X47Y18396D01*
D02*
G37*
G36*
X597Y18596D02*
X647D01*
X647Y18396D01*
X847Y18396D01*
Y18296D01*
X647Y18296D01*
X647Y18096D01*
X547D01*
X547Y18296D01*
X347Y18296D01*
X347Y18396D01*
X547D01*
X547Y18596D01*
X597Y18596D01*
D02*
G37*
G36*
X-553D02*
X-553Y18396D01*
X-353D01*
X-353Y18296D01*
X-553D01*
X-553Y18096D01*
X-653D01*
Y18296D01*
X-853D01*
Y18396D01*
X-653D01*
X-653Y18596D01*
X-603Y18596D01*
X-553Y18596D01*
D02*
G37*
G36*
X647Y16496D02*
X547D01*
Y17096D01*
X647D01*
Y16496D01*
D02*
G37*
G36*
X57D02*
X-43D01*
Y17096D01*
X57D01*
Y16496D01*
D02*
G37*
G36*
X-534D02*
X-634D01*
Y17096D01*
X-534D01*
Y16496D01*
D02*
G37*
G36*
X-678D02*
X-1028D01*
X-1028Y16896D01*
X-678Y16496D01*
D02*
G37*
G36*
X22786Y15512D02*
X22734Y15512D01*
Y15724D01*
X22786D01*
X22786Y15512D01*
D02*
G37*
G36*
X22788Y15014D02*
X22869D01*
Y14963D01*
X22788D01*
Y14882D01*
X22737Y14882D01*
Y14963D01*
X22656D01*
Y15014D01*
X22737D01*
Y15095D01*
X22788D01*
Y15014D01*
D02*
G37*
G36*
X-9915Y11550D02*
X-10227D01*
Y11628D01*
X-9915D01*
Y11550D01*
D02*
G37*
G36*
X-14703D02*
X-15015D01*
Y11628D01*
X-14703D01*
Y11550D01*
D02*
G37*
G36*
X-19481D02*
X-19793D01*
Y11628D01*
X-19481D01*
Y11550D01*
D02*
G37*
G36*
X-24239D02*
X-24551D01*
Y11628D01*
X-24239D01*
Y11550D01*
D02*
G37*
G36*
X-7901Y11628D02*
X-7784D01*
Y11550D01*
X-7901D01*
Y11329D01*
X-7979D01*
Y11550D01*
X-8096D01*
Y11628D01*
X-7979D01*
Y11849D01*
X-7901D01*
Y11628D01*
D02*
G37*
G36*
X-12689Y11628D02*
X-12572D01*
Y11550D01*
X-12689D01*
Y11329D01*
X-12767D01*
Y11550D01*
X-12884D01*
Y11628D01*
X-12767D01*
Y11849D01*
X-12689D01*
Y11628D01*
D02*
G37*
G36*
X-17467D02*
X-17351D01*
Y11550D01*
X-17467D01*
Y11329D01*
X-17545D01*
Y11550D01*
X-17662D01*
Y11628D01*
X-17545D01*
Y11849D01*
X-17467D01*
Y11628D01*
D02*
G37*
G36*
X-22226D02*
X-22109D01*
Y11550D01*
X-22226D01*
Y11329D01*
X-22304D01*
Y11550D01*
X-22421D01*
Y11628D01*
X-22304D01*
Y11849D01*
X-22226D01*
Y11628D01*
D02*
G37*
G36*
X11326Y10330D02*
X11678D01*
Y10173D01*
X11326D01*
Y9816D01*
X11169D01*
Y10173D01*
X10811D01*
Y10330D01*
X11169D01*
Y10682D01*
X11326D01*
Y10330D01*
D02*
G37*
G36*
X9122Y9737D02*
X8964D01*
Y10603D01*
X9122D01*
Y9737D01*
D02*
G37*
G36*
X13925Y3819D02*
X13713D01*
Y3870D01*
X13925D01*
Y3819D01*
D02*
G37*
G36*
X13215Y3867D02*
X13296D01*
Y3816D01*
X13215D01*
Y3736D01*
X13164D01*
Y3816D01*
X13083D01*
Y3867D01*
X13164D01*
Y3948D01*
X13215D01*
Y3867D01*
D02*
G37*
G36*
X19837Y622D02*
X19624D01*
Y673D01*
X19837D01*
Y622D01*
D02*
G37*
G36*
X20386Y676D02*
X20466D01*
Y624D01*
X20386D01*
Y543D01*
X20334D01*
Y624D01*
X20253D01*
Y676D01*
X20334D01*
Y756D01*
X20386D01*
Y676D01*
D02*
G37*
G36*
X-4111Y-6154D02*
X-3890D01*
Y-6232D01*
X-4111D01*
Y-6349D01*
X-4189D01*
Y-6232D01*
X-4410D01*
Y-6154D01*
X-4189D01*
Y-6037D01*
X-4111D01*
Y-6154D01*
D02*
G37*
G36*
Y-8479D02*
X-4189D01*
Y-8168D01*
X-4111D01*
Y-8479D01*
D02*
G37*
G36*
X-951Y-12739D02*
X-1263D01*
Y-12661D01*
X-951D01*
Y-12739D01*
D02*
G37*
G36*
X1063Y-12661D02*
X1179D01*
Y-12739D01*
X1063D01*
Y-12960D01*
X985D01*
Y-12739D01*
X868D01*
Y-12661D01*
X985D01*
Y-12440D01*
X1063D01*
Y-12661D01*
D02*
G37*
G36*
X2510Y-18419D02*
X1710D01*
Y-18319D01*
X2510D01*
Y-18419D01*
D02*
G37*
G36*
X-2240Y-18269D02*
X-1940D01*
Y-18369D01*
X-2240D01*
Y-18669D01*
X-2340D01*
Y-18369D01*
X-2640D01*
Y-18269D01*
X-2340D01*
Y-17969D01*
X-2240D01*
Y-18269D01*
D02*
G37*
G36*
X10Y-22869D02*
X-990Y-21869D01*
X1010D01*
X10Y-22869D01*
D02*
G37*
D10*
X21680Y4250D02*
G03*
X21680Y4250I-50J0D01*
G01*
X3340Y11080D02*
G03*
X3340Y11080I-50J0D01*
G01*
D11*
X25959Y690D02*
G03*
X25959Y690I-79J0D01*
G01*
X4130Y7547D02*
G03*
X4130Y7547I-79J0D01*
G01*
X3960Y-13424D02*
G03*
X3960Y-13424I-79J0D01*
G01*
D12*
X19639Y2687D02*
G03*
X19639Y2687I-59J0D01*
G01*
X17172Y19612D02*
G03*
X17172Y19612I-59J0D01*
G01*
X8426Y21120D02*
G03*
X8426Y21120I-59J0D01*
G01*
X769Y-7661D02*
G03*
X769Y-7661I-59J0D01*
G01*
X23239Y16985D02*
G03*
X23239Y16985I-59J0D01*
G01*
Y20135D02*
G03*
X23239Y20135I-59J0D01*
G01*
X28519Y4551D02*
G03*
X28519Y4551I-59J0D01*
G01*
Y1402D02*
G03*
X28519Y1402I-59J0D01*
G01*
D19*
X-7182Y-19758D02*
G03*
X-7182Y-19758I-39J0D01*
G01*
D22*
X22765Y15216D02*
Y15350D01*
X22634Y15216D02*
X22902D01*
X12215Y20828D02*
Y21096D01*
X12215Y20965D02*
X12349D01*
X20132Y521D02*
Y789D01*
X19998Y653D02*
X20132D01*
X13417Y3703D02*
Y3971D01*
X13418Y3839D02*
X13551D01*
X-4497Y32992D02*
Y33126D01*
X-4629Y32992D02*
X-4361D01*
D174*
X15373Y-7090D02*
X15767D01*
X15570Y-7287D02*
Y-6893D01*
X13503Y-8744D02*
Y-5436D01*
X17637Y-8744D02*
Y-5436D01*
X13503Y-8744D02*
X17637D01*
X13503Y-5436D02*
X17637D01*
X-17947D02*
X-13813D01*
X-17947Y-8744D02*
X-13813D01*
Y-5436D01*
X-17947Y-8744D02*
Y-5436D01*
X-15880Y-7287D02*
Y-6893D01*
X-16077Y-7090D02*
X-15683D01*
X4498Y22282D02*
Y31258D01*
X-4478Y22282D02*
Y31258D01*
Y22282D02*
X4498D01*
X-4478Y31258D02*
X4498D01*
X-187Y26780D02*
X207D01*
X10Y26583D02*
Y26977D01*
X8960Y1093D02*
Y1487D01*
X8763Y1290D02*
X9157D01*
X7306Y2471D02*
X10614D01*
X7306Y109D02*
X10614D01*
X7306D02*
Y2471D01*
X10614Y109D02*
Y2471D01*
X-7876Y299D02*
Y2661D01*
X-11184Y299D02*
Y2661D01*
Y299D02*
X-7876D01*
X-11184Y2661D02*
X-7876D01*
X-9727Y1480D02*
X-9333D01*
X-9530Y1283D02*
Y1677D01*
D175*
X-13804Y13754D02*
X-13784Y13774D01*
X-13804Y5874D02*
X-13784Y5894D01*
X-13804Y14554D02*
X-13784Y14574D01*
X-43Y-15228D02*
X-23Y-15208D01*
X1988Y-9823D02*
X2008Y-9843D01*
X-13397Y-4742D02*
X-13377Y-4722D01*
X-12488Y-20202D02*
X-12468Y-20182D01*
X-6042Y-17752D02*
X-6022Y-17772D01*
X-16543Y-10188D02*
X-16523Y-10168D01*
X-7642Y-17773D02*
X-7622Y-17793D01*
X18002Y-4712D02*
X18022Y-4692D01*
X12532Y-20292D02*
X12552Y-20272D01*
X14578Y-10228D02*
X14598Y-10208D01*
X26546Y1101D02*
X26566Y1081D01*
X20479Y1456D02*
X20499Y1476D01*
X20477Y5656D02*
X20498Y5676D01*
X16734Y6707D02*
X16754Y6687D01*
X15194Y2817D02*
X15214Y2797D01*
X13518Y4897D02*
X13538Y4917D01*
X18334Y6707D02*
X18354Y6687D01*
X13518Y5674D02*
X13538Y5694D01*
X23914Y15329D02*
X23934Y15309D01*
X17534Y6707D02*
X17554Y6687D01*
X20236Y3581D02*
X20256Y3561D01*
X1672Y12680D02*
X1672Y12708D01*
X-3978Y10112D02*
X-3950D01*
X15194Y4667D02*
X15214Y4647D01*
X-29200Y6252D02*
X-29180Y6272D01*
X-29200Y5884D02*
X-29180Y5904D01*
X12307Y19842D02*
X12328Y19862D01*
X12307Y18204D02*
X12328Y18224D01*
X12307Y16566D02*
X12328Y16586D01*
X12307Y23191D02*
X12328Y23211D01*
X3199Y9948D02*
X3228D01*
X22136Y5673D02*
X22156Y5652D01*
X12307Y21516D02*
X12328Y21536D01*
X12307Y17951D02*
X12328Y17971D01*
X12307Y22353D02*
X12328Y22373D01*
X12307Y19589D02*
X12328Y19609D01*
X12307Y16313D02*
X12328Y16333D01*
X12307Y15494D02*
X12328Y15514D01*
X21329Y376D02*
X21349Y396D01*
X13517Y2776D02*
X13537Y2796D01*
X15186Y19351D02*
X15206Y19331D01*
X18294Y649D02*
X18314Y629D01*
X6834Y6197D02*
X6854Y6177D01*
X10182Y12344D02*
X10202Y12364D01*
X25899Y5196D02*
X25919Y5216D01*
X25898Y4376D02*
X25917Y4396D01*
X-1060Y15495D02*
X-1040Y15475D01*
X26206Y2681D02*
X26226Y2661D01*
X5316Y6172D02*
X5336Y6152D01*
X-297Y15509D02*
X-277Y15489D01*
X26061Y4154D02*
X26081Y4174D01*
X-3836Y33112D02*
X-3816Y33092D01*
X509Y15537D02*
X529Y15517D01*
X24554Y2657D02*
X24574Y2637D01*
X24709Y3596D02*
X24729Y3616D01*
X14814Y26507D02*
X14834Y26488D01*
X10067Y25786D02*
X10087Y25806D01*
X9469Y23616D02*
X9489Y23636D01*
X9759Y24701D02*
X9779Y24721D01*
X14931Y-4416D02*
X14951Y-4396D01*
X11879Y-11968D02*
X11899Y-11948D01*
X17612Y-12534D02*
X17632Y-12514D01*
X-6301Y26726D02*
X-6281Y26746D01*
X6341Y25951D02*
X6361Y25971D01*
X6341Y25067D02*
X6361Y25087D01*
X14746Y-11968D02*
X14766Y-11948D01*
X20379Y-12534D02*
X20399Y-12514D01*
X3224Y-14281D02*
X3244Y-14301D01*
X-16417Y-4416D02*
X-16398Y-4396D01*
X4031Y-11906D02*
X4051Y-11886D01*
X-19131Y-11968D02*
X-19111Y-11948D01*
X-13404Y-12534D02*
X-13384Y-12514D01*
X-8456Y-17183D02*
X-8436Y-17203D01*
X-4167Y-16926D02*
X-4147Y-16906D01*
X-16268Y-11968D02*
X-16248Y-11948D01*
X-10541Y-12534D02*
X-10521Y-12514D01*
X-9014Y-18549D02*
X-8994Y-18569D01*
X-23340Y14554D02*
X-23320Y14574D01*
X-23340Y13754D02*
X-23320Y13774D01*
X-18582Y14554D02*
X-18562Y14574D01*
X-18582Y13754D02*
X-18562Y13774D01*
X-2334Y-7969D02*
X-2314Y-7989D01*
X-9159Y13754D02*
X-9139Y13774D01*
X-9137Y14544D02*
X-9118Y14564D01*
X-11556Y747D02*
X-11536Y728D01*
X-11536Y2157D02*
X-11516Y2137D01*
X-2334Y-6639D02*
X-2314Y-6659D01*
X6924Y697D02*
X6944Y677D01*
X6924Y2039D02*
X6944Y2019D01*
X-6966Y789D02*
X-6946Y769D01*
X-6966Y2209D02*
X-6946Y2189D01*
X11584Y648D02*
X11604Y627D01*
X11574Y2049D02*
X11594Y2029D01*
X22516Y2851D02*
X22536Y2831D01*
X6108Y8262D02*
Y8290D01*
X5488Y8882D02*
Y8910D01*
X1528Y12812D02*
Y12840D01*
X968Y13372D02*
Y13400D01*
X-1532Y11812D02*
Y11841D01*
X-5041Y8958D02*
X-5012Y8958D01*
X-1000Y2298D02*
X-972D01*
X2638Y11748D02*
X2638Y11776D01*
X23064Y4169D02*
X23084Y4149D01*
X-29200Y7186D02*
X-29180Y7206D01*
X21276Y5641D02*
X21296Y5621D01*
X4360Y12068D02*
X4388D01*
X16026Y19351D02*
X16046Y19331D01*
X4912Y10702D02*
X4941D01*
X20223Y23484D02*
X20243Y23504D01*
X17199Y22906D02*
X17219Y22926D01*
X20477Y16186D02*
X20497Y16206D01*
X24344Y1057D02*
X24364Y1037D01*
X23474Y1079D02*
X23494Y1059D01*
X-1911Y33112D02*
X-1891Y33092D01*
X-6331Y29006D02*
X-6311Y29026D01*
X-4396Y21467D02*
X-4376Y21447D01*
X1378Y33112D02*
X1398Y33092D01*
X-2151Y20449D02*
X-2131Y20429D01*
X1669Y20449D02*
X1689Y20429D01*
X3263Y33112D02*
X3283Y33092D01*
X6341Y29434D02*
X6361Y29454D01*
X6341Y24184D02*
X6361Y24204D01*
X-6341Y23426D02*
X-6321Y23446D01*
X-6331Y25436D02*
X-6311Y25456D01*
X6341Y31484D02*
X6361Y31504D01*
X2624Y20449D02*
X2644Y20429D01*
X714Y20449D02*
X734Y20429D01*
X-241Y20449D02*
X-221Y20429D01*
X-6331Y28136D02*
X-6311Y28156D01*
X415Y33112D02*
X435Y33092D01*
X2340Y33112D02*
X2360Y33092D01*
X-948Y33112D02*
X-928Y33092D01*
X-1196Y20449D02*
X-1176Y20429D01*
X6341Y26834D02*
X6361Y26854D01*
X6341Y28514D02*
X6361Y28534D01*
X-2873Y33112D02*
X-2853Y33092D01*
X14331Y-9016D02*
X14351Y-8996D01*
X8866Y22373D02*
X8886Y22352D01*
X18494Y-7051D02*
X18514Y-7071D01*
X-4906Y-20093D02*
X-4886Y-20113D01*
X-18582Y5874D02*
X-18562Y5894D01*
X10796Y28352D02*
X10816Y28333D01*
X-17169Y-9016D02*
X-17149Y-8996D01*
X-9015Y5874D02*
X-8995Y5894D01*
X-13006Y-7051D02*
X-12986Y-7071D01*
X-23340Y5874D02*
X-23320Y5894D01*
X1397Y-6944D02*
X1417Y-6924D01*
M02*
