G04*
G04 #@! TF.GenerationSoftware,Altium Limited,Altium Designer,20.1.11 (218)*
G04*
G04 Layer_Color=65535*
%FSLAX24Y24*%
%MOIN*%
G70*
G04*
G04 #@! TF.SameCoordinates,BD3A0D93-D2E9-4D9D-BC1F-92CABD7513BA*
G04*
G04*
G04 #@! TF.FilePolarity,Positive*
G04*
G01*
G75*
%ADD10C,0.0100*%
%ADD11C,0.0157*%
%ADD12C,0.0118*%
%ADD13C,0.0236*%
%ADD14C,0.0098*%
%ADD15C,0.0098*%
%ADD16C,0.0050*%
%ADD17C,0.0060*%
%ADD18C,0.0010*%
%ADD19C,0.0079*%
%ADD20C,0.0080*%
%ADD21C,0.0060*%
%ADD22C,0.0059*%
%ADD23C,0.0200*%
G36*
X-19481Y12148D02*
X-19793D01*
Y12226D01*
X-19481D01*
Y12148D01*
D02*
G37*
G36*
X-24239D02*
X-24551D01*
Y12226D01*
X-24239D01*
Y12148D01*
D02*
G37*
G36*
X-22226Y12226D02*
X-22109D01*
Y12148D01*
X-22226D01*
Y11927D01*
X-22304D01*
Y12148D01*
X-22421D01*
Y12226D01*
X-22304D01*
Y12447D01*
X-22226D01*
Y12226D01*
D02*
G37*
G36*
X-17467D02*
X-17351D01*
Y12148D01*
X-17467D01*
Y11927D01*
X-17545D01*
Y12148D01*
X-17662D01*
Y12226D01*
X-17545D01*
Y12447D01*
X-17467D01*
Y12226D01*
D02*
G37*
G36*
X-15015Y12148D02*
Y12226D01*
X-14703D01*
Y12148D01*
X-15015D01*
D02*
G37*
G36*
X-12689Y12226D02*
X-12572D01*
Y12148D01*
X-12689D01*
Y11927D01*
X-12767D01*
Y12148D01*
X-12884D01*
Y12226D01*
X-12767D01*
Y12447D01*
X-12689D01*
Y12226D01*
D02*
G37*
G36*
X-9915Y12148D02*
X-10227D01*
Y12226D01*
X-9915D01*
Y12148D01*
D02*
G37*
G36*
X-7901Y12226D02*
X-7784D01*
Y12148D01*
X-7901D01*
Y11927D01*
X-7979D01*
Y12148D01*
X-8096D01*
Y12226D01*
X-7979D01*
Y12447D01*
X-7901D01*
Y12226D01*
D02*
G37*
G36*
X-4709Y-6154D02*
X-4488D01*
Y-6232D01*
X-4709D01*
Y-6349D01*
X-4787D01*
Y-6232D01*
X-5007D01*
Y-6154D01*
X-4787D01*
Y-6037D01*
X-4709D01*
Y-6154D01*
D02*
G37*
G36*
Y-8479D02*
X-4787D01*
Y-8168D01*
X-4709D01*
Y-8479D01*
D02*
G37*
G36*
X-951Y-12141D02*
X-1263D01*
Y-12063D01*
X-951D01*
Y-12141D01*
D02*
G37*
G36*
X1063Y-12063D02*
X1179D01*
Y-12141D01*
X1063D01*
Y-12362D01*
X985D01*
Y-12141D01*
X868D01*
Y-12063D01*
X985D01*
Y-11843D01*
X1063D01*
Y-12063D01*
D02*
G37*
D10*
X-14222Y13762D02*
G03*
X-14344Y13640I0J-122D01*
G01*
Y13325D02*
G03*
X-14222Y13203I122J-0D01*
G01*
X-13243Y13637D02*
G03*
X-13365Y13759I-122J0D01*
G01*
Y13200D02*
G03*
X-13243Y13322I0J122D01*
G01*
X-14222Y5882D02*
G03*
X-14344Y5760I0J-122D01*
G01*
Y5445D02*
G03*
X-14222Y5323I122J-0D01*
G01*
X-13243Y5757D02*
G03*
X-13365Y5879I-122J0D01*
G01*
Y5320D02*
G03*
X-13243Y5442I0J122D01*
G01*
X-14222Y14562D02*
G03*
X-14344Y14440I0J-122D01*
G01*
Y14125D02*
G03*
X-14222Y14003I122J-0D01*
G01*
X-13243Y14437D02*
G03*
X-13365Y14559I-122J0D01*
G01*
Y14000D02*
G03*
X-13243Y14122I0J122D01*
G01*
X12021Y9960D02*
G03*
X8568Y9914I-1721J-420D01*
G01*
X8570Y9157D02*
G03*
X12033Y9172I1730J383D01*
G01*
X26558Y663D02*
G03*
X26680Y541I122J0D01*
G01*
X26995D02*
G03*
X27117Y663I0J122D01*
G01*
X26683Y1642D02*
G03*
X26561Y1520I-0J-122D01*
G01*
X27120D02*
G03*
X26998Y1642I-122J0D01*
G01*
X20060Y2030D02*
G03*
X19938Y1908I0J-122D01*
G01*
Y1593D02*
G03*
X20060Y1471I122J-0D01*
G01*
X21039Y1905D02*
G03*
X20917Y2027I-122J0D01*
G01*
Y1468D02*
G03*
X21039Y1590I0J122D01*
G01*
X20059Y6230D02*
G03*
X19937Y6108I0J-122D01*
G01*
Y5793D02*
G03*
X20059Y5671I122J-0D01*
G01*
X21038Y6105D02*
G03*
X20916Y6227I-122J0D01*
G01*
Y5668D02*
G03*
X21038Y5790I0J122D01*
G01*
X16742Y7126D02*
G03*
X16620Y7248I-122J0D01*
G01*
X16305D02*
G03*
X16183Y7126I-0J-122D01*
G01*
X16617Y6147D02*
G03*
X16739Y6269I0J122D01*
G01*
X16180D02*
G03*
X16302Y6147I122J0D01*
G01*
X14640Y2379D02*
G03*
X14762Y2257I122J0D01*
G01*
X15077D02*
G03*
X15199Y2379I0J122D01*
G01*
X14765Y3358D02*
G03*
X14643Y3236I-0J-122D01*
G01*
X15202D02*
G03*
X15080Y3358I-122J0D01*
G01*
X25980Y440D02*
G03*
X25980Y440I-50J0D01*
G01*
X13099Y4904D02*
G03*
X12977Y4782I0J-122D01*
G01*
Y4467D02*
G03*
X13099Y4345I122J-0D01*
G01*
X14078Y4780D02*
G03*
X13956Y4902I-122J0D01*
G01*
Y4343D02*
G03*
X14078Y4465I0J122D01*
G01*
X17780Y6269D02*
G03*
X17902Y6147I122J0D01*
G01*
X18217D02*
G03*
X18339Y6269I0J122D01*
G01*
X17905Y7248D02*
G03*
X17783Y7126I-0J-122D01*
G01*
X18342D02*
G03*
X18220Y7248I-122J0D01*
G01*
X13099Y5682D02*
G03*
X12977Y5560I0J-122D01*
G01*
Y5245D02*
G03*
X13099Y5123I122J-0D01*
G01*
X14078Y5557D02*
G03*
X13956Y5679I-122J0D01*
G01*
Y5120D02*
G03*
X14078Y5242I0J122D01*
G01*
X23360Y14890D02*
G03*
X23482Y14768I122J0D01*
G01*
X23797D02*
G03*
X23919Y14890I0J122D01*
G01*
X23485Y15869D02*
G03*
X23363Y15747I-0J-122D01*
G01*
X23922D02*
G03*
X23800Y15869I-122J0D01*
G01*
X16980Y6269D02*
G03*
X17102Y6147I122J0D01*
G01*
X17417D02*
G03*
X17539Y6269I0J122D01*
G01*
X17105Y7248D02*
G03*
X16983Y7126I-0J-122D01*
G01*
X17542D02*
G03*
X17420Y7248I-122J0D01*
G01*
X20810Y4000D02*
G03*
X20688Y4122I-122J0D01*
G01*
X20373D02*
G03*
X20251Y4000I-0J-122D01*
G01*
X20685Y3021D02*
G03*
X20807Y3143I0J122D01*
G01*
X20248D02*
G03*
X20370Y3021I122J0D01*
G01*
X1371Y12389D02*
G03*
X1371Y12217I86J-86D01*
G01*
X1594Y11994D02*
G03*
X1766Y11994I86J86D01*
G01*
X2151Y12993D02*
G03*
X1978Y12993I-86J-86D01*
G01*
X2374Y12598D02*
G03*
X2374Y12771I-86J86D01*
G01*
X-3868Y10814D02*
G03*
X-4041Y10814I-86J-86D01*
G01*
X-4263Y10591D02*
G03*
X-4263Y10418I86J-86D01*
G01*
X-3264Y10034D02*
G03*
X-3264Y10206I-86J86D01*
G01*
X-3659Y9811D02*
G03*
X-3487Y9811I86J86D01*
G01*
X15202Y5086D02*
G03*
X15080Y5208I-122J0D01*
G01*
X14765D02*
G03*
X14643Y5086I-0J-122D01*
G01*
X15077Y4107D02*
G03*
X15199Y4229I0J122D01*
G01*
X14640D02*
G03*
X14762Y4107I122J0D01*
G01*
X-29618Y6826D02*
G03*
X-29740Y6704I0J-122D01*
G01*
Y6389D02*
G03*
X-29618Y6267I122J-0D01*
G01*
X-28640Y6701D02*
G03*
X-28762Y6823I-122J0D01*
G01*
Y6264D02*
G03*
X-28640Y6386I0J122D01*
G01*
X-28762Y5330D02*
G03*
X-28640Y5452I0J122D01*
G01*
Y5767D02*
G03*
X-28762Y5889I-122J0D01*
G01*
X-29740Y5455D02*
G03*
X-29618Y5333I122J-0D01*
G01*
Y5892D02*
G03*
X-29740Y5770I0J-122D01*
G01*
X12746Y19854D02*
G03*
X12868Y19976I0J122D01*
G01*
Y20291D02*
G03*
X12746Y20413I-122J0D01*
G01*
X11767Y19978D02*
G03*
X11889Y19856I122J-0D01*
G01*
Y20415D02*
G03*
X11767Y20293I0J-122D01*
G01*
X12746Y18216D02*
G03*
X12868Y18338I0J122D01*
G01*
Y18653D02*
G03*
X12746Y18775I-122J0D01*
G01*
X11767Y18340D02*
G03*
X11889Y18218I122J-0D01*
G01*
Y18777D02*
G03*
X11767Y18655I0J-122D01*
G01*
X11889Y17140D02*
G03*
X11767Y17018I0J-122D01*
G01*
Y16703D02*
G03*
X11889Y16581I122J-0D01*
G01*
X12868Y17015D02*
G03*
X12746Y17137I-122J0D01*
G01*
Y16578D02*
G03*
X12868Y16700I0J122D01*
G01*
X12746Y23203D02*
G03*
X12868Y23325I0J122D01*
G01*
Y23640D02*
G03*
X12746Y23762I-122J0D01*
G01*
X11767Y23327D02*
G03*
X11889Y23205I122J-0D01*
G01*
Y23764D02*
G03*
X11767Y23642I0J-122D01*
G01*
X3118Y9247D02*
G03*
X3290Y9247I86J86D01*
G01*
X3513Y9469D02*
G03*
X3513Y9642I-86J86D01*
G01*
X2514Y10027D02*
G03*
X2514Y9854I86J-86D01*
G01*
X2909Y10249D02*
G03*
X2736Y10249I-86J-86D01*
G01*
X22148Y5234D02*
G03*
X22270Y5112I122J0D01*
G01*
X22585D02*
G03*
X22707Y5234I0J122D01*
G01*
X22273Y6213D02*
G03*
X22151Y6091I-0J-122D01*
G01*
X22710D02*
G03*
X22588Y6213I-122J0D01*
G01*
X12746Y21529D02*
G03*
X12868Y21651I0J122D01*
G01*
Y21965D02*
G03*
X12746Y22087I-122J0D01*
G01*
X11767Y21653D02*
G03*
X11889Y21531I122J-0D01*
G01*
Y22090D02*
G03*
X11767Y21968I0J-122D01*
G01*
X12746Y17397D02*
G03*
X12868Y17519I0J122D01*
G01*
Y17834D02*
G03*
X12746Y17956I-122J0D01*
G01*
X11767Y17522D02*
G03*
X11889Y17400I122J-0D01*
G01*
Y17958D02*
G03*
X11767Y17836I0J-122D01*
G01*
X12746Y22366D02*
G03*
X12868Y22488I0J122D01*
G01*
Y22803D02*
G03*
X12746Y22925I-122J0D01*
G01*
X11767Y22490D02*
G03*
X11889Y22368I122J-0D01*
G01*
Y22927D02*
G03*
X11767Y22805I0J-122D01*
G01*
X11889Y19596D02*
G03*
X11767Y19474I0J-122D01*
G01*
Y19159D02*
G03*
X11889Y19037I122J-0D01*
G01*
X12868Y19472D02*
G03*
X12746Y19594I-122J0D01*
G01*
Y19035D02*
G03*
X12868Y19157I0J122D01*
G01*
X11889Y16321D02*
G03*
X11767Y16199I0J-122D01*
G01*
Y15884D02*
G03*
X11889Y15762I122J-0D01*
G01*
X12868Y16196D02*
G03*
X12746Y16318I-122J0D01*
G01*
Y15759D02*
G03*
X12868Y15881I0J122D01*
G01*
X11889Y15502D02*
G03*
X11767Y15380I0J-122D01*
G01*
Y15065D02*
G03*
X11889Y14943I122J-0D01*
G01*
X12868Y15377D02*
G03*
X12746Y15499I-122J0D01*
G01*
Y14940D02*
G03*
X12868Y15062I0J122D01*
G01*
X20910Y950D02*
G03*
X20788Y828I0J-122D01*
G01*
Y513D02*
G03*
X20910Y391I122J-0D01*
G01*
X21889Y825D02*
G03*
X21767Y947I-122J0D01*
G01*
Y388D02*
G03*
X21889Y510I0J122D01*
G01*
X13956Y2788D02*
G03*
X14078Y2910I0J122D01*
G01*
Y3225D02*
G03*
X13956Y3347I-122J0D01*
G01*
X12977Y2913D02*
G03*
X13099Y2791I122J-0D01*
G01*
Y3350D02*
G03*
X12977Y3228I0J-122D01*
G01*
X15760Y19770D02*
G03*
X15638Y19892I-122J0D01*
G01*
X15323D02*
G03*
X15201Y19770I-0J-122D01*
G01*
X15635Y18791D02*
G03*
X15757Y18913I0J122D01*
G01*
X15198D02*
G03*
X15320Y18791I122J0D01*
G01*
X18302Y1067D02*
G03*
X18180Y1189I-122J0D01*
G01*
X17865Y1189D02*
G03*
X17743Y1067I-0J-122D01*
G01*
X18177Y88D02*
G03*
X18299Y210I0J122D01*
G01*
X17740Y210D02*
G03*
X17862Y88I122J0D01*
G01*
X6280Y5759D02*
G03*
X6402Y5637I122J0D01*
G01*
X6717D02*
G03*
X6839Y5759I0J122D01*
G01*
X6405Y6738D02*
G03*
X6283Y6616I-0J-122D01*
G01*
X6842D02*
G03*
X6720Y6738I-122J0D01*
G01*
X10621Y11790D02*
G03*
X10743Y11912I0J122D01*
G01*
X10743Y12227D02*
G03*
X10621Y12349I-122J0D01*
G01*
X9642Y11915D02*
G03*
X9764Y11793I122J-0D01*
G01*
X9764Y12352D02*
G03*
X9642Y12230I0J-122D01*
G01*
X26337Y5208D02*
G03*
X26459Y5330I0J122D01*
G01*
Y5645D02*
G03*
X26337Y5767I-122J0D01*
G01*
X25358Y5333D02*
G03*
X25480Y5211I122J-0D01*
G01*
Y5770D02*
G03*
X25358Y5648I0J-122D01*
G01*
X26336Y4388D02*
G03*
X26458Y4510I0J122D01*
G01*
Y4825D02*
G03*
X26336Y4947I-122J0D01*
G01*
X25357Y4513D02*
G03*
X25479Y4391I122J-0D01*
G01*
Y4950D02*
G03*
X25357Y4828I0J-122D01*
G01*
X-1048Y15057D02*
G03*
X-926Y14935I122J0D01*
G01*
X-611Y14935D02*
G03*
X-489Y15057I0J122D01*
G01*
X-924Y16035D02*
G03*
X-1046Y15913I-0J-122D01*
G01*
X-487Y15913D02*
G03*
X-609Y16035I-122J0D01*
G01*
X26218Y2243D02*
G03*
X26340Y2121I122J0D01*
G01*
X26655D02*
G03*
X26777Y2243I0J122D01*
G01*
X26343Y3222D02*
G03*
X26221Y3100I-0J-122D01*
G01*
X26780D02*
G03*
X26658Y3222I-122J0D01*
G01*
X5890Y6591D02*
G03*
X5768Y6713I-122J0D01*
G01*
X5453Y6713D02*
G03*
X5331Y6591I-0J-122D01*
G01*
X5765Y5612D02*
G03*
X5887Y5734I0J122D01*
G01*
X5328D02*
G03*
X5450Y5612I122J0D01*
G01*
X-284Y15071D02*
G03*
X-162Y14949I122J0D01*
G01*
X153D02*
G03*
X275Y15071I0J122D01*
G01*
X-160Y16049D02*
G03*
X-282Y15927I-0J-122D01*
G01*
X277Y15927D02*
G03*
X155Y16049I-122J0D01*
G01*
X25643Y4162D02*
G03*
X25521Y4040I0J-122D01*
G01*
Y3725D02*
G03*
X25643Y3603I122J-0D01*
G01*
X26622Y4037D02*
G03*
X26500Y4159I-122J0D01*
G01*
Y3600D02*
G03*
X26622Y3722I0J122D01*
G01*
X-3263Y33530D02*
G03*
X-3385Y33652I-122J0D01*
G01*
X-3700D02*
G03*
X-3822Y33530I-0J-122D01*
G01*
X-3387Y32552D02*
G03*
X-3265Y32674I0J122D01*
G01*
X-3824D02*
G03*
X-3702Y32552I122J0D01*
G01*
X522Y15099D02*
G03*
X644Y14977I122J0D01*
G01*
X959Y14977D02*
G03*
X1081Y15099I0J122D01*
G01*
X646Y16078D02*
G03*
X524Y15956I-0J-122D01*
G01*
X1083Y15956D02*
G03*
X961Y16078I-122J0D01*
G01*
X24562Y3076D02*
G03*
X24440Y3198I-122J0D01*
G01*
X24125D02*
G03*
X24003Y3076I-0J-122D01*
G01*
X24437Y2097D02*
G03*
X24559Y2219I0J122D01*
G01*
X24000D02*
G03*
X24122Y2097I122J0D01*
G01*
X25147Y3608D02*
G03*
X25269Y3730I0J122D01*
G01*
Y4045D02*
G03*
X25147Y4167I-122J0D01*
G01*
X24168Y3733D02*
G03*
X24290Y3611I122J-0D01*
G01*
Y4170D02*
G03*
X24168Y4048I0J-122D01*
G01*
X14260Y26069D02*
G03*
X14382Y25947I122J0D01*
G01*
X14697D02*
G03*
X14819Y26069I0J122D01*
G01*
X14385Y27048D02*
G03*
X14263Y26926I-0J-122D01*
G01*
X14822Y26926D02*
G03*
X14700Y27048I-122J0D01*
G01*
X9649Y26360D02*
G03*
X9527Y26238I0J-122D01*
G01*
Y25923D02*
G03*
X9649Y25801I122J-0D01*
G01*
X10628Y26235D02*
G03*
X10506Y26357I-122J0D01*
G01*
X10506Y25798D02*
G03*
X10628Y25920I0J122D01*
G01*
X9907Y23628D02*
G03*
X10029Y23750I0J122D01*
G01*
Y24065D02*
G03*
X9907Y24187I-122J0D01*
G01*
X8928Y23753D02*
G03*
X9050Y23631I122J-0D01*
G01*
Y24190D02*
G03*
X8928Y24068I0J-122D01*
G01*
X10197Y24713D02*
G03*
X10319Y24835I0J122D01*
G01*
Y25150D02*
G03*
X10197Y25272I-122J0D01*
G01*
X9218Y24838D02*
G03*
X9340Y24716I122J-0D01*
G01*
Y25275D02*
G03*
X9218Y25153I0J-122D01*
G01*
X14513Y-4408D02*
G03*
X14391Y-4530I0J-122D01*
G01*
Y-4845D02*
G03*
X14513Y-4967I122J-0D01*
G01*
X15492Y-4533D02*
G03*
X15370Y-4411I-122J0D01*
G01*
Y-4970D02*
G03*
X15492Y-4848I0J122D01*
G01*
X11461Y-11960D02*
G03*
X11339Y-12082I0J-122D01*
G01*
Y-12397D02*
G03*
X11461Y-12519I122J-0D01*
G01*
X12439Y-12085D02*
G03*
X12317Y-11963I-122J0D01*
G01*
Y-12522D02*
G03*
X12439Y-12400I0J122D01*
G01*
X18051Y-12522D02*
G03*
X18173Y-12400I0J122D01*
G01*
Y-12085D02*
G03*
X18051Y-11963I-122J0D01*
G01*
X17072Y-12397D02*
G03*
X17194Y-12519I122J-0D01*
G01*
Y-11960D02*
G03*
X17072Y-12082I0J-122D01*
G01*
X-6720Y27300D02*
G03*
X-6842Y27178I0J-122D01*
G01*
Y26863D02*
G03*
X-6720Y26741I122J-0D01*
G01*
X-5741Y27175D02*
G03*
X-5863Y27297I-122J0D01*
G01*
Y26738D02*
G03*
X-5741Y26860I0J122D01*
G01*
X6780Y25397D02*
G03*
X6902Y25519I0J122D01*
G01*
Y25834D02*
G03*
X6780Y25956I-122J0D01*
G01*
X5801Y25521D02*
G03*
X5923Y25399I122J-0D01*
G01*
Y25958D02*
G03*
X5801Y25836I0J-122D01*
G01*
X6780Y24514D02*
G03*
X6902Y24636I0J122D01*
G01*
Y24951D02*
G03*
X6780Y25073I-122J0D01*
G01*
X5801Y24638D02*
G03*
X5923Y24516I122J-0D01*
G01*
Y25075D02*
G03*
X5801Y24953I0J-122D01*
G01*
X14327Y-11960D02*
G03*
X14205Y-12082I0J-122D01*
G01*
Y-12397D02*
G03*
X14327Y-12519I122J-0D01*
G01*
X15306Y-12085D02*
G03*
X15184Y-11963I-122J0D01*
G01*
Y-12522D02*
G03*
X15306Y-12400I0J122D01*
G01*
X20817Y-12522D02*
G03*
X20939Y-12400I0J122D01*
G01*
Y-12085D02*
G03*
X20817Y-11963I-122J0D01*
G01*
X19839Y-12397D02*
G03*
X19961Y-12519I122J-0D01*
G01*
Y-11960D02*
G03*
X19839Y-12082I0J-122D01*
G01*
X2670Y-14720D02*
G03*
X2792Y-14842I122J0D01*
G01*
X3107D02*
G03*
X3229Y-14720I0J122D01*
G01*
X2795Y-13741D02*
G03*
X2673Y-13863I-0J-122D01*
G01*
X3232Y-13863D02*
G03*
X3110Y-13741I-122J0D01*
G01*
X-16836Y-4408D02*
G03*
X-16958Y-4530I0J-122D01*
G01*
Y-4845D02*
G03*
X-16836Y-4967I122J-0D01*
G01*
X-15857Y-4533D02*
G03*
X-15979Y-4411I-122J0D01*
G01*
Y-4970D02*
G03*
X-15857Y-4848I0J122D01*
G01*
X3613Y-11898D02*
G03*
X3491Y-12020I0J-122D01*
G01*
X3491Y-12335D02*
G03*
X3613Y-12457I122J-0D01*
G01*
X4592Y-12023D02*
G03*
X4470Y-11901I-122J0D01*
G01*
Y-12460D02*
G03*
X4592Y-12338I0J122D01*
G01*
X-18693Y-12522D02*
G03*
X-18571Y-12400I0J122D01*
G01*
Y-12085D02*
G03*
X-18693Y-11963I-122J0D01*
G01*
X-19671Y-12397D02*
G03*
X-19549Y-12519I122J-0D01*
G01*
Y-11960D02*
G03*
X-19671Y-12082I0J-122D01*
G01*
X-13823Y-11960D02*
G03*
X-13945Y-12082I0J-122D01*
G01*
Y-12397D02*
G03*
X-13823Y-12519I122J-0D01*
G01*
X-12844Y-12085D02*
G03*
X-12966Y-11963I-122J0D01*
G01*
Y-12522D02*
G03*
X-12844Y-12400I0J122D01*
G01*
X-8448Y-16764D02*
G03*
X-8570Y-16642I-122J0D01*
G01*
X-8885D02*
G03*
X-9007Y-16764I-0J-122D01*
G01*
X-8573Y-17743D02*
G03*
X-8451Y-17621I0J122D01*
G01*
X-9010D02*
G03*
X-8888Y-17743I122J0D01*
G01*
X-4586Y-16918D02*
G03*
X-4708Y-17040I0J-122D01*
G01*
Y-17355D02*
G03*
X-4586Y-17477I122J-0D01*
G01*
X-3607Y-17043D02*
G03*
X-3729Y-16921I-122J0D01*
G01*
Y-17480D02*
G03*
X-3607Y-17358I0J122D01*
G01*
X-15829Y-12522D02*
G03*
X-15707Y-12400I0J122D01*
G01*
Y-12085D02*
G03*
X-15829Y-11963I-122J0D01*
G01*
X-16808Y-12397D02*
G03*
X-16686Y-12519I122J-0D01*
G01*
Y-11960D02*
G03*
X-16808Y-12082I0J-122D01*
G01*
X-10959Y-11960D02*
G03*
X-11081Y-12082I0J-122D01*
G01*
Y-12397D02*
G03*
X-10959Y-12519I122J-0D01*
G01*
X-9981Y-12085D02*
G03*
X-10103Y-11963I-122J0D01*
G01*
Y-12522D02*
G03*
X-9981Y-12400I0J122D01*
G01*
X-9002Y-18987D02*
G03*
X-8880Y-19109I122J0D01*
G01*
X-8565D02*
G03*
X-8443Y-18987I0J122D01*
G01*
X-8877Y-18008D02*
G03*
X-8999Y-18130I-0J-122D01*
G01*
X-8440D02*
G03*
X-8562Y-18008I-122J0D01*
G01*
X-22902Y14000D02*
G03*
X-22780Y14122I0J122D01*
G01*
Y14437D02*
G03*
X-22902Y14559I-122J0D01*
G01*
X-23880Y14125D02*
G03*
X-23758Y14003I122J-0D01*
G01*
Y14562D02*
G03*
X-23880Y14440I0J-122D01*
G01*
X-22902Y13200D02*
G03*
X-22780Y13322I0J122D01*
G01*
Y13637D02*
G03*
X-22902Y13759I-122J0D01*
G01*
X-23880Y13325D02*
G03*
X-23758Y13203I122J-0D01*
G01*
Y13762D02*
G03*
X-23880Y13640I0J-122D01*
G01*
X-18143Y14000D02*
G03*
X-18022Y14122I0J122D01*
G01*
Y14437D02*
G03*
X-18143Y14559I-122J0D01*
G01*
X-19122Y14125D02*
G03*
X-19000Y14003I122J-0D01*
G01*
Y14562D02*
G03*
X-19122Y14440I0J-122D01*
G01*
X-18143Y13200D02*
G03*
X-18022Y13322I0J122D01*
G01*
Y13637D02*
G03*
X-18143Y13759I-122J0D01*
G01*
X-19122Y13325D02*
G03*
X-19000Y13203I122J-0D01*
G01*
Y13762D02*
G03*
X-19122Y13640I0J-122D01*
G01*
X-2322Y-8407D02*
G03*
X-2200Y-8529I122J0D01*
G01*
X-1885D02*
G03*
X-1763Y-8407I0J122D01*
G01*
X-2197Y-7428D02*
G03*
X-2319Y-7550I-0J-122D01*
G01*
X-1760D02*
G03*
X-1882Y-7428I-122J0D01*
G01*
X-9577Y13762D02*
G03*
X-9699Y13640I0J-122D01*
G01*
X-9699Y13325D02*
G03*
X-9577Y13203I122J-0D01*
G01*
X-8598Y13637D02*
G03*
X-8720Y13759I-122J0D01*
G01*
X-8720Y13200D02*
G03*
X-8598Y13322I0J122D01*
G01*
X-9556Y14552D02*
G03*
X-9678Y14430I0J-122D01*
G01*
X-9678Y14115D02*
G03*
X-9556Y13993I122J-0D01*
G01*
X-8577Y14427D02*
G03*
X-8699Y14549I-122J0D01*
G01*
Y13990D02*
G03*
X-8577Y14112I0J122D01*
G01*
X-12110Y309D02*
G03*
X-11988Y187I122J0D01*
G01*
X-11673Y187D02*
G03*
X-11551Y309I0J122D01*
G01*
X-11985Y1288D02*
G03*
X-12107Y1166I-0J-122D01*
G01*
X-11548D02*
G03*
X-11670Y1288I-122J0D01*
G01*
X-12090Y1719D02*
G03*
X-11968Y1597I122J0D01*
G01*
X-11653D02*
G03*
X-11531Y1719I0J122D01*
G01*
X-11965Y2698D02*
G03*
X-12087Y2576I-0J-122D01*
G01*
X-11528D02*
G03*
X-11650Y2698I-122J0D01*
G01*
X-1760Y-6220D02*
G03*
X-1882Y-6098I-122J0D01*
G01*
X-2197D02*
G03*
X-2319Y-6220I-0J-122D01*
G01*
X-1885Y-7199D02*
G03*
X-1763Y-7077I0J122D01*
G01*
X-2322D02*
G03*
X-2200Y-7199I122J0D01*
G01*
X6370Y259D02*
G03*
X6492Y137I122J0D01*
G01*
X6807D02*
G03*
X6929Y259I0J122D01*
G01*
X6495Y1238D02*
G03*
X6373Y1116I-0J-122D01*
G01*
X6932D02*
G03*
X6810Y1238I-122J0D01*
G01*
X6370Y1600D02*
G03*
X6492Y1478I122J0D01*
G01*
X6807D02*
G03*
X6929Y1600I0J122D01*
G01*
X6495Y2579D02*
G03*
X6373Y2457I-0J-122D01*
G01*
X6932D02*
G03*
X6810Y2579I-122J0D01*
G01*
X-7520Y350D02*
G03*
X-7398Y228I122J0D01*
G01*
X-7083D02*
G03*
X-6961Y350I0J122D01*
G01*
X-7395Y1329D02*
G03*
X-7517Y1207I-0J-122D01*
G01*
X-6958Y1207D02*
G03*
X-7080Y1329I-122J0D01*
G01*
X-7520Y1770D02*
G03*
X-7398Y1648I122J0D01*
G01*
X-7083Y1648D02*
G03*
X-6961Y1770I0J122D01*
G01*
X-7395Y2749D02*
G03*
X-7517Y2627I-0J-122D01*
G01*
X-6958Y2627D02*
G03*
X-7080Y2749I-122J0D01*
G01*
X11030Y209D02*
G03*
X11152Y87I122J0D01*
G01*
X11467D02*
G03*
X11589Y209I0J122D01*
G01*
X11155Y1188D02*
G03*
X11033Y1066I-0J-122D01*
G01*
X11592D02*
G03*
X11470Y1188I-122J0D01*
G01*
X11020Y1610D02*
G03*
X11142Y1488I122J0D01*
G01*
X11457D02*
G03*
X11579Y1610I0J122D01*
G01*
X11145Y2589D02*
G03*
X11023Y2467I-0J-122D01*
G01*
X11582D02*
G03*
X11460Y2589I-122J0D01*
G01*
X-28882Y2781D02*
G03*
X-28882Y2781I-619J0D01*
G01*
X-22732D02*
G03*
X-22732Y2781I-619J0D01*
G01*
X17209Y27621D02*
G03*
X17209Y27621I-619J0D01*
G01*
X18998Y-22869D02*
G03*
X18998Y-22869I-619J0D01*
G01*
X3060Y-17919D02*
G03*
X2397Y-16333I-2362J-56D01*
G01*
X-2377Y-16314D02*
G03*
X-3040Y-17900I1698J-1642D01*
G01*
X22528Y2413D02*
G03*
X22650Y2291I122J0D01*
G01*
X22965Y2291D02*
G03*
X23087Y2413I0J122D01*
G01*
X22653Y3392D02*
G03*
X22531Y3270I-0J-122D01*
G01*
X23090D02*
G03*
X22968Y3392I-122J0D01*
G01*
X5406Y8372D02*
G03*
X5406Y8199I86J-86D01*
G01*
X5629Y7977D02*
G03*
X5802Y7977I86J86D01*
G01*
X6186Y8976D02*
G03*
X6014Y8976I-86J-86D01*
G01*
X6409Y8581D02*
G03*
X6409Y8753I-86J86D01*
G01*
X4786Y8992D02*
G03*
X4786Y8819I86J-86D01*
G01*
X5009Y8597D02*
G03*
X5182Y8597I86J86D01*
G01*
X5566Y9596D02*
G03*
X5394Y9596I-86J-86D01*
G01*
X5789Y9201D02*
G03*
X5789Y9373I-86J86D01*
G01*
X826Y12922D02*
G03*
X826Y12749I86J-86D01*
G01*
X1049Y12527D02*
G03*
X1222Y12527I86J86D01*
G01*
X1606Y13526D02*
G03*
X1434Y13526I-86J-86D01*
G01*
X1829Y13131D02*
G03*
X1829Y13303I-86J86D01*
G01*
X266Y13482D02*
G03*
X266Y13309I86J-86D01*
G01*
X489Y13087D02*
G03*
X662Y13087I86J86D01*
G01*
X1046Y14086D02*
G03*
X874Y14086I-86J-86D01*
G01*
X1269Y13691D02*
G03*
X1269Y13863I-86J86D01*
G01*
X-2233Y11922D02*
G03*
X-2233Y11750I86J-86D01*
G01*
X-2010Y11527D02*
G03*
X-1838Y11527I86J86D01*
G01*
X-1453Y12526D02*
G03*
X-1626Y12526I-86J-86D01*
G01*
X-1231Y12131D02*
G03*
X-1231Y12304I-86J86D01*
G01*
X-5122Y8257D02*
G03*
X-4950Y8257I86J86D01*
G01*
X-4727Y8479D02*
G03*
X-4727Y8652I-86J86D01*
G01*
X-5726Y9037D02*
G03*
X-5726Y8864I86J-86D01*
G01*
X-5331Y9259D02*
G03*
X-5504Y9259I-86J-86D01*
G01*
X-1082Y1596D02*
G03*
X-909Y1596I86J86D01*
G01*
X-687Y1819D02*
G03*
X-687Y1992I-86J86D01*
G01*
X-1686Y2376D02*
G03*
X-1686Y2204I86J-86D01*
G01*
X-1291Y2599D02*
G03*
X-1463Y2599I-86J-86D01*
G01*
X1937Y11858D02*
G03*
X1937Y11685I86J-86D01*
G01*
X2160Y11463D02*
G03*
X2332Y11463I86J86D01*
G01*
X2717Y12462D02*
G03*
X2544Y12462I-86J-86D01*
G01*
X2940Y12067D02*
G03*
X2940Y12239I-86J86D01*
G01*
X23072Y4587D02*
G03*
X22950Y4709I-122J0D01*
G01*
X22635Y4709D02*
G03*
X22513Y4587I-0J-122D01*
G01*
X22947Y3608D02*
G03*
X23069Y3730I0J122D01*
G01*
X22510D02*
G03*
X22632Y3608I122J0D01*
G01*
X-29618Y7760D02*
G03*
X-29740Y7638I0J-122D01*
G01*
Y7323D02*
G03*
X-29618Y7201I122J-0D01*
G01*
X-28640Y7635D02*
G03*
X-28762Y7757I-122J0D01*
G01*
Y7198D02*
G03*
X-28640Y7320I0J122D01*
G01*
X21288Y5203D02*
G03*
X21410Y5081I122J0D01*
G01*
X21725D02*
G03*
X21847Y5203I0J122D01*
G01*
X21413Y6182D02*
G03*
X21291Y6060I-0J-122D01*
G01*
X21850D02*
G03*
X21728Y6182I-122J0D01*
G01*
X4278Y11366D02*
G03*
X4451Y11366I86J86D01*
G01*
X4673Y11589D02*
G03*
X4673Y11762I-86J86D01*
G01*
X3674Y12146D02*
G03*
X3674Y11974I86J-86D01*
G01*
X4069Y12369D02*
G03*
X3897Y12369I-86J-86D01*
G01*
X16600Y19770D02*
G03*
X16478Y19892I-122J0D01*
G01*
X16163Y19892D02*
G03*
X16041Y19770I-0J-122D01*
G01*
X16475Y18791D02*
G03*
X16597Y18913I0J122D01*
G01*
X16038D02*
G03*
X16160Y18791I122J0D01*
G01*
X5022Y11403D02*
G03*
X4850Y11403I-86J-86D01*
G01*
X4627Y11180D02*
G03*
X4627Y11008I86J-86D01*
G01*
X5626Y10623D02*
G03*
X5626Y10796I-86J86D01*
G01*
X5231Y10401D02*
G03*
X5404Y10401I86J86D01*
G01*
X20661Y22930D02*
G03*
X20783Y23052I0J122D01*
G01*
Y23367D02*
G03*
X20661Y23489I-122J0D01*
G01*
X19682Y23055D02*
G03*
X19804Y22933I122J-0D01*
G01*
Y23492D02*
G03*
X19682Y23370I0J-122D01*
G01*
X16780Y23480D02*
G03*
X16658Y23358I0J-122D01*
G01*
Y23043D02*
G03*
X16780Y22921I122J-0D01*
G01*
X17759Y23355D02*
G03*
X17637Y23477I-122J0D01*
G01*
Y22918D02*
G03*
X17759Y23040I0J122D01*
G01*
X20059Y16760D02*
G03*
X19937Y16638I0J-122D01*
G01*
Y16323D02*
G03*
X20059Y16201I122J-0D01*
G01*
X21038Y16635D02*
G03*
X20916Y16757I-122J0D01*
G01*
Y16198D02*
G03*
X21038Y16320I0J122D01*
G01*
X24352Y1476D02*
G03*
X24230Y1598I-122J0D01*
G01*
X23915D02*
G03*
X23793Y1476I-0J-122D01*
G01*
X24227Y497D02*
G03*
X24349Y619I0J122D01*
G01*
X23790D02*
G03*
X23912Y497I122J0D01*
G01*
X23482Y1497D02*
G03*
X23360Y1619I-122J0D01*
G01*
X23045D02*
G03*
X22923Y1497I-0J-122D01*
G01*
X23357Y518D02*
G03*
X23479Y640I0J122D01*
G01*
X22920D02*
G03*
X23042Y518I122J0D01*
G01*
X-1898Y32674D02*
G03*
X-1776Y32552I122J0D01*
G01*
X-1461D02*
G03*
X-1339Y32674I0J122D01*
G01*
X-1774Y33652D02*
G03*
X-1896Y33530I-0J-122D01*
G01*
X-1337D02*
G03*
X-1459Y33652I-122J0D01*
G01*
X-5893Y29018D02*
G03*
X-5771Y29140I0J122D01*
G01*
Y29455D02*
G03*
X-5893Y29577I-122J0D01*
G01*
X-6872Y29143D02*
G03*
X-6750Y29021I122J-0D01*
G01*
Y29580D02*
G03*
X-6872Y29458I0J-122D01*
G01*
X-4388Y21886D02*
G03*
X-4510Y22008I-122J0D01*
G01*
X-4825D02*
G03*
X-4947Y21886I-0J-122D01*
G01*
X-4513Y20907D02*
G03*
X-4391Y21029I0J122D01*
G01*
X-4950D02*
G03*
X-4828Y20907I122J0D01*
G01*
X1390Y32674D02*
G03*
X1512Y32552I122J0D01*
G01*
X1827D02*
G03*
X1949Y32674I0J122D01*
G01*
X1514Y33652D02*
G03*
X1392Y33530I-0J-122D01*
G01*
X1951D02*
G03*
X1829Y33652I-122J0D01*
G01*
X-2143Y20867D02*
G03*
X-2265Y20989I-122J0D01*
G01*
X-2580D02*
G03*
X-2702Y20867I-0J-122D01*
G01*
X-2268Y19888D02*
G03*
X-2146Y20010I0J122D01*
G01*
X-2705D02*
G03*
X-2583Y19888I122J0D01*
G01*
X1677Y20867D02*
G03*
X1555Y20989I-122J0D01*
G01*
X1240D02*
G03*
X1118Y20867I-0J-122D01*
G01*
X1552Y19888D02*
G03*
X1674Y20010I0J122D01*
G01*
X1115D02*
G03*
X1237Y19888I122J0D01*
G01*
X3276Y32674D02*
G03*
X3398Y32552I122J0D01*
G01*
X3713D02*
G03*
X3834Y32674I0J122D01*
G01*
X3400Y33652D02*
G03*
X3278Y33530I-0J-122D01*
G01*
X3837D02*
G03*
X3715Y33652I-122J0D01*
G01*
X5923Y29442D02*
G03*
X5801Y29320I0J-122D01*
G01*
Y29005D02*
G03*
X5923Y28883I122J-0D01*
G01*
X6902Y29317D02*
G03*
X6780Y29439I-122J0D01*
G01*
Y28880D02*
G03*
X6902Y29002I0J122D01*
G01*
X6780Y23630D02*
G03*
X6902Y23752I0J122D01*
G01*
Y24067D02*
G03*
X6780Y24189I-122J0D01*
G01*
X5801Y23755D02*
G03*
X5923Y23633I122J-0D01*
G01*
Y24192D02*
G03*
X5801Y24070I0J-122D01*
G01*
X-6760Y24000D02*
G03*
X-6882Y23878I0J-122D01*
G01*
Y23563D02*
G03*
X-6760Y23441I122J-0D01*
G01*
X-5781Y23875D02*
G03*
X-5903Y23997I-122J0D01*
G01*
Y23438D02*
G03*
X-5781Y23560I0J122D01*
G01*
X-6750Y26010D02*
G03*
X-6872Y25888I0J-122D01*
G01*
Y25573D02*
G03*
X-6750Y25451I122J-0D01*
G01*
X-5771Y25885D02*
G03*
X-5893Y26007I-122J0D01*
G01*
Y25448D02*
G03*
X-5771Y25570I0J122D01*
G01*
X6780Y30930D02*
G03*
X6902Y31052I0J122D01*
G01*
Y31367D02*
G03*
X6780Y31489I-122J0D01*
G01*
X5801Y31055D02*
G03*
X5923Y30933I122J-0D01*
G01*
Y31492D02*
G03*
X5801Y31370I0J-122D01*
G01*
X2070Y20010D02*
G03*
X2192Y19888I122J0D01*
G01*
X2507D02*
G03*
X2629Y20010I0J122D01*
G01*
X2195Y20989D02*
G03*
X2073Y20867I-0J-122D01*
G01*
X2632D02*
G03*
X2510Y20989I-122J0D01*
G01*
X160Y20010D02*
G03*
X282Y19888I122J0D01*
G01*
X597D02*
G03*
X719Y20010I0J122D01*
G01*
X285Y20989D02*
G03*
X163Y20867I-0J-122D01*
G01*
X722D02*
G03*
X600Y20989I-122J0D01*
G01*
X-795Y20010D02*
G03*
X-673Y19888I122J0D01*
G01*
X-358D02*
G03*
X-236Y20010I0J122D01*
G01*
X-670Y20989D02*
G03*
X-792Y20867I-0J-122D01*
G01*
X-233D02*
G03*
X-355Y20989I-122J0D01*
G01*
X-6750Y28710D02*
G03*
X-6872Y28588I0J-122D01*
G01*
Y28273D02*
G03*
X-6750Y28151I122J-0D01*
G01*
X-5771Y28585D02*
G03*
X-5893Y28707I-122J0D01*
G01*
Y28148D02*
G03*
X-5771Y28270I0J122D01*
G01*
X988Y33530D02*
G03*
X866Y33652I-122J0D01*
G01*
X552D02*
G03*
X430Y33530I-0J-122D01*
G01*
X864Y32552D02*
G03*
X986Y32674I0J122D01*
G01*
X427D02*
G03*
X549Y32552I122J0D01*
G01*
X2914Y33530D02*
G03*
X2792Y33652I-122J0D01*
G01*
X2477D02*
G03*
X2355Y33530I-0J-122D01*
G01*
X2790Y32552D02*
G03*
X2912Y32674I0J122D01*
G01*
X2353D02*
G03*
X2475Y32552I122J0D01*
G01*
X-374Y33530D02*
G03*
X-496Y33652I-122J0D01*
G01*
X-811D02*
G03*
X-933Y33530I-0J-122D01*
G01*
X-499Y32552D02*
G03*
X-377Y32674I0J122D01*
G01*
X-936D02*
G03*
X-814Y32552I122J0D01*
G01*
X-1750Y20010D02*
G03*
X-1628Y19888I122J0D01*
G01*
X-1313D02*
G03*
X-1191Y20010I0J122D01*
G01*
X-1625Y20989D02*
G03*
X-1747Y20867I-0J-122D01*
G01*
X-1188D02*
G03*
X-1310Y20989I-122J0D01*
G01*
X6780Y26280D02*
G03*
X6902Y26402I0J122D01*
G01*
Y26717D02*
G03*
X6780Y26839I-122J0D01*
G01*
X5801Y26405D02*
G03*
X5923Y26283I122J-0D01*
G01*
Y26842D02*
G03*
X5801Y26720I0J-122D01*
G01*
X6780Y27960D02*
G03*
X6902Y28082I0J122D01*
G01*
Y28397D02*
G03*
X6780Y28519I-122J0D01*
G01*
X5801Y28085D02*
G03*
X5923Y27963I122J-0D01*
G01*
Y28522D02*
G03*
X5801Y28400I0J-122D01*
G01*
X-2300Y33530D02*
G03*
X-2422Y33652I-122J0D01*
G01*
X-2737D02*
G03*
X-2859Y33530I-0J-122D01*
G01*
X-2424Y32552D02*
G03*
X-2302Y32674I0J122D01*
G01*
X-2861D02*
G03*
X-2739Y32552I122J0D01*
G01*
X14770Y-9570D02*
G03*
X14892Y-9448I0J122D01*
G01*
Y-9133D02*
G03*
X14770Y-9011I-122J0D01*
G01*
X13791Y-9445D02*
G03*
X13913Y-9567I122J-0D01*
G01*
Y-9008D02*
G03*
X13791Y-9130I0J-122D01*
G01*
X9440Y22791D02*
G03*
X9318Y22913I-122J0D01*
G01*
X9003D02*
G03*
X8881Y22791I-0J-122D01*
G01*
X9315Y21812D02*
G03*
X9437Y21934I0J122D01*
G01*
X8878D02*
G03*
X9000Y21812I122J0D01*
G01*
X17940Y-7490D02*
G03*
X18062Y-7612I122J0D01*
G01*
X18377D02*
G03*
X18499Y-7490I0J122D01*
G01*
X18065Y-6511D02*
G03*
X17943Y-6633I-0J-122D01*
G01*
X18502D02*
G03*
X18380Y-6511I-122J0D01*
G01*
X-4898Y-19674D02*
G03*
X-5020Y-19552I-122J0D01*
G01*
X-5335Y-19552D02*
G03*
X-5457Y-19674I-0J-122D01*
G01*
X-5023Y-20653D02*
G03*
X-4901Y-20531I0J122D01*
G01*
X-5460D02*
G03*
X-5338Y-20653I122J0D01*
G01*
X-18143Y5320D02*
G03*
X-18022Y5442I0J122D01*
G01*
Y5757D02*
G03*
X-18143Y5879I-122J0D01*
G01*
X-19122Y5445D02*
G03*
X-19000Y5323I122J-0D01*
G01*
Y5882D02*
G03*
X-19122Y5760I0J-122D01*
G01*
X11370Y28771D02*
G03*
X11248Y28893I-122J0D01*
G01*
X10933D02*
G03*
X10811Y28771I-0J-122D01*
G01*
X11245Y27792D02*
G03*
X11367Y27914I0J122D01*
G01*
X10808D02*
G03*
X10930Y27792I122J0D01*
G01*
X-16730Y-9570D02*
G03*
X-16608Y-9448I0J122D01*
G01*
Y-9133D02*
G03*
X-16730Y-9011I-122J0D01*
G01*
X-17709Y-9445D02*
G03*
X-17587Y-9567I122J-0D01*
G01*
Y-9008D02*
G03*
X-17709Y-9130I0J-122D01*
G01*
X-8577Y5320D02*
G03*
X-8455Y5442I0J122D01*
G01*
X-8455Y5757D02*
G03*
X-8577Y5879I-122J0D01*
G01*
X-9556Y5445D02*
G03*
X-9434Y5323I122J-0D01*
G01*
X-9434Y5882D02*
G03*
X-9556Y5760I0J-122D01*
G01*
X-13560Y-7490D02*
G03*
X-13438Y-7612I122J0D01*
G01*
X-13123D02*
G03*
X-13001Y-7490I0J122D01*
G01*
X-13435Y-6511D02*
G03*
X-13557Y-6633I-0J-122D01*
G01*
X-12998D02*
G03*
X-13120Y-6511I-122J0D01*
G01*
X-22902Y5320D02*
G03*
X-22780Y5442I0J122D01*
G01*
Y5757D02*
G03*
X-22902Y5879I-122J0D01*
G01*
X-23880Y5445D02*
G03*
X-23758Y5323I122J-0D01*
G01*
Y5882D02*
G03*
X-23880Y5760I0J-122D01*
G01*
X979Y-6370D02*
G03*
X857Y-6492I0J-122D01*
G01*
Y-6807D02*
G03*
X979Y-6929I122J-0D01*
G01*
X1958Y-6495D02*
G03*
X1836Y-6373I-122J0D01*
G01*
Y-6932D02*
G03*
X1958Y-6810I0J122D01*
G01*
X-13243Y13322D02*
Y13637D01*
X-13680Y13759D02*
X-13365D01*
X-13680Y13200D02*
X-13365D01*
X-14222Y13762D02*
X-13907D01*
X-14344Y13325D02*
Y13640D01*
X-14222Y13203D02*
X-13907D01*
X-13243Y5442D02*
Y5757D01*
X-13680Y5879D02*
X-13365D01*
X-13680Y5320D02*
X-13365D01*
X-14222Y5882D02*
X-13907D01*
X-14344Y5445D02*
Y5760D01*
X-14222Y5323D02*
X-13907D01*
X-13243Y14122D02*
Y14437D01*
X-13680Y14559D02*
X-13365D01*
X-13680Y14000D02*
X-13365D01*
X-14222Y14562D02*
X-13907D01*
X-14344Y14125D02*
Y14440D01*
X-14222Y14003D02*
X-13907D01*
X-18241Y-17419D02*
X-15592D01*
Y-15736D01*
X-18241Y-17419D02*
Y-12836D01*
X-15592D01*
Y-15736D02*
Y-12836D01*
X-9865Y-15736D02*
Y-12836D01*
X-12515D02*
X-9865D01*
X-12515Y-17419D02*
Y-12836D01*
X-9865Y-17419D02*
Y-15736D01*
X-12515Y-17419D02*
X-9865D01*
X-21105D02*
X-18455D01*
Y-15736D01*
X-21105Y-17419D02*
Y-12836D01*
X-18455D01*
Y-15736D02*
Y-12836D01*
X-12729Y-15736D02*
Y-12836D01*
X-15378D02*
X-12729D01*
X-15378Y-17419D02*
Y-12836D01*
X-12729Y-17419D02*
Y-15736D01*
X-15378Y-17419D02*
X-12729D01*
X12772D02*
X15421D01*
Y-15736D01*
X12772Y-17419D02*
Y-12836D01*
X15421D01*
Y-15736D02*
Y-12836D01*
X21155Y-15736D02*
Y-12836D01*
X18505D02*
X21155D01*
X18505Y-17419D02*
Y-12836D01*
X21155Y-17419D02*
Y-15736D01*
X18505Y-17419D02*
X21155D01*
X9905D02*
X12555D01*
Y-15736D01*
X9905Y-17419D02*
Y-12836D01*
X12555D01*
Y-15736D02*
Y-12836D01*
X18288Y-15736D02*
Y-12836D01*
X15639D02*
X18288D01*
X15639Y-17419D02*
Y-12836D01*
X18288Y-17419D02*
Y-15736D01*
X15639Y-17419D02*
X18288D01*
X-941Y-14945D02*
Y-14879D01*
X870Y-14879D01*
X-941Y-15981D02*
Y-15915D01*
Y-15981D02*
X870Y-15981D01*
X-386Y-15981D02*
Y-14879D01*
X870Y-14945D02*
Y-14879D01*
Y-15981D02*
Y-15915D01*
X2695Y-8930D02*
X2761D01*
X1659D02*
X1725D01*
X1659Y-10186D02*
X2761D01*
Y-10741D02*
X2761Y-8930D01*
X2695Y-10741D02*
X2761D01*
X1659Y-8930D02*
X1659Y-10741D01*
X1725D01*
X-12479Y-5071D02*
Y-5005D01*
X-14290Y-5071D02*
X-12479Y-5071D01*
Y-4035D02*
Y-3969D01*
X-14290Y-3969D02*
X-12479Y-3969D01*
X-13034Y-5071D02*
Y-3969D01*
X-14290Y-5071D02*
Y-5005D01*
Y-4035D02*
Y-3969D01*
X-13381Y-19495D02*
Y-19429D01*
Y-20531D02*
Y-20465D01*
X-12126Y-20531D02*
Y-19429D01*
X-13381Y-19429D02*
X-11570Y-19429D01*
Y-19495D02*
Y-19429D01*
X-13381Y-20531D02*
X-11570Y-20531D01*
Y-20465D01*
X-6371Y-18670D02*
X-6305D01*
X-6371Y-16859D02*
X-6371Y-18670D01*
X-5335D02*
X-5269D01*
X-5269Y-16859D01*
X-6371Y-18114D02*
X-5269D01*
X-6371Y-16859D02*
X-6305D01*
X-5335D02*
X-5269D01*
X-15630Y-10941D02*
Y-10875D01*
Y-9905D02*
Y-9839D01*
X-16886Y-10941D02*
Y-9839D01*
X-17441Y-10941D02*
X-15630Y-10941D01*
X-17441Y-10941D02*
Y-10875D01*
Y-9839D02*
X-15630Y-9839D01*
X-17441Y-9905D02*
Y-9839D01*
X-7971Y-18691D02*
X-7905D01*
X-7971Y-16880D02*
X-7971Y-18691D01*
X-6935D02*
X-6869D01*
X-6869Y-16880D01*
X-7971Y-18136D02*
X-6869D01*
X-7971Y-16880D02*
X-7905D01*
X-6935D02*
X-6869D01*
X17109Y-4005D02*
Y-3939D01*
Y-5041D02*
Y-4975D01*
X18364Y-5041D02*
Y-3939D01*
X17109Y-3939D02*
X18920Y-3939D01*
Y-4005D02*
Y-3939D01*
X17109Y-5041D02*
X18920Y-5041D01*
Y-4975D01*
X13450Y-20621D02*
Y-20555D01*
X11639Y-20621D02*
X13450Y-20621D01*
Y-19585D02*
Y-19519D01*
X11639Y-19519D02*
X13450Y-19519D01*
X12894Y-20621D02*
Y-19519D01*
X11639Y-20621D02*
Y-20555D01*
Y-19585D02*
Y-19519D01*
X15491Y-10981D02*
Y-10915D01*
Y-9945D02*
Y-9879D01*
X14236Y-10981D02*
Y-9879D01*
X13680Y-10981D02*
X15491Y-10981D01*
X13680Y-10981D02*
Y-10915D01*
Y-9879D02*
X15491Y-9879D01*
X13680Y-9945D02*
Y-9879D01*
X26683Y1642D02*
X26998D01*
X26561Y1205D02*
Y1520D01*
X27120Y1205D02*
Y1520D01*
X26558Y663D02*
Y978D01*
X26680Y541D02*
X26995D01*
X27117Y663D02*
Y978D01*
X20602Y2027D02*
X20917D01*
X21039Y1590D02*
Y1905D01*
X20602Y1468D02*
X20917D01*
X20060Y2030D02*
X20375D01*
X20060Y1471D02*
X20375D01*
X19938Y1593D02*
Y1908D01*
X20601Y6227D02*
X20916D01*
X21038Y5790D02*
Y6105D01*
X20601Y5668D02*
X20916D01*
X20059Y6230D02*
X20374D01*
X20059Y5671D02*
X20374D01*
X19937Y5793D02*
Y6108D01*
X16302Y6147D02*
X16617D01*
X16739Y6269D02*
Y6584D01*
X16180Y6269D02*
Y6584D01*
X16742Y6811D02*
Y7126D01*
X16305Y7248D02*
X16620D01*
X16183Y6811D02*
Y7126D01*
X14643Y2921D02*
Y3236D01*
X14765Y3358D02*
X15080Y3358D01*
X15202Y2921D02*
Y3236D01*
X14640Y2694D02*
X14640Y2379D01*
X15199D02*
Y2694D01*
X14762Y2257D02*
X15077Y2257D01*
X22230Y2850D02*
Y4150D01*
X21030Y2850D02*
Y4150D01*
X2936Y10585D02*
X3855Y9666D01*
X3785Y11434D02*
X4704Y10515D01*
X24976Y480D02*
X25684D01*
X24976Y932D02*
Y1247D01*
Y1700D02*
X25684D01*
X14078Y4465D02*
Y4780D01*
X13641Y4902D02*
X13956D01*
X13641Y4343D02*
X13956D01*
X13099Y4904D02*
X13414D01*
X12977Y4467D02*
Y4782D01*
X13099Y4345D02*
X13414D01*
X17783Y6811D02*
Y7126D01*
X17905Y7248D02*
X18220D01*
X18342Y6811D02*
Y7126D01*
X17780Y6269D02*
Y6584D01*
X18339Y6269D02*
Y6584D01*
X17902Y6147D02*
X18217D01*
X14078Y5242D02*
Y5557D01*
X13641Y5679D02*
X13956D01*
X13641Y5120D02*
X13956D01*
X13099Y5682D02*
X13414D01*
X12977Y5245D02*
Y5560D01*
X13099Y5123D02*
X13414D01*
X23363Y15432D02*
Y15747D01*
X23485Y15869D02*
X23800D01*
X23922Y15432D02*
Y15747D01*
X23360Y14890D02*
Y15205D01*
X23919Y14890D02*
Y15205D01*
X23482Y14768D02*
X23797D01*
X16983Y6811D02*
Y7126D01*
X17105Y7248D02*
X17420D01*
X17542Y6811D02*
Y7126D01*
X16980Y6269D02*
Y6584D01*
X17539Y6269D02*
Y6584D01*
X17102Y6147D02*
X17417D01*
X20807Y3143D02*
Y3458D01*
X20370Y3021D02*
X20685D01*
X20248Y3143D02*
Y3458D01*
X20810Y3685D02*
Y4000D01*
X20251Y3685D02*
Y4000D01*
X20373Y4122D02*
X20688D01*
X2151Y12993D02*
X2374Y12771D01*
X1756Y12771D02*
X1978Y12993D01*
X2151Y12376D02*
X2374Y12598D01*
X1371Y12389D02*
X1594Y12612D01*
X1371Y12217D02*
X1594Y11994D01*
X1766D02*
X1989Y12217D01*
X-3487Y10429D02*
X-3264Y10206D01*
X-3487Y9811D02*
X-3264Y10034D01*
X-3882Y10034D02*
X-3659Y9811D01*
X-3868Y10814D02*
X-3646Y10591D01*
X-4263Y10418D02*
X-4041Y10196D01*
X-4263Y10591D02*
X-4041Y10814D01*
X14762Y4107D02*
X15077D01*
X15199Y4229D02*
Y4544D01*
X14640Y4229D02*
Y4544D01*
X15202Y4771D02*
Y5086D01*
X14765Y5208D02*
X15080D01*
X14643Y4771D02*
Y5086D01*
X-29077Y6823D02*
X-28762D01*
X-28640Y6386D02*
Y6701D01*
X-29077Y6264D02*
X-28762D01*
X-29618Y6826D02*
X-29303D01*
X-29618Y6267D02*
X-29303D01*
X-29740Y6389D02*
Y6704D01*
X-29618Y5333D02*
X-29303D01*
X-29740Y5455D02*
Y5770D01*
X-29618Y5892D02*
X-29303D01*
X-29077Y5330D02*
X-28762D01*
X-29077Y5889D02*
X-28762D01*
X-28640Y5452D02*
Y5767D01*
X11767Y19978D02*
Y20293D01*
X11889Y19856D02*
X12204D01*
X11889Y20415D02*
X12204D01*
X12431Y19854D02*
X12746D01*
X12868Y19976D02*
Y20291D01*
X12431Y20413D02*
X12746D01*
X11767Y18340D02*
Y18655D01*
X11889Y18218D02*
X12204D01*
X11889Y18777D02*
X12204D01*
X12431Y18216D02*
X12746D01*
X12868Y18338D02*
Y18653D01*
X12431Y18775D02*
X12746D01*
X12431Y17137D02*
X12746D01*
X12868Y16700D02*
Y17015D01*
X12431Y16578D02*
X12746D01*
X11889Y17140D02*
X12204D01*
X11889Y16581D02*
X12204D01*
X11767Y16703D02*
Y17018D01*
Y23327D02*
Y23642D01*
X11889Y23205D02*
X12204D01*
X11889Y23764D02*
X12204D01*
X12431Y23203D02*
X12746D01*
X12868Y23325D02*
Y23640D01*
X12431Y23762D02*
X12746D01*
X2514Y9854D02*
X2736Y9631D01*
X2514Y10027D02*
X2736Y10249D01*
X2909D02*
X3132Y10027D01*
X2895Y9469D02*
X3118Y9247D01*
X3290Y9865D02*
X3513Y9642D01*
X3290Y9247D02*
X3513Y9469D01*
X22273Y6213D02*
X22588D01*
X22151Y5776D02*
Y6091D01*
X22710Y5776D02*
Y6091D01*
X22148Y5234D02*
Y5549D01*
X22270Y5112D02*
X22585D01*
X22707Y5234D02*
Y5549D01*
X11767Y21653D02*
Y21968D01*
X11889Y21531D02*
X12204D01*
X11889Y22090D02*
X12204D01*
X12431Y21529D02*
X12746D01*
X12868Y21650D02*
Y21965D01*
X12431Y22087D02*
X12746D01*
X11889Y17400D02*
X12204D01*
X11767Y17522D02*
Y17836D01*
X11889Y17958D02*
X12204D01*
X12431Y17397D02*
X12746D01*
X12431Y17956D02*
X12746D01*
X12868Y17519D02*
Y17834D01*
X11767Y22490D02*
Y22805D01*
X11889Y22368D02*
X12204D01*
X11889Y22927D02*
X12204D01*
X12431Y22366D02*
X12746D01*
X12868Y22488D02*
Y22803D01*
X12431Y22925D02*
X12746D01*
X12868Y19157D02*
Y19472D01*
X12431Y19594D02*
X12746D01*
X12431Y19035D02*
X12746D01*
X11889Y19596D02*
X12204D01*
X11767Y19159D02*
Y19474D01*
X11889Y19037D02*
X12204D01*
X12868Y15881D02*
Y16196D01*
X12431Y16318D02*
X12746D01*
X12431Y15759D02*
X12746D01*
X11889Y16321D02*
X12204D01*
X11767Y15884D02*
Y16199D01*
X11889Y15762D02*
X12204D01*
X12868Y15062D02*
Y15377D01*
X12431Y15499D02*
X12746D01*
X12431Y14940D02*
X12746D01*
X11889Y15502D02*
X12204D01*
X11767Y15065D02*
Y15380D01*
X11889Y14943D02*
X12204D01*
X21452Y947D02*
X21767D01*
X21889Y510D02*
Y825D01*
X21452Y388D02*
X21767D01*
X20910Y950D02*
X21225D01*
X20910Y391D02*
X21225D01*
X20788Y513D02*
Y828D01*
X12977Y2913D02*
Y3228D01*
X13099Y2791D02*
X13414D01*
X13099Y3350D02*
X13414D01*
X13641Y2788D02*
X13956D01*
X14078Y2910D02*
Y3225D01*
X13641Y3347D02*
X13956D01*
X15757Y18913D02*
Y19228D01*
X15320Y18791D02*
X15635D01*
X15198Y18913D02*
Y19228D01*
X15760Y19455D02*
Y19770D01*
X15201Y19455D02*
Y19770D01*
X15323Y19892D02*
X15638D01*
X17862Y88D02*
X18177D01*
X18299Y210D02*
Y525D01*
X17740Y525D02*
X17740Y210D01*
X18302Y752D02*
Y1067D01*
X17865Y1189D02*
X18180Y1189D01*
X17743Y752D02*
X17743Y1067D01*
X6283Y6301D02*
Y6616D01*
X6405Y6738D02*
X6720Y6738D01*
X6842Y6301D02*
Y6616D01*
X6280Y5759D02*
Y6074D01*
X6839Y5759D02*
Y6074D01*
X6402Y5637D02*
X6717Y5637D01*
X9764Y11793D02*
X10079D01*
X9642Y11915D02*
Y12230D01*
X9764Y12352D02*
X10079D01*
X10306Y11790D02*
X10621D01*
X10306Y12349D02*
X10621D01*
X10743Y12227D02*
X10743Y11912D01*
X25358Y5333D02*
Y5648D01*
X25480Y5211D02*
X25795D01*
X25480Y5770D02*
X25795D01*
X26022Y5208D02*
X26337D01*
X26459Y5330D02*
Y5645D01*
X26022Y5767D02*
X26337D01*
X25357Y4513D02*
Y4828D01*
X25479Y4391D02*
X25794D01*
X25479Y4950D02*
X25794D01*
X26021Y4388D02*
X26336D01*
X26458Y4510D02*
Y4825D01*
X26021Y4947D02*
X26336D01*
X-924Y16035D02*
X-609Y16035D01*
X-1046Y15598D02*
X-1046Y15913D01*
X-487Y15598D02*
Y15913D01*
X-1048Y15057D02*
X-1048Y15372D01*
X-926Y14935D02*
X-611Y14935D01*
X-489Y15057D02*
X-489Y15372D01*
X26343Y3222D02*
X26658D01*
X26221Y2785D02*
Y3100D01*
X26780Y2785D02*
Y3100D01*
X26218Y2243D02*
Y2558D01*
X26340Y2121D02*
X26655D01*
X26777Y2243D02*
Y2558D01*
X5887Y5734D02*
Y6049D01*
X5450Y5612D02*
X5765Y5612D01*
X5328Y5734D02*
Y6049D01*
X5890Y6276D02*
Y6591D01*
X5331Y6276D02*
Y6591D01*
X5453Y6713D02*
X5768Y6713D01*
X-160Y16049D02*
X155D01*
X-282Y15612D02*
X-282Y15927D01*
X277Y15927D02*
X277Y15612D01*
X-284Y15071D02*
Y15386D01*
X-162Y14949D02*
X153D01*
X275Y15071D02*
Y15386D01*
X26622Y3722D02*
Y4037D01*
X26185Y4159D02*
X26500D01*
X26185Y3600D02*
X26500D01*
X25643Y4162D02*
X25958D01*
X25521Y3725D02*
Y4040D01*
X25643Y3603D02*
X25958D01*
X-3265Y32674D02*
Y32989D01*
X-3702Y32552D02*
X-3387D01*
X-3824Y32674D02*
Y32989D01*
X-3263Y33215D02*
Y33530D01*
X-3822Y33215D02*
Y33530D01*
X-3700Y33652D02*
X-3385D01*
X646Y16078D02*
X961Y16078D01*
X524Y15641D02*
Y15956D01*
X1083Y15641D02*
Y15956D01*
X522Y15099D02*
Y15414D01*
X644Y14977D02*
X959D01*
X1081Y15099D02*
Y15414D01*
X24122Y2097D02*
X24437D01*
X24559Y2219D02*
Y2534D01*
X24000Y2219D02*
Y2534D01*
X24562Y2761D02*
Y3076D01*
X24125Y3198D02*
X24440D01*
X24003Y2761D02*
Y3076D01*
X24168Y3733D02*
Y4048D01*
X24290Y3611D02*
X24605D01*
X24290Y4170D02*
X24605D01*
X24832Y3608D02*
X25147D01*
X25269Y3730D02*
Y4045D01*
X24832Y4167D02*
X25147D01*
X14263Y26611D02*
Y26926D01*
X14385Y27048D02*
X14700Y27048D01*
X14822Y26611D02*
Y26926D01*
X14260Y26069D02*
Y26384D01*
X14819Y26069D02*
Y26384D01*
X14382Y25947D02*
X14697Y25947D01*
X10191Y26357D02*
X10506D01*
X10628Y25920D02*
X10628Y26235D01*
X10191Y25798D02*
X10506D01*
X9649Y26360D02*
X9964Y26360D01*
X9649Y25801D02*
X9964D01*
X9527Y26238D02*
X9527Y25923D01*
X8928Y24068D02*
X8928Y23753D01*
X9050Y23631D02*
X9365D01*
X9050Y24190D02*
X9365Y24190D01*
X9592Y23628D02*
X9907D01*
X10029Y23750D02*
Y24065D01*
X9592Y24187D02*
X9907D01*
X9218Y24838D02*
Y25153D01*
X9340Y24716D02*
X9655D01*
X9340Y25275D02*
X9655Y25275D01*
X9882Y24713D02*
X10197D01*
X10319Y25150D02*
X10319Y24835D01*
X9882Y25272D02*
X10197Y25272D01*
X15492Y-4848D02*
Y-4533D01*
X15055Y-4411D02*
X15370D01*
X15055Y-4970D02*
X15370D01*
X14513Y-4408D02*
X14828D01*
X14391Y-4845D02*
Y-4530D01*
X14513Y-4967D02*
X14828D01*
X12439Y-12400D02*
Y-12085D01*
X12002Y-11963D02*
X12317D01*
X12002Y-12522D02*
X12317D01*
X11461Y-11960D02*
X11776D01*
X11339Y-12397D02*
Y-12082D01*
X11461Y-12519D02*
X11776D01*
X17072Y-12397D02*
Y-12082D01*
X17194Y-12519D02*
X17509D01*
X17194Y-11960D02*
X17509D01*
X17736Y-12522D02*
X18051D01*
X18173Y-12400D02*
Y-12085D01*
X17736Y-11963D02*
X18051D01*
X-6178Y27297D02*
X-5863D01*
X-5741Y26860D02*
Y27175D01*
X-6178Y26738D02*
X-5863D01*
X-6720Y27300D02*
X-6405D01*
X-6720Y26741D02*
X-6405D01*
X-6842Y26863D02*
Y27178D01*
X5923Y25399D02*
X6238D01*
X5801Y25521D02*
Y25836D01*
X5923Y25958D02*
X6238D01*
X6465Y25397D02*
X6780D01*
X6465Y25956D02*
X6780D01*
X6902Y25519D02*
Y25834D01*
X5923Y24516D02*
X6238D01*
X5801Y24638D02*
Y24953D01*
X5923Y25075D02*
X6238D01*
X6465Y24514D02*
X6780D01*
X6465Y25073D02*
X6780D01*
X6902Y24636D02*
Y24951D01*
X15306Y-12400D02*
Y-12085D01*
X14869Y-11963D02*
X15184D01*
X14869Y-12522D02*
X15184D01*
X14327Y-11960D02*
X14642D01*
X14205Y-12397D02*
Y-12082D01*
X14327Y-12519D02*
X14642D01*
X19839Y-12397D02*
Y-12082D01*
X19961Y-12519D02*
X20276D01*
X19961Y-11960D02*
X20276D01*
X20502Y-12522D02*
X20817D01*
X20939Y-12400D02*
Y-12085D01*
X20502Y-11963D02*
X20817D01*
X2673Y-14178D02*
X2673Y-13863D01*
X2795Y-13741D02*
X3110D01*
X3232Y-14178D02*
X3232Y-13863D01*
X2670Y-14720D02*
X2670Y-14405D01*
X3229Y-14720D02*
X3229Y-14405D01*
X2792Y-14842D02*
X3107Y-14842D01*
X-15857Y-4848D02*
Y-4533D01*
X-16294Y-4411D02*
X-15979D01*
X-16294Y-4970D02*
X-15979D01*
X-16836Y-4408D02*
X-16521D01*
X-16958Y-4845D02*
Y-4530D01*
X-16836Y-4967D02*
X-16521D01*
X4592Y-12338D02*
X4592Y-12023D01*
X4155Y-11901D02*
X4470D01*
X4155Y-12460D02*
X4470Y-12460D01*
X3613Y-11898D02*
X3928D01*
X3491Y-12020D02*
X3491Y-12335D01*
X3613Y-12457D02*
X3928Y-12457D01*
X-19549Y-12519D02*
X-19234D01*
X-19671Y-12397D02*
Y-12082D01*
X-19549Y-11960D02*
X-19234D01*
X-19008Y-12522D02*
X-18693D01*
X-19008Y-11963D02*
X-18693D01*
X-18571Y-12400D02*
Y-12085D01*
X-13281Y-11963D02*
X-12966D01*
X-12844Y-12400D02*
Y-12085D01*
X-13281Y-12522D02*
X-12966D01*
X-13823Y-11960D02*
X-13508D01*
X-13823Y-12519D02*
X-13508D01*
X-13945Y-12397D02*
Y-12082D01*
X-8888Y-17743D02*
X-8573D01*
X-8451Y-17621D02*
Y-17306D01*
X-9010Y-17621D02*
Y-17306D01*
X-8448Y-17079D02*
Y-16764D01*
X-8885Y-16642D02*
X-8570D01*
X-9007Y-17079D02*
Y-16764D01*
X-3607Y-17358D02*
Y-17043D01*
X-4044Y-16921D02*
X-3729D01*
X-4044Y-17480D02*
X-3729D01*
X-4586Y-16918D02*
X-4271D01*
X-4708Y-17355D02*
Y-17040D01*
X-4586Y-17477D02*
X-4271D01*
X-16686Y-12519D02*
X-16371D01*
X-16808Y-12397D02*
Y-12082D01*
X-16686Y-11960D02*
X-16371D01*
X-16144Y-12522D02*
X-15829D01*
X-16144Y-11963D02*
X-15829D01*
X-15707Y-12400D02*
Y-12085D01*
X-10418Y-11963D02*
X-10103D01*
X-9981Y-12400D02*
Y-12085D01*
X-10418Y-12522D02*
X-10103D01*
X-10959Y-11960D02*
X-10644D01*
X-10959Y-12519D02*
X-10644D01*
X-11081Y-12397D02*
Y-12082D01*
X-8877Y-18008D02*
X-8562D01*
X-8999Y-18445D02*
Y-18130D01*
X-8440Y-18445D02*
Y-18130D01*
X-9002Y-18987D02*
Y-18672D01*
X-8880Y-19109D02*
X-8565D01*
X-8443Y-18987D02*
Y-18672D01*
X-23758Y14003D02*
X-23443D01*
X-23880Y14125D02*
Y14440D01*
X-23758Y14562D02*
X-23443D01*
X-23217Y14000D02*
X-22902D01*
X-23217Y14559D02*
X-22902D01*
X-22780Y14122D02*
Y14437D01*
X-23758Y13203D02*
X-23443D01*
X-23880Y13325D02*
Y13640D01*
X-23758Y13762D02*
X-23443D01*
X-23217Y13200D02*
X-22902D01*
X-23217Y13759D02*
X-22902D01*
X-22780Y13322D02*
Y13637D01*
X-19000Y14003D02*
X-18685D01*
X-19122Y14125D02*
Y14440D01*
X-19000Y14562D02*
X-18685D01*
X-18458Y14000D02*
X-18143D01*
X-18458Y14559D02*
X-18143D01*
X-18022Y14122D02*
Y14437D01*
X-19000Y13203D02*
X-18685D01*
X-19122Y13325D02*
Y13640D01*
X-19000Y13762D02*
X-18685D01*
X-18458Y13200D02*
X-18143D01*
X-18458Y13759D02*
X-18143D01*
X-18022Y13322D02*
Y13637D01*
X-2197Y-7428D02*
X-1882D01*
X-2319Y-7865D02*
Y-7550D01*
X-1760Y-7865D02*
Y-7550D01*
X-2322Y-8407D02*
Y-8092D01*
X-2200Y-8529D02*
X-1885D01*
X-1763Y-8407D02*
Y-8092D01*
X-8598Y13322D02*
X-8598Y13637D01*
X-9035Y13759D02*
X-8720D01*
X-9035Y13200D02*
X-8720Y13200D01*
X-9577Y13762D02*
X-9262D01*
X-9699Y13325D02*
X-9699Y13640D01*
X-9577Y13203D02*
X-9262D01*
X-8577Y14112D02*
X-8577Y14427D01*
X-9014Y14549D02*
X-8699Y14549D01*
X-9014Y13990D02*
X-8699Y13990D01*
X-9556Y14552D02*
X-9241Y14552D01*
X-9678Y14430D02*
X-9678Y14115D01*
X-9556Y13993D02*
X-9241Y13993D01*
X-12107Y851D02*
Y1166D01*
X-11985Y1288D02*
X-11670D01*
X-11548Y851D02*
Y1166D01*
X-12110Y309D02*
Y624D01*
X-11551Y309D02*
Y624D01*
X-11988Y187D02*
X-11673D01*
X-12087Y2576D02*
X-12087Y2261D01*
X-11965Y2698D02*
X-11650D01*
X-11528Y2576D02*
X-11528Y2261D01*
X-12090Y1719D02*
X-12090Y2034D01*
X-11531Y1719D02*
Y2034D01*
X-11968Y1597D02*
X-11653Y1597D01*
X-1763Y-7077D02*
Y-6762D01*
X-2200Y-7199D02*
X-1885D01*
X-2322Y-7077D02*
Y-6762D01*
X-1760Y-6535D02*
Y-6220D01*
X-2319Y-6535D02*
Y-6220D01*
X-2197Y-6098D02*
X-1882D01*
X6373Y801D02*
Y1116D01*
X6495Y1238D02*
X6810D01*
X6932Y801D02*
Y1116D01*
X6370Y259D02*
Y574D01*
X6929Y259D02*
Y574D01*
X6492Y137D02*
X6807D01*
X6373Y2142D02*
Y2457D01*
X6495Y2579D02*
X6810D01*
X6932Y2142D02*
Y2457D01*
X6370Y1600D02*
Y1915D01*
X6929Y1600D02*
Y1915D01*
X6492Y1478D02*
X6807D01*
X-7517Y892D02*
X-7517Y1207D01*
X-7395Y1329D02*
X-7080Y1329D01*
X-6958Y892D02*
Y1207D01*
X-7520Y350D02*
X-7520Y665D01*
X-6961Y350D02*
Y665D01*
X-7398Y228D02*
X-7083D01*
X-7517Y2312D02*
Y2627D01*
X-7395Y2749D02*
X-7080D01*
X-6958Y2312D02*
Y2627D01*
X-7520Y1770D02*
X-7520Y2085D01*
X-6961Y1770D02*
Y2085D01*
X-7398Y1648D02*
X-7083D01*
X11033Y751D02*
Y1066D01*
X11155Y1188D02*
X11470D01*
X11592Y751D02*
Y1066D01*
X11030Y209D02*
Y524D01*
X11589Y209D02*
Y524D01*
X11152Y87D02*
X11467D01*
X11023Y2152D02*
Y2467D01*
X11145Y2589D02*
X11460D01*
X11582Y2152D02*
Y2467D01*
X11020Y1610D02*
Y1925D01*
X11579Y1610D02*
Y1925D01*
X11142Y1488D02*
X11457D01*
X5013Y-15050D02*
X5194D01*
X4997Y-15050D02*
X5013Y-15050D01*
X4997Y-15345D02*
X4997Y-15050D01*
X4997Y-15345D02*
X5265Y-15345D01*
Y-15338D01*
X5013Y-13271D02*
X5194Y-13271D01*
X4997D02*
X5013Y-13271D01*
X4997Y-13271D02*
X4997Y-13566D01*
X5265Y-13566D01*
X5265Y-13559D01*
X5265Y-13011D02*
X7548Y-13011D01*
X5265Y-15609D02*
Y-13011D01*
Y-15609D02*
X7548Y-15609D01*
X-30720Y1560D02*
Y4000D01*
X-28280D01*
Y1560D02*
Y4000D01*
X-30720Y1560D02*
X-28280D01*
X-24570D02*
X-22130D01*
Y4000D01*
X-24570D02*
X-22130D01*
X-24570Y1560D02*
Y4000D01*
X15370Y28840D02*
X17810D01*
Y26400D02*
Y28840D01*
X15370Y26400D02*
X17810D01*
X15370D02*
Y28840D01*
X17160Y-24090D02*
X19600D01*
Y-21650D01*
X17160D02*
X19600D01*
X17160Y-24090D02*
Y-21650D01*
X22314Y16788D02*
X23075D01*
X23285D02*
X24046D01*
X22359Y20332D02*
X23075D01*
X23285D02*
X23999D01*
X22314Y19875D02*
Y20332D01*
Y18009D02*
Y19111D01*
Y16788D02*
Y17245D01*
X24046Y19875D02*
Y20332D01*
Y18009D02*
Y19111D01*
Y16788D02*
Y17245D01*
X29326Y1205D02*
Y1662D01*
Y2425D02*
Y3528D01*
Y4291D02*
Y4748D01*
X27594Y1205D02*
Y1662D01*
Y2425D02*
Y3528D01*
Y4291D02*
Y4748D01*
X28565D02*
X29279D01*
X27639D02*
X28355D01*
X28565Y1205D02*
X29326D01*
X27594D02*
X28355D01*
X15287Y-24253D02*
Y-23053D01*
X14812D02*
X15287D01*
X14812Y-24253D02*
Y-23053D01*
X9117Y-24253D02*
X16007D01*
Y-21453D01*
X15462D02*
X16007D01*
X9117Y-24253D02*
Y-21453D01*
X9662D01*
X10307Y-24253D02*
Y-23053D01*
X9862D02*
X10307D01*
X9862Y-24253D02*
Y-23053D01*
X-15232Y-24253D02*
Y-23053D01*
X-14787D01*
Y-24253D02*
Y-23053D01*
X-15977Y-21453D02*
X-15432D01*
X-15977Y-24253D02*
Y-21453D01*
X-9632D02*
X-9087D01*
Y-24253D02*
Y-21453D01*
X-15977Y-24253D02*
X-9087D01*
X-10282D02*
Y-23053D01*
X-9807D01*
Y-24253D02*
Y-23053D01*
X-8564Y-24253D02*
X-7819D01*
X-8564D02*
Y-21453D01*
X-3594Y-24248D02*
Y-24063D01*
X-3600Y-24253D02*
X-3594Y-24248D01*
X-7819Y-24253D02*
X-3600D01*
X-4314D02*
Y-23053D01*
X-4789D02*
X-4314D01*
X-4789Y-24253D02*
Y-23053D01*
X-3594Y-24063D02*
Y-21453D01*
X-4139D02*
X-3594D01*
X-8564D02*
X-8019D01*
X-7374Y-24253D02*
Y-23053D01*
X-7819D02*
X-7374D01*
X-7819Y-24253D02*
Y-23053D01*
X3576Y-24253D02*
X4321D01*
X3576D02*
Y-21453D01*
X8546Y-24248D02*
Y-24063D01*
X8540Y-24253D02*
X8546Y-24248D01*
X4321Y-24253D02*
X8540D01*
X7826D02*
Y-23053D01*
X7351D02*
X7826D01*
X7351Y-24253D02*
Y-23053D01*
X8546Y-24063D02*
Y-21453D01*
X8001D02*
X8546D01*
X3576D02*
X4121D01*
X4766Y-24253D02*
Y-23053D01*
X4321D02*
X4766D01*
X4321Y-24253D02*
Y-23053D01*
X-3041Y-24253D02*
Y-17875D01*
X3061Y-24253D02*
Y-17875D01*
X-3041Y-24253D02*
X3061D01*
X-2377Y-16314D02*
X-1739Y-16317D01*
X-1068Y-16321D02*
X1064Y-16332D01*
X1799Y-16336D02*
X2370Y-16339D01*
X22653Y3392D02*
X22968D01*
X22531Y2955D02*
Y3270D01*
X23090Y2955D02*
Y3270D01*
X22528Y2413D02*
Y2728D01*
X22650Y2291D02*
X22965D01*
X23087Y2413D02*
X23087Y2728D01*
X5791Y8753D02*
X6014Y8976D01*
X6186D02*
X6409Y8753D01*
X6186Y8358D02*
X6409Y8581D01*
X5406Y8372D02*
X5629Y8594D01*
X5802Y7977D02*
X6024Y8199D01*
X5406Y8199D02*
X5629Y7977D01*
X5171Y9373D02*
X5394Y9596D01*
X5566Y9596D02*
X5789Y9373D01*
X5566Y8978D02*
X5789Y9201D01*
X4786Y8992D02*
X5009Y9215D01*
X5182Y8597D02*
X5404Y8819D01*
X4786Y8819D02*
X5009Y8597D01*
X1211Y13303D02*
X1434Y13526D01*
X1606D02*
X1829Y13303D01*
X1606Y12908D02*
X1829Y13131D01*
X826Y12922D02*
X1049Y13144D01*
X1222Y12527D02*
X1444Y12749D01*
X826Y12749D02*
X1049Y12527D01*
X651Y13863D02*
X874Y14086D01*
X1046Y14086D02*
X1269Y13863D01*
X1046Y13468D02*
X1269Y13691D01*
X266Y13482D02*
X489Y13704D01*
X662Y13087D02*
X884Y13309D01*
X266Y13309D02*
X489Y13087D01*
X-1849Y12303D02*
X-1626Y12526D01*
X-1453D02*
X-1231Y12304D01*
X-1453Y11908D02*
X-1231Y12131D01*
X-2233Y11922D02*
X-2011Y12145D01*
X-1838Y11527D02*
X-1615Y11750D01*
X-2233Y11750D02*
X-2010Y11527D01*
X-5726Y8864D02*
X-5503Y8641D01*
X-5726Y9037D02*
X-5504Y9259D01*
X-5331D02*
X-5108Y9037D01*
X-5345Y8479D02*
X-5122Y8257D01*
X-4950Y8875D02*
X-4727Y8652D01*
X-4950Y8257D02*
X-4727Y8479D01*
X-1686Y2204D02*
X-1463Y1981D01*
X-1686Y2376D02*
X-1463Y2599D01*
X-1291D02*
X-1068Y2376D01*
X-1304Y1819D02*
X-1082Y1596D01*
X-909Y2214D02*
X-687Y1992D01*
X-909Y1596D02*
X-687Y1819D01*
X2322Y12239D02*
X2544Y12462D01*
X2717Y12462D02*
X2940Y12239D01*
X2717Y11844D02*
X2940Y12067D01*
X1937Y11858D02*
X2160Y12080D01*
X2332Y11463D02*
X2555Y11685D01*
X1937Y11685D02*
X2160Y11463D01*
X22632Y3608D02*
X22947D01*
X23069Y3730D02*
Y4045D01*
X22510Y3730D02*
Y4045D01*
X23072Y4272D02*
Y4587D01*
X22635Y4709D02*
X22950Y4709D01*
X22513Y4272D02*
Y4587D01*
X-29077Y7757D02*
X-28762D01*
X-28640Y7320D02*
Y7635D01*
X-29077Y7198D02*
X-28762D01*
X-29618Y7760D02*
X-29303D01*
X-29618Y7201D02*
X-29303D01*
X-29740Y7323D02*
Y7638D01*
X21413Y6182D02*
X21728D01*
X21291Y5745D02*
Y6060D01*
X21850Y5745D02*
Y6060D01*
X21288Y5203D02*
Y5518D01*
X21410Y5081D02*
X21725D01*
X21847Y5203D02*
Y5518D01*
X3674Y11974D02*
X3897Y11751D01*
X3674Y12146D02*
X3897Y12369D01*
X4069D02*
X4292Y12146D01*
X4056Y11589D02*
X4278Y11366D01*
X4451Y11984D02*
X4673Y11762D01*
X4451Y11366D02*
X4673Y11589D01*
X16597Y18913D02*
Y19228D01*
X16160Y18791D02*
X16475D01*
X16038Y18913D02*
Y19228D01*
X16600Y19770D02*
X16600Y19455D01*
X16041Y19455D02*
Y19770D01*
X16163Y19892D02*
X16478D01*
X5403Y11019D02*
X5626Y10796D01*
X5404Y10401D02*
X5626Y10623D01*
X5008D02*
X5231Y10401D01*
X5022Y11403D02*
X5245Y11181D01*
X4627Y11008D02*
X4850Y10785D01*
X4627Y11180D02*
X4850Y11403D01*
X19804Y22933D02*
X20119D01*
X19682Y23055D02*
Y23370D01*
X19804Y23492D02*
X20119D01*
X20346Y22930D02*
X20661D01*
X20346Y23489D02*
X20661D01*
X20783Y23052D02*
Y23367D01*
X17322Y23477D02*
X17637D01*
X17759Y23040D02*
Y23355D01*
X17322Y22918D02*
X17637D01*
X16780Y23480D02*
X17095D01*
X16780Y22921D02*
X17095D01*
X16658Y23043D02*
Y23358D01*
X20601Y16757D02*
X20916D01*
X21038Y16320D02*
Y16635D01*
X20601Y16198D02*
X20916D01*
X20059Y16760D02*
X20374D01*
X20059Y16201D02*
X20374D01*
X19937Y16323D02*
Y16638D01*
X23912Y497D02*
X24227D01*
X24349Y619D02*
Y934D01*
X23790Y619D02*
Y934D01*
X24352Y1161D02*
Y1476D01*
X23915Y1598D02*
X24230D01*
X23793Y1161D02*
Y1476D01*
X23042Y518D02*
X23357D01*
X23479Y640D02*
Y955D01*
X22920Y640D02*
Y955D01*
X23482Y1182D02*
Y1497D01*
X23045Y1619D02*
X23360D01*
X22923Y1182D02*
Y1497D01*
X-1774Y33652D02*
X-1459D01*
X-1896Y33215D02*
Y33530D01*
X-1337Y33215D02*
Y33530D01*
X-1898Y32674D02*
Y32989D01*
X-1776Y32552D02*
X-1461D01*
X-1339Y32674D02*
Y32989D01*
X-6872Y29143D02*
Y29458D01*
X-6750Y29021D02*
X-6435D01*
X-6750Y29580D02*
X-6435D01*
X-6208Y29018D02*
X-5893D01*
X-5771Y29140D02*
Y29455D01*
X-6208Y29577D02*
X-5893D01*
X-4828Y20907D02*
X-4513D01*
X-4391Y21029D02*
Y21344D01*
X-4950Y21029D02*
Y21344D01*
X-4388Y21571D02*
Y21886D01*
X-4825Y22008D02*
X-4510D01*
X-4947Y21571D02*
Y21886D01*
X1514Y33652D02*
X1829D01*
X1392Y33215D02*
Y33530D01*
X1951Y33215D02*
Y33530D01*
X1390Y32674D02*
Y32989D01*
X1512Y32552D02*
X1827D01*
X1949Y32674D02*
Y32989D01*
X-2583Y19888D02*
X-2268D01*
X-2146Y20010D02*
Y20325D01*
X-2705Y20010D02*
Y20325D01*
X-2143Y20552D02*
Y20867D01*
X-2580Y20989D02*
X-2265D01*
X-2702Y20552D02*
Y20867D01*
X1237Y19888D02*
X1552D01*
X1674Y20010D02*
Y20325D01*
X1115Y20010D02*
Y20325D01*
X1677Y20552D02*
Y20867D01*
X1240Y20989D02*
X1555D01*
X1118Y20552D02*
Y20867D01*
X3400Y33652D02*
X3715D01*
X3278Y33215D02*
Y33530D01*
X3837Y33215D02*
Y33530D01*
X3276Y32674D02*
Y32989D01*
X3398Y32552D02*
X3713D01*
X3834Y32674D02*
Y32989D01*
X6902Y29002D02*
Y29317D01*
X6465Y29439D02*
X6780D01*
X6465Y28880D02*
X6780D01*
X5923Y29442D02*
X6238D01*
X5801Y29005D02*
Y29320D01*
X5923Y28883D02*
X6238D01*
X5923Y23633D02*
X6238D01*
X5801Y23755D02*
Y24070D01*
X5923Y24192D02*
X6238D01*
X6465Y23630D02*
X6780D01*
X6465Y24189D02*
X6780D01*
X6902Y23752D02*
Y24067D01*
X-6218Y23997D02*
X-5903D01*
X-5781Y23560D02*
Y23875D01*
X-6218Y23438D02*
X-5903D01*
X-6760Y24000D02*
X-6445D01*
X-6760Y23441D02*
X-6445D01*
X-6882Y23563D02*
Y23878D01*
X-6208Y26007D02*
X-5893D01*
X-5771Y25570D02*
Y25885D01*
X-6208Y25448D02*
X-5893D01*
X-6750Y26010D02*
X-6435D01*
X-6750Y25451D02*
X-6435D01*
X-6872Y25573D02*
Y25888D01*
X5923Y30933D02*
X6238D01*
X5801Y31055D02*
Y31370D01*
X5923Y31492D02*
X6238D01*
X6465Y30930D02*
X6780D01*
X6465Y31489D02*
X6780D01*
X6902Y31052D02*
Y31367D01*
X2073Y20552D02*
Y20867D01*
X2195Y20989D02*
X2510D01*
X2632Y20552D02*
Y20867D01*
X2070Y20010D02*
Y20325D01*
X2629Y20010D02*
Y20325D01*
X2192Y19888D02*
X2507D01*
X163Y20552D02*
Y20867D01*
X285Y20989D02*
X600D01*
X722Y20552D02*
Y20867D01*
X160Y20010D02*
Y20325D01*
X719Y20010D02*
Y20325D01*
X282Y19888D02*
X597D01*
X-792Y20552D02*
Y20867D01*
X-670Y20989D02*
X-355D01*
X-233Y20552D02*
Y20867D01*
X-795Y20010D02*
Y20325D01*
X-236Y20010D02*
Y20325D01*
X-673Y19888D02*
X-358D01*
X-6208Y28707D02*
X-5893D01*
X-5771Y28270D02*
Y28585D01*
X-6208Y28148D02*
X-5893D01*
X-6750Y28710D02*
X-6435D01*
X-6750Y28151D02*
X-6435D01*
X-6872Y28273D02*
Y28588D01*
X986Y32674D02*
Y32989D01*
X549Y32552D02*
X864D01*
X427Y32674D02*
Y32989D01*
X988Y33215D02*
Y33530D01*
X430Y33215D02*
Y33530D01*
X552Y33652D02*
X866D01*
X2912Y32674D02*
Y32989D01*
X2475Y32552D02*
X2790D01*
X2353Y32674D02*
Y32989D01*
X2914Y33215D02*
Y33530D01*
X2355Y33215D02*
Y33530D01*
X2477Y33652D02*
X2792D01*
X-377Y32674D02*
Y32989D01*
X-814Y32552D02*
X-499D01*
X-936Y32674D02*
Y32989D01*
X-374Y33215D02*
Y33530D01*
X-933Y33215D02*
Y33530D01*
X-811Y33652D02*
X-496D01*
X-1747Y20552D02*
Y20867D01*
X-1625Y20989D02*
X-1310D01*
X-1188Y20552D02*
Y20867D01*
X-1750Y20010D02*
Y20325D01*
X-1191Y20010D02*
Y20325D01*
X-1628Y19888D02*
X-1313D01*
X5923Y26283D02*
X6238D01*
X5801Y26405D02*
Y26720D01*
X5923Y26842D02*
X6238D01*
X6465Y26280D02*
X6780D01*
X6465Y26839D02*
X6780D01*
X6902Y26402D02*
Y26717D01*
X5923Y27963D02*
X6238D01*
X5801Y28085D02*
Y28400D01*
X5923Y28522D02*
X6238D01*
X6465Y27960D02*
X6780D01*
X6465Y28519D02*
X6780D01*
X6902Y28082D02*
Y28397D01*
X-2302Y32674D02*
Y32989D01*
X-2739Y32552D02*
X-2424D01*
X-2861Y32674D02*
Y32989D01*
X-2300Y33215D02*
Y33530D01*
X-2859Y33215D02*
Y33530D01*
X-2737Y33652D02*
X-2422D01*
X13913Y-9567D02*
X14228D01*
X13791Y-9445D02*
Y-9130D01*
X13913Y-9008D02*
X14228D01*
X14455Y-9570D02*
X14770D01*
X14455Y-9011D02*
X14770D01*
X14892Y-9448D02*
Y-9133D01*
X9437Y22249D02*
X9437Y21934D01*
X9000Y21812D02*
X9315Y21812D01*
X8878Y22249D02*
X8878Y21934D01*
X9440Y22476D02*
Y22791D01*
X8881Y22476D02*
X8881Y22791D01*
X9003Y22913D02*
X9318D01*
X17943Y-6948D02*
Y-6633D01*
X18065Y-6511D02*
X18380D01*
X18502Y-6948D02*
Y-6633D01*
X17940Y-7490D02*
Y-7175D01*
X18499Y-7490D02*
Y-7175D01*
X18062Y-7612D02*
X18377D01*
X-5338Y-20653D02*
X-5023D01*
X-4901Y-20531D02*
Y-20216D01*
X-5460Y-20531D02*
Y-20216D01*
X-4898Y-19989D02*
Y-19674D01*
X-5335Y-19552D02*
X-5020D01*
X-5457Y-19989D02*
Y-19674D01*
X-19000Y5323D02*
X-18685D01*
X-19122Y5445D02*
Y5760D01*
X-19000Y5882D02*
X-18685D01*
X-18458Y5320D02*
X-18143D01*
X-18458Y5879D02*
X-18143D01*
X-18022Y5442D02*
Y5757D01*
X11367Y27914D02*
Y28229D01*
X10930Y27792D02*
X11245D01*
X10808Y27914D02*
Y28229D01*
X11370Y28456D02*
Y28771D01*
X10811Y28456D02*
Y28771D01*
X10933Y28893D02*
X11248D01*
X-17587Y-9567D02*
X-17272D01*
X-17709Y-9445D02*
Y-9130D01*
X-17587Y-9008D02*
X-17272D01*
X-17045Y-9570D02*
X-16730D01*
X-17045Y-9011D02*
X-16730D01*
X-16608Y-9448D02*
Y-9133D01*
X-9434Y5323D02*
X-9119D01*
X-9556Y5445D02*
Y5760D01*
X-9434Y5882D02*
X-9119D01*
X-8892Y5320D02*
X-8577D01*
X-8892Y5879D02*
X-8577D01*
X-8455Y5442D02*
Y5757D01*
X-13557Y-6948D02*
Y-6633D01*
X-13435Y-6511D02*
X-13120D01*
X-12998Y-6948D02*
Y-6633D01*
X-13560Y-7490D02*
Y-7175D01*
X-13001Y-7490D02*
Y-7175D01*
X-13438Y-7612D02*
X-13123D01*
X-23758Y5323D02*
X-23443D01*
X-23880Y5445D02*
Y5760D01*
X-23758Y5882D02*
X-23443D01*
X-23217Y5320D02*
X-22902D01*
X-23217Y5879D02*
X-22902D01*
X-22780Y5442D02*
Y5757D01*
X1521Y-6373D02*
X1836D01*
X1958Y-6810D02*
Y-6495D01*
X1521Y-6932D02*
X1836D01*
X979Y-6370D02*
X1294D01*
X979Y-6929D02*
X1294D01*
X857Y-6807D02*
Y-6492D01*
X34678Y4251D02*
Y4651D01*
Y4451D01*
X35278D01*
X34678Y5151D02*
Y4951D01*
X34778Y4851D01*
X35178D01*
X35278Y4951D01*
Y5151D01*
X35178Y5251D01*
X34778D01*
X34678Y5151D01*
Y5851D02*
Y5451D01*
X34978D01*
Y5651D01*
Y5451D01*
X35278D01*
X34778Y6051D02*
X34678Y6151D01*
Y6351D01*
X34778Y6451D01*
X34878D01*
X34978Y6351D01*
X35078Y6451D01*
X35178D01*
X35278Y6351D01*
Y6151D01*
X35178Y6051D01*
X35078D01*
X34978Y6151D01*
X34878Y6051D01*
X34778D01*
X34978Y6151D02*
Y6351D01*
X32522Y17824D02*
X32265Y18130D01*
X32393Y17977D01*
X32853Y18363D01*
X31944Y18513D02*
X32072Y18360D01*
X32213Y18348D01*
X32519Y18605D01*
X32532Y18746D01*
X32403Y18899D01*
X32262Y18911D01*
X31956Y18654D01*
X31944Y18513D01*
X31494Y19049D02*
X31751Y18743D01*
X31981Y18936D01*
X31852Y19089D01*
X31981Y18936D01*
X32210Y19129D01*
X31365Y19202D02*
X31108Y19509D01*
X31185Y19573D01*
X31748Y19524D01*
X31825Y19588D01*
X25275Y29263D02*
X24929Y29463D01*
X25102Y29363D01*
X25402Y29882D01*
X24496Y29713D02*
X24669Y29613D01*
X24806Y29649D01*
X25006Y29996D01*
X24969Y30132D01*
X24796Y30232D01*
X24659Y30196D01*
X24459Y29849D01*
X24496Y29713D01*
X23890Y30063D02*
X24236Y29863D01*
X24386Y30122D01*
X24213Y30222D01*
X24386Y30122D01*
X24536Y30382D01*
X23371Y30363D02*
X23594Y30349D01*
X23867Y30422D01*
X23967Y30595D01*
X23930Y30732D01*
X23757Y30832D01*
X23620Y30795D01*
X23570Y30709D01*
X23607Y30572D01*
X23867Y30422D01*
X14360Y37018D02*
X13966Y37088D01*
X14163Y37053D01*
X14267Y37644D01*
X13474Y37174D02*
X13671Y37140D01*
X13787Y37221D01*
X13856Y37615D01*
X13775Y37730D01*
X13578Y37765D01*
X13462Y37684D01*
X13393Y37290D01*
X13474Y37174D01*
X12785Y37296D02*
X13179Y37227D01*
X13231Y37522D01*
X13034Y37557D01*
X13231Y37522D01*
X13283Y37817D01*
X12194Y37400D02*
X12588Y37331D01*
X12640Y37626D01*
X12426Y37562D01*
X12327Y37580D01*
X12246Y37695D01*
X12281Y37892D01*
X12397Y37973D01*
X12594Y37939D01*
X12675Y37823D01*
X1130Y40030D02*
X730D01*
X930D01*
Y40630D01*
X230Y40030D02*
X430D01*
X530Y40130D01*
Y40530D01*
X430Y40630D01*
X230D01*
X130Y40530D01*
Y40130D01*
X230Y40030D01*
X-469D02*
X-70D01*
Y40330D01*
X-270D01*
X-70D01*
Y40630D01*
X-969D02*
Y40030D01*
X-669Y40330D01*
X-1069D01*
X-11997Y37513D02*
X-12391Y37444D01*
X-12194Y37479D01*
X-12298Y38069D01*
X-12883Y37357D02*
X-12686Y37392D01*
X-12605Y37508D01*
X-12674Y37902D01*
X-12790Y37983D01*
X-12987Y37948D01*
X-13068Y37832D01*
X-12999Y37438D01*
X-12883Y37357D01*
X-13572Y37236D02*
X-13178Y37305D01*
X-13230Y37601D01*
X-13427Y37566D01*
X-13230Y37601D01*
X-13283Y37896D01*
X-13786Y37299D02*
X-13867Y37184D01*
X-14064Y37149D01*
X-14180Y37230D01*
X-14198Y37328D01*
X-14116Y37444D01*
X-14018Y37462D01*
X-14116Y37444D01*
X-14232Y37525D01*
X-14250Y37624D01*
X-14169Y37740D01*
X-13972Y37774D01*
X-13856Y37693D01*
X-23377Y30574D02*
X-23723Y30374D01*
X-23550Y30474D01*
X-23850Y30993D01*
X-24156Y30124D02*
X-23983Y30224D01*
X-23946Y30361D01*
X-24146Y30707D01*
X-24283Y30744D01*
X-24456Y30644D01*
X-24492Y30507D01*
X-24292Y30161D01*
X-24156Y30124D01*
X-24762Y29774D02*
X-24416Y29974D01*
X-24566Y30234D01*
X-24739Y30134D01*
X-24566Y30234D01*
X-24715Y30494D01*
X-25581Y29994D02*
X-25235Y30194D01*
X-25381Y29647D01*
X-25331Y29561D01*
X-25195Y29524D01*
X-25022Y29624D01*
X-24985Y29761D01*
X-31198Y19534D02*
X-31455Y19227D01*
X-31327Y19380D01*
X-31786Y19766D01*
X-31777Y18844D02*
X-31648Y18998D01*
X-31660Y19138D01*
X-31967Y19395D01*
X-32107Y19383D01*
X-32236Y19230D01*
X-32224Y19089D01*
X-31917Y18832D01*
X-31777Y18844D01*
X-32226Y18308D02*
X-31969Y18615D01*
X-32199Y18807D01*
X-32328Y18654D01*
X-32199Y18807D01*
X-32429Y19000D01*
X-32814Y18541D02*
X-32943Y18388D01*
X-32879Y18464D01*
X-32419Y18079D01*
X-32431Y18219D01*
X-34780Y6390D02*
Y5990D01*
Y6190D01*
X-35380D01*
X-34780Y5490D02*
Y5690D01*
X-34880Y5790D01*
X-35280D01*
X-35380Y5690D01*
Y5490D01*
X-35280Y5390D01*
X-34880D01*
X-34780Y5490D01*
Y4791D02*
Y5190D01*
X-35080D01*
Y4990D01*
Y5190D01*
X-35380D01*
X-34880Y4591D02*
X-34780Y4491D01*
Y4291D01*
X-34880Y4191D01*
X-35280D01*
X-35380Y4291D01*
Y4491D01*
X-35280Y4591D01*
X-34880D01*
X11930Y6950D02*
X12330D01*
X12130Y7150D02*
Y6750D01*
X-3902Y-19893D02*
Y-20750D01*
X-4330Y-20322D02*
X-3473D01*
X-2533Y-15206D02*
Y-15720D01*
X-2790Y-15463D02*
X-2276D01*
X-17603Y94D02*
Y-420D01*
X-17860Y-163D02*
X-17346D01*
X-15173Y15934D02*
Y15420D01*
X-15430Y15677D02*
X-14916D01*
X-16863Y22994D02*
Y22480D01*
X-17120Y22737D02*
X-16606D01*
X17317Y14704D02*
Y14190D01*
X17060Y14447D02*
X17574D01*
X13507Y-226D02*
Y-740D01*
X13250Y-483D02*
X13764D01*
X-4503Y-706D02*
Y-1220D01*
X-4760Y-963D02*
X-4246D01*
X5010Y-19816D02*
X5038Y-19902D01*
Y-19730D01*
X5010Y-19816D01*
X4953Y-19759D01*
X4867Y-19730D01*
X4810D01*
X4724Y-19759D01*
X4667Y-19816D01*
X4639Y-19873D01*
X4610Y-19959D01*
Y-20102D01*
X4639Y-20187D01*
X4667Y-20244D01*
X4724Y-20301D01*
X4810Y-20330D01*
X4867D01*
X4953Y-20301D01*
X5010Y-20244D01*
X5038Y-20187D01*
X4810Y-19730D02*
X4753Y-19759D01*
X4696Y-19816D01*
X4667Y-19873D01*
X4639Y-19959D01*
Y-20102D01*
X4667Y-20187D01*
X4696Y-20244D01*
X4753Y-20301D01*
X4810Y-20330D01*
X5210Y-19730D02*
Y-20330D01*
X5238Y-19730D02*
Y-20330D01*
Y-20016D02*
X5296Y-19959D01*
X5381Y-19930D01*
X5438D01*
X5524Y-19959D01*
X5553Y-20016D01*
Y-20330D01*
X5438Y-19930D02*
X5496Y-19959D01*
X5524Y-20016D01*
Y-20330D01*
X5124Y-19730D02*
X5238D01*
X5124Y-20330D02*
X5324D01*
X5438D02*
X5638D01*
X5773Y-19987D02*
Y-20016D01*
X5744D01*
Y-19987D01*
X5773Y-19959D01*
X5830Y-19930D01*
X5944D01*
X6001Y-19959D01*
X6030Y-19987D01*
X6058Y-20044D01*
Y-20244D01*
X6087Y-20301D01*
X6115Y-20330D01*
X6030Y-19987D02*
Y-20244D01*
X6058Y-20301D01*
X6115Y-20330D01*
X6144D01*
X6030Y-20044D02*
X6001Y-20073D01*
X5830Y-20102D01*
X5744Y-20130D01*
X5715Y-20187D01*
Y-20244D01*
X5744Y-20301D01*
X5830Y-20330D01*
X5915D01*
X5973Y-20301D01*
X6030Y-20244D01*
X5830Y-20102D02*
X5773Y-20130D01*
X5744Y-20187D01*
Y-20244D01*
X5773Y-20301D01*
X5830Y-20330D01*
X6315Y-19930D02*
Y-20330D01*
X6344Y-19930D02*
Y-20330D01*
Y-20102D02*
X6372Y-20016D01*
X6430Y-19959D01*
X6487Y-19930D01*
X6572D01*
X6601Y-19959D01*
Y-19987D01*
X6572Y-20016D01*
X6544Y-19987D01*
X6572Y-19959D01*
X6230Y-19930D02*
X6344D01*
X6230Y-20330D02*
X6430D01*
X6864Y-19930D02*
X6807Y-19959D01*
X6778Y-19987D01*
X6750Y-20044D01*
Y-20102D01*
X6778Y-20159D01*
X6807Y-20187D01*
X6864Y-20216D01*
X6921D01*
X6978Y-20187D01*
X7007Y-20159D01*
X7035Y-20102D01*
Y-20044D01*
X7007Y-19987D01*
X6978Y-19959D01*
X6921Y-19930D01*
X6864D01*
X6807Y-19959D02*
X6778Y-20016D01*
Y-20130D01*
X6807Y-20187D01*
X6978D02*
X7007Y-20130D01*
Y-20016D01*
X6978Y-19959D01*
X7007Y-19987D02*
X7035Y-19959D01*
X7092Y-19930D01*
Y-19959D01*
X7035D01*
X6778Y-20159D02*
X6750Y-20187D01*
X6721Y-20244D01*
Y-20273D01*
X6750Y-20330D01*
X6835Y-20359D01*
X6978D01*
X7064Y-20387D01*
X7092Y-20416D01*
X6721Y-20273D02*
X6750Y-20301D01*
X6835Y-20330D01*
X6978D01*
X7064Y-20359D01*
X7092Y-20416D01*
Y-20444D01*
X7064Y-20501D01*
X6978Y-20530D01*
X6807D01*
X6721Y-20501D01*
X6692Y-20444D01*
Y-20416D01*
X6721Y-20359D01*
X6807Y-20330D01*
X7209Y-20102D02*
X7552D01*
Y-20044D01*
X7524Y-19987D01*
X7495Y-19959D01*
X7438Y-19930D01*
X7352D01*
X7267Y-19959D01*
X7209Y-20016D01*
X7181Y-20102D01*
Y-20159D01*
X7209Y-20244D01*
X7267Y-20301D01*
X7352Y-20330D01*
X7409D01*
X7495Y-20301D01*
X7552Y-20244D01*
X7524Y-20102D02*
Y-20016D01*
X7495Y-19959D01*
X7352Y-19930D02*
X7295Y-19959D01*
X7238Y-20016D01*
X7209Y-20102D01*
Y-20159D01*
X7238Y-20244D01*
X7295Y-20301D01*
X7352Y-20330D01*
X-18084Y2420D02*
Y1820D01*
X-18056Y2420D02*
Y1820D01*
X-18170Y2420D02*
X-17827D01*
X-17742Y2391D01*
X-17713Y2363D01*
X-17684Y2306D01*
Y2248D01*
X-17713Y2191D01*
X-17742Y2163D01*
X-17827Y2134D01*
Y2420D02*
X-17770Y2391D01*
X-17742Y2363D01*
X-17713Y2306D01*
Y2248D01*
X-17742Y2191D01*
X-17770Y2163D01*
X-17827Y2134D01*
X-18056D02*
X-17827D01*
X-17742Y2106D01*
X-17713Y2077D01*
X-17684Y2020D01*
Y1934D01*
X-17713Y1877D01*
X-17742Y1849D01*
X-17827Y1820D01*
X-18170D01*
X-17827Y2134D02*
X-17770Y2106D01*
X-17742Y2077D01*
X-17713Y2020D01*
Y1934D01*
X-17742Y1877D01*
X-17770Y1849D01*
X-17827Y1820D01*
X-17519Y2420D02*
Y1820D01*
X-17490Y2420D02*
Y1820D01*
X-17604Y2420D02*
X-17490D01*
X-17604Y1820D02*
X-17404D01*
X-17210Y2220D02*
Y1906D01*
X-17182Y1849D01*
X-17096Y1820D01*
X-17039D01*
X-16953Y1849D01*
X-16896Y1906D01*
X-17182Y2220D02*
Y1906D01*
X-17153Y1849D01*
X-17096Y1820D01*
X-16896Y2220D02*
Y1820D01*
X-16867Y2220D02*
Y1820D01*
X-17296Y2220D02*
X-17182D01*
X-16982D02*
X-16867D01*
X-16896Y1820D02*
X-16782D01*
X-16676Y2049D02*
X-16333D01*
Y2106D01*
X-16362Y2163D01*
X-16390Y2191D01*
X-16448Y2220D01*
X-16533D01*
X-16619Y2191D01*
X-16676Y2134D01*
X-16705Y2049D01*
Y1991D01*
X-16676Y1906D01*
X-16619Y1849D01*
X-16533Y1820D01*
X-16476D01*
X-16390Y1849D01*
X-16333Y1906D01*
X-16362Y2049D02*
Y2134D01*
X-16390Y2191D01*
X-16533Y2220D02*
X-16590Y2191D01*
X-16647Y2134D01*
X-16676Y2049D01*
Y1991D01*
X-16647Y1906D01*
X-16590Y1849D01*
X-16533Y1820D01*
X-16070D02*
X-16099Y1849D01*
X-16128Y1934D01*
Y2420D01*
X-16156D01*
Y1934D01*
X-16128Y1849D01*
X-16070Y1820D01*
X-16013D01*
X-15956Y1849D01*
X-15928Y1906D01*
X-16242Y2220D02*
X-16013D01*
X-15659D02*
X-15745Y2191D01*
X-15802Y2134D01*
X-15831Y2049D01*
Y1991D01*
X-15802Y1906D01*
X-15745Y1849D01*
X-15659Y1820D01*
X-15602D01*
X-15516Y1849D01*
X-15459Y1906D01*
X-15431Y1991D01*
Y2049D01*
X-15459Y2134D01*
X-15516Y2191D01*
X-15602Y2220D01*
X-15659D01*
X-15716Y2191D01*
X-15773Y2134D01*
X-15802Y2049D01*
Y1991D01*
X-15773Y1906D01*
X-15716Y1849D01*
X-15659Y1820D01*
X-15602D02*
X-15545Y1849D01*
X-15488Y1906D01*
X-15459Y1991D01*
Y2049D01*
X-15488Y2134D01*
X-15545Y2191D01*
X-15602Y2220D01*
X-15171D02*
X-15256Y2191D01*
X-15313Y2134D01*
X-15342Y2049D01*
Y1991D01*
X-15313Y1906D01*
X-15256Y1849D01*
X-15171Y1820D01*
X-15114D01*
X-15028Y1849D01*
X-14971Y1906D01*
X-14942Y1991D01*
Y2049D01*
X-14971Y2134D01*
X-15028Y2191D01*
X-15114Y2220D01*
X-15171D01*
X-15228Y2191D01*
X-15285Y2134D01*
X-15313Y2049D01*
Y1991D01*
X-15285Y1906D01*
X-15228Y1849D01*
X-15171Y1820D01*
X-15114D02*
X-15056Y1849D01*
X-14999Y1906D01*
X-14971Y1991D01*
Y2049D01*
X-14999Y2134D01*
X-15056Y2191D01*
X-15114Y2220D01*
X-14682Y1820D02*
X-14711Y1849D01*
X-14739Y1934D01*
Y2420D01*
X-14768D01*
Y1934D01*
X-14739Y1849D01*
X-14682Y1820D01*
X-14625D01*
X-14568Y1849D01*
X-14539Y1906D01*
X-14854Y2220D02*
X-14625D01*
X-14357Y2420D02*
Y1820D01*
X-14328Y2420D02*
Y1820D01*
Y2134D02*
X-14271Y2191D01*
X-14185Y2220D01*
X-14128D01*
X-14042Y2191D01*
X-14014Y2134D01*
Y1820D01*
X-14128Y2220D02*
X-14071Y2191D01*
X-14042Y2134D01*
Y1820D01*
X-14442Y2420D02*
X-14328D01*
X-14442Y1820D02*
X-14242D01*
X-14128D02*
X-13928D01*
X-654Y1400D02*
Y800D01*
X-626Y1400D02*
Y800D01*
X-740Y1400D02*
X-540D01*
X-740Y800D02*
X-540D01*
X-346Y1400D02*
Y800D01*
X-317Y1400D02*
X-146Y886D01*
X-346Y1400D02*
X-146Y800D01*
X54Y1400D02*
X-146Y800D01*
X54Y1400D02*
Y800D01*
X83Y1400D02*
Y800D01*
X-432Y1400D02*
X-317D01*
X54D02*
X168D01*
X-432Y800D02*
X-260D01*
X-32D02*
X168D01*
X323Y1400D02*
Y971D01*
X351Y886D01*
X408Y829D01*
X494Y800D01*
X551D01*
X637Y829D01*
X694Y886D01*
X723Y971D01*
Y1400D01*
X351D02*
Y971D01*
X380Y886D01*
X437Y829D01*
X494Y800D01*
X237Y1400D02*
X437D01*
X637D02*
X808D01*
X-15600Y18370D02*
X-15686Y18341D01*
X-15743Y18284D01*
X-15771Y18227D01*
X-15800Y18113D01*
Y18027D01*
X-15771Y17913D01*
X-15743Y17856D01*
X-15686Y17799D01*
X-15600Y17770D01*
X-15543D01*
X-15457Y17799D01*
X-15400Y17856D01*
X-15372Y17913D01*
X-15343Y18027D01*
Y18113D01*
X-15372Y18227D01*
X-15400Y18284D01*
X-15457Y18341D01*
X-15543Y18370D01*
X-15600D01*
X-15657Y18341D01*
X-15714Y18284D01*
X-15743Y18227D01*
X-15771Y18113D01*
Y18027D01*
X-15743Y17913D01*
X-15714Y17856D01*
X-15657Y17799D01*
X-15600Y17770D01*
X-15543D02*
X-15486Y17799D01*
X-15429Y17856D01*
X-15400Y17913D01*
X-15372Y18027D01*
Y18113D01*
X-15400Y18227D01*
X-15429Y18284D01*
X-15486Y18341D01*
X-15543Y18370D01*
X-15174D02*
Y17770D01*
X-15146Y18370D02*
Y17770D01*
X-15260Y18370D02*
X-15060D01*
X-15260Y17770D02*
X-14832D01*
Y17941D01*
X-14860Y17770D01*
X-14660Y18370D02*
Y17770D01*
X-14632Y18370D02*
Y17770D01*
X-14460Y18198D02*
Y17970D01*
X-14746Y18370D02*
X-14289D01*
Y18198D01*
X-14317Y18370D01*
X-14632Y18084D02*
X-14460D01*
X-14746Y17770D02*
X-14289D01*
Y17941D01*
X-14317Y17770D01*
X-14120Y18370D02*
Y17770D01*
X-14092Y18370D02*
Y17770D01*
X-14206Y18370D02*
X-13920D01*
X-13835Y18341D01*
X-13778Y18284D01*
X-13749Y18227D01*
X-13720Y18141D01*
Y17999D01*
X-13749Y17913D01*
X-13778Y17856D01*
X-13835Y17799D01*
X-13920Y17770D01*
X-14206D01*
X-13920Y18370D02*
X-13863Y18341D01*
X-13806Y18284D01*
X-13778Y18227D01*
X-13749Y18141D01*
Y17999D01*
X-13778Y17913D01*
X-13806Y17856D01*
X-13863Y17799D01*
X-13920Y17770D01*
X-17754Y27300D02*
Y26700D01*
X-17726Y27300D02*
Y26700D01*
X-17840Y27300D02*
X-17497D01*
X-17412Y27271D01*
X-17383Y27243D01*
X-17354Y27186D01*
Y27128D01*
X-17383Y27071D01*
X-17412Y27043D01*
X-17497Y27014D01*
Y27300D02*
X-17440Y27271D01*
X-17412Y27243D01*
X-17383Y27186D01*
Y27128D01*
X-17412Y27071D01*
X-17440Y27043D01*
X-17497Y27014D01*
X-17726D02*
X-17497D01*
X-17412Y26986D01*
X-17383Y26957D01*
X-17354Y26900D01*
Y26814D01*
X-17383Y26757D01*
X-17412Y26729D01*
X-17497Y26700D01*
X-17840D01*
X-17497Y27014D02*
X-17440Y26986D01*
X-17412Y26957D01*
X-17383Y26900D01*
Y26814D01*
X-17412Y26757D01*
X-17440Y26729D01*
X-17497Y26700D01*
X-17189Y27300D02*
Y26700D01*
X-17160Y27300D02*
Y26700D01*
X-17274Y27300D02*
X-17160D01*
X-17274Y26700D02*
X-17074D01*
X-16880Y27100D02*
Y26786D01*
X-16852Y26729D01*
X-16766Y26700D01*
X-16709D01*
X-16623Y26729D01*
X-16566Y26786D01*
X-16852Y27100D02*
Y26786D01*
X-16823Y26729D01*
X-16766Y26700D01*
X-16566Y27100D02*
Y26700D01*
X-16537Y27100D02*
Y26700D01*
X-16966Y27100D02*
X-16852D01*
X-16652D02*
X-16537D01*
X-16566Y26700D02*
X-16452D01*
X-16346Y26929D02*
X-16003D01*
Y26986D01*
X-16032Y27043D01*
X-16060Y27071D01*
X-16118Y27100D01*
X-16203D01*
X-16289Y27071D01*
X-16346Y27014D01*
X-16375Y26929D01*
Y26871D01*
X-16346Y26786D01*
X-16289Y26729D01*
X-16203Y26700D01*
X-16146D01*
X-16060Y26729D01*
X-16003Y26786D01*
X-16032Y26929D02*
Y27014D01*
X-16060Y27071D01*
X-16203Y27100D02*
X-16260Y27071D01*
X-16317Y27014D01*
X-16346Y26929D01*
Y26871D01*
X-16317Y26786D01*
X-16260Y26729D01*
X-16203Y26700D01*
X-15740D02*
X-15769Y26729D01*
X-15798Y26814D01*
Y27300D01*
X-15826D01*
Y26814D01*
X-15798Y26729D01*
X-15740Y26700D01*
X-15683D01*
X-15626Y26729D01*
X-15598Y26786D01*
X-15912Y27100D02*
X-15683D01*
X-15329D02*
X-15415Y27071D01*
X-15472Y27014D01*
X-15501Y26929D01*
Y26871D01*
X-15472Y26786D01*
X-15415Y26729D01*
X-15329Y26700D01*
X-15272D01*
X-15186Y26729D01*
X-15129Y26786D01*
X-15101Y26871D01*
Y26929D01*
X-15129Y27014D01*
X-15186Y27071D01*
X-15272Y27100D01*
X-15329D01*
X-15386Y27071D01*
X-15443Y27014D01*
X-15472Y26929D01*
Y26871D01*
X-15443Y26786D01*
X-15386Y26729D01*
X-15329Y26700D01*
X-15272D02*
X-15215Y26729D01*
X-15158Y26786D01*
X-15129Y26871D01*
Y26929D01*
X-15158Y27014D01*
X-15215Y27071D01*
X-15272Y27100D01*
X-14841D02*
X-14926Y27071D01*
X-14983Y27014D01*
X-15012Y26929D01*
Y26871D01*
X-14983Y26786D01*
X-14926Y26729D01*
X-14841Y26700D01*
X-14784D01*
X-14698Y26729D01*
X-14641Y26786D01*
X-14612Y26871D01*
Y26929D01*
X-14641Y27014D01*
X-14698Y27071D01*
X-14784Y27100D01*
X-14841D01*
X-14898Y27071D01*
X-14955Y27014D01*
X-14983Y26929D01*
Y26871D01*
X-14955Y26786D01*
X-14898Y26729D01*
X-14841Y26700D01*
X-14784D02*
X-14726Y26729D01*
X-14669Y26786D01*
X-14641Y26871D01*
Y26929D01*
X-14669Y27014D01*
X-14726Y27071D01*
X-14784Y27100D01*
X-14352Y26700D02*
X-14381Y26729D01*
X-14409Y26814D01*
Y27300D01*
X-14438D01*
Y26814D01*
X-14409Y26729D01*
X-14352Y26700D01*
X-14295D01*
X-14238Y26729D01*
X-14209Y26786D01*
X-14524Y27100D02*
X-14295D01*
X-14027Y27300D02*
Y26700D01*
X-13998Y27300D02*
Y26700D01*
Y27014D02*
X-13941Y27071D01*
X-13855Y27100D01*
X-13798D01*
X-13712Y27071D01*
X-13684Y27014D01*
Y26700D01*
X-13798Y27100D02*
X-13741Y27071D01*
X-13712Y27014D01*
Y26700D01*
X-14112Y27300D02*
X-13998D01*
X-14112Y26700D02*
X-13912D01*
X-13798D02*
X-13598D01*
X15456Y25180D02*
Y24580D01*
X15484Y25180D02*
Y24580D01*
X15370Y25180D02*
X15713D01*
X15798Y25151D01*
X15827Y25123D01*
X15856Y25066D01*
Y25008D01*
X15827Y24951D01*
X15798Y24923D01*
X15713Y24894D01*
X15484D01*
X15713Y25180D02*
X15770Y25151D01*
X15798Y25123D01*
X15827Y25066D01*
Y25008D01*
X15798Y24951D01*
X15770Y24923D01*
X15713Y24894D01*
X15370Y24580D02*
X15570D01*
X15627Y24894D02*
X15684Y24866D01*
X15713Y24837D01*
X15798Y24637D01*
X15827Y24609D01*
X15856D01*
X15884Y24637D01*
X15684Y24866D02*
X15713Y24809D01*
X15770Y24609D01*
X15798Y24580D01*
X15856D01*
X15884Y24637D01*
Y24666D01*
X16047Y25180D02*
Y24580D01*
X16076Y25180D02*
Y24580D01*
X16247Y25008D02*
Y24780D01*
X15961Y25180D02*
X16418D01*
Y25008D01*
X16390Y25180D01*
X16076Y24894D02*
X16247D01*
X15961Y24580D02*
X16418D01*
Y24751D01*
X16390Y24580D01*
X16873Y25094D02*
X16901Y25180D01*
Y25008D01*
X16873Y25094D01*
X16815Y25151D01*
X16730Y25180D01*
X16644D01*
X16558Y25151D01*
X16501Y25094D01*
Y25037D01*
X16530Y24980D01*
X16558Y24951D01*
X16615Y24923D01*
X16787Y24866D01*
X16844Y24837D01*
X16901Y24780D01*
X16501Y25037D02*
X16558Y24980D01*
X16615Y24951D01*
X16787Y24894D01*
X16844Y24866D01*
X16873Y24837D01*
X16901Y24780D01*
Y24666D01*
X16844Y24609D01*
X16758Y24580D01*
X16673D01*
X16587Y24609D01*
X16530Y24666D01*
X16501Y24751D01*
Y24580D01*
X16530Y24666D01*
X17075Y25180D02*
Y24580D01*
X17104Y25180D02*
Y24580D01*
X17275Y25008D02*
Y24780D01*
X16990Y25180D02*
X17447D01*
Y25008D01*
X17418Y25180D01*
X17104Y24894D02*
X17275D01*
X16990Y24580D02*
X17447D01*
Y24751D01*
X17418Y24580D01*
X17729Y25180D02*
Y24580D01*
X17758Y25180D02*
Y24580D01*
X17558Y25180D02*
X17530Y25008D01*
Y25180D01*
X17958D01*
Y25008D01*
X17929Y25180D01*
X17644Y24580D02*
X17844D01*
X-24474Y1140D02*
Y540D01*
X-24446Y1140D02*
Y540D01*
X-24560Y1140D02*
X-24217D01*
X-24132Y1111D01*
X-24103Y1083D01*
X-24074Y1026D01*
Y968D01*
X-24103Y911D01*
X-24132Y883D01*
X-24217Y854D01*
X-24446D01*
X-24217Y1140D02*
X-24160Y1111D01*
X-24132Y1083D01*
X-24103Y1026D01*
Y968D01*
X-24132Y911D01*
X-24160Y883D01*
X-24217Y854D01*
X-24560Y540D02*
X-24360D01*
X-24303Y854D02*
X-24246Y826D01*
X-24217Y797D01*
X-24132Y597D01*
X-24103Y569D01*
X-24074D01*
X-24046Y597D01*
X-24246Y826D02*
X-24217Y769D01*
X-24160Y569D01*
X-24132Y540D01*
X-24074D01*
X-24046Y597D01*
Y626D01*
X-23883Y1140D02*
Y540D01*
X-23854Y1140D02*
Y540D01*
X-23683Y968D02*
Y740D01*
X-23969Y1140D02*
X-23512D01*
Y968D01*
X-23540Y1140D01*
X-23854Y854D02*
X-23683D01*
X-23969Y540D02*
X-23512D01*
Y711D01*
X-23540Y540D01*
X-23057Y1054D02*
X-23029Y1140D01*
Y968D01*
X-23057Y1054D01*
X-23115Y1111D01*
X-23200Y1140D01*
X-23286D01*
X-23372Y1111D01*
X-23429Y1054D01*
Y997D01*
X-23400Y940D01*
X-23372Y911D01*
X-23315Y883D01*
X-23143Y826D01*
X-23086Y797D01*
X-23029Y740D01*
X-23429Y997D02*
X-23372Y940D01*
X-23315Y911D01*
X-23143Y854D01*
X-23086Y826D01*
X-23057Y797D01*
X-23029Y740D01*
Y626D01*
X-23086Y569D01*
X-23172Y540D01*
X-23257D01*
X-23343Y569D01*
X-23400Y626D01*
X-23429Y711D01*
Y540D01*
X-23400Y626D01*
X-22855Y1140D02*
Y540D01*
X-22826Y1140D02*
Y540D01*
X-22655Y968D02*
Y740D01*
X-22940Y1140D02*
X-22483D01*
Y968D01*
X-22512Y1140D01*
X-22826Y854D02*
X-22655D01*
X-22940Y540D02*
X-22483D01*
Y711D01*
X-22512Y540D01*
X-22201Y1140D02*
Y540D01*
X-22172Y1140D02*
Y540D01*
X-22372Y1140D02*
X-22400Y968D01*
Y1140D01*
X-21972D01*
Y968D01*
X-22001Y1140D01*
X-22286Y540D02*
X-22086D01*
X-30544Y1170D02*
Y570D01*
X-30516Y1170D02*
X-30344Y656D01*
X-30544Y1170D02*
X-30344Y570D01*
X-30144Y1170D02*
X-30344Y570D01*
X-30144Y1170D02*
Y570D01*
X-30116Y1170D02*
Y570D01*
X-30630Y1170D02*
X-30516D01*
X-30144D02*
X-30030D01*
X-30630Y570D02*
X-30459D01*
X-30230D02*
X-30030D01*
X-29762Y1170D02*
X-29847Y1141D01*
X-29904Y1084D01*
X-29933Y1027D01*
X-29962Y913D01*
Y827D01*
X-29933Y713D01*
X-29904Y656D01*
X-29847Y599D01*
X-29762Y570D01*
X-29704D01*
X-29619Y599D01*
X-29562Y656D01*
X-29533Y713D01*
X-29505Y827D01*
Y913D01*
X-29533Y1027D01*
X-29562Y1084D01*
X-29619Y1141D01*
X-29704Y1170D01*
X-29762D01*
X-29819Y1141D01*
X-29876Y1084D01*
X-29904Y1027D01*
X-29933Y913D01*
Y827D01*
X-29904Y713D01*
X-29876Y656D01*
X-29819Y599D01*
X-29762Y570D01*
X-29704D02*
X-29647Y599D01*
X-29590Y656D01*
X-29562Y713D01*
X-29533Y827D01*
Y913D01*
X-29562Y1027D01*
X-29590Y1084D01*
X-29647Y1141D01*
X-29704Y1170D01*
X-29336D02*
Y570D01*
X-29307Y1170D02*
Y570D01*
X-29422Y1170D02*
X-29136D01*
X-29050Y1141D01*
X-28993Y1084D01*
X-28965Y1027D01*
X-28936Y941D01*
Y799D01*
X-28965Y713D01*
X-28993Y656D01*
X-29050Y599D01*
X-29136Y570D01*
X-29422D01*
X-29136Y1170D02*
X-29079Y1141D01*
X-29022Y1084D01*
X-28993Y1027D01*
X-28965Y941D01*
Y799D01*
X-28993Y713D01*
X-29022Y656D01*
X-29079Y599D01*
X-29136Y570D01*
X-28770Y1170D02*
Y570D01*
X-28742Y1170D02*
Y570D01*
X-28570Y998D02*
Y770D01*
X-28856Y1170D02*
X-28399D01*
Y998D01*
X-28428Y1170D01*
X-28742Y884D02*
X-28570D01*
X-28856Y570D02*
X-28399D01*
Y741D01*
X-28428Y570D01*
X17010Y-20280D02*
Y-20980D01*
X17043Y-20280D02*
Y-20980D01*
X16910Y-20280D02*
X17310D01*
X17410Y-20313D01*
X17443Y-20347D01*
X17477Y-20413D01*
Y-20513D01*
X17443Y-20580D01*
X17410Y-20613D01*
X17310Y-20647D01*
X17043D01*
X17310Y-20280D02*
X17377Y-20313D01*
X17410Y-20347D01*
X17443Y-20413D01*
Y-20513D01*
X17410Y-20580D01*
X17377Y-20613D01*
X17310Y-20647D01*
X16910Y-20980D02*
X17143D01*
X17803Y-20280D02*
X17703Y-20313D01*
X17637Y-20380D01*
X17603Y-20447D01*
X17570Y-20580D01*
Y-20680D01*
X17603Y-20813D01*
X17637Y-20880D01*
X17703Y-20947D01*
X17803Y-20980D01*
X17870D01*
X17970Y-20947D01*
X18036Y-20880D01*
X18070Y-20813D01*
X18103Y-20680D01*
Y-20580D01*
X18070Y-20447D01*
X18036Y-20380D01*
X17970Y-20313D01*
X17870Y-20280D01*
X17803D01*
X17736Y-20313D01*
X17670Y-20380D01*
X17637Y-20447D01*
X17603Y-20580D01*
Y-20680D01*
X17637Y-20813D01*
X17670Y-20880D01*
X17736Y-20947D01*
X17803Y-20980D01*
X17870D02*
X17936Y-20947D01*
X18003Y-20880D01*
X18036Y-20813D01*
X18070Y-20680D01*
Y-20580D01*
X18036Y-20447D01*
X18003Y-20380D01*
X17936Y-20313D01*
X17870Y-20280D01*
X18300D02*
X18433Y-20980D01*
X18333Y-20280D02*
X18433Y-20813D01*
X18566Y-20280D02*
X18433Y-20980D01*
X18566Y-20280D02*
X18700Y-20980D01*
X18600Y-20280D02*
X18700Y-20813D01*
X18833Y-20280D02*
X18700Y-20980D01*
X18200Y-20280D02*
X18433D01*
X18733D02*
X18933D01*
X19110D02*
Y-20980D01*
X19143Y-20280D02*
Y-20980D01*
X19343Y-20480D02*
Y-20747D01*
X19010Y-20280D02*
X19543D01*
Y-20480D01*
X19509Y-20280D01*
X19143Y-20613D02*
X19343D01*
X19010Y-20980D02*
X19543D01*
Y-20780D01*
X19509Y-20980D01*
X19739Y-20280D02*
Y-20980D01*
X19773Y-20280D02*
Y-20980D01*
X19639Y-20280D02*
X20039D01*
X20139Y-20313D01*
X20173Y-20347D01*
X20206Y-20413D01*
Y-20480D01*
X20173Y-20547D01*
X20139Y-20580D01*
X20039Y-20613D01*
X19773D01*
X20039Y-20280D02*
X20106Y-20313D01*
X20139Y-20347D01*
X20173Y-20413D01*
Y-20480D01*
X20139Y-20547D01*
X20106Y-20580D01*
X20039Y-20613D01*
X19639Y-20980D02*
X19873D01*
X19939Y-20613D02*
X20006Y-20647D01*
X20039Y-20680D01*
X20139Y-20913D01*
X20173Y-20947D01*
X20206D01*
X20239Y-20913D01*
X20006Y-20647D02*
X20039Y-20713D01*
X20106Y-20947D01*
X20139Y-20980D01*
X20206D01*
X20239Y-20913D01*
Y-20880D01*
D11*
X18667Y2730D02*
G03*
X18667Y2731I79J0D01*
G01*
X4942Y-12928D02*
G03*
X4941Y-12928I-0J79D01*
G01*
D12*
X17490Y19862D02*
G03*
X17490Y19862I-59J0D01*
G01*
X18286Y19612D02*
G03*
X18286Y19612I-59J0D01*
G01*
X4059Y7102D02*
G03*
X4058Y7102I41J42D01*
G01*
X8179Y20826D02*
G03*
X8179Y20826I-59J0D01*
G01*
X7390Y21120D02*
G03*
X7390Y21120I-59J0D01*
G01*
X-7013Y-19463D02*
G03*
X-7013Y-19463I-59J0D01*
G01*
X1060Y-7910D02*
G03*
X1060Y-7910I-59J0D01*
G01*
X769Y-8697D02*
G03*
X769Y-8697I-59J0D01*
G01*
D13*
X2840Y6792D02*
G03*
X2838Y6793I83J84D01*
G01*
X17263Y-7001D02*
G03*
X17263Y-7001I-118J0D01*
G01*
X-14187D02*
G03*
X-14187Y-7001I-118J0D01*
G01*
X3416Y23483D02*
G03*
X3416Y23483I-118J0D01*
G01*
D14*
X4203Y23060D02*
G03*
X4203Y23060I-49J0D01*
G01*
X9974Y186D02*
G03*
X9974Y186I-49J0D01*
G01*
X-8516Y376D02*
G03*
X-8516Y376I-49J0D01*
G01*
D15*
X746Y18846D02*
G03*
X746Y18846I-49J0D01*
G01*
D16*
X-12416Y6161D02*
Y9940D01*
X-15172Y6161D02*
Y9940D01*
X-12416D01*
X-15172Y6161D02*
X-12416D01*
X-286Y-15430D02*
X214D01*
X-186D02*
X114Y-15280D01*
X-186Y-15430D02*
X114Y-15580D01*
Y-15430D02*
Y-15280D01*
Y-15580D02*
Y-15430D01*
X-186D02*
Y-15280D01*
Y-15580D02*
Y-15430D01*
X2210Y-9986D02*
X2360D01*
X2060D02*
X2210D01*
Y-9686D02*
X2360D01*
X2060D02*
X2210D01*
Y-9986D02*
X2360Y-9686D01*
X2060D02*
X2210Y-9986D01*
Y-10086D02*
Y-9586D01*
X-13634Y-4520D02*
X-13134D01*
X-13534Y-4670D02*
X-13234Y-4520D01*
X-13534Y-4370D02*
X-13234Y-4520D01*
X-13534Y-4670D02*
Y-4520D01*
Y-4370D01*
X-13234Y-4670D02*
Y-4520D01*
Y-4370D01*
X-12326Y-19980D02*
Y-19830D01*
Y-20130D02*
Y-19980D01*
X-12626D02*
Y-19830D01*
Y-20130D02*
Y-19980D01*
Y-19830D02*
X-12326Y-19980D01*
X-12626Y-20130D02*
X-12326Y-19980D01*
X-12726D02*
X-12226D01*
X-5820Y-18014D02*
Y-17514D01*
X-5970Y-17614D02*
X-5820Y-17914D01*
X-5670Y-17614D01*
X-5970D02*
X-5820D01*
X-5670D01*
X-5970Y-17914D02*
X-5820D01*
X-5670D01*
X-16686Y-10540D02*
Y-10390D01*
Y-10240D01*
X-16386Y-10540D02*
Y-10390D01*
Y-10240D01*
X-16686Y-10390D02*
X-16386Y-10540D01*
X-16686Y-10390D02*
X-16386Y-10240D01*
X-16786Y-10390D02*
X-16286D01*
X-7420Y-18036D02*
Y-17536D01*
X-7570Y-17636D02*
X-7420Y-17936D01*
X-7270Y-17636D01*
X-7570D02*
X-7420D01*
X-7270D01*
X-7570Y-17936D02*
X-7420D01*
X-7270D01*
X18164Y-4490D02*
Y-4340D01*
Y-4640D02*
Y-4490D01*
X17864D02*
Y-4340D01*
Y-4640D02*
Y-4490D01*
Y-4340D02*
X18164Y-4490D01*
X17864Y-4640D02*
X18164Y-4490D01*
X17764D02*
X18264D01*
X12294Y-20070D02*
X12794D01*
X12394Y-20220D02*
X12694Y-20070D01*
X12394Y-19920D02*
X12694Y-20070D01*
X12394Y-20220D02*
Y-20070D01*
Y-19920D01*
X12694Y-20220D02*
Y-20070D01*
Y-19920D01*
X14436Y-10580D02*
Y-10430D01*
Y-10280D01*
X14736Y-10580D02*
Y-10430D01*
Y-10280D01*
X14436Y-10430D02*
X14736Y-10580D01*
X14436Y-10430D02*
X14736Y-10280D01*
X14336Y-10430D02*
X14836D01*
X7290Y29390D02*
X7420D01*
X9350Y27610D02*
X9550D01*
X9350Y27410D02*
Y27810D01*
X8280Y29020D02*
X8480D01*
X8780Y28970D02*
Y29070D01*
X8630Y28920D02*
Y29120D01*
X8285Y27610D02*
X8455Y27410D01*
X8635Y27610D01*
X8285D02*
X8375D01*
Y27880D01*
X8545D01*
Y27610D02*
Y27880D01*
Y27610D02*
X8635D01*
X8270Y27290D02*
X9580D01*
X7290D02*
X7420D01*
X7290D02*
Y29390D01*
X7420D01*
X10420D02*
X10530D01*
Y27290D02*
Y29390D01*
X10420Y27290D02*
X10530D01*
X8230Y29390D02*
X9600D01*
X8480Y28770D02*
Y29270D01*
X-19950Y6161D02*
X-17194D01*
X-19950Y9940D02*
X-17194D01*
X-19950Y6161D02*
Y9940D01*
X-17194Y6161D02*
Y9940D01*
X-10383Y6161D02*
X-7627D01*
X-10383Y9940D02*
X-7627D01*
X-10383Y6161D02*
Y9940D01*
X-7627Y6161D02*
Y9940D01*
X-24708Y6161D02*
X-21952D01*
X-24708Y9940D02*
X-21952D01*
X-24708Y6161D02*
Y9940D01*
X-21952Y6161D02*
Y9940D01*
X11570Y6460D02*
Y7460D01*
X9220Y6460D02*
Y7460D01*
X10820D02*
X11570D01*
X10820Y6460D02*
X11570D01*
X9220D02*
X9970D01*
X9220Y7460D02*
X9970D01*
D17*
X-12464Y10810D02*
Y11350D01*
X-13014Y10260D02*
X-12464Y10810D01*
X-15123Y10260D02*
X-13014D01*
X-15123D02*
Y11350D01*
X-12464Y11828D02*
Y12369D01*
X-13014Y12918D02*
X-12464Y12369D01*
X-15123Y12918D02*
X-13014D01*
X-15123Y11828D02*
Y12918D01*
X20964Y22031D02*
X20970Y22720D01*
X16470D02*
X20970D01*
X16470D02*
X16476Y22031D01*
X16470Y20820D02*
X16476Y21509D01*
X16470Y20820D02*
X20970D01*
X20964Y21509D02*
X20970Y20820D01*
X20964Y22031D02*
X20970Y22720D01*
X16470D02*
X20970D01*
X16470D02*
X16476Y22031D01*
X16470Y20820D02*
X16476Y21509D01*
X16470Y20820D02*
X20970D01*
X20964Y21509D02*
X20970Y20820D01*
X17931Y17013D02*
Y19908D01*
Y17013D02*
X19680D01*
Y19908D01*
X17931D02*
X19680D01*
X7627Y20875D02*
Y22865D01*
X6429D02*
X7627D01*
X6429Y20875D02*
Y22865D01*
Y20875D02*
X7627D01*
X-6910Y-19514D02*
X-6210D01*
X-6910Y-20726D02*
X-6210D01*
X955Y-9599D02*
Y-8401D01*
X-1035Y-9599D02*
X955D01*
X-1035D02*
Y-8401D01*
X955D01*
X-1017Y16532D02*
X-884Y16532D01*
X-1017Y16532D02*
Y18560D01*
X-884Y18560D01*
X879Y16532D02*
X1012D01*
X1012Y18560D02*
X1012Y16532D01*
X879Y18560D02*
X1012Y18560D01*
X-17243Y10810D02*
Y11350D01*
X-17792Y10260D02*
X-17243Y10810D01*
X-19901Y10260D02*
X-17792D01*
X-19901D02*
Y11350D01*
X-17243Y11828D02*
Y12369D01*
X-17792Y12918D02*
X-17243Y12369D01*
X-19901Y12918D02*
X-17792D01*
X-19901Y11828D02*
Y12918D01*
X-10335Y11828D02*
Y12918D01*
X-8226D01*
X-7676Y12369D01*
Y11828D02*
Y12369D01*
X-10335Y10260D02*
Y11350D01*
Y10260D02*
X-8226D01*
X-7676Y10810D01*
Y11350D01*
X-24659Y11828D02*
Y12918D01*
X-22550D01*
X-22001Y12369D01*
Y11828D02*
Y12369D01*
X-24659Y10260D02*
Y11350D01*
Y10260D02*
X-22550D01*
X-22001Y10810D01*
Y11350D01*
X-1371Y-12461D02*
Y-11371D01*
X738D01*
X1287Y-11920D01*
Y-12461D02*
Y-11920D01*
X-1371Y-14029D02*
Y-12939D01*
Y-14029D02*
X738D01*
X1287Y-13480D01*
Y-12939D01*
X-5479Y-8587D02*
X-4389Y-8587D01*
X-5479Y-6479D02*
X-5479Y-8587D01*
X-5479Y-6479D02*
X-4930Y-5929D01*
X-4389Y-5929D01*
X-3911Y-8587D02*
X-2821Y-8587D01*
Y-6479D01*
X-3370Y-5929D02*
X-2821Y-6479D01*
X-3911Y-5929D02*
X-3370Y-5929D01*
D18*
X15980Y12500D02*
X17020D01*
X17180D02*
X17480D01*
X17630D02*
X18080D01*
X18830D02*
X18980D01*
X19280D02*
X20320D01*
X15980Y12490D02*
X17020D01*
X17180D02*
X17480D01*
X17630D02*
X18080D01*
X18830D02*
X18980D01*
X19280D02*
X20320D01*
X15980Y12480D02*
X17020D01*
X17180D02*
X17480D01*
X17630D02*
X18080D01*
X18830D02*
X18980D01*
X19280D02*
X20320D01*
X15980Y12470D02*
X17020D01*
X17180D02*
X17480D01*
X17630D02*
X18080D01*
X18830D02*
X18980D01*
X19280D02*
X20320D01*
X15980Y12460D02*
X17020D01*
X17180D02*
X17480D01*
X17630D02*
X18080D01*
X18830D02*
X18980D01*
X19280D02*
X20320D01*
X15980Y12450D02*
X17020D01*
X17180D02*
X17480D01*
X17630D02*
X18080D01*
X18830D02*
X18980D01*
X19280D02*
X20320D01*
X15980Y12440D02*
X17020D01*
X17180D02*
X17480D01*
X17630D02*
X18080D01*
X18830D02*
X18980D01*
X19280D02*
X20320D01*
X15980Y12430D02*
X17020D01*
X17180D02*
X17480D01*
X17630D02*
X18080D01*
X18830D02*
X18980D01*
X19280D02*
X20320D01*
X15980Y12420D02*
X17020D01*
X17180D02*
X17480D01*
X17630D02*
X18080D01*
X18830D02*
X18980D01*
X19280D02*
X20320D01*
X15980Y12410D02*
X17020D01*
X17180D02*
X17480D01*
X17630D02*
X18080D01*
X18830D02*
X18980D01*
X19280D02*
X20320D01*
X15980Y12400D02*
X17020D01*
X17180D02*
X17480D01*
X17630D02*
X18080D01*
X18830D02*
X18980D01*
X19280D02*
X20320D01*
X15980Y12390D02*
X17020D01*
X17180D02*
X17480D01*
X17630D02*
X18080D01*
X18830D02*
X18980D01*
X19280D02*
X20320D01*
X15980Y12380D02*
X17020D01*
X17180D02*
X17480D01*
X17630D02*
X18080D01*
X18830D02*
X18980D01*
X19280D02*
X20320D01*
X15980Y12370D02*
X17020D01*
X17180D02*
X17480D01*
X17630D02*
X18080D01*
X18830D02*
X18980D01*
X19280D02*
X20320D01*
X15980Y12360D02*
X16120D01*
X16870D02*
X17020D01*
X17180D02*
X17480D01*
X17630D02*
X18080D01*
X18830D02*
X18980D01*
X19280D02*
X19420D01*
X20170D02*
X20320D01*
X15980Y12350D02*
X16120D01*
X16870D02*
X17020D01*
X17630D02*
X17780D01*
X17930D02*
X18080D01*
X18380D02*
X18530D01*
X18680D02*
X19130D01*
X19280D02*
X19420D01*
X20170D02*
X20320D01*
X15980Y12340D02*
X16120D01*
X16870D02*
X17020D01*
X17630D02*
X17780D01*
X17930D02*
X18080D01*
X18380D02*
X18530D01*
X18680D02*
X19130D01*
X19280D02*
X19420D01*
X20170D02*
X20320D01*
X15980Y12330D02*
X16120D01*
X16870D02*
X17020D01*
X17630D02*
X17780D01*
X17930D02*
X18080D01*
X18380D02*
X18530D01*
X18680D02*
X19130D01*
X19280D02*
X19420D01*
X20170D02*
X20320D01*
X15980Y12320D02*
X16120D01*
X16870D02*
X17020D01*
X17630D02*
X17780D01*
X17930D02*
X18080D01*
X18380D02*
X18530D01*
X18680D02*
X19130D01*
X19280D02*
X19420D01*
X20170D02*
X20320D01*
X15980Y12310D02*
X16120D01*
X16870D02*
X17020D01*
X17630D02*
X17780D01*
X17930D02*
X18080D01*
X18380D02*
X18530D01*
X18680D02*
X19130D01*
X19280D02*
X19420D01*
X20170D02*
X20320D01*
X15980Y12300D02*
X16120D01*
X16870D02*
X17020D01*
X17630D02*
X17780D01*
X17930D02*
X18080D01*
X18380D02*
X18530D01*
X18680D02*
X19130D01*
X19280D02*
X19420D01*
X20170D02*
X20320D01*
X15980Y12290D02*
X16120D01*
X16870D02*
X17020D01*
X17630D02*
X17780D01*
X17930D02*
X18080D01*
X18380D02*
X18530D01*
X18680D02*
X19130D01*
X19280D02*
X19420D01*
X20170D02*
X20320D01*
X15980Y12280D02*
X16120D01*
X16870D02*
X17020D01*
X17630D02*
X17780D01*
X17930D02*
X18080D01*
X18380D02*
X18530D01*
X18680D02*
X19130D01*
X19280D02*
X19420D01*
X20170D02*
X20320D01*
X15980Y12270D02*
X16120D01*
X16870D02*
X17020D01*
X17630D02*
X17780D01*
X17930D02*
X18080D01*
X18380D02*
X18530D01*
X18680D02*
X19130D01*
X19280D02*
X19420D01*
X20170D02*
X20320D01*
X15980Y12260D02*
X16120D01*
X16870D02*
X17020D01*
X17630D02*
X17780D01*
X17930D02*
X18080D01*
X18380D02*
X18530D01*
X18680D02*
X19130D01*
X19280D02*
X19420D01*
X20170D02*
X20320D01*
X15980Y12250D02*
X16120D01*
X16870D02*
X17020D01*
X17630D02*
X17780D01*
X17930D02*
X18080D01*
X18380D02*
X18530D01*
X18680D02*
X19130D01*
X19280D02*
X19420D01*
X20170D02*
X20320D01*
X15980Y12240D02*
X16120D01*
X16870D02*
X17020D01*
X17630D02*
X17780D01*
X17930D02*
X18080D01*
X18380D02*
X18530D01*
X18680D02*
X19130D01*
X19280D02*
X19420D01*
X20170D02*
X20320D01*
X15980Y12230D02*
X16120D01*
X16870D02*
X17020D01*
X17630D02*
X17780D01*
X17930D02*
X18080D01*
X18380D02*
X18530D01*
X18680D02*
X19130D01*
X19280D02*
X19420D01*
X20170D02*
X20320D01*
X15980Y12220D02*
X16120D01*
X16870D02*
X17020D01*
X17630D02*
X17780D01*
X17930D02*
X18080D01*
X18380D02*
X18530D01*
X18680D02*
X19130D01*
X19280D02*
X19420D01*
X20170D02*
X20320D01*
X15980Y12210D02*
X16120D01*
X16870D02*
X17020D01*
X17630D02*
X17780D01*
X17930D02*
X18080D01*
X18380D02*
X18530D01*
X18680D02*
X19130D01*
X19280D02*
X19420D01*
X20170D02*
X20320D01*
X15980Y12200D02*
X16120D01*
X16280D02*
X16720D01*
X16870D02*
X17020D01*
X17330D02*
X17780D01*
X18830D02*
X18980D01*
X19280D02*
X19420D01*
X19580D02*
X20020D01*
X20170D02*
X20320D01*
X15980Y12190D02*
X16120D01*
X16280D02*
X16720D01*
X16870D02*
X17020D01*
X17330D02*
X17780D01*
X18830D02*
X18980D01*
X19280D02*
X19420D01*
X19580D02*
X20020D01*
X20170D02*
X20320D01*
X15980Y12180D02*
X16120D01*
X16280D02*
X16720D01*
X16870D02*
X17020D01*
X17330D02*
X17780D01*
X18830D02*
X18980D01*
X19280D02*
X19420D01*
X19580D02*
X20020D01*
X20170D02*
X20320D01*
X15980Y12170D02*
X16120D01*
X16280D02*
X16720D01*
X16870D02*
X17020D01*
X17330D02*
X17780D01*
X18830D02*
X18980D01*
X19280D02*
X19420D01*
X19580D02*
X20020D01*
X20170D02*
X20320D01*
X15980Y12160D02*
X16120D01*
X16280D02*
X16720D01*
X16870D02*
X17020D01*
X17330D02*
X17780D01*
X18830D02*
X18980D01*
X19280D02*
X19420D01*
X19580D02*
X20020D01*
X20170D02*
X20320D01*
X15980Y12150D02*
X16120D01*
X16280D02*
X16720D01*
X16870D02*
X17020D01*
X17330D02*
X17780D01*
X18830D02*
X18980D01*
X19280D02*
X19420D01*
X19580D02*
X20020D01*
X20170D02*
X20320D01*
X15980Y12140D02*
X16120D01*
X16280D02*
X16720D01*
X16870D02*
X17020D01*
X17330D02*
X17780D01*
X18830D02*
X18980D01*
X19280D02*
X19420D01*
X19580D02*
X20020D01*
X20170D02*
X20320D01*
X15980Y12130D02*
X16120D01*
X16280D02*
X16720D01*
X16870D02*
X17020D01*
X17330D02*
X17780D01*
X18830D02*
X18980D01*
X19280D02*
X19420D01*
X19580D02*
X20020D01*
X20170D02*
X20320D01*
X15980Y12120D02*
X16120D01*
X16280D02*
X16720D01*
X16870D02*
X17020D01*
X17330D02*
X17780D01*
X18830D02*
X18980D01*
X19280D02*
X19420D01*
X19580D02*
X20020D01*
X20170D02*
X20320D01*
X15980Y12110D02*
X16120D01*
X16280D02*
X16720D01*
X16870D02*
X17020D01*
X17330D02*
X17780D01*
X18830D02*
X18980D01*
X19280D02*
X19420D01*
X19580D02*
X20020D01*
X20170D02*
X20320D01*
X15980Y12100D02*
X16120D01*
X16280D02*
X16720D01*
X16870D02*
X17020D01*
X17330D02*
X17780D01*
X18830D02*
X18980D01*
X19280D02*
X19420D01*
X19580D02*
X20020D01*
X20170D02*
X20320D01*
X15980Y12090D02*
X16120D01*
X16280D02*
X16720D01*
X16870D02*
X17020D01*
X17330D02*
X17780D01*
X18830D02*
X18980D01*
X19280D02*
X19420D01*
X19580D02*
X20020D01*
X20170D02*
X20320D01*
X15980Y12080D02*
X16120D01*
X16280D02*
X16720D01*
X16870D02*
X17020D01*
X17330D02*
X17780D01*
X18830D02*
X18980D01*
X19280D02*
X19420D01*
X19580D02*
X20020D01*
X20170D02*
X20320D01*
X15980Y12070D02*
X16120D01*
X16280D02*
X16720D01*
X16870D02*
X17020D01*
X17330D02*
X17780D01*
X18830D02*
X18980D01*
X19280D02*
X19420D01*
X19580D02*
X20020D01*
X20170D02*
X20320D01*
X15980Y12060D02*
X16120D01*
X16280D02*
X16720D01*
X16870D02*
X17020D01*
X17330D02*
X17780D01*
X18830D02*
X18980D01*
X19280D02*
X19420D01*
X19580D02*
X20020D01*
X20170D02*
X20320D01*
X15980Y12050D02*
X16120D01*
X16280D02*
X16720D01*
X16870D02*
X17020D01*
X17180D02*
X17330D01*
X17480D02*
X17630D01*
X18230D02*
X18530D01*
X18980D02*
X19130D01*
X19280D02*
X19420D01*
X19580D02*
X20020D01*
X20170D02*
X20320D01*
X15980Y12040D02*
X16120D01*
X16280D02*
X16720D01*
X16870D02*
X17020D01*
X17180D02*
X17330D01*
X17480D02*
X17630D01*
X18230D02*
X18530D01*
X18980D02*
X19130D01*
X19280D02*
X19420D01*
X19580D02*
X20020D01*
X20170D02*
X20320D01*
X15980Y12030D02*
X16120D01*
X16280D02*
X16720D01*
X16870D02*
X17020D01*
X17180D02*
X17330D01*
X17480D02*
X17630D01*
X18230D02*
X18530D01*
X18980D02*
X19130D01*
X19280D02*
X19420D01*
X19580D02*
X20020D01*
X20170D02*
X20320D01*
X15980Y12020D02*
X16120D01*
X16280D02*
X16720D01*
X16870D02*
X17020D01*
X17180D02*
X17330D01*
X17480D02*
X17630D01*
X18230D02*
X18530D01*
X18980D02*
X19130D01*
X19280D02*
X19420D01*
X19580D02*
X20020D01*
X20170D02*
X20320D01*
X15980Y12010D02*
X16120D01*
X16280D02*
X16720D01*
X16870D02*
X17020D01*
X17180D02*
X17330D01*
X17480D02*
X17630D01*
X18230D02*
X18530D01*
X18980D02*
X19130D01*
X19280D02*
X19420D01*
X19580D02*
X20020D01*
X20170D02*
X20320D01*
X15980Y12000D02*
X16120D01*
X16280D02*
X16720D01*
X16870D02*
X17020D01*
X17180D02*
X17330D01*
X17480D02*
X17630D01*
X18230D02*
X18530D01*
X18980D02*
X19130D01*
X19280D02*
X19420D01*
X19580D02*
X20020D01*
X20170D02*
X20320D01*
X15980Y11990D02*
X16120D01*
X16280D02*
X16720D01*
X16870D02*
X17020D01*
X17180D02*
X17330D01*
X17480D02*
X17630D01*
X18230D02*
X18530D01*
X18980D02*
X19130D01*
X19280D02*
X19420D01*
X19580D02*
X20020D01*
X20170D02*
X20320D01*
X15980Y11980D02*
X16120D01*
X16280D02*
X16720D01*
X16870D02*
X17020D01*
X17180D02*
X17330D01*
X17480D02*
X17630D01*
X18230D02*
X18530D01*
X18980D02*
X19130D01*
X19280D02*
X19420D01*
X19580D02*
X20020D01*
X20170D02*
X20320D01*
X15980Y11970D02*
X16120D01*
X16280D02*
X16720D01*
X16870D02*
X17020D01*
X17180D02*
X17330D01*
X17480D02*
X17630D01*
X18230D02*
X18530D01*
X18980D02*
X19130D01*
X19280D02*
X19420D01*
X19580D02*
X20020D01*
X20170D02*
X20320D01*
X15980Y11960D02*
X16120D01*
X16280D02*
X16720D01*
X16870D02*
X17020D01*
X17180D02*
X17330D01*
X17480D02*
X17630D01*
X18230D02*
X18530D01*
X18980D02*
X19130D01*
X19280D02*
X19420D01*
X19580D02*
X20020D01*
X20170D02*
X20320D01*
X15980Y11950D02*
X16120D01*
X16280D02*
X16720D01*
X16870D02*
X17020D01*
X17180D02*
X17330D01*
X17480D02*
X17630D01*
X18230D02*
X18530D01*
X18980D02*
X19130D01*
X19280D02*
X19420D01*
X19580D02*
X20020D01*
X20170D02*
X20320D01*
X15980Y11940D02*
X16120D01*
X16280D02*
X16720D01*
X16870D02*
X17020D01*
X17180D02*
X17330D01*
X17480D02*
X17630D01*
X18230D02*
X18530D01*
X18980D02*
X19130D01*
X19280D02*
X19420D01*
X19580D02*
X20020D01*
X20170D02*
X20320D01*
X15980Y11930D02*
X16120D01*
X16280D02*
X16720D01*
X16870D02*
X17020D01*
X17180D02*
X17330D01*
X17480D02*
X17630D01*
X18230D02*
X18530D01*
X18980D02*
X19130D01*
X19280D02*
X19420D01*
X19580D02*
X20020D01*
X20170D02*
X20320D01*
X15980Y11920D02*
X16120D01*
X16280D02*
X16720D01*
X16870D02*
X17020D01*
X17180D02*
X17330D01*
X17480D02*
X17630D01*
X18230D02*
X18530D01*
X18980D02*
X19130D01*
X19280D02*
X19420D01*
X19580D02*
X20020D01*
X20170D02*
X20320D01*
X15980Y11910D02*
X16120D01*
X16280D02*
X16720D01*
X16870D02*
X17020D01*
X17180D02*
X17330D01*
X17480D02*
X17630D01*
X18230D02*
X18530D01*
X18980D02*
X19130D01*
X19280D02*
X19420D01*
X19580D02*
X20020D01*
X20170D02*
X20320D01*
X15980Y11900D02*
X16120D01*
X16280D02*
X16720D01*
X16870D02*
X17020D01*
X17480D02*
X18080D01*
X18680D02*
X18980D01*
X19280D02*
X19420D01*
X19580D02*
X20020D01*
X20170D02*
X20320D01*
X15980Y11890D02*
X16120D01*
X16280D02*
X16720D01*
X16870D02*
X17020D01*
X17480D02*
X18080D01*
X18680D02*
X18980D01*
X19280D02*
X19420D01*
X19580D02*
X20020D01*
X20170D02*
X20320D01*
X15980Y11880D02*
X16120D01*
X16280D02*
X16720D01*
X16870D02*
X17020D01*
X17480D02*
X18080D01*
X18680D02*
X18980D01*
X19280D02*
X19420D01*
X19580D02*
X20020D01*
X20170D02*
X20320D01*
X15980Y11870D02*
X16120D01*
X16280D02*
X16720D01*
X16870D02*
X17020D01*
X17480D02*
X18080D01*
X18680D02*
X18980D01*
X19280D02*
X19420D01*
X19580D02*
X20020D01*
X20170D02*
X20320D01*
X15980Y11860D02*
X16120D01*
X16280D02*
X16720D01*
X16870D02*
X17020D01*
X17480D02*
X18080D01*
X18680D02*
X18980D01*
X19280D02*
X19420D01*
X19580D02*
X20020D01*
X20170D02*
X20320D01*
X15980Y11850D02*
X16120D01*
X16280D02*
X16720D01*
X16870D02*
X17020D01*
X17480D02*
X18080D01*
X18680D02*
X18980D01*
X19280D02*
X19420D01*
X19580D02*
X20020D01*
X20170D02*
X20320D01*
X15980Y11840D02*
X16120D01*
X16280D02*
X16720D01*
X16870D02*
X17020D01*
X17480D02*
X18080D01*
X18680D02*
X18980D01*
X19280D02*
X19420D01*
X19580D02*
X20020D01*
X20170D02*
X20320D01*
X15980Y11830D02*
X16120D01*
X16280D02*
X16720D01*
X16870D02*
X17020D01*
X17480D02*
X18080D01*
X18680D02*
X18980D01*
X19280D02*
X19420D01*
X19580D02*
X20020D01*
X20170D02*
X20320D01*
X15980Y11820D02*
X16120D01*
X16280D02*
X16720D01*
X16870D02*
X17020D01*
X17480D02*
X18080D01*
X18680D02*
X18980D01*
X19280D02*
X19420D01*
X19580D02*
X20020D01*
X20170D02*
X20320D01*
X15980Y11810D02*
X16120D01*
X16280D02*
X16720D01*
X16870D02*
X17020D01*
X17480D02*
X18080D01*
X18680D02*
X18980D01*
X19280D02*
X19420D01*
X19580D02*
X20020D01*
X20170D02*
X20320D01*
X15980Y11800D02*
X16120D01*
X16280D02*
X16720D01*
X16870D02*
X17020D01*
X17480D02*
X18080D01*
X18680D02*
X18980D01*
X19280D02*
X19420D01*
X19580D02*
X20020D01*
X20170D02*
X20320D01*
X15980Y11790D02*
X16120D01*
X16280D02*
X16720D01*
X16870D02*
X17020D01*
X17480D02*
X18080D01*
X18680D02*
X18980D01*
X19280D02*
X19420D01*
X19580D02*
X20020D01*
X20170D02*
X20320D01*
X15980Y11780D02*
X16120D01*
X16280D02*
X16720D01*
X16870D02*
X17020D01*
X17480D02*
X18080D01*
X18680D02*
X18980D01*
X19280D02*
X19420D01*
X19580D02*
X20020D01*
X20170D02*
X20320D01*
X15980Y11770D02*
X16120D01*
X16280D02*
X16720D01*
X16870D02*
X17020D01*
X17480D02*
X18080D01*
X18680D02*
X18980D01*
X19280D02*
X19420D01*
X19580D02*
X20020D01*
X20170D02*
X20320D01*
X15980Y11760D02*
X16120D01*
X16870D02*
X17020D01*
X17480D02*
X18080D01*
X18680D02*
X18980D01*
X19280D02*
X19420D01*
X20170D02*
X20320D01*
X15980Y11750D02*
X16120D01*
X16870D02*
X17020D01*
X17330D02*
X17780D01*
X17930D02*
X18080D01*
X18230D02*
X18530D01*
X18680D02*
X19130D01*
X19280D02*
X19420D01*
X20170D02*
X20320D01*
X15980Y11740D02*
X16120D01*
X16870D02*
X17020D01*
X17330D02*
X17780D01*
X17930D02*
X18080D01*
X18230D02*
X18530D01*
X18680D02*
X19130D01*
X19280D02*
X19420D01*
X20170D02*
X20320D01*
X15980Y11730D02*
X16120D01*
X16870D02*
X17020D01*
X17330D02*
X17780D01*
X17930D02*
X18080D01*
X18230D02*
X18530D01*
X18680D02*
X19130D01*
X19280D02*
X19420D01*
X20170D02*
X20320D01*
X15980Y11720D02*
X16120D01*
X16870D02*
X17020D01*
X17330D02*
X17780D01*
X17930D02*
X18080D01*
X18230D02*
X18530D01*
X18680D02*
X19130D01*
X19280D02*
X19420D01*
X20170D02*
X20320D01*
X15980Y11710D02*
X16120D01*
X16870D02*
X17020D01*
X17330D02*
X17780D01*
X17930D02*
X18080D01*
X18230D02*
X18530D01*
X18680D02*
X19130D01*
X19280D02*
X19420D01*
X20170D02*
X20320D01*
X15980Y11700D02*
X16120D01*
X16870D02*
X17020D01*
X17330D02*
X17780D01*
X17930D02*
X18080D01*
X18230D02*
X18530D01*
X18680D02*
X19130D01*
X19280D02*
X19420D01*
X20170D02*
X20320D01*
X15980Y11690D02*
X16120D01*
X16870D02*
X17020D01*
X17330D02*
X17780D01*
X17930D02*
X18080D01*
X18230D02*
X18530D01*
X18680D02*
X19130D01*
X19280D02*
X19420D01*
X20170D02*
X20320D01*
X15980Y11680D02*
X16120D01*
X16870D02*
X17020D01*
X17330D02*
X17780D01*
X17930D02*
X18080D01*
X18230D02*
X18530D01*
X18680D02*
X19130D01*
X19280D02*
X19420D01*
X20170D02*
X20320D01*
X15980Y11670D02*
X16120D01*
X16870D02*
X17020D01*
X17330D02*
X17780D01*
X17930D02*
X18080D01*
X18230D02*
X18530D01*
X18680D02*
X19130D01*
X19280D02*
X19420D01*
X20170D02*
X20320D01*
X15980Y11660D02*
X16120D01*
X16870D02*
X17020D01*
X17330D02*
X17780D01*
X17930D02*
X18080D01*
X18230D02*
X18530D01*
X18680D02*
X19130D01*
X19280D02*
X19420D01*
X20170D02*
X20320D01*
X15980Y11650D02*
X16120D01*
X16870D02*
X17020D01*
X17330D02*
X17780D01*
X17930D02*
X18080D01*
X18230D02*
X18530D01*
X18680D02*
X19130D01*
X19280D02*
X19420D01*
X20170D02*
X20320D01*
X15980Y11640D02*
X16120D01*
X16870D02*
X17020D01*
X17330D02*
X17780D01*
X17930D02*
X18080D01*
X18230D02*
X18530D01*
X18680D02*
X19130D01*
X19280D02*
X19420D01*
X20170D02*
X20320D01*
X15980Y11630D02*
X16120D01*
X16870D02*
X17020D01*
X17330D02*
X17780D01*
X17930D02*
X18080D01*
X18230D02*
X18530D01*
X18680D02*
X19130D01*
X19280D02*
X19420D01*
X20170D02*
X20320D01*
X15980Y11620D02*
X16120D01*
X16870D02*
X17020D01*
X17330D02*
X17780D01*
X17930D02*
X18080D01*
X18230D02*
X18530D01*
X18680D02*
X19130D01*
X19280D02*
X19420D01*
X20170D02*
X20320D01*
X15980Y11610D02*
X17020D01*
X17330D02*
X17780D01*
X17930D02*
X18080D01*
X18230D02*
X18530D01*
X18680D02*
X19130D01*
X19280D02*
X20320D01*
X15980Y11600D02*
X17020D01*
X17180D02*
X17330D01*
X17480D02*
X17630D01*
X17780D02*
X17930D01*
X18080D02*
X18230D01*
X18380D02*
X18530D01*
X18680D02*
X18830D01*
X18980D02*
X19130D01*
X19280D02*
X20320D01*
X15980Y11590D02*
X17020D01*
X17180D02*
X17330D01*
X17480D02*
X17630D01*
X17780D02*
X17930D01*
X18080D02*
X18230D01*
X18380D02*
X18530D01*
X18680D02*
X18830D01*
X18980D02*
X19130D01*
X19280D02*
X20320D01*
X15980Y11580D02*
X17020D01*
X17180D02*
X17330D01*
X17480D02*
X17630D01*
X17780D02*
X17930D01*
X18080D02*
X18230D01*
X18380D02*
X18530D01*
X18680D02*
X18830D01*
X18980D02*
X19130D01*
X19280D02*
X20320D01*
X15980Y11570D02*
X17020D01*
X17180D02*
X17330D01*
X17480D02*
X17630D01*
X17780D02*
X17930D01*
X18080D02*
X18230D01*
X18380D02*
X18530D01*
X18680D02*
X18830D01*
X18980D02*
X19130D01*
X19280D02*
X20320D01*
X15980Y11560D02*
X17020D01*
X17180D02*
X17330D01*
X17480D02*
X17630D01*
X17780D02*
X17930D01*
X18080D02*
X18230D01*
X18380D02*
X18530D01*
X18680D02*
X18830D01*
X18980D02*
X19130D01*
X19280D02*
X20320D01*
X15980Y11550D02*
X17020D01*
X17180D02*
X17330D01*
X17480D02*
X17630D01*
X17780D02*
X17930D01*
X18080D02*
X18230D01*
X18380D02*
X18530D01*
X18680D02*
X18830D01*
X18980D02*
X19130D01*
X19280D02*
X20320D01*
X15980Y11540D02*
X17020D01*
X17180D02*
X17330D01*
X17480D02*
X17630D01*
X17780D02*
X17930D01*
X18080D02*
X18230D01*
X18380D02*
X18530D01*
X18680D02*
X18830D01*
X18980D02*
X19130D01*
X19280D02*
X20320D01*
X15980Y11530D02*
X17020D01*
X17180D02*
X17330D01*
X17480D02*
X17630D01*
X17780D02*
X17930D01*
X18080D02*
X18230D01*
X18380D02*
X18530D01*
X18680D02*
X18830D01*
X18980D02*
X19130D01*
X19280D02*
X20320D01*
X15980Y11520D02*
X17020D01*
X17180D02*
X17330D01*
X17480D02*
X17630D01*
X17780D02*
X17930D01*
X18080D02*
X18230D01*
X18380D02*
X18530D01*
X18680D02*
X18830D01*
X18980D02*
X19130D01*
X19280D02*
X20320D01*
X15980Y11510D02*
X17020D01*
X17180D02*
X17330D01*
X17480D02*
X17630D01*
X17780D02*
X17930D01*
X18080D02*
X18230D01*
X18380D02*
X18530D01*
X18680D02*
X18830D01*
X18980D02*
X19130D01*
X19280D02*
X20320D01*
X15980Y11500D02*
X17020D01*
X17180D02*
X17330D01*
X17480D02*
X17630D01*
X17780D02*
X17930D01*
X18080D02*
X18230D01*
X18380D02*
X18530D01*
X18680D02*
X18830D01*
X18980D02*
X19130D01*
X19280D02*
X20320D01*
X15980Y11490D02*
X17020D01*
X17180D02*
X17330D01*
X17480D02*
X17630D01*
X17780D02*
X17930D01*
X18080D02*
X18230D01*
X18380D02*
X18530D01*
X18680D02*
X18830D01*
X18980D02*
X19130D01*
X19280D02*
X20320D01*
X15980Y11480D02*
X17020D01*
X17180D02*
X17330D01*
X17480D02*
X17630D01*
X17780D02*
X17930D01*
X18080D02*
X18230D01*
X18380D02*
X18530D01*
X18680D02*
X18830D01*
X18980D02*
X19130D01*
X19280D02*
X20320D01*
X15980Y11470D02*
X17020D01*
X17180D02*
X17330D01*
X17480D02*
X17630D01*
X17780D02*
X17930D01*
X18080D02*
X18230D01*
X18380D02*
X18530D01*
X18680D02*
X18830D01*
X18980D02*
X19130D01*
X19280D02*
X20320D01*
X15980Y11460D02*
X17020D01*
X17180D02*
X17330D01*
X17480D02*
X17630D01*
X17780D02*
X17930D01*
X18080D02*
X18230D01*
X18380D02*
X18530D01*
X18680D02*
X18830D01*
X18980D02*
X19130D01*
X19280D02*
X20320D01*
X17630Y11450D02*
X17780D01*
X18230D02*
X18830D01*
X18980D02*
X19130D01*
X17630Y11440D02*
X17780D01*
X18230D02*
X18830D01*
X18980D02*
X19130D01*
X17630Y11430D02*
X17780D01*
X18230D02*
X18830D01*
X18980D02*
X19130D01*
X17630Y11420D02*
X17780D01*
X18230D02*
X18830D01*
X18980D02*
X19130D01*
X17630Y11410D02*
X17780D01*
X18230D02*
X18830D01*
X18980D02*
X19130D01*
X17630Y11400D02*
X17780D01*
X18230D02*
X18830D01*
X18980D02*
X19130D01*
X17630Y11390D02*
X17780D01*
X18230D02*
X18830D01*
X18980D02*
X19130D01*
X17630Y11380D02*
X17780D01*
X18230D02*
X18830D01*
X18980D02*
X19130D01*
X17630Y11370D02*
X17780D01*
X18230D02*
X18830D01*
X18980D02*
X19130D01*
X17630Y11360D02*
X17780D01*
X18230D02*
X18830D01*
X18980D02*
X19130D01*
X17630Y11350D02*
X17780D01*
X18230D02*
X18830D01*
X18980D02*
X19130D01*
X17630Y11340D02*
X17780D01*
X18230D02*
X18830D01*
X18980D02*
X19130D01*
X17630Y11330D02*
X17780D01*
X18230D02*
X18830D01*
X18980D02*
X19130D01*
X17630Y11320D02*
X17780D01*
X18230D02*
X18830D01*
X18980D02*
X19130D01*
X17630Y11310D02*
X17780D01*
X18230D02*
X18830D01*
X18980D02*
X19130D01*
X16280Y11300D02*
X16430D01*
X16580D02*
X17030D01*
X17180D02*
X17330D01*
X17480D02*
X18080D01*
X18230D02*
X18530D01*
X18680D02*
X18830D01*
X18980D02*
X19280D01*
X19730D02*
X19880D01*
X20180D02*
X20330D01*
X16280Y11290D02*
X16430D01*
X16580D02*
X17030D01*
X17180D02*
X17330D01*
X17480D02*
X18080D01*
X18230D02*
X18530D01*
X18680D02*
X18830D01*
X18980D02*
X19280D01*
X19730D02*
X19880D01*
X20180D02*
X20330D01*
X16280Y11280D02*
X16430D01*
X16580D02*
X17030D01*
X17180D02*
X17330D01*
X17480D02*
X18080D01*
X18230D02*
X18530D01*
X18680D02*
X18830D01*
X18980D02*
X19280D01*
X19730D02*
X19880D01*
X20180D02*
X20330D01*
X16280Y11270D02*
X16430D01*
X16580D02*
X17030D01*
X17180D02*
X17330D01*
X17480D02*
X18080D01*
X18230D02*
X18530D01*
X18680D02*
X18830D01*
X18980D02*
X19280D01*
X19730D02*
X19880D01*
X20180D02*
X20330D01*
X16280Y11260D02*
X16430D01*
X16580D02*
X17030D01*
X17180D02*
X17330D01*
X17480D02*
X18080D01*
X18230D02*
X18530D01*
X18680D02*
X18830D01*
X18980D02*
X19280D01*
X19730D02*
X19880D01*
X20180D02*
X20330D01*
X16280Y11250D02*
X16430D01*
X16580D02*
X17030D01*
X17180D02*
X17330D01*
X17480D02*
X18080D01*
X18230D02*
X18530D01*
X18680D02*
X18830D01*
X18980D02*
X19280D01*
X19730D02*
X19880D01*
X20180D02*
X20330D01*
X16280Y11240D02*
X16430D01*
X16580D02*
X17030D01*
X17180D02*
X17330D01*
X17480D02*
X18080D01*
X18230D02*
X18530D01*
X18680D02*
X18830D01*
X18980D02*
X19280D01*
X19730D02*
X19880D01*
X20180D02*
X20330D01*
X16280Y11230D02*
X16430D01*
X16580D02*
X17030D01*
X17180D02*
X17330D01*
X17480D02*
X18080D01*
X18230D02*
X18530D01*
X18680D02*
X18830D01*
X18980D02*
X19280D01*
X19730D02*
X19880D01*
X20180D02*
X20330D01*
X16280Y11220D02*
X16430D01*
X16580D02*
X17030D01*
X17180D02*
X17330D01*
X17480D02*
X18080D01*
X18230D02*
X18530D01*
X18680D02*
X18830D01*
X18980D02*
X19280D01*
X19730D02*
X19880D01*
X20180D02*
X20330D01*
X16280Y11210D02*
X16430D01*
X16580D02*
X17030D01*
X17180D02*
X17330D01*
X17480D02*
X18080D01*
X18230D02*
X18530D01*
X18680D02*
X18830D01*
X18980D02*
X19280D01*
X19730D02*
X19880D01*
X20180D02*
X20330D01*
X16280Y11200D02*
X16430D01*
X16580D02*
X17030D01*
X17180D02*
X17330D01*
X17480D02*
X18080D01*
X18230D02*
X18530D01*
X18680D02*
X18830D01*
X18980D02*
X19280D01*
X19730D02*
X19880D01*
X20180D02*
X20330D01*
X16280Y11190D02*
X16430D01*
X16580D02*
X17030D01*
X17180D02*
X17330D01*
X17480D02*
X18080D01*
X18230D02*
X18530D01*
X18680D02*
X18830D01*
X18980D02*
X19280D01*
X19730D02*
X19880D01*
X20180D02*
X20330D01*
X16280Y11180D02*
X16430D01*
X16580D02*
X17030D01*
X17180D02*
X17330D01*
X17480D02*
X18080D01*
X18230D02*
X18530D01*
X18680D02*
X18830D01*
X18980D02*
X19280D01*
X19730D02*
X19880D01*
X20180D02*
X20330D01*
X16280Y11170D02*
X16430D01*
X16580D02*
X17030D01*
X17180D02*
X17330D01*
X17480D02*
X18080D01*
X18230D02*
X18530D01*
X18680D02*
X18830D01*
X18980D02*
X19280D01*
X19730D02*
X19880D01*
X20180D02*
X20330D01*
X16280Y11160D02*
X16430D01*
X16580D02*
X17030D01*
X17180D02*
X17330D01*
X17480D02*
X18080D01*
X18230D02*
X18530D01*
X18680D02*
X18830D01*
X18980D02*
X19280D01*
X19730D02*
X19880D01*
X20180D02*
X20330D01*
X15980Y11150D02*
X16430D01*
X16730D02*
X16880D01*
X17030D02*
X17630D01*
X18230D02*
X18380D01*
X18530D02*
X18680D01*
X18980D02*
X19430D01*
X19730D02*
X20030D01*
X20180D02*
X20330D01*
X15980Y11140D02*
X16430D01*
X16730D02*
X16880D01*
X17030D02*
X17630D01*
X18230D02*
X18380D01*
X18530D02*
X18680D01*
X18980D02*
X19430D01*
X19730D02*
X20030D01*
X20180D02*
X20330D01*
X15980Y11130D02*
X16430D01*
X16730D02*
X16880D01*
X17030D02*
X17630D01*
X18230D02*
X18380D01*
X18530D02*
X18680D01*
X18980D02*
X19430D01*
X19730D02*
X20030D01*
X20180D02*
X20330D01*
X15980Y11120D02*
X16430D01*
X16730D02*
X16880D01*
X17030D02*
X17630D01*
X18230D02*
X18380D01*
X18530D02*
X18680D01*
X18980D02*
X19430D01*
X19730D02*
X20030D01*
X20180D02*
X20330D01*
X15980Y11110D02*
X16430D01*
X16730D02*
X16880D01*
X17030D02*
X17630D01*
X18230D02*
X18380D01*
X18530D02*
X18680D01*
X18980D02*
X19430D01*
X19730D02*
X20030D01*
X20180D02*
X20330D01*
X15980Y11100D02*
X16430D01*
X16730D02*
X16880D01*
X17030D02*
X17630D01*
X18230D02*
X18380D01*
X18530D02*
X18680D01*
X18980D02*
X19430D01*
X19730D02*
X20030D01*
X20180D02*
X20330D01*
X15980Y11090D02*
X16430D01*
X16730D02*
X16880D01*
X17030D02*
X17630D01*
X18230D02*
X18380D01*
X18530D02*
X18680D01*
X18980D02*
X19430D01*
X19730D02*
X20030D01*
X20180D02*
X20330D01*
X15980Y11080D02*
X16430D01*
X16730D02*
X16880D01*
X17030D02*
X17630D01*
X18230D02*
X18380D01*
X18530D02*
X18680D01*
X18980D02*
X19430D01*
X19730D02*
X20030D01*
X20180D02*
X20330D01*
X15980Y11070D02*
X16430D01*
X16730D02*
X16880D01*
X17030D02*
X17630D01*
X18230D02*
X18380D01*
X18530D02*
X18680D01*
X18980D02*
X19430D01*
X19730D02*
X20030D01*
X20180D02*
X20330D01*
X15980Y11060D02*
X16430D01*
X16730D02*
X16880D01*
X17030D02*
X17630D01*
X18230D02*
X18380D01*
X18530D02*
X18680D01*
X18980D02*
X19430D01*
X19730D02*
X20030D01*
X20180D02*
X20330D01*
X15980Y11050D02*
X16430D01*
X16730D02*
X16880D01*
X17030D02*
X17630D01*
X18230D02*
X18380D01*
X18530D02*
X18680D01*
X18980D02*
X19430D01*
X19730D02*
X20030D01*
X20180D02*
X20330D01*
X15980Y11040D02*
X16430D01*
X16730D02*
X16880D01*
X17030D02*
X17630D01*
X18230D02*
X18380D01*
X18530D02*
X18680D01*
X18980D02*
X19430D01*
X19730D02*
X20030D01*
X20180D02*
X20330D01*
X15980Y11030D02*
X16430D01*
X16730D02*
X16880D01*
X17030D02*
X17630D01*
X18230D02*
X18380D01*
X18530D02*
X18680D01*
X18980D02*
X19430D01*
X19730D02*
X20030D01*
X20180D02*
X20330D01*
X15980Y11020D02*
X16430D01*
X16730D02*
X16880D01*
X17030D02*
X17630D01*
X18230D02*
X18380D01*
X18530D02*
X18680D01*
X18980D02*
X19430D01*
X19730D02*
X20030D01*
X20180D02*
X20330D01*
X15980Y11010D02*
X16430D01*
X16730D02*
X16880D01*
X17030D02*
X17630D01*
X18230D02*
X18380D01*
X18530D02*
X18680D01*
X18980D02*
X19430D01*
X19730D02*
X20030D01*
X20180D02*
X20330D01*
X16130Y11000D02*
X16280D01*
X16880D02*
X17180D01*
X17630D02*
X17780D01*
X18080D02*
X18530D01*
X18980D02*
X19130D01*
X19880D02*
X20330D01*
X16130Y10990D02*
X16280D01*
X16880D02*
X17180D01*
X17630D02*
X17780D01*
X18080D02*
X18530D01*
X18980D02*
X19130D01*
X19880D02*
X20330D01*
X16130Y10980D02*
X16280D01*
X16880D02*
X17180D01*
X17630D02*
X17780D01*
X18080D02*
X18530D01*
X18980D02*
X19130D01*
X19880D02*
X20330D01*
X16130Y10970D02*
X16280D01*
X16880D02*
X17180D01*
X17630D02*
X17780D01*
X18080D02*
X18530D01*
X18980D02*
X19130D01*
X19880D02*
X20330D01*
X16130Y10960D02*
X16280D01*
X16880D02*
X17180D01*
X17630D02*
X17780D01*
X18080D02*
X18530D01*
X18980D02*
X19130D01*
X19880D02*
X20330D01*
X16130Y10950D02*
X16280D01*
X16880D02*
X17180D01*
X17630D02*
X17780D01*
X18080D02*
X18530D01*
X18980D02*
X19130D01*
X19880D02*
X20330D01*
X16130Y10940D02*
X16280D01*
X16880D02*
X17180D01*
X17630D02*
X17780D01*
X18080D02*
X18530D01*
X18980D02*
X19130D01*
X19880D02*
X20330D01*
X16130Y10930D02*
X16280D01*
X16880D02*
X17180D01*
X17630D02*
X17780D01*
X18080D02*
X18530D01*
X18980D02*
X19130D01*
X19880D02*
X20330D01*
X16130Y10920D02*
X16280D01*
X16880D02*
X17180D01*
X17630D02*
X17780D01*
X18080D02*
X18530D01*
X18980D02*
X19130D01*
X19880D02*
X20330D01*
X16130Y10910D02*
X16280D01*
X16880D02*
X17180D01*
X17630D02*
X17780D01*
X18080D02*
X18530D01*
X18980D02*
X19130D01*
X19880D02*
X20330D01*
X16130Y10900D02*
X16280D01*
X16880D02*
X17180D01*
X17630D02*
X17780D01*
X18080D02*
X18530D01*
X18980D02*
X19130D01*
X19880D02*
X20330D01*
X16130Y10890D02*
X16280D01*
X16880D02*
X17180D01*
X17630D02*
X17780D01*
X18080D02*
X18530D01*
X18980D02*
X19130D01*
X19880D02*
X20330D01*
X16130Y10880D02*
X16280D01*
X16880D02*
X17180D01*
X17630D02*
X17780D01*
X18080D02*
X18530D01*
X18980D02*
X19130D01*
X19880D02*
X20330D01*
X16130Y10870D02*
X16280D01*
X16880D02*
X17180D01*
X17630D02*
X17780D01*
X18080D02*
X18530D01*
X18980D02*
X19130D01*
X19880D02*
X20330D01*
X16130Y10860D02*
X16280D01*
X16880D02*
X17180D01*
X17630D02*
X17780D01*
X18080D02*
X18530D01*
X18980D02*
X19130D01*
X19880D02*
X20330D01*
X16430Y10850D02*
X16580D01*
X16730D02*
X16880D01*
X17030D02*
X17180D01*
X17330D02*
X18980D01*
X19130D02*
X19430D01*
X19580D02*
X19730D01*
X20030D02*
X20180D01*
X16430Y10840D02*
X16580D01*
X16730D02*
X16880D01*
X17030D02*
X17180D01*
X17330D02*
X18980D01*
X19130D02*
X19430D01*
X19580D02*
X19730D01*
X20030D02*
X20180D01*
X16430Y10830D02*
X16580D01*
X16730D02*
X16880D01*
X17030D02*
X17180D01*
X17330D02*
X18980D01*
X19130D02*
X19430D01*
X19580D02*
X19730D01*
X20030D02*
X20180D01*
X16430Y10820D02*
X16580D01*
X16730D02*
X16880D01*
X17030D02*
X17180D01*
X17330D02*
X18980D01*
X19130D02*
X19430D01*
X19580D02*
X19730D01*
X20030D02*
X20180D01*
X16430Y10810D02*
X16580D01*
X16730D02*
X16880D01*
X17030D02*
X17180D01*
X17330D02*
X18980D01*
X19130D02*
X19430D01*
X19580D02*
X19730D01*
X20030D02*
X20180D01*
X16430Y10800D02*
X16580D01*
X16730D02*
X16880D01*
X17030D02*
X17180D01*
X17330D02*
X18980D01*
X19130D02*
X19430D01*
X19580D02*
X19730D01*
X20030D02*
X20180D01*
X16430Y10790D02*
X16580D01*
X16730D02*
X16880D01*
X17030D02*
X17180D01*
X17330D02*
X18980D01*
X19130D02*
X19430D01*
X19580D02*
X19730D01*
X20030D02*
X20180D01*
X16430Y10780D02*
X16580D01*
X16730D02*
X16880D01*
X17030D02*
X17180D01*
X17330D02*
X18980D01*
X19130D02*
X19430D01*
X19580D02*
X19730D01*
X20030D02*
X20180D01*
X16430Y10770D02*
X16580D01*
X16730D02*
X16880D01*
X17030D02*
X17180D01*
X17330D02*
X18980D01*
X19130D02*
X19430D01*
X19580D02*
X19730D01*
X20030D02*
X20180D01*
X16430Y10760D02*
X16580D01*
X16730D02*
X16880D01*
X17030D02*
X17180D01*
X17330D02*
X18980D01*
X19130D02*
X19430D01*
X19580D02*
X19730D01*
X20030D02*
X20180D01*
X16430Y10750D02*
X16580D01*
X16730D02*
X16880D01*
X17030D02*
X17180D01*
X17330D02*
X18980D01*
X19130D02*
X19430D01*
X19580D02*
X19730D01*
X20030D02*
X20180D01*
X16430Y10740D02*
X16580D01*
X16730D02*
X16880D01*
X17030D02*
X17180D01*
X17330D02*
X18980D01*
X19130D02*
X19430D01*
X19580D02*
X19730D01*
X20030D02*
X20180D01*
X16430Y10730D02*
X16580D01*
X16730D02*
X16880D01*
X17030D02*
X17180D01*
X17330D02*
X18980D01*
X19130D02*
X19430D01*
X19580D02*
X19730D01*
X20030D02*
X20180D01*
X16430Y10720D02*
X16580D01*
X16730D02*
X16880D01*
X17030D02*
X17180D01*
X17330D02*
X18980D01*
X19130D02*
X19430D01*
X19580D02*
X19730D01*
X20030D02*
X20180D01*
X16430Y10710D02*
X16580D01*
X16730D02*
X16880D01*
X17030D02*
X17180D01*
X17330D02*
X18980D01*
X19130D02*
X19430D01*
X19580D02*
X19730D01*
X20030D02*
X20180D01*
X16730Y10700D02*
X17330D01*
X17780D02*
X18380D01*
X18680D02*
X18980D01*
X19280D02*
X19580D01*
X16730Y10690D02*
X17330D01*
X17780D02*
X18380D01*
X18680D02*
X18980D01*
X19280D02*
X19580D01*
X16730Y10680D02*
X17330D01*
X17780D02*
X18380D01*
X18680D02*
X18980D01*
X19280D02*
X19580D01*
X16730Y10670D02*
X17330D01*
X17780D02*
X18380D01*
X18680D02*
X18980D01*
X19280D02*
X19580D01*
X16730Y10660D02*
X17330D01*
X17780D02*
X18380D01*
X18680D02*
X18980D01*
X19280D02*
X19580D01*
X16730Y10650D02*
X17330D01*
X17780D02*
X18380D01*
X18680D02*
X18980D01*
X19280D02*
X19580D01*
X16730Y10640D02*
X17330D01*
X17780D02*
X18380D01*
X18680D02*
X18980D01*
X19280D02*
X19580D01*
X16730Y10630D02*
X17330D01*
X17780D02*
X18380D01*
X18680D02*
X18980D01*
X19280D02*
X19580D01*
X16730Y10620D02*
X17330D01*
X17780D02*
X18380D01*
X18680D02*
X18980D01*
X19280D02*
X19580D01*
X16730Y10610D02*
X17330D01*
X17780D02*
X18380D01*
X18680D02*
X18980D01*
X19280D02*
X19580D01*
X16730Y10600D02*
X17330D01*
X17780D02*
X18380D01*
X18680D02*
X18980D01*
X19280D02*
X19580D01*
X16730Y10590D02*
X17330D01*
X17780D02*
X18380D01*
X18680D02*
X18980D01*
X19280D02*
X19580D01*
X16730Y10580D02*
X17330D01*
X17780D02*
X18380D01*
X18680D02*
X18980D01*
X19280D02*
X19580D01*
X16730Y10570D02*
X17330D01*
X17780D02*
X18380D01*
X18680D02*
X18980D01*
X19280D02*
X19580D01*
X16730Y10560D02*
X17330D01*
X17780D02*
X18380D01*
X18680D02*
X18980D01*
X19280D02*
X19580D01*
X15980Y10550D02*
X16430D01*
X16730D02*
X16880D01*
X17180D02*
X17480D01*
X17630D02*
X18080D01*
X18530D02*
X18830D01*
X18980D02*
X19580D01*
X20030D02*
X20330D01*
X15980Y10540D02*
X16430D01*
X16730D02*
X16880D01*
X17180D02*
X17480D01*
X17630D02*
X18080D01*
X18530D02*
X18830D01*
X18980D02*
X19580D01*
X20030D02*
X20330D01*
X15980Y10530D02*
X16430D01*
X16730D02*
X16880D01*
X17180D02*
X17480D01*
X17630D02*
X18080D01*
X18530D02*
X18830D01*
X18980D02*
X19580D01*
X20030D02*
X20330D01*
X15980Y10520D02*
X16430D01*
X16730D02*
X16880D01*
X17180D02*
X17480D01*
X17630D02*
X18080D01*
X18530D02*
X18830D01*
X18980D02*
X19580D01*
X20030D02*
X20330D01*
X15980Y10510D02*
X16430D01*
X16730D02*
X16880D01*
X17180D02*
X17480D01*
X17630D02*
X18080D01*
X18530D02*
X18830D01*
X18980D02*
X19580D01*
X20030D02*
X20330D01*
X15980Y10500D02*
X16430D01*
X16730D02*
X16880D01*
X17180D02*
X17480D01*
X17630D02*
X18080D01*
X18530D02*
X18830D01*
X18980D02*
X19580D01*
X20030D02*
X20330D01*
X15980Y10490D02*
X16430D01*
X16730D02*
X16880D01*
X17180D02*
X17480D01*
X17630D02*
X18080D01*
X18530D02*
X18830D01*
X18980D02*
X19580D01*
X20030D02*
X20330D01*
X15980Y10480D02*
X16430D01*
X16730D02*
X16880D01*
X17180D02*
X17480D01*
X17630D02*
X18080D01*
X18530D02*
X18830D01*
X18980D02*
X19580D01*
X20030D02*
X20330D01*
X15980Y10470D02*
X16430D01*
X16730D02*
X16880D01*
X17180D02*
X17480D01*
X17630D02*
X18080D01*
X18530D02*
X18830D01*
X18980D02*
X19580D01*
X20030D02*
X20330D01*
X15980Y10460D02*
X16430D01*
X16730D02*
X16880D01*
X17180D02*
X17480D01*
X17630D02*
X18080D01*
X18530D02*
X18830D01*
X18980D02*
X19580D01*
X20030D02*
X20330D01*
X15980Y10450D02*
X16430D01*
X16730D02*
X16880D01*
X17180D02*
X17480D01*
X17630D02*
X18080D01*
X18530D02*
X18830D01*
X18980D02*
X19580D01*
X20030D02*
X20330D01*
X15980Y10440D02*
X16430D01*
X16730D02*
X16880D01*
X17180D02*
X17480D01*
X17630D02*
X18080D01*
X18530D02*
X18830D01*
X18980D02*
X19580D01*
X20030D02*
X20330D01*
X15980Y10430D02*
X16430D01*
X16730D02*
X16880D01*
X17180D02*
X17480D01*
X17630D02*
X18080D01*
X18530D02*
X18830D01*
X18980D02*
X19580D01*
X20030D02*
X20330D01*
X15980Y10420D02*
X16430D01*
X16730D02*
X16880D01*
X17180D02*
X17480D01*
X17630D02*
X18080D01*
X18530D02*
X18830D01*
X18980D02*
X19580D01*
X20030D02*
X20330D01*
X15980Y10410D02*
X16430D01*
X16730D02*
X16880D01*
X17180D02*
X17480D01*
X17630D02*
X18080D01*
X18530D02*
X18830D01*
X18980D02*
X19580D01*
X20030D02*
X20330D01*
X16280Y10400D02*
X16730D01*
X16880D02*
X17180D01*
X17630D02*
X17930D01*
X18080D02*
X18380D01*
X19130D02*
X19580D01*
X19880D02*
X20330D01*
X16280Y10390D02*
X16730D01*
X16880D02*
X17180D01*
X17630D02*
X17930D01*
X18080D02*
X18380D01*
X19130D02*
X19580D01*
X19880D02*
X20330D01*
X16280Y10380D02*
X16730D01*
X16880D02*
X17180D01*
X17630D02*
X17930D01*
X18080D02*
X18380D01*
X19130D02*
X19580D01*
X19880D02*
X20330D01*
X16280Y10370D02*
X16730D01*
X16880D02*
X17180D01*
X17630D02*
X17930D01*
X18080D02*
X18380D01*
X19130D02*
X19580D01*
X19880D02*
X20330D01*
X16280Y10360D02*
X16730D01*
X16880D02*
X17180D01*
X17630D02*
X17930D01*
X18080D02*
X18380D01*
X19130D02*
X19580D01*
X19880D02*
X20330D01*
X16280Y10350D02*
X16730D01*
X16880D02*
X17180D01*
X17630D02*
X17930D01*
X18080D02*
X18380D01*
X19130D02*
X19580D01*
X19880D02*
X20330D01*
X16280Y10340D02*
X16730D01*
X16880D02*
X17180D01*
X17630D02*
X17930D01*
X18080D02*
X18380D01*
X19130D02*
X19580D01*
X19880D02*
X20330D01*
X16280Y10330D02*
X16730D01*
X16880D02*
X17180D01*
X17630D02*
X17930D01*
X18080D02*
X18380D01*
X19130D02*
X19580D01*
X19880D02*
X20330D01*
X16280Y10320D02*
X16730D01*
X16880D02*
X17180D01*
X17630D02*
X17930D01*
X18080D02*
X18380D01*
X19130D02*
X19580D01*
X19880D02*
X20330D01*
X16280Y10310D02*
X16730D01*
X16880D02*
X17180D01*
X17630D02*
X17930D01*
X18080D02*
X18380D01*
X19130D02*
X19580D01*
X19880D02*
X20330D01*
X16280Y10300D02*
X16730D01*
X16880D02*
X17180D01*
X17630D02*
X17930D01*
X18080D02*
X18380D01*
X19130D02*
X19580D01*
X19880D02*
X20330D01*
X16280Y10290D02*
X16730D01*
X16880D02*
X17180D01*
X17630D02*
X17930D01*
X18080D02*
X18380D01*
X19130D02*
X19580D01*
X19880D02*
X20330D01*
X16280Y10280D02*
X16730D01*
X16880D02*
X17180D01*
X17630D02*
X17930D01*
X18080D02*
X18380D01*
X19130D02*
X19580D01*
X19880D02*
X20330D01*
X16280Y10270D02*
X16730D01*
X16880D02*
X17180D01*
X17630D02*
X17930D01*
X18080D02*
X18380D01*
X19130D02*
X19580D01*
X19880D02*
X20330D01*
X16280Y10260D02*
X16730D01*
X16880D02*
X17180D01*
X17630D02*
X17930D01*
X18080D02*
X18380D01*
X19130D02*
X19580D01*
X19880D02*
X20330D01*
X16130Y10250D02*
X16280D01*
X16430D02*
X16580D01*
X16730D02*
X16880D01*
X17630D02*
X17780D01*
X17930D02*
X18080D01*
X18680D02*
X18830D01*
X18980D02*
X19130D01*
X19280D02*
X19580D01*
X20030D02*
X20180D01*
X16130Y10240D02*
X16280D01*
X16430D02*
X16580D01*
X16730D02*
X16880D01*
X17630D02*
X17780D01*
X17930D02*
X18080D01*
X18680D02*
X18830D01*
X18980D02*
X19130D01*
X19280D02*
X19580D01*
X20030D02*
X20180D01*
X16130Y10230D02*
X16280D01*
X16430D02*
X16580D01*
X16730D02*
X16880D01*
X17630D02*
X17780D01*
X17930D02*
X18080D01*
X18680D02*
X18830D01*
X18980D02*
X19130D01*
X19280D02*
X19580D01*
X20030D02*
X20180D01*
X16130Y10220D02*
X16280D01*
X16430D02*
X16580D01*
X16730D02*
X16880D01*
X17630D02*
X17780D01*
X17930D02*
X18080D01*
X18680D02*
X18830D01*
X18980D02*
X19130D01*
X19280D02*
X19580D01*
X20030D02*
X20180D01*
X16130Y10210D02*
X16280D01*
X16430D02*
X16580D01*
X16730D02*
X16880D01*
X17630D02*
X17780D01*
X17930D02*
X18080D01*
X18680D02*
X18830D01*
X18980D02*
X19130D01*
X19280D02*
X19580D01*
X20030D02*
X20180D01*
X16130Y10200D02*
X16280D01*
X16430D02*
X16580D01*
X16730D02*
X16880D01*
X17630D02*
X17780D01*
X17930D02*
X18080D01*
X18680D02*
X18830D01*
X18980D02*
X19130D01*
X19280D02*
X19580D01*
X20030D02*
X20180D01*
X16130Y10190D02*
X16280D01*
X16430D02*
X16580D01*
X16730D02*
X16880D01*
X17630D02*
X17780D01*
X17930D02*
X18080D01*
X18680D02*
X18830D01*
X18980D02*
X19130D01*
X19280D02*
X19580D01*
X20030D02*
X20180D01*
X16130Y10180D02*
X16280D01*
X16430D02*
X16580D01*
X16730D02*
X16880D01*
X17630D02*
X17780D01*
X17930D02*
X18080D01*
X18680D02*
X18830D01*
X18980D02*
X19130D01*
X19280D02*
X19580D01*
X20030D02*
X20180D01*
X16130Y10170D02*
X16280D01*
X16430D02*
X16580D01*
X16730D02*
X16880D01*
X17630D02*
X17780D01*
X17930D02*
X18080D01*
X18680D02*
X18830D01*
X18980D02*
X19130D01*
X19280D02*
X19580D01*
X20030D02*
X20180D01*
X16130Y10160D02*
X16280D01*
X16430D02*
X16580D01*
X16730D02*
X16880D01*
X17630D02*
X17780D01*
X17930D02*
X18080D01*
X18680D02*
X18830D01*
X18980D02*
X19130D01*
X19280D02*
X19580D01*
X20030D02*
X20180D01*
X16130Y10150D02*
X16280D01*
X16430D02*
X16580D01*
X16730D02*
X16880D01*
X17630D02*
X17780D01*
X17930D02*
X18080D01*
X18680D02*
X18830D01*
X18980D02*
X19130D01*
X19280D02*
X19580D01*
X20030D02*
X20180D01*
X16130Y10140D02*
X16280D01*
X16430D02*
X16580D01*
X16730D02*
X16880D01*
X17630D02*
X17780D01*
X17930D02*
X18080D01*
X18680D02*
X18830D01*
X18980D02*
X19130D01*
X19280D02*
X19580D01*
X20030D02*
X20180D01*
X16130Y10130D02*
X16280D01*
X16430D02*
X16580D01*
X16730D02*
X16880D01*
X17630D02*
X17780D01*
X17930D02*
X18080D01*
X18680D02*
X18830D01*
X18980D02*
X19130D01*
X19280D02*
X19580D01*
X20030D02*
X20180D01*
X16130Y10120D02*
X16280D01*
X16430D02*
X16580D01*
X16730D02*
X16880D01*
X17630D02*
X17780D01*
X17930D02*
X18080D01*
X18680D02*
X18830D01*
X18980D02*
X19130D01*
X19280D02*
X19580D01*
X20030D02*
X20180D01*
X16130Y10110D02*
X16280D01*
X16430D02*
X16580D01*
X16730D02*
X16880D01*
X17630D02*
X17780D01*
X17930D02*
X18080D01*
X18680D02*
X18830D01*
X18980D02*
X19130D01*
X19280D02*
X19580D01*
X20030D02*
X20180D01*
X16130Y10100D02*
X16430D01*
X16730D02*
X17180D01*
X17330D02*
X17480D01*
X17630D02*
X17780D01*
X18080D02*
X18530D01*
X18680D02*
X18830D01*
X18980D02*
X19130D01*
X19280D02*
X19430D01*
X19730D02*
X19880D01*
X20030D02*
X20330D01*
X16130Y10090D02*
X16430D01*
X16730D02*
X17180D01*
X17330D02*
X17480D01*
X17630D02*
X17780D01*
X18080D02*
X18530D01*
X18680D02*
X18830D01*
X18980D02*
X19130D01*
X19280D02*
X19430D01*
X19730D02*
X19880D01*
X20030D02*
X20330D01*
X16130Y10080D02*
X16430D01*
X16730D02*
X17180D01*
X17330D02*
X17480D01*
X17630D02*
X17780D01*
X18080D02*
X18530D01*
X18680D02*
X18830D01*
X18980D02*
X19130D01*
X19280D02*
X19430D01*
X19730D02*
X19880D01*
X20030D02*
X20330D01*
X16130Y10070D02*
X16430D01*
X16730D02*
X17180D01*
X17330D02*
X17480D01*
X17630D02*
X17780D01*
X18080D02*
X18530D01*
X18680D02*
X18830D01*
X18980D02*
X19130D01*
X19280D02*
X19430D01*
X19730D02*
X19880D01*
X20030D02*
X20330D01*
X16130Y10060D02*
X16430D01*
X16730D02*
X17180D01*
X17330D02*
X17480D01*
X17630D02*
X17780D01*
X18080D02*
X18530D01*
X18680D02*
X18830D01*
X18980D02*
X19130D01*
X19280D02*
X19430D01*
X19730D02*
X19880D01*
X20030D02*
X20330D01*
X16130Y10050D02*
X16430D01*
X16730D02*
X17180D01*
X17330D02*
X17480D01*
X17630D02*
X17780D01*
X18080D02*
X18530D01*
X18680D02*
X18830D01*
X18980D02*
X19130D01*
X19280D02*
X19430D01*
X19730D02*
X19880D01*
X20030D02*
X20330D01*
X16130Y10040D02*
X16430D01*
X16730D02*
X17180D01*
X17330D02*
X17480D01*
X17630D02*
X17780D01*
X18080D02*
X18530D01*
X18680D02*
X18830D01*
X18980D02*
X19130D01*
X19280D02*
X19430D01*
X19730D02*
X19880D01*
X20030D02*
X20330D01*
X16130Y10030D02*
X16430D01*
X16730D02*
X17180D01*
X17330D02*
X17480D01*
X17630D02*
X17780D01*
X18080D02*
X18530D01*
X18680D02*
X18830D01*
X18980D02*
X19130D01*
X19280D02*
X19430D01*
X19730D02*
X19880D01*
X20030D02*
X20330D01*
X16130Y10020D02*
X16430D01*
X16730D02*
X17180D01*
X17330D02*
X17480D01*
X17630D02*
X17780D01*
X18080D02*
X18530D01*
X18680D02*
X18830D01*
X18980D02*
X19130D01*
X19280D02*
X19430D01*
X19730D02*
X19880D01*
X20030D02*
X20330D01*
X16130Y10010D02*
X16430D01*
X16730D02*
X17180D01*
X17330D02*
X17480D01*
X17630D02*
X17780D01*
X18080D02*
X18530D01*
X18680D02*
X18830D01*
X18980D02*
X19130D01*
X19280D02*
X19430D01*
X19730D02*
X19880D01*
X20030D02*
X20330D01*
X16130Y10000D02*
X16430D01*
X16730D02*
X17180D01*
X17330D02*
X17480D01*
X17630D02*
X17780D01*
X18080D02*
X18530D01*
X18680D02*
X18830D01*
X18980D02*
X19130D01*
X19280D02*
X19430D01*
X19730D02*
X19880D01*
X20030D02*
X20330D01*
X16130Y9990D02*
X16430D01*
X16730D02*
X17180D01*
X17330D02*
X17480D01*
X17630D02*
X17780D01*
X18080D02*
X18530D01*
X18680D02*
X18830D01*
X18980D02*
X19130D01*
X19280D02*
X19430D01*
X19730D02*
X19880D01*
X20030D02*
X20330D01*
X16130Y9980D02*
X16430D01*
X16730D02*
X17180D01*
X17330D02*
X17480D01*
X17630D02*
X17780D01*
X18080D02*
X18530D01*
X18680D02*
X18830D01*
X18980D02*
X19130D01*
X19280D02*
X19430D01*
X19730D02*
X19880D01*
X20030D02*
X20330D01*
X16130Y9970D02*
X16430D01*
X16730D02*
X17180D01*
X17330D02*
X17480D01*
X17630D02*
X17780D01*
X18080D02*
X18530D01*
X18680D02*
X18830D01*
X18980D02*
X19130D01*
X19280D02*
X19430D01*
X19730D02*
X19880D01*
X20030D02*
X20330D01*
X16130Y9960D02*
X16430D01*
X16730D02*
X17180D01*
X17330D02*
X17480D01*
X17630D02*
X17780D01*
X18080D02*
X18530D01*
X18680D02*
X18830D01*
X18980D02*
X19130D01*
X19280D02*
X19430D01*
X19730D02*
X19880D01*
X20030D02*
X20330D01*
X16130Y9950D02*
X16280D01*
X16730D02*
X16880D01*
X17030D02*
X17480D01*
X17630D02*
X17780D01*
X18230D02*
X18830D01*
X18980D02*
X19430D01*
X20030D02*
X20330D01*
X16130Y9940D02*
X16280D01*
X16730D02*
X16880D01*
X17030D02*
X17480D01*
X17630D02*
X17780D01*
X18230D02*
X18830D01*
X18980D02*
X19430D01*
X20030D02*
X20330D01*
X16130Y9930D02*
X16280D01*
X16730D02*
X16880D01*
X17030D02*
X17480D01*
X17630D02*
X17780D01*
X18230D02*
X18830D01*
X18980D02*
X19430D01*
X20030D02*
X20330D01*
X16130Y9920D02*
X16280D01*
X16730D02*
X16880D01*
X17030D02*
X17480D01*
X17630D02*
X17780D01*
X18230D02*
X18830D01*
X18980D02*
X19430D01*
X20030D02*
X20330D01*
X16130Y9910D02*
X16280D01*
X16730D02*
X16880D01*
X17030D02*
X17480D01*
X17630D02*
X17780D01*
X18230D02*
X18830D01*
X18980D02*
X19430D01*
X20030D02*
X20330D01*
X16130Y9900D02*
X16280D01*
X16730D02*
X16880D01*
X17030D02*
X17480D01*
X17630D02*
X17780D01*
X18230D02*
X18830D01*
X18980D02*
X19430D01*
X20030D02*
X20330D01*
X16130Y9890D02*
X16280D01*
X16730D02*
X16880D01*
X17030D02*
X17480D01*
X17630D02*
X17780D01*
X18230D02*
X18830D01*
X18980D02*
X19430D01*
X20030D02*
X20330D01*
X16130Y9880D02*
X16280D01*
X16730D02*
X16880D01*
X17030D02*
X17480D01*
X17630D02*
X17780D01*
X18230D02*
X18830D01*
X18980D02*
X19430D01*
X20030D02*
X20330D01*
X16130Y9870D02*
X16280D01*
X16730D02*
X16880D01*
X17030D02*
X17480D01*
X17630D02*
X17780D01*
X18230D02*
X18830D01*
X18980D02*
X19430D01*
X20030D02*
X20330D01*
X16130Y9860D02*
X16280D01*
X16730D02*
X16880D01*
X17030D02*
X17480D01*
X17630D02*
X17780D01*
X18230D02*
X18830D01*
X18980D02*
X19430D01*
X20030D02*
X20330D01*
X16130Y9850D02*
X16280D01*
X16730D02*
X16880D01*
X17030D02*
X17480D01*
X17630D02*
X17780D01*
X18230D02*
X18830D01*
X18980D02*
X19430D01*
X20030D02*
X20330D01*
X16130Y9840D02*
X16280D01*
X16730D02*
X16880D01*
X17030D02*
X17480D01*
X17630D02*
X17780D01*
X18230D02*
X18830D01*
X18980D02*
X19430D01*
X20030D02*
X20330D01*
X16130Y9830D02*
X16280D01*
X16730D02*
X16880D01*
X17030D02*
X17480D01*
X17630D02*
X17780D01*
X18230D02*
X18830D01*
X18980D02*
X19430D01*
X20030D02*
X20330D01*
X16130Y9820D02*
X16280D01*
X16730D02*
X16880D01*
X17030D02*
X17480D01*
X17630D02*
X17780D01*
X18230D02*
X18830D01*
X18980D02*
X19430D01*
X20030D02*
X20330D01*
X16130Y9810D02*
X16280D01*
X16730D02*
X16880D01*
X17030D02*
X17480D01*
X17630D02*
X17780D01*
X18230D02*
X18830D01*
X18980D02*
X19430D01*
X20030D02*
X20330D01*
X15980Y9800D02*
X16130D01*
X16730D02*
X17780D01*
X18380D02*
X18530D01*
X18680D02*
X18830D01*
X19130D02*
X19280D01*
X19430D02*
X20330D01*
X15980Y9790D02*
X16130D01*
X16730D02*
X17780D01*
X18380D02*
X18530D01*
X18680D02*
X18830D01*
X19130D02*
X19280D01*
X19430D02*
X20330D01*
X15980Y9780D02*
X16130D01*
X16730D02*
X17780D01*
X18380D02*
X18530D01*
X18680D02*
X18830D01*
X19130D02*
X19280D01*
X19430D02*
X20330D01*
X15980Y9770D02*
X16130D01*
X16730D02*
X17780D01*
X18380D02*
X18530D01*
X18680D02*
X18830D01*
X19130D02*
X19280D01*
X19430D02*
X20330D01*
X15980Y9760D02*
X16130D01*
X16730D02*
X17780D01*
X18380D02*
X18530D01*
X18680D02*
X18830D01*
X19130D02*
X19280D01*
X19430D02*
X20330D01*
X15980Y9750D02*
X16130D01*
X16730D02*
X17780D01*
X18380D02*
X18530D01*
X18680D02*
X18830D01*
X19130D02*
X19280D01*
X19430D02*
X20330D01*
X15980Y9740D02*
X16130D01*
X16730D02*
X17780D01*
X18380D02*
X18530D01*
X18680D02*
X18830D01*
X19130D02*
X19280D01*
X19430D02*
X20330D01*
X15980Y9730D02*
X16130D01*
X16730D02*
X17780D01*
X18380D02*
X18530D01*
X18680D02*
X18830D01*
X19130D02*
X19280D01*
X19430D02*
X20330D01*
X15980Y9720D02*
X16130D01*
X16730D02*
X17780D01*
X18380D02*
X18530D01*
X18680D02*
X18830D01*
X19130D02*
X19280D01*
X19430D02*
X20330D01*
X15980Y9710D02*
X16130D01*
X16730D02*
X17780D01*
X18380D02*
X18530D01*
X18680D02*
X18830D01*
X19130D02*
X19280D01*
X19430D02*
X20330D01*
X15980Y9700D02*
X16130D01*
X16730D02*
X17780D01*
X18380D02*
X18530D01*
X18680D02*
X18830D01*
X19130D02*
X19280D01*
X19430D02*
X20330D01*
X15980Y9690D02*
X16130D01*
X16730D02*
X17780D01*
X18380D02*
X18530D01*
X18680D02*
X18830D01*
X19130D02*
X19280D01*
X19430D02*
X20330D01*
X15980Y9680D02*
X16130D01*
X16730D02*
X17780D01*
X18380D02*
X18530D01*
X18680D02*
X18830D01*
X19130D02*
X19280D01*
X19430D02*
X20330D01*
X15980Y9670D02*
X16130D01*
X16730D02*
X17780D01*
X18380D02*
X18530D01*
X18680D02*
X18830D01*
X19130D02*
X19280D01*
X19430D02*
X20330D01*
X15980Y9660D02*
X16130D01*
X16730D02*
X17780D01*
X18380D02*
X18530D01*
X18680D02*
X18830D01*
X19130D02*
X19280D01*
X19430D02*
X20330D01*
X16130Y9650D02*
X16280D01*
X16430D02*
X16730D01*
X17030D02*
X17480D01*
X18080D02*
X18230D01*
X18380D02*
X18680D01*
X19280D02*
X19730D01*
X20030D02*
X20180D01*
X16130Y9640D02*
X16280D01*
X16430D02*
X16730D01*
X17030D02*
X17480D01*
X18080D02*
X18230D01*
X18380D02*
X18680D01*
X19280D02*
X19730D01*
X20030D02*
X20180D01*
X16130Y9630D02*
X16280D01*
X16430D02*
X16730D01*
X17030D02*
X17480D01*
X18080D02*
X18230D01*
X18380D02*
X18680D01*
X19280D02*
X19730D01*
X20030D02*
X20180D01*
X16130Y9620D02*
X16280D01*
X16430D02*
X16730D01*
X17030D02*
X17480D01*
X18080D02*
X18230D01*
X18380D02*
X18680D01*
X19280D02*
X19730D01*
X20030D02*
X20180D01*
X16130Y9610D02*
X16280D01*
X16430D02*
X16730D01*
X17030D02*
X17480D01*
X18080D02*
X18230D01*
X18380D02*
X18680D01*
X19280D02*
X19730D01*
X20030D02*
X20180D01*
X16130Y9600D02*
X16280D01*
X16430D02*
X16730D01*
X17030D02*
X17480D01*
X18080D02*
X18230D01*
X18380D02*
X18680D01*
X19280D02*
X19730D01*
X20030D02*
X20180D01*
X16130Y9590D02*
X16280D01*
X16430D02*
X16730D01*
X17030D02*
X17480D01*
X18080D02*
X18230D01*
X18380D02*
X18680D01*
X19280D02*
X19730D01*
X20030D02*
X20180D01*
X16130Y9580D02*
X16280D01*
X16430D02*
X16730D01*
X17030D02*
X17480D01*
X18080D02*
X18230D01*
X18380D02*
X18680D01*
X19280D02*
X19730D01*
X20030D02*
X20180D01*
X16130Y9570D02*
X16280D01*
X16430D02*
X16730D01*
X17030D02*
X17480D01*
X18080D02*
X18230D01*
X18380D02*
X18680D01*
X19280D02*
X19730D01*
X20030D02*
X20180D01*
X16130Y9560D02*
X16280D01*
X16430D02*
X16730D01*
X17030D02*
X17480D01*
X18080D02*
X18230D01*
X18380D02*
X18680D01*
X19280D02*
X19730D01*
X20030D02*
X20180D01*
X16130Y9550D02*
X16280D01*
X16430D02*
X16730D01*
X17030D02*
X17480D01*
X18080D02*
X18230D01*
X18380D02*
X18680D01*
X19280D02*
X19730D01*
X20030D02*
X20180D01*
X16130Y9540D02*
X16280D01*
X16430D02*
X16730D01*
X17030D02*
X17480D01*
X18080D02*
X18230D01*
X18380D02*
X18680D01*
X19280D02*
X19730D01*
X20030D02*
X20180D01*
X16130Y9530D02*
X16280D01*
X16430D02*
X16730D01*
X17030D02*
X17480D01*
X18080D02*
X18230D01*
X18380D02*
X18680D01*
X19280D02*
X19730D01*
X20030D02*
X20180D01*
X16130Y9520D02*
X16280D01*
X16430D02*
X16730D01*
X17030D02*
X17480D01*
X18080D02*
X18230D01*
X18380D02*
X18680D01*
X19280D02*
X19730D01*
X20030D02*
X20180D01*
X16130Y9510D02*
X16280D01*
X16430D02*
X16730D01*
X17030D02*
X17480D01*
X18080D02*
X18230D01*
X18380D02*
X18680D01*
X19280D02*
X19730D01*
X20030D02*
X20180D01*
X15980Y9500D02*
X16130D01*
X16880D02*
X17030D01*
X17480D02*
X17780D01*
X18080D02*
X18230D01*
X18380D02*
X18530D01*
X18680D02*
X18830D01*
X18980D02*
X19730D01*
X15980Y9490D02*
X16130D01*
X16880D02*
X17030D01*
X17480D02*
X17780D01*
X18080D02*
X18230D01*
X18380D02*
X18530D01*
X18680D02*
X18830D01*
X18980D02*
X19730D01*
X15980Y9480D02*
X16130D01*
X16880D02*
X17030D01*
X17480D02*
X17780D01*
X18080D02*
X18230D01*
X18380D02*
X18530D01*
X18680D02*
X18830D01*
X18980D02*
X19730D01*
X15980Y9470D02*
X16130D01*
X16880D02*
X17030D01*
X17480D02*
X17780D01*
X18080D02*
X18230D01*
X18380D02*
X18530D01*
X18680D02*
X18830D01*
X18980D02*
X19730D01*
X15980Y9460D02*
X16130D01*
X16880D02*
X17030D01*
X17480D02*
X17780D01*
X18080D02*
X18230D01*
X18380D02*
X18530D01*
X18680D02*
X18830D01*
X18980D02*
X19730D01*
X15980Y9450D02*
X16130D01*
X16880D02*
X17030D01*
X17480D02*
X17780D01*
X18080D02*
X18230D01*
X18380D02*
X18530D01*
X18680D02*
X18830D01*
X18980D02*
X19730D01*
X15980Y9440D02*
X16130D01*
X16880D02*
X17030D01*
X17480D02*
X17780D01*
X18080D02*
X18230D01*
X18380D02*
X18530D01*
X18680D02*
X18830D01*
X18980D02*
X19730D01*
X15980Y9430D02*
X16130D01*
X16880D02*
X17030D01*
X17480D02*
X17780D01*
X18080D02*
X18230D01*
X18380D02*
X18530D01*
X18680D02*
X18830D01*
X18980D02*
X19730D01*
X15980Y9420D02*
X16130D01*
X16880D02*
X17030D01*
X17480D02*
X17780D01*
X18080D02*
X18230D01*
X18380D02*
X18530D01*
X18680D02*
X18830D01*
X18980D02*
X19730D01*
X15980Y9410D02*
X16130D01*
X16880D02*
X17030D01*
X17480D02*
X17780D01*
X18080D02*
X18230D01*
X18380D02*
X18530D01*
X18680D02*
X18830D01*
X18980D02*
X19730D01*
X15980Y9400D02*
X16130D01*
X16880D02*
X17030D01*
X17480D02*
X17780D01*
X18080D02*
X18230D01*
X18380D02*
X18530D01*
X18680D02*
X18830D01*
X18980D02*
X19730D01*
X15980Y9390D02*
X16130D01*
X16880D02*
X17030D01*
X17480D02*
X17780D01*
X18080D02*
X18230D01*
X18380D02*
X18530D01*
X18680D02*
X18830D01*
X18980D02*
X19730D01*
X15980Y9380D02*
X16130D01*
X16880D02*
X17030D01*
X17480D02*
X17780D01*
X18080D02*
X18230D01*
X18380D02*
X18530D01*
X18680D02*
X18830D01*
X18980D02*
X19730D01*
X15980Y9370D02*
X16130D01*
X16880D02*
X17030D01*
X17480D02*
X17780D01*
X18080D02*
X18230D01*
X18380D02*
X18530D01*
X18680D02*
X18830D01*
X18980D02*
X19730D01*
X15980Y9360D02*
X16130D01*
X16880D02*
X17030D01*
X17480D02*
X17780D01*
X18080D02*
X18230D01*
X18380D02*
X18530D01*
X18680D02*
X18830D01*
X18980D02*
X19730D01*
X17180Y9350D02*
X17480D01*
X17930D02*
X18380D01*
X18530D02*
X18680D01*
X18980D02*
X19130D01*
X19580D02*
X19730D01*
X20180D02*
X20330D01*
X17180Y9340D02*
X17480D01*
X17930D02*
X18380D01*
X18530D02*
X18680D01*
X18980D02*
X19130D01*
X19580D02*
X19730D01*
X20180D02*
X20330D01*
X17180Y9330D02*
X17480D01*
X17930D02*
X18380D01*
X18530D02*
X18680D01*
X18980D02*
X19130D01*
X19580D02*
X19730D01*
X20180D02*
X20330D01*
X17180Y9320D02*
X17480D01*
X17930D02*
X18380D01*
X18530D02*
X18680D01*
X18980D02*
X19130D01*
X19580D02*
X19730D01*
X20180D02*
X20330D01*
X17180Y9310D02*
X17480D01*
X17930D02*
X18380D01*
X18530D02*
X18680D01*
X18980D02*
X19130D01*
X19580D02*
X19730D01*
X20180D02*
X20330D01*
X17180Y9300D02*
X17480D01*
X17930D02*
X18380D01*
X18530D02*
X18680D01*
X18980D02*
X19130D01*
X19580D02*
X19730D01*
X20180D02*
X20330D01*
X17180Y9290D02*
X17480D01*
X17930D02*
X18380D01*
X18530D02*
X18680D01*
X18980D02*
X19130D01*
X19580D02*
X19730D01*
X20180D02*
X20330D01*
X17180Y9280D02*
X17480D01*
X17930D02*
X18380D01*
X18530D02*
X18680D01*
X18980D02*
X19130D01*
X19580D02*
X19730D01*
X20180D02*
X20330D01*
X17180Y9270D02*
X17480D01*
X17930D02*
X18380D01*
X18530D02*
X18680D01*
X18980D02*
X19130D01*
X19580D02*
X19730D01*
X20180D02*
X20330D01*
X17180Y9260D02*
X17480D01*
X17930D02*
X18380D01*
X18530D02*
X18680D01*
X18980D02*
X19130D01*
X19580D02*
X19730D01*
X20180D02*
X20330D01*
X17180Y9250D02*
X17480D01*
X17930D02*
X18380D01*
X18530D02*
X18680D01*
X18980D02*
X19130D01*
X19580D02*
X19730D01*
X20180D02*
X20330D01*
X17180Y9240D02*
X17480D01*
X17930D02*
X18380D01*
X18530D02*
X18680D01*
X18980D02*
X19130D01*
X19580D02*
X19730D01*
X20180D02*
X20330D01*
X17180Y9230D02*
X17480D01*
X17930D02*
X18380D01*
X18530D02*
X18680D01*
X18980D02*
X19130D01*
X19580D02*
X19730D01*
X20180D02*
X20330D01*
X17180Y9220D02*
X17480D01*
X17930D02*
X18380D01*
X18530D02*
X18680D01*
X18980D02*
X19130D01*
X19580D02*
X19730D01*
X20180D02*
X20330D01*
X17180Y9210D02*
X17480D01*
X17930D02*
X18380D01*
X18530D02*
X18680D01*
X18980D02*
X19130D01*
X19580D02*
X19730D01*
X20180D02*
X20330D01*
X15980Y9200D02*
X17020D01*
X17630D02*
X17930D01*
X18080D02*
X18230D01*
X18380D02*
X18530D01*
X18830D02*
X19130D01*
X19280D02*
X19430D01*
X19580D02*
X19730D01*
X19880D02*
X20330D01*
X15980Y9190D02*
X17020D01*
X17630D02*
X17930D01*
X18080D02*
X18230D01*
X18380D02*
X18530D01*
X18830D02*
X19130D01*
X19280D02*
X19430D01*
X19580D02*
X19730D01*
X19880D02*
X20330D01*
X15980Y9180D02*
X17020D01*
X17630D02*
X17930D01*
X18080D02*
X18230D01*
X18380D02*
X18530D01*
X18830D02*
X19130D01*
X19280D02*
X19430D01*
X19580D02*
X19730D01*
X19880D02*
X20330D01*
X15980Y9170D02*
X17020D01*
X17630D02*
X17930D01*
X18080D02*
X18230D01*
X18380D02*
X18530D01*
X18830D02*
X19130D01*
X19280D02*
X19430D01*
X19580D02*
X19730D01*
X19880D02*
X20330D01*
X15980Y9160D02*
X17020D01*
X17630D02*
X17930D01*
X18080D02*
X18230D01*
X18380D02*
X18530D01*
X18830D02*
X19130D01*
X19280D02*
X19430D01*
X19580D02*
X19730D01*
X19880D02*
X20330D01*
X15980Y9150D02*
X17020D01*
X17630D02*
X17930D01*
X18080D02*
X18230D01*
X18380D02*
X18530D01*
X18830D02*
X19130D01*
X19280D02*
X19430D01*
X19580D02*
X19730D01*
X19880D02*
X20330D01*
X15980Y9140D02*
X17020D01*
X17630D02*
X17930D01*
X18080D02*
X18230D01*
X18380D02*
X18530D01*
X18830D02*
X19130D01*
X19280D02*
X19430D01*
X19580D02*
X19730D01*
X19880D02*
X20330D01*
X15980Y9130D02*
X17020D01*
X17630D02*
X17930D01*
X18080D02*
X18230D01*
X18380D02*
X18530D01*
X18830D02*
X19130D01*
X19280D02*
X19430D01*
X19580D02*
X19730D01*
X19880D02*
X20330D01*
X15980Y9120D02*
X17020D01*
X17630D02*
X17930D01*
X18080D02*
X18230D01*
X18380D02*
X18530D01*
X18830D02*
X19130D01*
X19280D02*
X19430D01*
X19580D02*
X19730D01*
X19880D02*
X20330D01*
X15980Y9110D02*
X17020D01*
X17630D02*
X17930D01*
X18080D02*
X18230D01*
X18380D02*
X18530D01*
X18830D02*
X19130D01*
X19280D02*
X19430D01*
X19580D02*
X19730D01*
X19880D02*
X20330D01*
X15980Y9100D02*
X17020D01*
X17630D02*
X17930D01*
X18080D02*
X18230D01*
X18380D02*
X18530D01*
X18830D02*
X19130D01*
X19280D02*
X19430D01*
X19580D02*
X19730D01*
X19880D02*
X20330D01*
X15980Y9090D02*
X17020D01*
X17630D02*
X17930D01*
X18080D02*
X18230D01*
X18380D02*
X18530D01*
X18830D02*
X19130D01*
X19280D02*
X19430D01*
X19580D02*
X19730D01*
X19880D02*
X20330D01*
X15980Y9080D02*
X17020D01*
X17630D02*
X17930D01*
X18080D02*
X18230D01*
X18380D02*
X18530D01*
X18830D02*
X19130D01*
X19280D02*
X19430D01*
X19580D02*
X19730D01*
X19880D02*
X20330D01*
X15980Y9070D02*
X17020D01*
X17630D02*
X17930D01*
X18080D02*
X18230D01*
X18380D02*
X18530D01*
X18830D02*
X19130D01*
X19280D02*
X19430D01*
X19580D02*
X19730D01*
X19880D02*
X20330D01*
X15980Y9060D02*
X16120D01*
X16870D02*
X17020D01*
X17630D02*
X17930D01*
X18080D02*
X18230D01*
X18380D02*
X18530D01*
X18830D02*
X19130D01*
X19280D02*
X19430D01*
X19580D02*
X19730D01*
X19880D02*
X20330D01*
X15980Y9050D02*
X16120D01*
X16870D02*
X17020D01*
X17180D02*
X17480D01*
X17780D02*
X17930D01*
X18080D02*
X18380D01*
X18680D02*
X18830D01*
X18980D02*
X19130D01*
X19580D02*
X19730D01*
X20030D02*
X20330D01*
X15980Y9040D02*
X16120D01*
X16870D02*
X17020D01*
X17180D02*
X17480D01*
X17780D02*
X17930D01*
X18080D02*
X18380D01*
X18680D02*
X18830D01*
X18980D02*
X19130D01*
X19580D02*
X19730D01*
X20030D02*
X20330D01*
X15980Y9030D02*
X16120D01*
X16870D02*
X17020D01*
X17180D02*
X17480D01*
X17780D02*
X17930D01*
X18080D02*
X18380D01*
X18680D02*
X18830D01*
X18980D02*
X19130D01*
X19580D02*
X19730D01*
X20030D02*
X20330D01*
X15980Y9020D02*
X16120D01*
X16870D02*
X17020D01*
X17180D02*
X17480D01*
X17780D02*
X17930D01*
X18080D02*
X18380D01*
X18680D02*
X18830D01*
X18980D02*
X19130D01*
X19580D02*
X19730D01*
X20030D02*
X20330D01*
X15980Y9010D02*
X16120D01*
X16870D02*
X17020D01*
X17180D02*
X17480D01*
X17780D02*
X17930D01*
X18080D02*
X18380D01*
X18680D02*
X18830D01*
X18980D02*
X19130D01*
X19580D02*
X19730D01*
X20030D02*
X20330D01*
X15980Y9000D02*
X16120D01*
X16870D02*
X17020D01*
X17180D02*
X17480D01*
X17780D02*
X17930D01*
X18080D02*
X18380D01*
X18680D02*
X18830D01*
X18980D02*
X19130D01*
X19580D02*
X19730D01*
X20030D02*
X20330D01*
X15980Y8990D02*
X16120D01*
X16870D02*
X17020D01*
X17180D02*
X17480D01*
X17780D02*
X17930D01*
X18080D02*
X18380D01*
X18680D02*
X18830D01*
X18980D02*
X19130D01*
X19580D02*
X19730D01*
X20030D02*
X20330D01*
X15980Y8980D02*
X16120D01*
X16870D02*
X17020D01*
X17180D02*
X17480D01*
X17780D02*
X17930D01*
X18080D02*
X18380D01*
X18680D02*
X18830D01*
X18980D02*
X19130D01*
X19580D02*
X19730D01*
X20030D02*
X20330D01*
X15980Y8970D02*
X16120D01*
X16870D02*
X17020D01*
X17180D02*
X17480D01*
X17780D02*
X17930D01*
X18080D02*
X18380D01*
X18680D02*
X18830D01*
X18980D02*
X19130D01*
X19580D02*
X19730D01*
X20030D02*
X20330D01*
X15980Y8960D02*
X16120D01*
X16870D02*
X17020D01*
X17180D02*
X17480D01*
X17780D02*
X17930D01*
X18080D02*
X18380D01*
X18680D02*
X18830D01*
X18980D02*
X19130D01*
X19580D02*
X19730D01*
X20030D02*
X20330D01*
X15980Y8950D02*
X16120D01*
X16870D02*
X17020D01*
X17180D02*
X17480D01*
X17780D02*
X17930D01*
X18080D02*
X18380D01*
X18680D02*
X18830D01*
X18980D02*
X19130D01*
X19580D02*
X19730D01*
X20030D02*
X20330D01*
X15980Y8940D02*
X16120D01*
X16870D02*
X17020D01*
X17180D02*
X17480D01*
X17780D02*
X17930D01*
X18080D02*
X18380D01*
X18680D02*
X18830D01*
X18980D02*
X19130D01*
X19580D02*
X19730D01*
X20030D02*
X20330D01*
X15980Y8930D02*
X16120D01*
X16870D02*
X17020D01*
X17180D02*
X17480D01*
X17780D02*
X17930D01*
X18080D02*
X18380D01*
X18680D02*
X18830D01*
X18980D02*
X19130D01*
X19580D02*
X19730D01*
X20030D02*
X20330D01*
X15980Y8920D02*
X16120D01*
X16870D02*
X17020D01*
X17180D02*
X17480D01*
X17780D02*
X17930D01*
X18080D02*
X18380D01*
X18680D02*
X18830D01*
X18980D02*
X19130D01*
X19580D02*
X19730D01*
X20030D02*
X20330D01*
X15980Y8910D02*
X16120D01*
X16870D02*
X17020D01*
X17180D02*
X17480D01*
X17780D02*
X17930D01*
X18080D02*
X18380D01*
X18680D02*
X18830D01*
X18980D02*
X19130D01*
X19580D02*
X19730D01*
X20030D02*
X20330D01*
X15980Y8900D02*
X16120D01*
X16280D02*
X16720D01*
X16870D02*
X17020D01*
X17180D02*
X17330D01*
X17930D02*
X18080D01*
X18230D02*
X18530D01*
X18680D02*
X18830D01*
X18980D02*
X19880D01*
X20030D02*
X20180D01*
X15980Y8890D02*
X16120D01*
X16280D02*
X16720D01*
X16870D02*
X17020D01*
X17180D02*
X17330D01*
X17930D02*
X18080D01*
X18230D02*
X18530D01*
X18680D02*
X18830D01*
X18980D02*
X19880D01*
X20030D02*
X20180D01*
X15980Y8880D02*
X16120D01*
X16280D02*
X16720D01*
X16870D02*
X17020D01*
X17180D02*
X17330D01*
X17930D02*
X18080D01*
X18230D02*
X18530D01*
X18680D02*
X18830D01*
X18980D02*
X19880D01*
X20030D02*
X20180D01*
X15980Y8870D02*
X16120D01*
X16280D02*
X16720D01*
X16870D02*
X17020D01*
X17180D02*
X17330D01*
X17930D02*
X18080D01*
X18230D02*
X18530D01*
X18680D02*
X18830D01*
X18980D02*
X19880D01*
X20030D02*
X20180D01*
X15980Y8860D02*
X16120D01*
X16280D02*
X16720D01*
X16870D02*
X17020D01*
X17180D02*
X17330D01*
X17930D02*
X18080D01*
X18230D02*
X18530D01*
X18680D02*
X18830D01*
X18980D02*
X19880D01*
X20030D02*
X20180D01*
X15980Y8850D02*
X16120D01*
X16280D02*
X16720D01*
X16870D02*
X17020D01*
X17180D02*
X17330D01*
X17930D02*
X18080D01*
X18230D02*
X18530D01*
X18680D02*
X18830D01*
X18980D02*
X19880D01*
X20030D02*
X20180D01*
X15980Y8840D02*
X16120D01*
X16280D02*
X16720D01*
X16870D02*
X17020D01*
X17180D02*
X17330D01*
X17930D02*
X18080D01*
X18230D02*
X18530D01*
X18680D02*
X18830D01*
X18980D02*
X19880D01*
X20030D02*
X20180D01*
X15980Y8830D02*
X16120D01*
X16280D02*
X16720D01*
X16870D02*
X17020D01*
X17180D02*
X17330D01*
X17930D02*
X18080D01*
X18230D02*
X18530D01*
X18680D02*
X18830D01*
X18980D02*
X19880D01*
X20030D02*
X20180D01*
X15980Y8820D02*
X16120D01*
X16280D02*
X16720D01*
X16870D02*
X17020D01*
X17180D02*
X17330D01*
X17930D02*
X18080D01*
X18230D02*
X18530D01*
X18680D02*
X18830D01*
X18980D02*
X19880D01*
X20030D02*
X20180D01*
X15980Y8810D02*
X16120D01*
X16280D02*
X16720D01*
X16870D02*
X17020D01*
X17180D02*
X17330D01*
X17930D02*
X18080D01*
X18230D02*
X18530D01*
X18680D02*
X18830D01*
X18980D02*
X19880D01*
X20030D02*
X20180D01*
X15980Y8800D02*
X16120D01*
X16280D02*
X16720D01*
X16870D02*
X17020D01*
X17180D02*
X17330D01*
X17930D02*
X18080D01*
X18230D02*
X18530D01*
X18680D02*
X18830D01*
X18980D02*
X19880D01*
X20030D02*
X20180D01*
X15980Y8790D02*
X16120D01*
X16280D02*
X16720D01*
X16870D02*
X17020D01*
X17180D02*
X17330D01*
X17930D02*
X18080D01*
X18230D02*
X18530D01*
X18680D02*
X18830D01*
X18980D02*
X19880D01*
X20030D02*
X20180D01*
X15980Y8780D02*
X16120D01*
X16280D02*
X16720D01*
X16870D02*
X17020D01*
X17180D02*
X17330D01*
X17930D02*
X18080D01*
X18230D02*
X18530D01*
X18680D02*
X18830D01*
X18980D02*
X19880D01*
X20030D02*
X20180D01*
X15980Y8770D02*
X16120D01*
X16280D02*
X16720D01*
X16870D02*
X17020D01*
X17180D02*
X17330D01*
X17930D02*
X18080D01*
X18230D02*
X18530D01*
X18680D02*
X18830D01*
X18980D02*
X19880D01*
X20030D02*
X20180D01*
X15980Y8760D02*
X16120D01*
X16280D02*
X16720D01*
X16870D02*
X17020D01*
X17180D02*
X17330D01*
X17930D02*
X18080D01*
X18230D02*
X18530D01*
X18680D02*
X18830D01*
X18980D02*
X19880D01*
X20030D02*
X20180D01*
X15980Y8750D02*
X16120D01*
X16280D02*
X16720D01*
X16870D02*
X17020D01*
X17330D02*
X17480D01*
X17780D02*
X18080D01*
X18530D02*
X18680D01*
X18980D02*
X19280D01*
X19580D02*
X20030D01*
X15980Y8740D02*
X16120D01*
X16280D02*
X16720D01*
X16870D02*
X17020D01*
X17330D02*
X17480D01*
X17780D02*
X18080D01*
X18530D02*
X18680D01*
X18980D02*
X19280D01*
X19580D02*
X20030D01*
X15980Y8730D02*
X16120D01*
X16280D02*
X16720D01*
X16870D02*
X17020D01*
X17330D02*
X17480D01*
X17780D02*
X18080D01*
X18530D02*
X18680D01*
X18980D02*
X19280D01*
X19580D02*
X20030D01*
X15980Y8720D02*
X16120D01*
X16280D02*
X16720D01*
X16870D02*
X17020D01*
X17330D02*
X17480D01*
X17780D02*
X18080D01*
X18530D02*
X18680D01*
X18980D02*
X19280D01*
X19580D02*
X20030D01*
X15980Y8710D02*
X16120D01*
X16280D02*
X16720D01*
X16870D02*
X17020D01*
X17330D02*
X17480D01*
X17780D02*
X18080D01*
X18530D02*
X18680D01*
X18980D02*
X19280D01*
X19580D02*
X20030D01*
X15980Y8700D02*
X16120D01*
X16280D02*
X16720D01*
X16870D02*
X17020D01*
X17330D02*
X17480D01*
X17780D02*
X18080D01*
X18530D02*
X18680D01*
X18980D02*
X19280D01*
X19580D02*
X20030D01*
X15980Y8690D02*
X16120D01*
X16280D02*
X16720D01*
X16870D02*
X17020D01*
X17330D02*
X17480D01*
X17780D02*
X18080D01*
X18530D02*
X18680D01*
X18980D02*
X19280D01*
X19580D02*
X20030D01*
X15980Y8680D02*
X16120D01*
X16280D02*
X16720D01*
X16870D02*
X17020D01*
X17330D02*
X17480D01*
X17780D02*
X18080D01*
X18530D02*
X18680D01*
X18980D02*
X19280D01*
X19580D02*
X20030D01*
X15980Y8670D02*
X16120D01*
X16280D02*
X16720D01*
X16870D02*
X17020D01*
X17330D02*
X17480D01*
X17780D02*
X18080D01*
X18530D02*
X18680D01*
X18980D02*
X19280D01*
X19580D02*
X20030D01*
X15980Y8660D02*
X16120D01*
X16280D02*
X16720D01*
X16870D02*
X17020D01*
X17330D02*
X17480D01*
X17780D02*
X18080D01*
X18530D02*
X18680D01*
X18980D02*
X19280D01*
X19580D02*
X20030D01*
X15980Y8650D02*
X16120D01*
X16280D02*
X16720D01*
X16870D02*
X17020D01*
X17330D02*
X17480D01*
X17780D02*
X18080D01*
X18530D02*
X18680D01*
X18980D02*
X19280D01*
X19580D02*
X20030D01*
X15980Y8640D02*
X16120D01*
X16280D02*
X16720D01*
X16870D02*
X17020D01*
X17330D02*
X17480D01*
X17780D02*
X18080D01*
X18530D02*
X18680D01*
X18980D02*
X19280D01*
X19580D02*
X20030D01*
X15980Y8630D02*
X16120D01*
X16280D02*
X16720D01*
X16870D02*
X17020D01*
X17330D02*
X17480D01*
X17780D02*
X18080D01*
X18530D02*
X18680D01*
X18980D02*
X19280D01*
X19580D02*
X20030D01*
X15980Y8620D02*
X16120D01*
X16280D02*
X16720D01*
X16870D02*
X17020D01*
X17330D02*
X17480D01*
X17780D02*
X18080D01*
X18530D02*
X18680D01*
X18980D02*
X19280D01*
X19580D02*
X20030D01*
X15980Y8610D02*
X16120D01*
X16280D02*
X16720D01*
X16870D02*
X17020D01*
X17330D02*
X17480D01*
X17780D02*
X18080D01*
X18530D02*
X18680D01*
X18980D02*
X19280D01*
X19580D02*
X20030D01*
X15980Y8600D02*
X16120D01*
X16280D02*
X16720D01*
X16870D02*
X17020D01*
X17180D02*
X18680D01*
X18830D02*
X18980D01*
X19430D02*
X19880D01*
X20180D02*
X20330D01*
X15980Y8590D02*
X16120D01*
X16280D02*
X16720D01*
X16870D02*
X17020D01*
X17180D02*
X18680D01*
X18830D02*
X18980D01*
X19430D02*
X19880D01*
X20180D02*
X20330D01*
X15980Y8580D02*
X16120D01*
X16280D02*
X16720D01*
X16870D02*
X17020D01*
X17180D02*
X18680D01*
X18830D02*
X18980D01*
X19430D02*
X19880D01*
X20180D02*
X20330D01*
X15980Y8570D02*
X16120D01*
X16280D02*
X16720D01*
X16870D02*
X17020D01*
X17180D02*
X18680D01*
X18830D02*
X18980D01*
X19430D02*
X19880D01*
X20180D02*
X20330D01*
X15980Y8560D02*
X16120D01*
X16280D02*
X16720D01*
X16870D02*
X17020D01*
X17180D02*
X18680D01*
X18830D02*
X18980D01*
X19430D02*
X19880D01*
X20180D02*
X20330D01*
X15980Y8550D02*
X16120D01*
X16280D02*
X16720D01*
X16870D02*
X17020D01*
X17180D02*
X18680D01*
X18830D02*
X18980D01*
X19430D02*
X19880D01*
X20180D02*
X20330D01*
X15980Y8540D02*
X16120D01*
X16280D02*
X16720D01*
X16870D02*
X17020D01*
X17180D02*
X18680D01*
X18830D02*
X18980D01*
X19430D02*
X19880D01*
X20180D02*
X20330D01*
X15980Y8530D02*
X16120D01*
X16280D02*
X16720D01*
X16870D02*
X17020D01*
X17180D02*
X18680D01*
X18830D02*
X18980D01*
X19430D02*
X19880D01*
X20180D02*
X20330D01*
X15980Y8520D02*
X16120D01*
X16280D02*
X16720D01*
X16870D02*
X17020D01*
X17180D02*
X18680D01*
X18830D02*
X18980D01*
X19430D02*
X19880D01*
X20180D02*
X20330D01*
X15980Y8510D02*
X16120D01*
X16280D02*
X16720D01*
X16870D02*
X17020D01*
X17180D02*
X18680D01*
X18830D02*
X18980D01*
X19430D02*
X19880D01*
X20180D02*
X20330D01*
X15980Y8500D02*
X16120D01*
X16280D02*
X16720D01*
X16870D02*
X17020D01*
X17180D02*
X18680D01*
X18830D02*
X18980D01*
X19430D02*
X19880D01*
X20180D02*
X20330D01*
X15980Y8490D02*
X16120D01*
X16280D02*
X16720D01*
X16870D02*
X17020D01*
X17180D02*
X18680D01*
X18830D02*
X18980D01*
X19430D02*
X19880D01*
X20180D02*
X20330D01*
X15980Y8480D02*
X16120D01*
X16280D02*
X16720D01*
X16870D02*
X17020D01*
X17180D02*
X18680D01*
X18830D02*
X18980D01*
X19430D02*
X19880D01*
X20180D02*
X20330D01*
X15980Y8470D02*
X16120D01*
X16280D02*
X16720D01*
X16870D02*
X17020D01*
X17180D02*
X18680D01*
X18830D02*
X18980D01*
X19430D02*
X19880D01*
X20180D02*
X20330D01*
X15980Y8460D02*
X16120D01*
X16870D02*
X17020D01*
X17180D02*
X18680D01*
X18830D02*
X18980D01*
X19430D02*
X19880D01*
X20180D02*
X20330D01*
X15980Y8450D02*
X16120D01*
X16870D02*
X17020D01*
X17480D02*
X17630D01*
X18380D02*
X18530D01*
X18980D02*
X19130D01*
X19280D02*
X19580D01*
X20030D02*
X20180D01*
X15980Y8440D02*
X16120D01*
X16870D02*
X17020D01*
X17480D02*
X17630D01*
X18380D02*
X18530D01*
X18980D02*
X19130D01*
X19280D02*
X19580D01*
X20030D02*
X20180D01*
X15980Y8430D02*
X16120D01*
X16870D02*
X17020D01*
X17480D02*
X17630D01*
X18380D02*
X18530D01*
X18980D02*
X19130D01*
X19280D02*
X19580D01*
X20030D02*
X20180D01*
X15980Y8420D02*
X16120D01*
X16870D02*
X17020D01*
X17480D02*
X17630D01*
X18380D02*
X18530D01*
X18980D02*
X19130D01*
X19280D02*
X19580D01*
X20030D02*
X20180D01*
X15980Y8410D02*
X16120D01*
X16870D02*
X17020D01*
X17480D02*
X17630D01*
X18380D02*
X18530D01*
X18980D02*
X19130D01*
X19280D02*
X19580D01*
X20030D02*
X20180D01*
X15980Y8400D02*
X16120D01*
X16870D02*
X17020D01*
X17480D02*
X17630D01*
X18380D02*
X18530D01*
X18980D02*
X19130D01*
X19280D02*
X19580D01*
X20030D02*
X20180D01*
X15980Y8390D02*
X16120D01*
X16870D02*
X17020D01*
X17480D02*
X17630D01*
X18380D02*
X18530D01*
X18980D02*
X19130D01*
X19280D02*
X19580D01*
X20030D02*
X20180D01*
X15980Y8380D02*
X16120D01*
X16870D02*
X17020D01*
X17480D02*
X17630D01*
X18380D02*
X18530D01*
X18980D02*
X19130D01*
X19280D02*
X19580D01*
X20030D02*
X20180D01*
X15980Y8370D02*
X16120D01*
X16870D02*
X17020D01*
X17480D02*
X17630D01*
X18380D02*
X18530D01*
X18980D02*
X19130D01*
X19280D02*
X19580D01*
X20030D02*
X20180D01*
X15980Y8360D02*
X16120D01*
X16870D02*
X17020D01*
X17480D02*
X17630D01*
X18380D02*
X18530D01*
X18980D02*
X19130D01*
X19280D02*
X19580D01*
X20030D02*
X20180D01*
X15980Y8350D02*
X16120D01*
X16870D02*
X17020D01*
X17480D02*
X17630D01*
X18380D02*
X18530D01*
X18980D02*
X19130D01*
X19280D02*
X19580D01*
X20030D02*
X20180D01*
X15980Y8340D02*
X16120D01*
X16870D02*
X17020D01*
X17480D02*
X17630D01*
X18380D02*
X18530D01*
X18980D02*
X19130D01*
X19280D02*
X19580D01*
X20030D02*
X20180D01*
X15980Y8330D02*
X16120D01*
X16870D02*
X17020D01*
X17480D02*
X17630D01*
X18380D02*
X18530D01*
X18980D02*
X19130D01*
X19280D02*
X19580D01*
X20030D02*
X20180D01*
X15980Y8320D02*
X16120D01*
X16870D02*
X17020D01*
X17480D02*
X17630D01*
X18380D02*
X18530D01*
X18980D02*
X19130D01*
X19280D02*
X19580D01*
X20030D02*
X20180D01*
X15980Y8310D02*
X17020D01*
X17480D02*
X17630D01*
X18380D02*
X18530D01*
X18980D02*
X19130D01*
X19280D02*
X19580D01*
X20030D02*
X20180D01*
X15980Y8300D02*
X17020D01*
X17630D02*
X18080D01*
X18230D02*
X18530D01*
X18830D02*
X19130D01*
X19580D02*
X19730D01*
X20030D02*
X20330D01*
X15980Y8290D02*
X17020D01*
X17630D02*
X18080D01*
X18230D02*
X18530D01*
X18830D02*
X19130D01*
X19580D02*
X19730D01*
X20030D02*
X20330D01*
X15980Y8280D02*
X17020D01*
X17630D02*
X18080D01*
X18230D02*
X18530D01*
X18830D02*
X19130D01*
X19580D02*
X19730D01*
X20030D02*
X20330D01*
X15980Y8270D02*
X17020D01*
X17630D02*
X18080D01*
X18230D02*
X18530D01*
X18830D02*
X19130D01*
X19580D02*
X19730D01*
X20030D02*
X20330D01*
X15980Y8260D02*
X17020D01*
X17630D02*
X18080D01*
X18230D02*
X18530D01*
X18830D02*
X19130D01*
X19580D02*
X19730D01*
X20030D02*
X20330D01*
X15980Y8250D02*
X17020D01*
X17630D02*
X18080D01*
X18230D02*
X18530D01*
X18830D02*
X19130D01*
X19580D02*
X19730D01*
X20030D02*
X20330D01*
X15980Y8240D02*
X17020D01*
X17630D02*
X18080D01*
X18230D02*
X18530D01*
X18830D02*
X19130D01*
X19580D02*
X19730D01*
X20030D02*
X20330D01*
X15980Y8230D02*
X17020D01*
X17630D02*
X18080D01*
X18230D02*
X18530D01*
X18830D02*
X19130D01*
X19580D02*
X19730D01*
X20030D02*
X20330D01*
X15980Y8220D02*
X17020D01*
X17630D02*
X18080D01*
X18230D02*
X18530D01*
X18830D02*
X19130D01*
X19580D02*
X19730D01*
X20030D02*
X20330D01*
X15980Y8210D02*
X17020D01*
X17630D02*
X18080D01*
X18230D02*
X18530D01*
X18830D02*
X19130D01*
X19580D02*
X19730D01*
X20030D02*
X20330D01*
X15980Y8200D02*
X17020D01*
X17630D02*
X18080D01*
X18230D02*
X18530D01*
X18830D02*
X19130D01*
X19580D02*
X19730D01*
X20030D02*
X20330D01*
X15980Y8190D02*
X17020D01*
X17630D02*
X18080D01*
X18230D02*
X18530D01*
X18830D02*
X19130D01*
X19580D02*
X19730D01*
X20030D02*
X20330D01*
X15980Y8180D02*
X17020D01*
X17630D02*
X18080D01*
X18230D02*
X18530D01*
X18830D02*
X19130D01*
X19580D02*
X19730D01*
X20030D02*
X20330D01*
X15980Y8170D02*
X17020D01*
X17630D02*
X18080D01*
X18230D02*
X18530D01*
X18830D02*
X19130D01*
X19580D02*
X19730D01*
X20030D02*
X20330D01*
X15980Y8160D02*
X17020D01*
X17630D02*
X18080D01*
X18230D02*
X18530D01*
X18830D02*
X19130D01*
X19580D02*
X19730D01*
X20030D02*
X20330D01*
D19*
X-2990Y38558D02*
Y39558D01*
X3010Y38558D02*
Y39558D01*
X-2990Y38558D02*
X3010D01*
X-2990Y39558D02*
X3010D01*
X16395Y2630D02*
Y5070D01*
X19015D01*
Y2460D02*
Y5070D01*
X16395Y2460D02*
X19015Y2460D01*
X16395Y2460D02*
Y2760D01*
X0Y3395D02*
X3480Y6875D01*
X0Y10355D02*
X3480Y6875D01*
X-3480D02*
X0Y10355D01*
X-3480Y6875D02*
X0Y3395D01*
X13601Y-7572D02*
Y-6608D01*
X17538Y-7572D02*
Y-6608D01*
X13601Y-7572D02*
X17538D01*
X13601Y-6608D02*
X17538D01*
X-17849D02*
X-13911D01*
X-17849Y-7572D02*
X-13911D01*
Y-6608D01*
X-17849Y-7572D02*
Y-6608D01*
X3691Y23089D02*
Y30451D01*
X-3671Y23089D02*
Y30451D01*
Y23089D02*
X3691D01*
X-3671Y30451D02*
X3691D01*
X8645Y2274D02*
X9275D01*
X8645Y306D02*
X9275D01*
X8645D02*
Y2274D01*
X9275Y306D02*
Y2274D01*
X-9215Y496D02*
Y2464D01*
X-9845Y496D02*
Y2464D01*
Y496D02*
X-9215D01*
X-9845Y2464D02*
X-9215D01*
X21790Y14830D02*
Y15830D01*
X15790Y14830D02*
Y15830D01*
X21790D01*
X15790Y14830D02*
X21790D01*
X12980Y30D02*
Y1030D01*
X16980D01*
X12980Y30D02*
X16980D01*
Y1030D01*
X-18050Y320D02*
Y1320D01*
X-14050D01*
X-18050Y320D02*
X-14050D01*
Y1320D01*
X-16680Y16190D02*
Y17190D01*
X-12680D01*
X-16680Y16190D02*
X-12680D01*
Y17190D01*
X-16320Y22250D02*
X-15320D01*
X-16320D02*
Y26250D01*
X-15320Y22250D02*
Y26250D01*
X-16320D02*
X-15320D01*
X-4250Y500D02*
X5000D01*
X-5000D02*
X-4250D01*
X-5000Y-500D02*
Y500D01*
Y-500D02*
X5000D01*
Y500D01*
X33368Y8210D02*
X34368D01*
X33368Y2210D02*
X34368D01*
X33368D02*
Y8210D01*
X34368Y2210D02*
Y8210D01*
X29010Y19984D02*
X29776Y20626D01*
X32867Y15387D02*
X33633Y16030D01*
X29010Y19984D02*
X32867Y15387D01*
X29776Y20626D02*
X33633Y16030D01*
X21181Y30087D02*
X21681Y30953D01*
X26377Y27087D02*
X26877Y27953D01*
X21181Y30087D02*
X26377Y27087D01*
X21681Y30953D02*
X26877Y27953D01*
X10036Y36428D02*
X10210Y37413D01*
X15945Y35386D02*
X16118Y36371D01*
X10036Y36428D02*
X15945Y35386D01*
X10210Y37413D02*
X16118Y36371D01*
X-15844Y36485D02*
X-9935Y37527D01*
X-15670Y35500D02*
X-9761Y36542D01*
X-9935Y37527D02*
X-9761Y36542D01*
X-15844Y36485D02*
X-15670Y35500D01*
X-26657Y28163D02*
X-26157Y27297D01*
X-21461Y31163D02*
X-20961Y30297D01*
X-26157Y27297D02*
X-20961Y30297D01*
X-26657Y28163D02*
X-21461Y31163D01*
X-33493Y16300D02*
X-32727Y15657D01*
X-29636Y20896D02*
X-28870Y20254D01*
X-32727Y15657D02*
X-28870Y20254D01*
X-33493Y16300D02*
X-29636Y20896D01*
X-34348Y2210D02*
X-33348D01*
X-34348Y8210D02*
X-33348D01*
Y2210D02*
Y8210D01*
X-34348Y2210D02*
Y8210D01*
D20*
X7780Y5610D02*
X8230D01*
X7780Y6760D02*
X8230D01*
Y5610D02*
Y5810D01*
X7330Y6160D02*
Y6210D01*
X8230Y6560D02*
Y6760D01*
X25785Y2162D02*
X25985D01*
X25385Y3061D02*
X25435D01*
X24835Y2162D02*
X25035D01*
X25985D02*
Y2612D01*
X24835Y2162D02*
Y2612D01*
X-4710Y-18950D02*
Y-18500D01*
X-3560Y-18950D02*
Y-18500D01*
X-4710Y-18950D02*
X-4510D01*
X-4160Y-18050D02*
X-4110D01*
X-3760Y-18950D02*
X-3560D01*
X11223Y10540D02*
X11600Y10163D01*
Y10540D02*
X11223Y10163D01*
X-1940Y-17950D02*
X-1563Y-17573D01*
X-1940D02*
X-1563Y-17950D01*
X2410Y-18050D02*
Y-18583D01*
D21*
X-1420Y-5690D02*
Y-5114D01*
Y-5690D02*
X1180D01*
Y-3666D02*
Y-3090D01*
X-1420D02*
X1180D01*
X-1420Y-3666D02*
Y-3090D01*
X1180Y-5690D02*
Y-5114D01*
D22*
X22634Y15216D02*
X22902D01*
X23059Y14755D02*
Y15208D01*
X22469Y14755D02*
Y15208D01*
X22477Y14755D02*
X23059Y14755D01*
X22468Y15358D02*
Y15771D01*
X22586Y15889D02*
X22625D01*
X22468Y15771D02*
X22586Y15889D01*
X22625D02*
X22901D01*
X22940D01*
X23058Y15771D01*
Y15358D02*
Y15771D01*
X22764Y15216D02*
Y15350D01*
X12215Y20966D02*
X12349D01*
X12357Y20672D02*
X12770D01*
X12888Y20790D01*
Y20829D01*
Y21105D01*
X12770Y21262D02*
X12888Y21144D01*
Y21105D02*
Y21144D01*
X12357Y21262D02*
X12770D01*
X11754Y20671D02*
Y21253D01*
Y21261D02*
X12207D01*
X11754Y20671D02*
X12207D01*
X12215Y20828D02*
Y21096D01*
X19998Y651D02*
X20132D01*
X19577Y946D02*
X19990D01*
X19459Y827D02*
X19577Y946D01*
X19459Y788D02*
Y827D01*
Y512D02*
Y788D01*
Y473D02*
X19577Y355D01*
X19459Y473D02*
Y512D01*
X19577Y355D02*
X19990D01*
X20593Y364D02*
Y946D01*
X20140Y356D02*
X20593D01*
X20140Y946D02*
X20593D01*
X20132Y521D02*
Y789D01*
X13417Y3841D02*
X13551D01*
X13559Y3546D02*
X13973D01*
X14091Y3664D01*
Y3704D01*
Y3979D01*
X13973Y4137D02*
X14091Y4019D01*
Y3979D02*
Y4019D01*
X13559Y4137D02*
X13973D01*
X12957Y3545D02*
Y4128D01*
Y4136D02*
X13409D01*
X12957Y3545D02*
X13409D01*
X13417Y3703D02*
Y3970D01*
X-4629Y32992D02*
X-4361D01*
X-4204Y32531D02*
Y32984D01*
X-4794Y32531D02*
Y32984D01*
X-4786Y32531D02*
X-4204D01*
X-4795Y33134D02*
Y33547D01*
X-4677Y33665D02*
X-4638D01*
X-4795Y33547D02*
X-4677Y33665D01*
X-4638D02*
X-4362D01*
X-4323D01*
X-4204Y33547D01*
Y33134D02*
Y33547D01*
X-4499Y32992D02*
Y33126D01*
D23*
X-7401Y35770D02*
Y34520D01*
X-7342Y35770D02*
Y34520D01*
X-7580Y35770D02*
X-6866D01*
X-6687Y35710D01*
X-6628Y35651D01*
X-6568Y35532D01*
Y35353D01*
X-6628Y35234D01*
X-6687Y35175D01*
X-6866Y35115D01*
X-7342D01*
X-6866Y35770D02*
X-6747Y35710D01*
X-6687Y35651D01*
X-6628Y35532D01*
Y35353D01*
X-6687Y35234D01*
X-6747Y35175D01*
X-6866Y35115D01*
X-7580Y34520D02*
X-7163D01*
X-6283Y35234D02*
Y35175D01*
X-6342D01*
Y35234D01*
X-6283Y35294D01*
X-6164Y35353D01*
X-5926D01*
X-5807Y35294D01*
X-5747Y35234D01*
X-5688Y35115D01*
Y34699D01*
X-5628Y34580D01*
X-5569Y34520D01*
X-5747Y35234D02*
Y34699D01*
X-5688Y34580D01*
X-5569Y34520D01*
X-5509D01*
X-5747Y35115D02*
X-5807Y35056D01*
X-6164Y34996D01*
X-6342Y34937D01*
X-6402Y34818D01*
Y34699D01*
X-6342Y34580D01*
X-6164Y34520D01*
X-5985D01*
X-5866Y34580D01*
X-5747Y34699D01*
X-6164Y34996D02*
X-6283Y34937D01*
X-6342Y34818D01*
Y34699D01*
X-6283Y34580D01*
X-6164Y34520D01*
X-4973D02*
X-5033Y34580D01*
X-5092Y34758D01*
Y35770D01*
X-5152D01*
Y34758D01*
X-5092Y34580D01*
X-4973Y34520D01*
X-4854D01*
X-4735Y34580D01*
X-4676Y34699D01*
X-5330Y35353D02*
X-4854D01*
X-4295Y35770D02*
Y34520D01*
X-4235Y35770D02*
Y34520D01*
Y35175D02*
X-4116Y35294D01*
X-3938Y35353D01*
X-3819D01*
X-3640Y35294D01*
X-3581Y35175D01*
Y34520D01*
X-3819Y35353D02*
X-3700Y35294D01*
X-3640Y35175D01*
Y34520D01*
X-4474Y35770D02*
X-4235D01*
X-4474Y34520D02*
X-4057D01*
X-3819D02*
X-3402D01*
X-2766Y35710D02*
X-2825Y35651D01*
X-2766Y35591D01*
X-2706Y35651D01*
Y35710D01*
X-2766Y35770D01*
X-2885D01*
X-3004Y35710D01*
X-3063Y35591D01*
Y34520D01*
X-2885Y35770D02*
X-2944Y35710D01*
X-3004Y35591D01*
Y34520D01*
X-3242Y35353D02*
X-2766D01*
X-3242Y34520D02*
X-2825D01*
X-2313Y35770D02*
X-2373Y35710D01*
X-2313Y35651D01*
X-2254Y35710D01*
X-2313Y35770D01*
Y35353D02*
Y34520D01*
X-2254Y35353D02*
Y34520D01*
X-2492Y35353D02*
X-2254D01*
X-2492Y34520D02*
X-2075D01*
X-1671Y35353D02*
Y34520D01*
X-1611Y35353D02*
Y34520D01*
Y35175D02*
X-1492Y35294D01*
X-1313Y35353D01*
X-1194D01*
X-1016Y35294D01*
X-956Y35175D01*
Y34520D01*
X-1194Y35353D02*
X-1075Y35294D01*
X-1016Y35175D01*
Y34520D01*
X-1849Y35353D02*
X-1611D01*
X-1849Y34520D02*
X-1433D01*
X-1194D02*
X-778D01*
X97Y35770D02*
Y34520D01*
X156Y35770D02*
Y34520D01*
X97Y35175D02*
X-22Y35294D01*
X-141Y35353D01*
X-260D01*
X-439Y35294D01*
X-558Y35175D01*
X-617Y34996D01*
Y34877D01*
X-558Y34699D01*
X-439Y34580D01*
X-260Y34520D01*
X-141D01*
X-22Y34580D01*
X97Y34699D01*
X-260Y35353D02*
X-379Y35294D01*
X-498Y35175D01*
X-558Y34996D01*
Y34877D01*
X-498Y34699D01*
X-379Y34580D01*
X-260Y34520D01*
X-82Y35770D02*
X156D01*
X97Y34520D02*
X335D01*
X567Y34996D02*
X1281D01*
Y35115D01*
X1222Y35234D01*
X1162Y35294D01*
X1043Y35353D01*
X865D01*
X686Y35294D01*
X567Y35175D01*
X508Y34996D01*
Y34877D01*
X567Y34699D01*
X686Y34580D01*
X865Y34520D01*
X984D01*
X1162Y34580D01*
X1281Y34699D01*
X1222Y34996D02*
Y35175D01*
X1162Y35294D01*
X865Y35353D02*
X746Y35294D01*
X627Y35175D01*
X567Y34996D01*
Y34877D01*
X627Y34699D01*
X746Y34580D01*
X865Y34520D01*
X1650Y35353D02*
Y34520D01*
X1710Y35353D02*
Y34520D01*
Y34996D02*
X1769Y35175D01*
X1888Y35294D01*
X2007Y35353D01*
X2186D01*
X2245Y35294D01*
Y35234D01*
X2186Y35175D01*
X2126Y35234D01*
X2186Y35294D01*
X1472Y35353D02*
X1710D01*
X1472Y34520D02*
X1888D01*
X3739Y35770D02*
Y34520D01*
X3799Y35770D02*
X4513Y34639D01*
X3799Y35651D02*
X4513Y34520D01*
Y35770D02*
Y34520D01*
X3560Y35770D02*
X3799D01*
X4334D02*
X4691D01*
X3560Y34520D02*
X3918D01*
X5262Y35770D02*
X5084Y35710D01*
X4965Y35591D01*
X4905Y35472D01*
X4846Y35234D01*
Y35056D01*
X4905Y34818D01*
X4965Y34699D01*
X5084Y34580D01*
X5262Y34520D01*
X5382D01*
X5560Y34580D01*
X5679Y34699D01*
X5739Y34818D01*
X5798Y35056D01*
Y35234D01*
X5739Y35472D01*
X5679Y35591D01*
X5560Y35710D01*
X5382Y35770D01*
X5262D01*
X5143Y35710D01*
X5024Y35591D01*
X4965Y35472D01*
X4905Y35234D01*
Y35056D01*
X4965Y34818D01*
X5024Y34699D01*
X5143Y34580D01*
X5262Y34520D01*
X5382D02*
X5501Y34580D01*
X5620Y34699D01*
X5679Y34818D01*
X5739Y35056D01*
Y35234D01*
X5679Y35472D01*
X5620Y35591D01*
X5501Y35710D01*
X5382Y35770D01*
X6030Y34639D02*
X5971Y34580D01*
X6030Y34520D01*
X6090Y34580D01*
X6030Y34639D01*
X6346Y35532D02*
X6465Y35591D01*
X6643Y35770D01*
Y34520D01*
X6584Y35710D02*
Y34520D01*
X6346D02*
X6881D01*
M02*
