G04*
G04 #@! TF.GenerationSoftware,Altium Limited,Altium Designer,20.1.11 (218)*
G04*
G04 Layer_Color=128*
%FSLAX24Y24*%
%MOIN*%
G70*
G04*
G04 #@! TF.SameCoordinates,BD3A0D93-D2E9-4D9D-BC1F-92CABD7513BA*
G04*
G04*
G04 #@! TF.FilePolarity,Positive*
G04*
G01*
G75*
%ADD177C,0.0020*%
D177*
X4343Y-21453D02*
X4777D01*
X4560Y-21670D02*
Y-21237D01*
X5343Y-21453D02*
X5777D01*
X5560Y-21670D02*
Y-21237D01*
X6343Y-21453D02*
X6777D01*
X6560Y-21670D02*
Y-21237D01*
X7343Y-21453D02*
X7777D01*
X7560Y-21670D02*
Y-21237D01*
X-7797Y-21453D02*
X-7363D01*
X-7580Y-21670D02*
Y-21237D01*
X-6797Y-21453D02*
X-6363D01*
X-6580Y-21670D02*
Y-21237D01*
X-5797Y-21453D02*
X-5363D01*
X-5580Y-21670D02*
Y-21237D01*
X-4797Y-21453D02*
X-4363D01*
X-4580Y-21670D02*
Y-21237D01*
X2333Y39058D02*
X2687D01*
X2510Y38881D02*
Y39235D01*
X1333Y39058D02*
X1687D01*
X1510Y38881D02*
Y39235D01*
X333Y39058D02*
X687D01*
X510Y38881D02*
Y39235D01*
X-667Y39058D02*
X-313D01*
X-490Y38881D02*
Y39235D01*
X-1667Y39058D02*
X-1313D01*
X-1490Y38881D02*
Y39235D01*
X-2667Y39058D02*
X-2313D01*
X-2490Y38881D02*
Y39235D01*
X16113Y15330D02*
X16467D01*
X16290Y15153D02*
Y15507D01*
X17113Y15330D02*
X17467D01*
X17290Y15153D02*
Y15507D01*
X18113Y15330D02*
X18467D01*
X18290Y15153D02*
Y15507D01*
X19113Y15330D02*
X19467D01*
X19290Y15153D02*
Y15507D01*
X20113Y15330D02*
X20467D01*
X20290Y15153D02*
Y15507D01*
X21113Y15330D02*
X21467D01*
X21290Y15153D02*
Y15507D01*
X16303Y530D02*
X16657D01*
X16480Y353D02*
Y707D01*
X15303Y530D02*
X15657D01*
X15480Y353D02*
Y707D01*
X14303Y530D02*
X14657D01*
X14480Y353D02*
Y707D01*
X13303Y530D02*
X13657D01*
X13480Y353D02*
Y707D01*
X23032Y16985D02*
X23328D01*
X23180Y16838D02*
Y17133D01*
X23032Y20135D02*
X23328D01*
X23180Y19987D02*
Y20282D01*
X22145Y17627D02*
X22381D01*
X22263Y17509D02*
Y17745D01*
X22145Y19493D02*
X22381D01*
X22263Y19375D02*
Y19611D01*
X23979Y19493D02*
X24215D01*
X24097Y19375D02*
Y19611D01*
X23979Y17627D02*
X24215D01*
X24097Y17509D02*
Y17745D01*
X-14727Y820D02*
X-14373D01*
X-14550Y643D02*
Y997D01*
X-15727Y820D02*
X-15373D01*
X-15550Y643D02*
Y997D01*
X-16727Y820D02*
X-16373D01*
X-16550Y643D02*
Y997D01*
X-17727Y820D02*
X-17373D01*
X-17550Y643D02*
Y997D01*
X-13357Y16690D02*
X-13003D01*
X-13180Y16513D02*
Y16867D01*
X-14357Y16690D02*
X-14003D01*
X-14180Y16513D02*
Y16867D01*
X-15357Y16690D02*
X-15003D01*
X-15180Y16513D02*
Y16867D01*
X-16357Y16690D02*
X-16003D01*
X-16180Y16513D02*
Y16867D01*
X29259Y2044D02*
X29495D01*
X29377Y1926D02*
Y2162D01*
X29259Y3910D02*
X29495D01*
X29377Y3792D02*
Y4028D01*
X27425Y3910D02*
X27661D01*
X27543Y3792D02*
Y4028D01*
X27425Y2044D02*
X27661D01*
X27543Y1926D02*
Y2162D01*
X28312Y4551D02*
X28608D01*
X28460Y4404D02*
Y4699D01*
X28312Y1402D02*
X28608D01*
X28460Y1254D02*
Y1550D01*
X-15997Y25750D02*
X-15643D01*
X-15820Y25573D02*
Y25927D01*
X-15997Y24750D02*
X-15643D01*
X-15820Y24573D02*
Y24927D01*
X-15997Y23750D02*
X-15643D01*
X-15820Y23573D02*
Y23927D01*
X-15997Y22750D02*
X-15643D01*
X-15820Y22573D02*
Y22927D01*
X14806Y-21453D02*
X15239D01*
X15023Y-21670D02*
Y-21237D01*
X13822Y-21453D02*
X14255D01*
X14039Y-21670D02*
Y-21237D01*
X12838Y-21453D02*
X13271D01*
X13054Y-21670D02*
Y-21237D01*
X11853Y-21453D02*
X12287D01*
X12070Y-21670D02*
Y-21237D01*
X10869Y-21453D02*
X11302D01*
X11086Y-21670D02*
Y-21237D01*
X9885Y-21453D02*
X10318D01*
X10101Y-21670D02*
Y-21237D01*
X-2677Y0D02*
X-2323D01*
X-2500Y-177D02*
Y177D01*
X4323Y0D02*
X4677D01*
X4500Y-177D02*
Y177D01*
X3323Y0D02*
X3677D01*
X3500Y-177D02*
Y177D01*
X2323Y0D02*
X2677D01*
X2500Y-177D02*
Y177D01*
X1323Y0D02*
X1677D01*
X1500Y-177D02*
Y177D01*
X323Y0D02*
X677D01*
X500Y-177D02*
Y177D01*
X-677Y0D02*
X-323D01*
X-500Y-177D02*
Y177D01*
X-1677Y0D02*
X-1323D01*
X-1500Y-177D02*
Y177D01*
X-3677Y0D02*
X-3323D01*
X-3500Y-177D02*
Y177D01*
X-4677Y0D02*
X-4323D01*
X-4500Y-177D02*
Y177D01*
X-15209Y-21453D02*
X-14776D01*
X-14993Y-21670D02*
Y-21237D01*
X-14225Y-21453D02*
X-13792D01*
X-14009Y-21670D02*
Y-21237D01*
X-13241Y-21453D02*
X-12808D01*
X-13024Y-21670D02*
Y-21237D01*
X-12257Y-21453D02*
X-11823D01*
X-12040Y-21670D02*
Y-21237D01*
X-11272Y-21453D02*
X-10839D01*
X-11056Y-21670D02*
Y-21237D01*
X-10288Y-21453D02*
X-9855D01*
X-10072Y-21670D02*
Y-21237D01*
X-1919Y-17088D02*
X-895D01*
X-1407Y-17600D02*
Y-16576D01*
X915Y-17088D02*
X1939D01*
X1427Y-17600D02*
Y-16576D01*
X-2766Y-19450D02*
X-2529D01*
X-2647Y-19568D02*
Y-19332D01*
X2549Y-19450D02*
X2786D01*
X2667Y-19568D02*
Y-19332D01*
X33691Y2710D02*
X34045D01*
X33868Y2533D02*
Y2887D01*
X33691Y3710D02*
X34045D01*
X33868Y3533D02*
Y3887D01*
X33691Y4710D02*
X34045D01*
X33868Y4533D02*
Y4887D01*
X33691Y5710D02*
X34045D01*
X33868Y5533D02*
Y5887D01*
X33691Y6710D02*
X34045D01*
X33868Y6533D02*
Y6887D01*
X33691Y7710D02*
X34045D01*
X33868Y7533D02*
Y7887D01*
X32751Y16092D02*
X33106D01*
X32928Y15915D02*
Y16269D01*
X32108Y16858D02*
X32463D01*
X32286Y16681D02*
Y17035D01*
X31466Y17624D02*
X31820D01*
X31643Y17447D02*
Y17801D01*
X30823Y18390D02*
X31177D01*
X31000Y18213D02*
Y18567D01*
X30180Y19156D02*
X30534D01*
X30357Y18979D02*
Y19333D01*
X29537Y19922D02*
X29892D01*
X29714Y19745D02*
Y20099D01*
X26017Y27770D02*
X26371D01*
X26194Y27593D02*
Y27947D01*
X25151Y28270D02*
X25505D01*
X25328Y28093D02*
Y28447D01*
X24285Y28770D02*
X24639D01*
X24462Y28593D02*
Y28947D01*
X23419Y29270D02*
X23773D01*
X23596Y29093D02*
Y29447D01*
X22553Y29770D02*
X22907D01*
X22730Y29593D02*
Y29947D01*
X21687Y30270D02*
X22041D01*
X21864Y30093D02*
Y30447D01*
X15362Y35965D02*
X15716D01*
X15539Y35788D02*
Y36143D01*
X14377Y36139D02*
X14732D01*
X14554Y35962D02*
Y36316D01*
X13392Y36313D02*
X13747D01*
X13570Y36136D02*
Y36490D01*
X12408Y36486D02*
X12762D01*
X12585Y36309D02*
Y36664D01*
X11423Y36660D02*
X11777D01*
X11600Y36483D02*
Y36837D01*
X10438Y36834D02*
X10792D01*
X10615Y36656D02*
Y37011D01*
X-15442Y36079D02*
X-15087D01*
X-15264Y35902D02*
Y36256D01*
X-14457Y36253D02*
X-14102D01*
X-14280Y36076D02*
Y36430D01*
X-13472Y36426D02*
X-13118D01*
X-13295Y36249D02*
Y36604D01*
X-12487Y36600D02*
X-12133D01*
X-12310Y36423D02*
Y36777D01*
X-11502Y36774D02*
X-11148D01*
X-11325Y36596D02*
Y36951D01*
X-10518Y36947D02*
X-10163D01*
X-10340Y36770D02*
Y37124D01*
X-21821Y30480D02*
X-21467D01*
X-21644Y30303D02*
Y30657D01*
X-22687Y29980D02*
X-22333D01*
X-22510Y29803D02*
Y30157D01*
X-23553Y29480D02*
X-23199D01*
X-23376Y29303D02*
Y29657D01*
X-24419Y28980D02*
X-24065D01*
X-24242Y28803D02*
Y29157D01*
X-25285Y28480D02*
X-24931D01*
X-25108Y28303D02*
Y28657D01*
X-26151Y27980D02*
X-25797D01*
X-25974Y27803D02*
Y28157D01*
X-29752Y20192D02*
X-29397D01*
X-29574Y20015D02*
Y20369D01*
X-30394Y19426D02*
X-30040D01*
X-30217Y19249D02*
Y19603D01*
X-31037Y18660D02*
X-30683D01*
X-30860Y18483D02*
Y18837D01*
X-31680Y17894D02*
X-31326D01*
X-31503Y17717D02*
Y18071D01*
X-32323Y17128D02*
X-31968D01*
X-32146Y16951D02*
Y17305D01*
X-32966Y16362D02*
X-32611D01*
X-32788Y16185D02*
Y16539D01*
X-34025Y7710D02*
X-33671D01*
X-33848Y7533D02*
Y7887D01*
X-34025Y6710D02*
X-33671D01*
X-33848Y6533D02*
Y6887D01*
X-34025Y5710D02*
X-33671D01*
X-33848Y5533D02*
Y5887D01*
X-34025Y4710D02*
X-33671D01*
X-33848Y4533D02*
Y4887D01*
X-34025Y3710D02*
X-33671D01*
X-33848Y3533D02*
Y3887D01*
X-34025Y2710D02*
X-33671D01*
X-33848Y2533D02*
Y2887D01*
X21360Y-3950D02*
X22620D01*
X21990Y-4580D02*
Y-3320D01*
X27624Y23699D02*
X28884D01*
X28254Y23069D02*
Y24329D01*
X21360Y-22190D02*
X22620D01*
X21990Y-22820D02*
Y-21560D01*
X-7580Y38360D02*
X-6320D01*
X-6950Y37730D02*
Y38990D01*
X32630Y11630D02*
X33890D01*
X33260Y11000D02*
Y12260D01*
X-22530Y-3950D02*
X-21270D01*
X-21900Y-4580D02*
Y-3320D01*
X-33870Y11630D02*
X-32610D01*
X-33240Y11000D02*
Y12260D01*
X6340Y38360D02*
X7600D01*
X6970Y37730D02*
Y38990D01*
X-22530Y-22190D02*
X-21270D01*
X-21900Y-22820D02*
Y-21560D01*
X-28864Y23699D02*
X-27604D01*
X-28234Y23069D02*
Y24329D01*
X12565Y2074D02*
X12762D01*
X12663Y1976D02*
Y2173D01*
X10854Y3578D02*
X11051D01*
X10953Y3479D02*
Y3676D01*
X6954Y21178D02*
X7151D01*
X7053Y21079D02*
Y21276D01*
X6554Y22928D02*
X6751D01*
X6653Y22829D02*
Y23026D01*
X6532Y23910D02*
X6728D01*
X6630Y23812D02*
Y24008D01*
X4404Y22928D02*
X4601D01*
X4503Y22829D02*
Y23026D01*
X12404Y18378D02*
X12601D01*
X12503Y18279D02*
Y18476D01*
X12404Y20128D02*
X12601D01*
X12503Y20029D02*
Y20226D01*
X13204Y17628D02*
X13401D01*
X13303Y17529D02*
Y17726D01*
X14304Y16678D02*
X14501D01*
X14403Y16579D02*
Y16776D01*
X11287Y18396D02*
X11484D01*
X11385Y18297D02*
Y18494D01*
X11354Y20828D02*
X11551D01*
X11453Y20729D02*
Y20926D01*
X11390Y22299D02*
X11587D01*
X11488Y22201D02*
Y22397D01*
X9904Y24928D02*
X10101D01*
X10003Y24829D02*
Y25026D01*
X11354Y23378D02*
X11551D01*
X11453Y23279D02*
Y23476D01*
X10154Y21528D02*
X10351D01*
X10253Y21429D02*
Y21626D01*
X10283Y23075D02*
X10479D01*
X10381Y22977D02*
Y23173D01*
X10020Y20404D02*
X10217D01*
X10119Y20306D02*
Y20503D01*
X7754Y19928D02*
X7951D01*
X7853Y19829D02*
Y20026D01*
X8354Y19278D02*
X8551D01*
X8453Y19179D02*
Y19376D01*
X10203Y18419D02*
X10400D01*
X10301Y18320D02*
Y18517D01*
X10304Y17278D02*
X10501D01*
X10403Y17179D02*
Y17376D01*
X9254Y17278D02*
X9451D01*
X9353Y17179D02*
Y17376D01*
X10654Y15978D02*
X10851D01*
X10753Y15879D02*
Y16076D01*
X7804Y22578D02*
X8001D01*
X7903Y22479D02*
Y22676D01*
X7754Y23878D02*
X7951D01*
X7853Y23779D02*
Y23976D01*
X9104Y25678D02*
X9301D01*
X9203Y25579D02*
Y25776D01*
X7454Y25728D02*
X7651D01*
X7553Y25629D02*
Y25826D01*
X5304Y25578D02*
X5501D01*
X5403Y25479D02*
Y25676D01*
X3027Y25705D02*
X3223D01*
X3125Y25606D02*
Y25803D01*
X-4346Y10978D02*
X-4149D01*
X-4247Y10879D02*
Y11076D01*
X-2046Y9978D02*
X-1849D01*
X-1947Y9879D02*
Y10076D01*
X-3296Y11028D02*
X-3099D01*
X-3197Y10929D02*
Y11126D01*
X-3746Y11478D02*
X-3549D01*
X-3647Y11379D02*
Y11576D01*
X-4446Y12228D02*
X-4249D01*
X-4347Y12129D02*
Y12326D01*
X-4748Y12700D02*
X-4552D01*
X-4650Y12602D02*
Y12798D01*
X-5396Y10678D02*
X-5199D01*
X-5297Y10579D02*
Y10776D01*
X-4246Y9378D02*
X-4049D01*
X-4147Y9279D02*
Y9476D01*
X-4748Y9950D02*
X-4552D01*
X-4650Y9852D02*
Y10048D01*
X-3596Y9478D02*
X-3399D01*
X-3497Y9379D02*
Y9576D01*
X-3596Y8778D02*
X-3399D01*
X-3497Y8679D02*
Y8876D01*
X-10898Y14100D02*
X-10702D01*
X-10800Y14002D02*
Y14198D01*
X-18948Y14800D02*
X-18752D01*
X-18850Y14702D02*
Y14898D01*
X-14098Y15100D02*
X-13902D01*
X-14000Y15002D02*
Y15198D01*
X-12948Y5550D02*
X-12752D01*
X-12850Y5452D02*
Y5648D01*
X-16298Y10550D02*
X-16102D01*
X-16200Y10452D02*
Y10648D01*
X-16248Y7700D02*
X-16052D01*
X-16150Y7602D02*
Y7798D01*
X-12821Y13929D02*
X-12624D01*
X-12722Y13831D02*
Y14027D01*
X-21335Y17029D02*
X-21138D01*
X-21236Y16930D02*
Y17127D01*
X-19838Y14940D02*
X-19642D01*
X-19740Y14842D02*
Y15038D01*
X-17978Y15520D02*
X-17782D01*
X-17880Y15422D02*
Y15618D01*
X-21958Y5590D02*
X-21762D01*
X-21860Y5492D02*
Y5688D01*
X-32858Y8980D02*
X-32662D01*
X-32760Y8882D02*
Y9078D01*
X-31288Y10300D02*
X-31092D01*
X-31190Y10202D02*
Y10398D01*
X-29138Y12240D02*
X-28942D01*
X-29040Y12142D02*
Y12338D01*
X-27647Y14140D02*
X-27450D01*
X-27548Y14042D02*
Y14239D01*
X-23848Y17630D02*
X-23652D01*
X-23750Y17532D02*
Y17728D01*
X-2411Y-18371D02*
X-2214D01*
X-2312Y-18469D02*
Y-18273D01*
X-1181Y-18681D02*
X-984D01*
X-1082Y-18779D02*
Y-18583D01*
X-1041Y-19921D02*
X-844D01*
X-942Y-20019D02*
Y-19823D01*
X-1981Y-19871D02*
X-1784D01*
X-1882Y-19969D02*
Y-19773D01*
X1695Y-18863D02*
X1891D01*
X1793Y-18961D02*
Y-18764D01*
X2121Y-20097D02*
X2318D01*
X2219Y-20195D02*
Y-19999D01*
X1156Y-20052D02*
X1353D01*
X1254Y-20150D02*
Y-19954D01*
X842Y-19356D02*
X1039D01*
X940Y-19455D02*
Y-19258D01*
X949Y-18551D02*
X1146D01*
X1048Y-18649D02*
Y-18453D01*
X20369Y4799D02*
X20566D01*
X20468Y4701D02*
Y4897D01*
X23252Y4820D02*
X23448D01*
X23350Y4722D02*
Y4918D01*
X23529Y4329D02*
X23726D01*
X23628Y4231D02*
Y4427D01*
X23539Y3689D02*
X23736D01*
X23638Y3591D02*
Y3787D01*
X23499Y2799D02*
X23696D01*
X23598Y2701D02*
Y2897D01*
X22959Y2059D02*
X23156D01*
X23058Y1961D02*
Y2157D01*
X22279Y2059D02*
X22476D01*
X22378Y1961D02*
Y2157D01*
X21499Y2049D02*
X21696D01*
X21598Y1951D02*
Y2147D01*
X20779Y2069D02*
X20976D01*
X20878Y1971D02*
Y2167D01*
X20139Y2379D02*
X20336D01*
X20238Y2281D02*
Y2477D01*
X19939Y2969D02*
X20136D01*
X20038Y2871D02*
Y3067D01*
X11299Y29979D02*
X11496D01*
X11398Y29881D02*
Y30077D01*
X11735Y29584D02*
X11932D01*
X11834Y29486D02*
Y29683D01*
X11839Y29169D02*
X12036D01*
X11938Y29071D02*
Y29267D01*
X11849Y28559D02*
X12046D01*
X11948Y28461D02*
Y28657D01*
X11669Y27299D02*
X11866D01*
X11768Y27201D02*
Y27397D01*
X11139Y26729D02*
X11336D01*
X11238Y26631D02*
Y26827D01*
X8909Y26489D02*
X9106D01*
X9008Y26391D02*
Y26587D01*
X7972Y26480D02*
X8168D01*
X8070Y26382D02*
Y26578D01*
X7372Y26480D02*
X7568D01*
X7470Y26382D02*
Y26578D01*
X6549Y26549D02*
X6746D01*
X6648Y26451D02*
Y26647D01*
X5999Y27239D02*
X6196D01*
X6098Y27141D02*
Y27337D01*
X4819Y27239D02*
X5016D01*
X4918Y27141D02*
Y27337D01*
X5757Y29727D02*
X5954D01*
X5856Y29629D02*
Y29826D01*
X6269Y29869D02*
X6466D01*
X6368Y29771D02*
Y29967D01*
X2569Y-5911D02*
X2766D01*
X2668Y-6009D02*
Y-5813D01*
X1229Y-5911D02*
X1426D01*
X1328Y-6009D02*
Y-5813D01*
X-321Y-5861D02*
X-124D01*
X-222Y-5959D02*
Y-5763D01*
X-1381Y-5851D02*
X-1184D01*
X-1282Y-5949D02*
Y-5753D01*
X3747Y-2708D02*
X3944D01*
X3846Y-2806D02*
Y-2609D01*
X2198Y-2708D02*
X2395D01*
X2297Y-2806D02*
Y-2609D01*
X1469Y-2711D02*
X1666D01*
X1568Y-2809D02*
Y-2613D01*
X239Y-2681D02*
X436D01*
X338Y-2779D02*
Y-2583D01*
X-631Y-2711D02*
X-434D01*
X-532Y-2809D02*
Y-2613D01*
X20342Y-19824D02*
X20539D01*
X20440Y-19922D02*
Y-19725D01*
X20809Y-19281D02*
X21006D01*
X20908Y-19379D02*
Y-19183D01*
X18790Y-20905D02*
X18986D01*
X18888Y-21003D02*
Y-20807D01*
X19749Y-20351D02*
X19946D01*
X19848Y-20449D02*
Y-20253D01*
X17489Y-21251D02*
X17686D01*
X17588Y-21349D02*
Y-21153D01*
X8612Y-22322D02*
X8809D01*
X8710Y-22420D02*
Y-22223D01*
X6819Y-16601D02*
X7016D01*
X6918Y-16699D02*
Y-16503D01*
X16279Y-7211D02*
X16476D01*
X16378Y-7309D02*
Y-7113D01*
X15739Y-9091D02*
X15936D01*
X15838Y-9189D02*
Y-8993D01*
X16419Y-10441D02*
X16616D01*
X16518Y-10539D02*
Y-10343D01*
X14459Y-10471D02*
X14656D01*
X14558Y-10569D02*
Y-10373D01*
X14485Y-11360D02*
X14682D01*
X14583Y-11459D02*
Y-11262D01*
X13581Y-11224D02*
X13778D01*
X13679Y-11322D02*
Y-11125D01*
X13089Y-9021D02*
X13286D01*
X13188Y-9119D02*
Y-8923D01*
X13209Y-8291D02*
X13406D01*
X13308Y-8389D02*
Y-8193D01*
X19519Y-11631D02*
X19716D01*
X19618Y-11729D02*
Y-11533D01*
X18802Y-10730D02*
X18998D01*
X18900Y-10828D02*
Y-10632D01*
X18119Y-10031D02*
X18315D01*
X18217Y-10129D02*
Y-9932D01*
X17361Y-9333D02*
X17557D01*
X17459Y-9431D02*
Y-9234D01*
X19019Y-9711D02*
X19216D01*
X19118Y-9809D02*
Y-9613D01*
X18299Y-8971D02*
X18496D01*
X18398Y-9069D02*
Y-8873D01*
X17740Y-8196D02*
X17936D01*
X17838Y-8294D02*
Y-8097D01*
X19176Y-8694D02*
X19373D01*
X19274Y-8793D02*
Y-8596D01*
X19199Y-7621D02*
X19396D01*
X19298Y-7719D02*
Y-7523D01*
X19216Y-6540D02*
X19413D01*
X19314Y-6639D02*
Y-6442D01*
X18059Y-6081D02*
X18256D01*
X18158Y-6179D02*
Y-5983D01*
X18839Y-5821D02*
X19036D01*
X18938Y-5919D02*
Y-5723D01*
X5129Y3169D02*
X5326D01*
X5228Y3071D02*
Y3267D01*
X8432Y4240D02*
X8628D01*
X8530Y4142D02*
Y4338D01*
X13899Y21627D02*
X14096D01*
X13998Y21528D02*
Y21725D01*
X14016Y20073D02*
X14212D01*
X14114Y19974D02*
Y20171D01*
X14546Y19309D02*
X14743D01*
X14645Y19211D02*
Y19407D01*
X14702Y20850D02*
X14899D01*
X14800Y20751D02*
Y20948D01*
X16566Y20215D02*
X16763D01*
X16665Y20117D02*
Y20314D01*
X17629Y20259D02*
X17826D01*
X17728Y20161D02*
Y20357D01*
X21823Y20215D02*
X22019D01*
X21921Y20117D02*
Y20314D01*
X20649Y20019D02*
X20846D01*
X20748Y19921D02*
Y20117D01*
X19299Y20039D02*
X19496D01*
X19398Y19941D02*
Y20137D01*
X18159Y18549D02*
X18356D01*
X18258Y18451D02*
Y18647D01*
X18129Y17779D02*
X18326D01*
X18228Y17681D02*
Y17877D01*
X20009Y16959D02*
X20206D01*
X20108Y16861D02*
Y17057D01*
X21059Y16499D02*
X21256D01*
X21158Y16401D02*
Y16597D01*
X21179Y18239D02*
X21376D01*
X21278Y18141D02*
Y18337D01*
X10159Y31549D02*
X10356D01*
X10258Y31451D02*
Y31647D01*
X8989Y31369D02*
X9186D01*
X9088Y31271D02*
Y31467D01*
X7859Y31379D02*
X8056D01*
X7958Y31281D02*
Y31477D01*
X6712Y31350D02*
X6908D01*
X6810Y31252D02*
Y31448D01*
X-4401Y31059D02*
X-4204D01*
X-4302Y30961D02*
Y31157D01*
X-21168Y13560D02*
X-20972D01*
X-21070Y13462D02*
Y13658D01*
X-7201Y13729D02*
X-7004D01*
X-7102Y13631D02*
Y13827D01*
X-11121Y-23331D02*
X-10924D01*
X-11022Y-23429D02*
Y-23233D01*
X-14841Y-23691D02*
X-14644D01*
X-14742Y-23789D02*
Y-23593D01*
X-17791Y-23691D02*
X-17594D01*
X-17692Y-23789D02*
Y-23593D01*
X-19941Y-23071D02*
X-19744D01*
X-19842Y-23169D02*
Y-22973D01*
X17579Y-2621D02*
X17776D01*
X17678Y-2719D02*
Y-2523D01*
X15729Y-1661D02*
X15926D01*
X15828Y-1759D02*
Y-1563D01*
X20093Y-1912D02*
X20290D01*
X20192Y-2010D02*
Y-1813D01*
X22879Y-1301D02*
X23076D01*
X22978Y-1399D02*
Y-1203D01*
X21159Y-771D02*
X21356D01*
X21258Y-869D02*
Y-673D01*
X18749Y-741D02*
X18946D01*
X18848Y-839D02*
Y-643D01*
X10099Y-9674D02*
X10296D01*
X10198Y-9772D02*
Y-9575D01*
X10302Y-7112D02*
X10499D01*
X10401Y-7210D02*
Y-7013D01*
X10733Y-4296D02*
X10930D01*
X10832Y-4395D02*
Y-4198D01*
X13650Y-4322D02*
X13847D01*
X13749Y-4420D02*
Y-4223D01*
X14056Y-2952D02*
X14253D01*
X14155Y-3050D02*
Y-2853D01*
X12027Y-2850D02*
X12224D01*
X12125Y-2949D02*
Y-2752D01*
X9769Y-2821D02*
X9966D01*
X9868Y-2919D02*
Y-2723D01*
X5559Y-9881D02*
X5756D01*
X5658Y-9979D02*
Y-9783D01*
X5479Y-8181D02*
X5676D01*
X5578Y-8279D02*
Y-8083D01*
X7842Y-11475D02*
X8039D01*
X7940Y-11573D02*
Y-11376D01*
X7842Y-9065D02*
X8039D01*
X7940Y-9163D02*
Y-8966D01*
X7284Y-6934D02*
X7481D01*
X7382Y-7033D02*
Y-6836D01*
X5559Y-6451D02*
X5756D01*
X5658Y-6549D02*
Y-6353D01*
X6599Y-4930D02*
X6796D01*
X6697Y-5029D02*
Y-4832D01*
X5789Y-3311D02*
X5986D01*
X5888Y-3409D02*
Y-3213D01*
X3479Y-1351D02*
X3676D01*
X3578Y-1449D02*
Y-1253D01*
X1323Y-1354D02*
X1520D01*
X1421Y-1452D02*
Y-1255D01*
X-451Y-1451D02*
X-254D01*
X-352Y-1549D02*
Y-1353D01*
X-3141Y1209D02*
X-2944D01*
X-3042Y1111D02*
Y1307D01*
X-6955Y-15750D02*
X-6758D01*
X-6856Y-15848D02*
Y-15652D01*
X-8090Y-15636D02*
X-7893D01*
X-7992Y-15735D02*
Y-15538D01*
X-1871Y-12071D02*
X-1674D01*
X-1772Y-12169D02*
Y-11973D01*
X-2091Y-10501D02*
X-1894D01*
X-1992Y-10599D02*
Y-10403D01*
X-4433Y-7595D02*
X-4236D01*
X-4335Y-7693D02*
Y-7497D01*
X-4706Y-10026D02*
X-4509D01*
X-4607Y-10124D02*
Y-9927D01*
X-3456Y-9503D02*
X-3259D01*
X-3358Y-9602D02*
Y-9405D01*
X-4183Y-8663D02*
X-3986D01*
X-4085Y-8761D02*
Y-8564D01*
X-6228Y-10003D02*
X-6031D01*
X-6129Y-10101D02*
Y-9904D01*
X-6273Y-8912D02*
X-6076D01*
X-6175Y-9011D02*
Y-8814D01*
X-6321Y-8031D02*
X-6124D01*
X-6222Y-8129D02*
Y-7933D01*
X-11770Y-7391D02*
X-11573D01*
X-11672Y-7489D02*
Y-7292D01*
X-10884Y-8140D02*
X-10688D01*
X-10786Y-8239D02*
Y-8042D01*
X-12791Y-7661D02*
X-12594D01*
X-12692Y-7759D02*
Y-7563D01*
X-10521Y-6691D02*
X-10324D01*
X-10422Y-6789D02*
Y-6593D01*
X-11681Y-6621D02*
X-11484D01*
X-11582Y-6719D02*
Y-6523D01*
X-12791Y-6551D02*
X-12594D01*
X-12692Y-6649D02*
Y-6453D01*
X-11381Y-13301D02*
X-11184D01*
X-11282Y-13399D02*
Y-13203D01*
X-11091Y-14301D02*
X-10894D01*
X-10992Y-14399D02*
Y-14203D01*
X-11541Y-11411D02*
X-11344D01*
X-11442Y-11509D02*
Y-11313D01*
X-11631Y-9681D02*
X-11434D01*
X-11532Y-9779D02*
Y-9583D01*
X-13501Y-8961D02*
X-13304D01*
X-13402Y-9059D02*
Y-8863D01*
X-12747Y-9185D02*
X-12550D01*
X-12649Y-9283D02*
Y-9087D01*
X-14781Y-2151D02*
X-14584D01*
X-14682Y-2249D02*
Y-2053D01*
X-16671Y-4391D02*
X-16474D01*
X-16572Y-4489D02*
Y-4293D01*
X-18241Y-5491D02*
X-18044D01*
X-18142Y-5589D02*
Y-5393D01*
X-17801Y-6471D02*
X-17604D01*
X-17702Y-6569D02*
Y-6373D01*
X-20126Y-10490D02*
X-19929D01*
X-20028Y-10589D02*
Y-10392D01*
X-20141Y-9911D02*
X-19944D01*
X-20042Y-10009D02*
Y-9813D01*
X-20051Y-8761D02*
X-19854D01*
X-19952Y-8859D02*
Y-8663D01*
X-21541Y-10051D02*
X-21344D01*
X-21442Y-10149D02*
Y-9953D01*
X-21201Y-8641D02*
X-21004D01*
X-21102Y-8739D02*
Y-8543D01*
X-20381Y-7951D02*
X-20184D01*
X-20282Y-8049D02*
Y-7853D01*
X-21398Y-5980D02*
X-21202D01*
X-21300Y-6078D02*
Y-5882D01*
X-22578Y-6930D02*
X-22382D01*
X-22480Y-7028D02*
Y-6832D01*
X-22478Y-880D02*
X-22282D01*
X-22380Y-978D02*
Y-782D01*
X-19148Y-2430D02*
X-18952D01*
X-19050Y-2528D02*
Y-2332D01*
X-20178Y-1580D02*
X-19982D01*
X-20080Y-1678D02*
Y-1482D01*
X-17798Y-3130D02*
X-17602D01*
X-17700Y-3228D02*
Y-3032D01*
X-19008Y-4220D02*
X-18812D01*
X-18910Y-4318D02*
Y-4122D01*
X-19938Y-5260D02*
X-19742D01*
X-19840Y-5358D02*
Y-5162D01*
X-17500Y-4993D02*
X-17303D01*
X-17402Y-5091D02*
Y-4894D01*
X4892Y1950D02*
X5088D01*
X4990Y1852D02*
Y2048D01*
X5512Y1240D02*
X5708D01*
X5610Y1142D02*
Y1338D01*
X1572Y1960D02*
X1768D01*
X1670Y1862D02*
Y2058D01*
X2032Y1460D02*
X2228D01*
X2130Y1362D02*
Y1558D01*
X1022Y1420D02*
X1218D01*
X1120Y1322D02*
Y1518D01*
X242Y1870D02*
X438D01*
X340Y1772D02*
Y1968D01*
X-688Y1440D02*
X-492D01*
X-590Y1342D02*
Y1538D01*
X-1618Y2960D02*
X-1422D01*
X-1520Y2862D02*
Y3058D01*
X5699Y10012D02*
X5896D01*
X5797Y9913D02*
Y10110D01*
X6062Y10520D02*
X6258D01*
X6160Y10422D02*
Y10618D01*
X6142Y11350D02*
X6338D01*
X6240Y11252D02*
Y11448D01*
X5872Y11840D02*
X6068D01*
X5970Y11742D02*
Y11938D01*
X5372Y12230D02*
X5568D01*
X5470Y12132D02*
Y12328D01*
X4822Y12710D02*
X5018D01*
X4920Y12612D02*
Y12808D01*
X4002Y12920D02*
X4198D01*
X4100Y12822D02*
Y13018D01*
X3222Y12550D02*
X3418D01*
X3320Y12452D02*
Y12648D01*
X2702Y13090D02*
X2898D01*
X2800Y12992D02*
Y13188D01*
X2442Y14380D02*
X2638D01*
X2540Y14282D02*
Y14478D01*
X2882Y15010D02*
X3078D01*
X2980Y14912D02*
Y15108D01*
X2302Y15550D02*
X2498D01*
X2400Y15452D02*
Y15648D01*
X-1838Y15660D02*
X-1642D01*
X-1740Y15562D02*
Y15758D01*
X-1808Y14150D02*
X-1612D01*
X-1710Y14052D02*
Y14248D01*
X-1868Y12940D02*
X-1672D01*
X-1770Y12842D02*
Y13038D01*
X-4358Y17440D02*
X-4162D01*
X-4260Y17342D02*
Y17538D01*
X-5193Y16429D02*
X-4997D01*
X-5095Y16331D02*
Y16528D01*
X-7008Y15890D02*
X-6812D01*
X-6910Y15792D02*
Y15988D01*
X-17808Y16800D02*
X-17612D01*
X-17710Y16702D02*
Y16898D01*
X-7438Y17330D02*
X-7242D01*
X-7340Y17232D02*
Y17428D01*
X-9418Y19150D02*
X-9222D01*
X-9320Y19052D02*
Y19248D01*
X-7658Y19180D02*
X-7462D01*
X-7560Y19082D02*
Y19278D01*
X-6106Y19427D02*
X-5909D01*
X-6007Y19329D02*
Y19526D01*
X-5328Y20000D02*
X-5132D01*
X-5230Y19902D02*
Y20098D01*
X-4198Y22390D02*
X-4002D01*
X-4100Y22292D02*
Y22488D01*
X-4752Y22687D02*
X-4555D01*
X-4653Y22589D02*
Y22785D01*
X-8078Y20610D02*
X-7882D01*
X-7980Y20512D02*
Y20708D01*
X-9518Y20610D02*
X-9322D01*
X-9420Y20512D02*
Y20708D01*
X-13188Y19090D02*
X-12992D01*
X-13090Y18992D02*
Y19188D01*
X-16108Y19150D02*
X-15912D01*
X-16010Y19052D02*
Y19248D01*
X-13368Y20700D02*
X-13172D01*
X-13270Y20602D02*
Y20798D01*
X-16038Y20660D02*
X-15842D01*
X-15940Y20562D02*
Y20758D01*
X-19678Y20480D02*
X-19482D01*
X-19580Y20382D02*
Y20578D01*
X-19718Y19220D02*
X-19522D01*
X-19620Y19122D02*
Y19318D01*
X-22198Y18990D02*
X-22002D01*
X-22100Y18892D02*
Y19088D01*
X-11398Y7850D02*
X-11202D01*
X-11300Y7752D02*
Y7948D01*
X-11548Y10650D02*
X-11352D01*
X-11450Y10552D02*
Y10748D01*
X-21148Y10100D02*
X-20952D01*
X-21050Y10002D02*
Y10198D01*
X-21198Y7250D02*
X-21002D01*
X-21100Y7152D02*
Y7348D01*
X-25758Y10010D02*
X-25562D01*
X-25660Y9912D02*
Y10108D01*
X-25838Y12180D02*
X-25642D01*
X-25740Y12082D02*
Y12278D01*
X-24458Y5250D02*
X-24262D01*
X-24360Y5152D02*
Y5348D01*
X-27918Y5850D02*
X-27722D01*
X-27820Y5752D02*
Y5948D01*
X-28078Y7390D02*
X-27882D01*
X-27980Y7292D02*
Y7488D01*
X-25808Y7800D02*
X-25612D01*
X-25710Y7702D02*
Y7898D01*
X-29738Y13730D02*
X-29542D01*
X-29640Y13632D02*
Y13828D01*
X-28108Y16390D02*
X-27912D01*
X-28010Y16292D02*
Y16488D01*
X-30748Y16250D02*
X-30552D01*
X-30650Y16152D02*
Y16348D01*
X-28149Y18887D02*
X-27953D01*
X-28051Y18788D02*
Y18985D01*
X-24988Y19700D02*
X-24792D01*
X-24890Y19602D02*
Y19798D01*
X-23258Y21580D02*
X-23062D01*
X-23160Y21482D02*
Y21678D01*
X-21568Y22100D02*
X-21372D01*
X-21470Y22002D02*
Y22198D01*
X-18388Y22140D02*
X-18192D01*
X-18290Y22042D02*
Y22238D01*
X-15128Y22030D02*
X-14932D01*
X-15030Y21932D02*
Y22128D01*
X-14538Y23650D02*
X-14342D01*
X-14440Y23552D02*
Y23748D01*
X-13308Y22460D02*
X-13112D01*
X-13210Y22362D02*
Y22558D01*
X-8363Y23131D02*
X-8167D01*
X-8265Y23033D02*
Y23229D01*
X-11168Y23800D02*
X-10972D01*
X-11070Y23702D02*
Y23898D01*
X-12688Y25940D02*
X-12492D01*
X-12590Y25842D02*
Y26038D01*
X-18814Y25771D02*
X-18617D01*
X-18716Y25672D02*
Y25869D01*
X-22334Y24597D02*
X-22137D01*
X-22236Y24499D02*
Y24696D01*
X-25588Y24340D02*
X-25392D01*
X-25490Y24242D02*
Y24438D01*
X-17028Y27730D02*
X-16832D01*
X-16930Y27632D02*
Y27828D01*
X-20418Y27550D02*
X-20222D01*
X-20320Y27452D02*
Y27648D01*
X-23118Y27640D02*
X-22922D01*
X-23020Y27542D02*
Y27738D01*
X-18468Y30200D02*
X-18272D01*
X-18370Y30102D02*
Y30298D01*
X-16498Y34020D02*
X-16302D01*
X-16400Y33922D02*
Y34118D01*
X-18868Y32620D02*
X-18672D01*
X-18770Y32522D02*
Y32718D01*
X-15768Y31320D02*
X-15572D01*
X-15670Y31222D02*
Y31418D01*
X-11371Y30702D02*
X-11174D01*
X-11273Y30603D02*
Y30800D01*
X-10454Y31781D02*
X-10257D01*
X-10355Y31683D02*
Y31880D01*
X-10318Y28840D02*
X-10122D01*
X-10220Y28742D02*
Y28938D01*
X-8668Y28330D02*
X-8472D01*
X-8570Y28232D02*
Y28428D01*
X-10188Y27280D02*
X-9992D01*
X-10090Y27182D02*
Y27378D01*
X-12048Y28890D02*
X-11852D01*
X-11950Y28792D02*
Y28988D01*
X-9748Y30030D02*
X-9552D01*
X-9650Y29932D02*
Y30128D01*
X-12921Y33565D02*
X-12724D01*
X-12823Y33467D02*
Y33664D01*
X-13671Y33989D02*
X-13474D01*
X-13572Y33890D02*
Y34087D01*
X-14848Y34510D02*
X-14652D01*
X-14750Y34412D02*
Y34608D01*
X9292Y12955D02*
X9489D01*
X9391Y12856D02*
Y13053D01*
X8339Y13797D02*
X8536D01*
X8438Y13699D02*
Y13896D01*
X7164Y14994D02*
X7361D01*
X7263Y14896D02*
Y15093D01*
X6167Y16125D02*
X6364D01*
X6265Y16026D02*
Y16223D01*
X5212Y17080D02*
X5408D01*
X5310Y16982D02*
Y17178D01*
X4442Y17900D02*
X4638D01*
X4540Y17802D02*
Y17998D01*
X13980Y11624D02*
X14177D01*
X14079Y11525D02*
Y11722D01*
X24051Y10062D02*
X24248D01*
X24150Y9964D02*
Y10161D01*
X27291Y7681D02*
X27488D01*
X27389Y7583D02*
Y7780D01*
X30726Y5378D02*
X30923D01*
X30824Y5280D02*
Y5477D01*
X31819Y3739D02*
X32016D01*
X31917Y3640D02*
Y3837D01*
X31972Y1710D02*
X32168D01*
X32070Y1612D02*
Y1808D01*
X31233Y9438D02*
X31430D01*
X31332Y9339D02*
Y9536D01*
X30375Y12795D02*
X30572D01*
X30473Y12696D02*
Y12893D01*
X30336Y14278D02*
X30533D01*
X30434Y14180D02*
Y14376D01*
X25732Y15960D02*
X25928D01*
X25830Y15862D02*
Y16058D01*
X27762Y17910D02*
X27958D01*
X27860Y17812D02*
Y18008D01*
X26744Y19353D02*
X26941D01*
X26843Y19254D02*
Y19451D01*
X25302Y21810D02*
X25498D01*
X25400Y21712D02*
Y21908D01*
X22492Y20720D02*
X22688D01*
X22590Y20622D02*
Y20818D01*
X22572Y21680D02*
X22768D01*
X22670Y21582D02*
Y21778D01*
X22492Y22830D02*
X22688D01*
X22590Y22732D02*
Y22928D01*
X21712Y24110D02*
X21908D01*
X21810Y24012D02*
Y24208D01*
X20192Y24430D02*
X20388D01*
X20290Y24332D02*
Y24528D01*
X18362Y24520D02*
X18558D01*
X18460Y24422D02*
Y24618D01*
X16332Y24340D02*
X16528D01*
X16430Y24242D02*
Y24438D01*
X14702Y23440D02*
X14898D01*
X14800Y23342D02*
Y23538D01*
X14702Y21600D02*
X14898D01*
X14800Y21502D02*
Y21698D01*
X23856Y24739D02*
X24053D01*
X23954Y24641D02*
Y24838D01*
X21982Y26460D02*
X22178D01*
X22080Y26362D02*
Y26558D01*
X19092Y27670D02*
X19288D01*
X19190Y27572D02*
Y27768D01*
X19292Y33090D02*
X19488D01*
X19390Y32992D02*
Y33188D01*
X16402Y32660D02*
X16598D01*
X16500Y32562D02*
Y32758D01*
X13002Y32620D02*
X13198D01*
X13100Y32522D02*
Y32718D01*
X8902Y34770D02*
X9098D01*
X9000Y34672D02*
Y34868D01*
X6482Y35470D02*
X6678D01*
X6580Y35372D02*
Y35568D01*
X3522Y36220D02*
X3718D01*
X3620Y36122D02*
Y36318D01*
X-8398Y36170D02*
X-8202D01*
X-8300Y36072D02*
Y36268D01*
X-2578Y36610D02*
X-2382D01*
X-2480Y36512D02*
Y36708D01*
X-5048Y36550D02*
X-4852D01*
X-4950Y36452D02*
Y36648D01*
X616Y27475D02*
X813D01*
X715Y27377D02*
Y27573D01*
X616Y27003D02*
X813D01*
X715Y26904D02*
Y27101D01*
X144Y27475D02*
X341D01*
X242Y27377D02*
Y27573D01*
X-328Y27475D02*
X-132D01*
X-230Y27377D02*
Y27573D01*
X144Y27003D02*
X341D01*
X242Y26904D02*
Y27101D01*
X-328Y27003D02*
X-132D01*
X-230Y26904D02*
Y27101D01*
X-801Y27475D02*
X-604D01*
X-702Y27377D02*
Y27573D01*
X-801Y27003D02*
X-604D01*
X-702Y26904D02*
Y27101D01*
X616Y26530D02*
X813D01*
X715Y26432D02*
Y26629D01*
X144Y26530D02*
X341D01*
X242Y26432D02*
Y26629D01*
X616Y26058D02*
X813D01*
X715Y25959D02*
Y26156D01*
X144Y26058D02*
X341D01*
X242Y25959D02*
Y26156D01*
X-328Y26530D02*
X-132D01*
X-230Y26432D02*
Y26629D01*
X-801Y26530D02*
X-604D01*
X-702Y26432D02*
Y26629D01*
X-328Y26058D02*
X-132D01*
X-230Y25959D02*
Y26156D01*
X-801Y26058D02*
X-604D01*
X-702Y25959D02*
Y26156D01*
X-297Y-9197D02*
X-177D01*
X-237Y-9257D02*
Y-9137D01*
X97Y-9197D02*
X217D01*
X157Y-9257D02*
Y-9137D01*
X97Y-8803D02*
X217D01*
X157Y-8863D02*
Y-8743D01*
X-297Y-8803D02*
X-177D01*
X-237Y-8863D02*
Y-8743D01*
X362Y19690D02*
X558D01*
X460Y19592D02*
Y19788D01*
X-1568Y19660D02*
X-1372D01*
X-1470Y19562D02*
Y19758D01*
X18652Y3830D02*
X18848D01*
X18750Y3732D02*
Y3928D01*
X22152Y660D02*
X22348D01*
X22250Y562D02*
Y758D01*
X472Y17640D02*
X668D01*
X570Y17542D02*
Y17738D01*
X632Y12390D02*
X828D01*
X730Y12292D02*
Y12488D01*
X1792Y17050D02*
X1988D01*
X1890Y16952D02*
Y17148D01*
X4572Y8480D02*
X4768D01*
X4670Y8382D02*
Y8578D01*
X15362Y20240D02*
X15558D01*
X15460Y20142D02*
Y20338D01*
X-7398Y-14360D02*
X-7202D01*
X-7300Y-14458D02*
Y-14262D01*
X-7428Y-10480D02*
X-7232D01*
X-7330Y-10578D02*
Y-10382D01*
X-15204Y-13259D02*
X-15007D01*
X-15106Y-13357D02*
Y-13161D01*
X-15204Y-11689D02*
X-15007D01*
X-15106Y-11787D02*
Y-11591D01*
X-15204Y-12474D02*
X-15007D01*
X-15106Y-12572D02*
Y-12376D01*
X-14481Y-12474D02*
X-14284D01*
X-14382Y-12572D02*
Y-12376D01*
X-14481Y-13259D02*
X-14284D01*
X-14382Y-13357D02*
Y-13161D01*
X-14481Y-11689D02*
X-14284D01*
X-14382Y-11787D02*
Y-11591D01*
X-20931Y-13259D02*
X-20734D01*
X-20833Y-13357D02*
Y-13161D01*
X-20931Y-11689D02*
X-20734D01*
X-20833Y-11787D02*
Y-11591D01*
X-20931Y-12474D02*
X-20734D01*
X-20833Y-12572D02*
Y-12376D01*
X-20207Y-12474D02*
X-20011D01*
X-20109Y-12572D02*
Y-12376D01*
X-20207Y-13259D02*
X-20011D01*
X-20109Y-13357D02*
Y-13161D01*
X-20207Y-11689D02*
X-20011D01*
X-20109Y-11787D02*
Y-11591D01*
X16536Y-11689D02*
X16733D01*
X16634Y-11787D02*
Y-11591D01*
X16536Y-13259D02*
X16733D01*
X16634Y-13357D02*
Y-13161D01*
X16536Y-12474D02*
X16733D01*
X16634Y-12572D02*
Y-12376D01*
X15812Y-12474D02*
X16009D01*
X15911Y-12572D02*
Y-12376D01*
X15812Y-11689D02*
X16009D01*
X15911Y-11787D02*
Y-11591D01*
X15812Y-13259D02*
X16009D01*
X15911Y-13357D02*
Y-13161D01*
X10039Y-13259D02*
X10236D01*
X10137Y-13357D02*
Y-13161D01*
X10039Y-11689D02*
X10236D01*
X10137Y-11787D02*
Y-11591D01*
X10039Y-12474D02*
X10236D01*
X10137Y-12572D02*
Y-12376D01*
X10763Y-12474D02*
X10959D01*
X10861Y-12572D02*
Y-12376D01*
X10763Y-13259D02*
X10959D01*
X10861Y-13357D02*
Y-13161D01*
X10763Y-11689D02*
X10959D01*
X10861Y-11787D02*
Y-11591D01*
X-4501Y-12499D02*
X-4304D01*
X-4403Y-12597D02*
Y-12401D01*
X-4501Y-10929D02*
X-4304D01*
X-4403Y-11027D02*
Y-10831D01*
X-5224Y-10929D02*
X-5028D01*
X-5126Y-11027D02*
Y-10831D01*
X-5224Y-12499D02*
X-5028D01*
X-5126Y-12597D02*
Y-12401D01*
X-4501Y-11714D02*
X-4304D01*
X-4403Y-11812D02*
Y-11616D01*
X-3777Y-11714D02*
X-3581D01*
X-3679Y-11812D02*
Y-11616D01*
X-3777Y-12499D02*
X-3581D01*
X-3679Y-12597D02*
Y-12401D01*
X-5224Y-11714D02*
X-5028D01*
X-5126Y-11812D02*
Y-11616D01*
X-3777Y-10929D02*
X-3581D01*
X-3679Y-11027D02*
Y-10831D01*
X7533Y-13479D02*
X7729D01*
X7631Y-13577D02*
Y-13381D01*
X6086Y-14264D02*
X6282D01*
X6184Y-14362D02*
Y-14166D01*
X7533Y-15049D02*
X7729D01*
X7631Y-15147D02*
Y-14951D01*
X7533Y-14264D02*
X7729D01*
X7631Y-14362D02*
Y-14166D01*
X6809Y-14264D02*
X7006D01*
X6907Y-14362D02*
Y-14166D01*
X6086Y-15049D02*
X6282D01*
X6184Y-15147D02*
Y-14951D01*
X6086Y-13479D02*
X6282D01*
X6184Y-13577D02*
Y-13381D01*
X6809Y-13479D02*
X7006D01*
X6907Y-13577D02*
Y-13381D01*
X6809Y-15049D02*
X7006D01*
X6907Y-15147D02*
Y-14951D01*
X-1888Y16900D02*
X-1692D01*
X-1790Y16802D02*
Y16998D01*
X-3058Y2530D02*
X-2862D01*
X-2960Y2432D02*
Y2628D01*
X-4098Y3500D02*
X-3902D01*
X-4000Y3402D02*
Y3598D01*
X-6408Y-1190D02*
X-6212D01*
X-6310Y-1288D02*
Y-1092D01*
X-7418Y-6790D02*
X-7222D01*
X-7320Y-6888D02*
Y-6692D01*
X-5078Y-15200D02*
X-4882D01*
X-4980Y-15298D02*
Y-15102D01*
X6882Y-200D02*
X7078D01*
X6980Y-298D02*
Y-102D01*
X7002Y-2490D02*
X7198D01*
X7100Y-2588D02*
Y-2392D01*
X-6618Y1080D02*
X-6422D01*
X-6520Y982D02*
Y1178D01*
X-6508Y4200D02*
X-6312D01*
X-6410Y4102D02*
Y4298D01*
X-1197Y7169D02*
X-1000D01*
X-1099Y7070D02*
Y7267D01*
X-11537Y-452D02*
X-11340D01*
X-11438Y-550D02*
Y-353D01*
X-10838Y-10D02*
X-10642D01*
X-10740Y-108D02*
Y88D01*
X-9558Y2920D02*
X-9362D01*
X-9460Y2822D02*
Y3018D01*
X-9104Y11040D02*
X-8907D01*
X-9005Y10942D02*
Y11138D01*
X11752Y-22770D02*
X11948D01*
X11850Y-22868D02*
Y-22672D01*
X-22058Y-18420D02*
X-21862D01*
X-21960Y-18518D02*
Y-18322D01*
X-21848Y-17810D02*
X-21652D01*
X-21750Y-17908D02*
Y-17712D01*
X16838Y-16879D02*
X17035D01*
X16937Y-16977D02*
Y-16781D01*
X17562Y-16094D02*
X17758D01*
X17660Y-16192D02*
Y-15996D01*
X16838Y-16094D02*
X17035D01*
X16937Y-16192D02*
Y-15996D01*
X16115Y-16094D02*
X16311D01*
X16213Y-16192D02*
Y-15996D01*
X16838Y-15309D02*
X17035D01*
X16937Y-15407D02*
Y-15210D01*
X17562Y-16879D02*
X17758D01*
X17660Y-16977D02*
Y-16781D01*
X16115Y-16879D02*
X16311D01*
X16213Y-16977D02*
Y-16781D01*
X17562Y-15309D02*
X17758D01*
X17660Y-15407D02*
Y-15210D01*
X16115Y-15309D02*
X16311D01*
X16213Y-15407D02*
Y-15210D01*
X11060Y-16740D02*
X11257D01*
X11159Y-16839D02*
Y-16642D01*
X11784Y-15955D02*
X11981D01*
X11882Y-16054D02*
Y-15857D01*
X11060Y-15955D02*
X11257D01*
X11159Y-16054D02*
Y-15857D01*
X10337Y-15955D02*
X10534D01*
X10435Y-16054D02*
Y-15857D01*
X11060Y-15170D02*
X11257D01*
X11159Y-15269D02*
Y-15072D01*
X11784Y-16740D02*
X11981D01*
X11882Y-16839D02*
Y-16642D01*
X10337Y-16740D02*
X10534D01*
X10435Y-16839D02*
Y-16642D01*
X11784Y-15170D02*
X11981D01*
X11882Y-15269D02*
Y-15072D01*
X10337Y-15170D02*
X10534D01*
X10435Y-15269D02*
Y-15072D01*
X-14223Y-16740D02*
X-14026D01*
X-14125Y-16839D02*
Y-16642D01*
X-13500Y-15955D02*
X-13303D01*
X-13401Y-16054D02*
Y-15857D01*
X-14223Y-15955D02*
X-14026D01*
X-14125Y-16054D02*
Y-15857D01*
X-14947Y-15955D02*
X-14750D01*
X-14848Y-16054D02*
Y-15857D01*
X-14223Y-15170D02*
X-14026D01*
X-14125Y-15269D02*
Y-15072D01*
X-13500Y-16740D02*
X-13303D01*
X-13401Y-16839D02*
Y-16642D01*
X-14947Y-16740D02*
X-14750D01*
X-14848Y-16839D02*
Y-16642D01*
X-13500Y-15170D02*
X-13303D01*
X-13401Y-15269D02*
Y-15072D01*
X-14947Y-15170D02*
X-14750D01*
X-14848Y-15269D02*
Y-15072D01*
X-8828Y-20920D02*
X-8632D01*
X-8730Y-21018D02*
Y-20822D01*
X19660Y-16740D02*
X19857D01*
X19759Y-16839D02*
Y-16642D01*
X20384Y-15955D02*
X20581D01*
X20482Y-16054D02*
Y-15857D01*
X19660Y-15955D02*
X19857D01*
X19759Y-16054D02*
Y-15857D01*
X18937Y-15955D02*
X19134D01*
X19035Y-16054D02*
Y-15857D01*
X19660Y-15170D02*
X19857D01*
X19759Y-15269D02*
Y-15072D01*
X20384Y-16740D02*
X20581D01*
X20482Y-16839D02*
Y-16642D01*
X18937Y-16740D02*
X19134D01*
X19035Y-16839D02*
Y-16642D01*
X20384Y-15170D02*
X20581D01*
X20482Y-15269D02*
Y-15072D01*
X18937Y-15170D02*
X19134D01*
X19035Y-15269D02*
Y-15072D01*
X14038Y-16809D02*
X14235D01*
X14137Y-16907D02*
Y-16710D01*
X14762Y-16024D02*
X14958D01*
X14860Y-16122D02*
Y-15926D01*
X14038Y-16024D02*
X14235D01*
X14137Y-16122D02*
Y-15926D01*
X13315Y-16024D02*
X13511D01*
X13413Y-16122D02*
Y-15926D01*
X14038Y-15239D02*
X14235D01*
X14137Y-15337D02*
Y-15141D01*
X14762Y-16809D02*
X14958D01*
X14860Y-16907D02*
Y-16710D01*
X13315Y-16809D02*
X13511D01*
X13413Y-16907D02*
Y-16710D01*
X14762Y-15239D02*
X14958D01*
X14860Y-15337D02*
Y-15141D01*
X13315Y-15239D02*
X13511D01*
X13413Y-15337D02*
Y-15141D01*
X-11322Y-16819D02*
X-11125D01*
X-11223Y-16917D02*
Y-16720D01*
X-10598Y-16034D02*
X-10402D01*
X-10500Y-16132D02*
Y-15935D01*
X-11322Y-16034D02*
X-11125D01*
X-11223Y-16132D02*
Y-15935D01*
X-12045Y-16034D02*
X-11849D01*
X-11947Y-16132D02*
Y-15935D01*
X-11322Y-15249D02*
X-11125D01*
X-11223Y-15347D02*
Y-15151D01*
X-10598Y-16819D02*
X-10402D01*
X-10500Y-16917D02*
Y-16720D01*
X-12045Y-16819D02*
X-11849D01*
X-11947Y-16917D02*
Y-16720D01*
X-10598Y-15249D02*
X-10402D01*
X-10500Y-15347D02*
Y-15151D01*
X-12045Y-15249D02*
X-11849D01*
X-11947Y-15347D02*
Y-15151D01*
X-19892Y-16799D02*
X-19695D01*
X-19793Y-16897D02*
Y-16701D01*
X-19168Y-16014D02*
X-18972D01*
X-19070Y-16112D02*
Y-15915D01*
X-19892Y-16014D02*
X-19695D01*
X-19793Y-16112D02*
Y-15915D01*
X-20615Y-16014D02*
X-20419D01*
X-20517Y-16112D02*
Y-15915D01*
X-19892Y-15229D02*
X-19695D01*
X-19793Y-15327D02*
Y-15130D01*
X-19168Y-16799D02*
X-18972D01*
X-19070Y-16897D02*
Y-16701D01*
X-20615Y-16799D02*
X-20419D01*
X-20517Y-16897D02*
Y-16701D01*
X-19168Y-15229D02*
X-18972D01*
X-19070Y-15327D02*
Y-15130D01*
X-20615Y-15229D02*
X-20419D01*
X-20517Y-15327D02*
Y-15130D01*
X-17086Y-16740D02*
X-16890D01*
X-16988Y-16839D02*
Y-16642D01*
X-16363Y-15955D02*
X-16166D01*
X-16265Y-16054D02*
Y-15857D01*
X-17086Y-15955D02*
X-16890D01*
X-16988Y-16054D02*
Y-15857D01*
X-17810Y-15955D02*
X-17613D01*
X-17712Y-16054D02*
Y-15857D01*
X-17086Y-15170D02*
X-16890D01*
X-16988Y-15269D02*
Y-15072D01*
X-16363Y-16740D02*
X-16166D01*
X-16265Y-16839D02*
Y-16642D01*
X-17810Y-16740D02*
X-17613D01*
X-17712Y-16839D02*
Y-16642D01*
X-16363Y-15170D02*
X-16166D01*
X-16265Y-15269D02*
Y-15072D01*
X-17810Y-15170D02*
X-17613D01*
X-17712Y-15269D02*
Y-15072D01*
X285Y-13399D02*
X481D01*
X383Y-13497D02*
Y-13300D01*
X1465Y-13359D02*
X1661D01*
X1563Y-13457D02*
Y-13261D01*
X905Y-13659D02*
X1101D01*
X1003Y-13757D02*
Y-13561D01*
X905Y-11819D02*
X1101D01*
X1003Y-11917D02*
Y-11720D01*
X1885Y-12939D02*
X2081D01*
X1983Y-13037D02*
Y-12840D01*
X1855Y-12379D02*
X2051D01*
X1953Y-12477D02*
Y-12280D01*
X-5605Y-5879D02*
X-5409D01*
X-5507Y-5977D02*
Y-5781D01*
X-3395Y-5009D02*
X-3199D01*
X-3297Y-5107D02*
Y-4911D01*
X-4905Y-5069D02*
X-4709D01*
X-4807Y-5167D02*
Y-4970D01*
X-2885Y-3939D02*
X-2689D01*
X-2787Y-4037D02*
Y-3841D01*
X-4095Y-3919D02*
X-3899D01*
X-3997Y-4017D02*
Y-3821D01*
X-5505Y-3989D02*
X-5309D01*
X-5407Y-4087D02*
Y-3891D01*
X-3635Y-2879D02*
X-3439D01*
X-3537Y-2977D02*
Y-2781D01*
X-4865Y-2919D02*
X-4669D01*
X-4767Y-3017D02*
Y-2821D01*
X-4218Y-2000D02*
X-4022D01*
X-4120Y-2098D02*
Y-1902D01*
X-3107Y-2046D02*
X-2911D01*
X-3009Y-2144D02*
Y-1947D01*
X-5407Y-2006D02*
X-5211D01*
X-5309Y-2104D02*
Y-1907D01*
X-10738Y5590D02*
X-10542D01*
X-10640Y5492D02*
Y5688D01*
X-17458Y5630D02*
X-17262D01*
X-17360Y5532D02*
Y5728D01*
X-26528Y20070D02*
X-26332D01*
X-26430Y19972D02*
Y20168D01*
X9852Y-370D02*
X10048D01*
X9950Y-468D02*
Y-272D01*
X5772Y3480D02*
X5968D01*
X5870Y3382D02*
Y3578D01*
X2532Y4077D02*
X2728D01*
X2630Y3979D02*
Y4176D01*
X-718Y5560D02*
X-522D01*
X-620Y5462D02*
Y5658D01*
X-1498Y5800D02*
X-1302D01*
X-1400Y5702D02*
Y5898D01*
X5132Y3680D02*
X5328D01*
X5230Y3582D02*
Y3778D01*
X2952Y3820D02*
X3148D01*
X3050Y3722D02*
Y3918D01*
X-268Y2360D02*
X-72D01*
X-170Y2262D02*
Y2458D01*
X5213Y7881D02*
X5410D01*
X5311Y7783D02*
Y7980D01*
X4712Y6450D02*
X4908D01*
X4810Y6352D02*
Y6548D01*
X-4538Y5510D02*
X-4342D01*
X-4440Y5412D02*
Y5608D01*
X-5618Y15120D02*
X-5422D01*
X-5520Y15022D02*
Y15218D01*
X-5158Y14730D02*
X-4962D01*
X-5060Y14632D02*
Y14828D01*
X-5268Y11580D02*
X-5072D01*
X-5170Y11482D02*
Y11678D01*
X-6968Y11600D02*
X-6772D01*
X-6870Y11502D02*
Y11698D01*
X-8449Y14270D02*
X-8253D01*
X-8351Y14172D02*
Y14368D01*
X-10968Y15790D02*
X-10772D01*
X-10870Y15692D02*
Y15888D01*
X-8698Y-270D02*
X-8502D01*
X-8600Y-368D02*
Y-172D01*
X-16478Y13650D02*
X-16282D01*
X-16380Y13552D02*
Y13748D01*
X-17028Y13650D02*
X-16832D01*
X-16930Y13552D02*
Y13748D01*
X-16478Y13010D02*
X-16282D01*
X-16380Y12912D02*
Y13108D01*
X-17038Y13020D02*
X-16842D01*
X-16940Y12922D02*
Y13118D01*
X4762Y21120D02*
X4958D01*
X4860Y21022D02*
Y21218D01*
X9102Y23310D02*
X9298D01*
X9200Y23212D02*
Y23408D01*
X6907Y24550D02*
X7104D01*
X7006Y24452D02*
Y24649D01*
X9752Y22070D02*
X9948D01*
X9850Y21972D02*
Y22168D01*
X11602Y25180D02*
X11798D01*
X11700Y25082D02*
Y25278D01*
X10352Y23920D02*
X10548D01*
X10450Y23822D02*
Y24018D01*
X11262Y26220D02*
X11458D01*
X11360Y26122D02*
Y26318D01*
X11172Y19200D02*
X11368D01*
X11270Y19102D02*
Y19298D01*
X5322Y26460D02*
X5518D01*
X5420Y26362D02*
Y26558D01*
X12272Y28060D02*
X12468D01*
X12370Y27962D02*
Y28158D01*
X4973Y24113D02*
X5170D01*
X5071Y24014D02*
Y24211D01*
X2262Y26670D02*
X2458D01*
X2360Y26572D02*
Y26768D01*
X1882Y27110D02*
X2078D01*
X1980Y27012D02*
Y27208D01*
X3072Y27840D02*
X3268D01*
X3170Y27742D02*
Y27938D01*
X5342Y28250D02*
X5538D01*
X5440Y28152D02*
Y28348D01*
X4692Y31390D02*
X4888D01*
X4790Y31292D02*
Y31488D01*
X2772Y31920D02*
X2968D01*
X2870Y31822D02*
Y32018D01*
X1072Y31900D02*
X1268D01*
X1170Y31802D02*
Y31998D01*
X-898Y31760D02*
X-702D01*
X-800Y31662D02*
Y31858D01*
X-2698Y31760D02*
X-2502D01*
X-2600Y31662D02*
Y31858D01*
X-1368Y32260D02*
X-1172D01*
X-1270Y32162D02*
Y32358D01*
X-5308Y27660D02*
X-5112D01*
X-5210Y27562D02*
Y27758D01*
X-4228Y19310D02*
X-4032D01*
X-4130Y19212D02*
Y19408D01*
X-4598Y18880D02*
X-4402D01*
X-4500Y18782D02*
Y18978D01*
X-238Y21390D02*
X-42D01*
X-140Y21292D02*
Y21488D01*
X-3628Y16900D02*
X-3432D01*
X-3530Y16802D02*
Y16998D01*
X-4731Y14277D02*
X-4534D01*
X-4633Y14179D02*
Y14376D01*
X3622Y18800D02*
X3818D01*
X3720Y18702D02*
Y18898D01*
X5422Y31230D02*
X5618D01*
X5520Y31132D02*
Y31328D01*
X-7718Y25990D02*
X-7522D01*
X-7620Y25892D02*
Y26088D01*
X-10958Y22210D02*
X-10762D01*
X-10860Y22112D02*
Y22308D01*
X-10958Y20570D02*
X-10762D01*
X-10860Y20472D02*
Y20668D01*
X-10958Y19200D02*
X-10762D01*
X-10860Y19102D02*
Y19298D01*
X-6058Y15510D02*
X-5862D01*
X-5960Y15412D02*
Y15608D01*
X5012Y28830D02*
X5208D01*
X5110Y28732D02*
Y28928D01*
X1762Y31740D02*
X1958D01*
X1860Y31642D02*
Y31838D01*
X-5348Y29230D02*
X-5152D01*
X-5250Y29132D02*
Y29328D01*
X-5688Y21720D02*
X-5492D01*
X-5590Y21622D02*
Y21818D01*
X-690Y7312D02*
X-493D01*
X-592Y7213D02*
Y7410D01*
X542Y6430D02*
X738D01*
X640Y6332D02*
Y6528D01*
X1799Y7323D02*
X1995D01*
X1897Y7225D02*
Y7421D01*
X2442Y7250D02*
X2638D01*
X2540Y7152D02*
Y7348D01*
X8852Y2680D02*
X9048D01*
X8950Y2582D02*
Y2778D01*
X6082Y4350D02*
X6278D01*
X6180Y4252D02*
Y4448D01*
X4392Y5160D02*
X4588D01*
X4490Y5062D02*
Y5258D01*
X6712Y4680D02*
X6908D01*
X6810Y4582D02*
Y4778D01*
X19262Y5780D02*
X19458D01*
X19360Y5682D02*
Y5878D01*
X18681Y6129D02*
X18878D01*
X18780Y6030D02*
Y6227D01*
X17342Y4260D02*
X17538D01*
X17440Y4162D02*
Y4358D01*
X3432Y5197D02*
X3628D01*
X3530Y5099D02*
Y5296D01*
X3882Y5170D02*
X4078D01*
X3980Y5072D02*
Y5268D01*
X1074Y5600D02*
X1271D01*
X1173Y5502D02*
Y5698D01*
X-2636Y6925D02*
X-2439D01*
X-2538Y6827D02*
Y7023D01*
X-2896Y7260D02*
X-2699D01*
X-2797Y7162D02*
Y7358D01*
X-2378Y7230D02*
X-2182D01*
X-2280Y7132D02*
Y7328D01*
X-3158Y6940D02*
X-2962D01*
X-3060Y6842D02*
Y7038D01*
X-68Y23390D02*
X128D01*
X30Y23292D02*
Y23488D01*
X-1145Y23763D02*
X-948D01*
X-1047Y23665D02*
Y23862D01*
X-728Y23365D02*
X-532D01*
X-630Y23267D02*
Y23463D01*
X852Y23770D02*
X1048D01*
X950Y23672D02*
Y23868D01*
X362Y23820D02*
X558D01*
X460Y23722D02*
Y23918D01*
X-358Y23790D02*
X-162D01*
X-260Y23692D02*
Y23888D01*
X1413Y5171D02*
X1610D01*
X1511Y5073D02*
Y5270D01*
X27026Y3330D02*
X27223D01*
X27124Y3232D02*
Y3428D01*
X24282Y4560D02*
X24478D01*
X24380Y4462D02*
Y4658D01*
X24842Y4680D02*
X25038D01*
X24940Y4582D02*
Y4778D01*
X16654Y3700D02*
X16851D01*
X16753Y3602D02*
Y3798D01*
X16912Y3270D02*
X17108D01*
X17010Y3172D02*
Y3368D01*
X24804Y5510D02*
X25001D01*
X24902Y5412D02*
Y5608D01*
X29268Y2756D02*
X29464D01*
X29366Y2657D02*
Y2854D01*
X22662Y16260D02*
X22858D01*
X22760Y16162D02*
Y16358D01*
X3258Y26270D02*
X3454D01*
X3356Y26172D02*
Y26368D01*
X8602Y24960D02*
X8798D01*
X8700Y24862D02*
Y25058D01*
X11282Y17670D02*
X11478D01*
X11380Y17572D02*
Y17768D01*
X15222Y16930D02*
X15418D01*
X15320Y16832D02*
Y17028D01*
X15202Y15290D02*
X15398D01*
X15300Y15192D02*
Y15388D01*
X16592Y18640D02*
X16788D01*
X16690Y18542D02*
Y18738D01*
X18982Y18380D02*
X19178D01*
X19080Y18282D02*
Y18478D01*
X18702Y18730D02*
X18898D01*
X18800Y18632D02*
Y18828D01*
X24302Y18640D02*
X24498D01*
X24400Y18542D02*
Y18738D01*
X24812Y18960D02*
X25008D01*
X24910Y18862D02*
Y19058D01*
X21712Y19050D02*
X21908D01*
X21810Y18952D02*
Y19148D01*
X20832Y19020D02*
X21028D01*
X20930Y18922D02*
Y19118D01*
X-5598Y23720D02*
X-5402D01*
X-5500Y23622D02*
Y23818D01*
X-3588Y23540D02*
X-3392D01*
X-3490Y23442D02*
Y23638D01*
X2452Y21845D02*
X2648D01*
X2550Y21747D02*
Y21943D01*
X1782Y21210D02*
X1978D01*
X1880Y21112D02*
Y21308D01*
X4072Y32810D02*
X4268D01*
X4170Y32712D02*
Y32908D01*
X4042Y31540D02*
X4238D01*
X4140Y31442D02*
Y31638D01*
X2762Y30250D02*
X2958D01*
X2860Y30152D02*
Y30348D01*
M02*
