M48
;Layer_Color=9474304
;FILE_FORMAT=2:4
INCH,LZ
;TYPE=PLATED
T1F00S00C0.0120
T2F00S00C0.0197
T4F00S00C0.0354
T5F00S00C0.0433
T6F00S00C0.1024
T7F00S00C0.1260
;TYPE=NON_PLATED
T8F00S00C0.0295
%
T01
X-000237Y-009197
X000157
Y-008803
X-000237
T02
X00871Y-022322
X01185Y-02277
X011882Y-01674
X011159
X010435
Y-015955
X011159
X011882
X013413Y-016024
X014137
X01486
Y-016809
X014137
X013413
X016213Y-016879
X016937
X01766
Y-016094
X016937
X016213
X019035Y-015955
X019759
X020482
Y-01674
X019759
X019035
X018888Y-020905
X019848Y-020351
X02044Y-019824
X020908Y-019281
X017588Y-021251
X006918Y-016601
X001793Y-018863
X001048Y-018551
X00094Y-019356
X001254Y-020052
X002219Y-020097
X-000942Y-019921
X-001882Y-019871
X-002312Y-018371
X-001082Y-018681
X-00873Y-02092
X-011022Y-023331
X-014742Y-023691
X-017692
X-019842Y-023071
X-019793Y-016799
X-01907
Y-016014
X-019793
X-020517
Y-016799
X-02175Y-01781
X-02196Y-01842
X-017712Y-01674
X-016988
X-016265
Y-015955
X-016988
X-017712
X-014848Y-015955
X-014125
X-013401
Y-01674
X-014125
X-014848
X-011947Y-016819
X-011223
X-0105
Y-016034
X-011223
X-011947
Y-015249
X-011223
X-0105
X-010992Y-014301
X-011282Y-013301
X-011442Y-011411
X-011532Y-009681
X-012649Y-009185
X-013402Y-008961
X-012692Y-007661
Y-006551
X-011582Y-006621
X-011672Y-007391
X-010786Y-00814
X-010422Y-006691
X-011438Y-000452
X-014682Y-002151
X-0177Y-00313
X-01905Y-00243
X-02008Y-00158
X-02238Y-00088
X-02248Y-00693
X-0213Y-00598
X-01984Y-00526
X-018142Y-005491
X-017402Y-004993
X-016572Y-004391
X-01891Y-00422
X-017702Y-006471
X-020282Y-007951
X-019952Y-008761
X-020042Y-009911
X-020028Y-01049
X-020109Y-011689
X-020833
Y-012474
X-020109
Y-013259
X-020833
X-020517Y-015229
X-019793
X-01907
X-017712Y-01517
X-016988
X-016265
X-014848Y-01517
X-014125
X-013401
X-014382Y-013259
X-015106
Y-012474
X-014382
Y-011689
X-015106
X-021442Y-010051
X-021102Y-008641
X-006175Y-008912
X-006222Y-008031
X-006129Y-010003
X-004607Y-010026
X-004403Y-010929
X-005126
Y-011714
X-004403
X-003679
Y-012499
X-004403
X-005126
X-00498Y-0152
X-006856Y-01575
X-007992Y-015636
X-0073Y-01436
X-00733Y-01048
X-00732Y-00679
X-005507Y-005879
X-004807Y-005069
X-003297Y-005009
X-002787Y-003939
X-003997Y-003919
X-005407Y-003989
X-004767Y-002919
X-003537Y-002879
X-003009Y-002046
X-00412Y-002
X-005309Y-002006
X-00631Y-00119
X-0086Y-00027
X-000352Y-001451
X-000532Y-002711
X000338Y-002681
X001568Y-002711
X002297Y-002708
X003846
X003578Y-001351
X001421Y-001354
X001328Y-005911
X002668
X-000222Y-005861
X-001282Y-005851
X-004335Y-007595
X-004085Y-008663
X-003358Y-009503
X-003679Y-010929
X-001992Y-010501
X-001772Y-012071
X001003Y-011819
X001953Y-012379
X001983Y-012939
X001563Y-013359
X001003Y-013659
X000383Y-013399
X005658Y-009881
X005578Y-008181
X005658Y-006451
X005888Y-003311
X0071Y-00249
X006697Y-00493
X007382Y-006934
X00794Y-009065
Y-011475
X007631Y-013479
X006907
X006184
Y-014264
X006907
X007631
Y-015049
X006907
X006184
X010435Y-01517
X011159
X011882
X013413Y-015239
X014137
X01486
X016213Y-015309
X016937
X01766
X019035Y-01517
X019759
X020482
X019618Y-011631
X0189Y-01073
X019118Y-009711
X019274Y-008694
X019298Y-007621
X019314Y-00654
X018938Y-005821
X018158Y-006081
X017838Y-008196
X018398Y-008971
X018217Y-010031
X017459Y-009333
X015838Y-009091
X016518Y-010441
X016634Y-011689
X015911
Y-012474
X016634
Y-013259
X015911
X014583Y-01136
X014558Y-010471
X013679Y-011224
X013188Y-009021
X013308Y-008291
X010401Y-007112
X010198Y-009674
X010137Y-011689
X010861
Y-012474
X010137
Y-013259
X010861
X010832Y-004296
X009868Y-002821
X012125Y-00285
X014155Y-002952
X013749Y-004322
X015828Y-001661
X017678Y-002621
X018848Y-000741
X021258Y-000771
X020192Y-001912
X016378Y-007211
X00995Y-00037
X022978Y-001301
X02225Y00066
X022378Y002059
X023058
X023598Y002799
X023638Y003689
X023628Y004329
X02335Y00482
X02438Y00456
X02494Y00468
X024902Y00551
X027124Y00333
X029366Y002756
X031917Y003739
X03207Y00171
X030824Y005378
X031332Y009438
X030473Y012795
X030434Y014278
X027389Y007681
X02415Y010062
X021598Y002049
X020878Y002069
X020238Y002379
X020038Y002969
X01875Y00383
X01744Y00426
X016753Y0037
X01701Y00327
X01878Y006129
X01936Y00578
X020468Y004799
X012663Y002074
X010953Y003578
X00895Y00268
X00853Y00424
X00681Y00468
X00618Y00435
X00698Y-0002
X00616Y01052
X00624Y01135
X00597Y01184
X008438Y013797
X009391Y012955
X007263Y014994
X0153Y01529
X014079Y011624
X00547Y01223
X00492Y01271
X0041Y01292
X00332Y01255
X0028Y01309
X00254Y01438
X00298Y01501
X00073Y01239
X-00177Y01294
X-00171Y01415
X-004633Y014277
X-00506Y01473
X-00552Y01512
X-007102Y013729
X-008351Y01427
X-009005Y01104
X-00687Y0116
X-00517Y01158
X-005297Y010678
X-004247Y010978
X-003197Y011028
X-003647Y011478
X-004347Y012228
X-00465Y0127
Y00995
X-004147Y009378
X-003497Y009478
Y008778
X-002797Y00726
X-00228Y00723
X-002538Y006925
X-00306Y00694
X-001099Y007169
X-000592Y007312
X-00062Y00556
X-0014Y0058
X00064Y00643
X001173Y0056
X001511Y005171
X00353Y005197
X00398Y00517
X00449Y00516
X00481Y00645
X005311Y007881
X00467Y00848
X005797Y010012
X00254Y00725
X001897Y007323
X00263Y004077
X00305Y00382
X00523Y00368
X005228Y003169
X00587Y00348
X00499Y00195
X00561Y00124
X00213Y00146
X00167Y00196
X00112Y00142
X00034Y00187
X-00017Y00236
X-00059Y00144
X-00152Y00296
X-00296Y00253
X-003042Y001209
X-004Y0035
X-00444Y00551
X-00641Y0042
X-00652Y00108
X-00946Y00292
X-001947Y009978
X-01145Y01065
X-0113Y00785
X-01064Y00559
X-01285Y00555
X-01736Y00563
X-01615Y0077
X-0162Y01055
X-01638Y01301
X-01694Y01302
X-01693Y01365
X-01638
X-01885Y0148
X-01974Y01494
X-02107Y01356
X-02105Y0101
X-0211Y00725
X-02186Y00559
X-02436Y00525
X-01074Y-00001
X-0108Y0141
X-012722Y013929
X-014Y0151
X-027548Y01414
X-02964Y01373
X-02904Y01224
X-02574Y01218
X-02566Y01001
X-02571Y0078
X-02798Y00739
X-02782Y00585
X-03119Y0103
X-03276Y00898
X-03065Y01625
X-02801Y01639
X-028051Y018887
X-02643Y02007
X-02549Y02434
X-022236Y024597
X-02147Y0221
X-02316Y02158
X-02489Y0197
X-02375Y01763
X-0221Y01899
X-01962Y01922
X-01958Y02048
X-01829Y02214
X-01503Y02203
X-01444Y02365
X-01321Y02246
X-01327Y0207
X-01309Y01909
X-01086Y0192
Y02057
Y02221
X-01107Y0238
X-01259Y02594
X-01195Y02889
X-01022Y02884
X-01009Y02728
X-011273Y030702
X-01837Y0302
X-01693Y02773
X-02032Y02755
X-02302Y02764
X-018716Y025771
X-01594Y02066
X-01601Y01915
X-01771Y0168
X-01788Y01552
X-021236Y017029
X-01087Y01579
X-00691Y01589
X-00596Y01551
X-005095Y016429
X-00426Y01744
X-00353Y0169
X-00179
X-00174Y01566
X0024Y01555
X00189Y01705
X00057Y01764
X00046Y01969
X-00147Y01966
X-00413Y01931
X-0045Y01888
X-00523Y02
X-006007Y019427
X-00756Y01918
X-00932Y01915
X-00942Y02061
X-00798
X-008265Y023131
X-0055Y02372
X-004653Y022687
X-0041Y02239
X-00349Y02354
X-001047Y023763
X-00026Y02379
X00003Y02339
X-00063Y023365
X00046Y02382
X00095Y02377
X000715Y026058
Y02653
Y027003
Y027475
X000242
X-00023
Y027003
X000242
Y02653
Y026058
X-00023
Y02653
X-000702
Y027003
Y027475
Y026058
X00236Y02667
X00198Y02711
X00317Y02784
X003356Y02627
X003125Y025705
X005403Y025578
X00542Y02646
X004918Y027239
X00544Y02825
X00511Y02883
X005856Y029727
X00286Y03025
X005071Y024113
X004503Y022928
X00486Y02112
X00255Y021845
X00188Y02121
X-00014Y02139
X-00559Y02172
X-00734Y01733
X-00762Y02599
X-00857Y02833
X-00965Y03003
X-00525Y02923
X-00521Y02766
X00372Y0188
X00454Y0179
X00531Y01708
X006265Y016125
X009353Y017278
X010403
X010301Y018419
X011385Y018396
X01138Y01767
X01127Y0192
X011453Y020828
X011488Y022299
X011453Y023378
X010381Y023075
X01045Y02392
X010003Y024928
X0087Y02496
X009203Y025678
X009008Y026489
X00807Y02648
X00747
X007553Y025728
X007006Y02455
X00663Y02391
X006653Y022928
X007903Y022578
X007853Y023878
X0092Y02331
X00985Y02207
X010253Y021528
X010119Y020404
X012503Y020128
X014114Y020073
X014645Y019309
X0148Y02085
X0148Y0216
X013998Y021627
X0148Y02344
X01643Y02434
X01846Y02452
X02029Y02443
X01919Y02767
X01237Y02806
X011948Y028559
X011938Y029169
X011834Y029584
X011398Y029979
X011768Y027299
X011238Y026729
X01136Y02622
X0117Y02518
X006648Y026549
X006098Y027239
X006368Y029869
X007053Y021178
X007853Y019928
X008453Y019278
X012503Y018378
X013303Y017628
X014403Y016678
X01532Y01693
X01669Y01864
X016665Y020215
X017728Y020259
X019398Y020039
X020748Y020019
X02093Y01902
X021278Y018239
X021158Y016499
X020108Y016959
X01908Y01838
X0188Y01873
X018258Y018549
X018228Y017779
X01546Y02024
X010753Y015978
X02276Y01626
X02583Y01596
X02491Y01896
X0244Y01864
X02181Y01905
X021921Y020215
X02259Y02072
X02267Y02168
X02259Y02283
X02181Y02411
X02208Y02646
X023954Y024739
X0254Y02181
X026843Y019353
X02786Y01791
X01939Y03309
X0165Y03266
X0131Y03262
X010258Y031549
X009088Y031369
X007958Y031379
X00681Y03135
X00658Y03547
X009Y03477
X00417Y03281
X00414Y03154
X00479Y03139
X00552Y03123
X00287Y03192
X00186Y03174
X00117Y0319
X-0008Y03176
X-00127Y03226
X-0026Y03176
X-004302Y031059
X-00495Y03655
X-00248Y03661
X-0083Y03617
X00362Y03622
X-010355Y031781
X-012823Y033565
X-013572Y033989
X-01475Y03451
X-0164Y03402
X-01567Y03132
X-01877Y03262
T04
X033868Y00271
Y00371
Y00471
Y00571
Y00671
Y00771
X02129Y01533
X02029
X01929
X01829
X01729
X01629
X01648Y00053
X01548
X01448
X01348
X0045Y0
X0035
X0025
X0015
X0005
X-0005
X-0015
X-0025
X-0035
X-0045
X-01455Y00082
X-01555
X-01655
X-01755
X-033848Y00271
Y00371
Y00471
Y00571
Y00671
Y00771
X-032788Y016362
X-032146Y017128
X-031503Y017894
X-03086Y01866
X-030217Y019426
X-029574Y020192
X-025974Y02798
X-025108Y02848
X-024242Y02898
X-023376Y02948
X-02251Y02998
X-021644Y03048
X-01582Y02575
Y02475
Y02375
Y02275
X-01618Y01669
X-01518
X-01418
X-01318
X032286Y016858
X031643Y017624
X031Y01839
X030357Y019156
X029714Y019922
X032928Y016092
X026194Y02777
X025328Y02827
X024462Y02877
X023596Y02927
X02273Y02977
X021864Y03027
X015539Y035965
X014554Y036139
X01357Y036313
X012585Y036486
X0116Y03666
X010615Y036834
X00251Y039058
X00151
X00051
X-00049
X-00149
X-00249
X-01034Y036947
X-011325Y036774
X-01231Y0366
X-013295Y036426
X-01428Y036253
X-015264Y036079
T05
X00656Y-021453
X00756
X010101
X011086
X01207
X013054
X014039
X015023
X00556
X00456
X-00458
X-00558
X-00658
X-00758
X-010072
X-011056
X-01204
X-013024
X-014009
X-014993
T06
X-001407Y-017088
X001427
T07
X02199Y-02219
X-0219
Y-00395
X02199
X03326Y01163
X-03324
X-028234Y023699
X028254
X00697Y03836
X-00695
T08
X02846Y001402
Y004551
X02318Y016985
Y020135
M30
