M48
;Layer_Color=9474304
;FILE_FORMAT=2:4
INCH,LZ
;TYPE=PLATED
T3F00S00C0.0236
;TYPE=NON_PLATED
%
G90
G05
T03
G00X-002647Y-019253
M15
G01Y-019647
M16
G00X002667Y-019253
M15
G01Y-019647
M16
G00X027543Y001926
M15
G01Y002162
M16
G00X029377Y001926
M15
G01Y002162
M16
G00X029377Y003792
M15
G01Y004028
M16
G00X027543Y003792
M15
G01Y004028
M16
G00X024097Y017509
M15
G01Y017745
M16
G00X022263Y017509
M15
G01Y017745
M16
G00X022263Y019375
M15
G01Y019611
M16
G00X024097Y019375
M15
G01Y019611
M16
M17
M30
